<svg width="20" height="20" viewBox="0 0 20 20" fill="none" xmlns="http://www.w3.org/2000/svg">
<path d="M16.6112 5.71606C16.6838 5.63906 16.7715 5.57772 16.8687 5.53579C16.9659 5.49386 17.0707 5.47224 17.1766 5.47224C17.2825 5.47224 17.3872 5.49386 17.4845 5.53579C17.5817 5.57772 17.6693 5.63906 17.742 5.71606C18.0545 6.04106 18.0545 6.56773 17.742 6.89273L8.13367 16.9002C7.77043 17.2852 7.33238 17.5919 6.84639 17.8015C6.36039 18.0111 5.8367 18.1192 5.30742 18.1192C4.77815 18.1192 4.25445 18.0111 3.76846 17.8015C3.28246 17.5919 2.84441 17.2852 2.48117 16.9002C0.920339 15.2752 0.920339 12.6394 2.48117 11.0136L10.9587 2.18356C11.1766 1.95258 11.4395 1.76857 11.7311 1.6428C12.0227 1.51702 12.3369 1.45215 12.6545 1.45215C12.9721 1.45215 13.2863 1.51702 13.5779 1.6428C13.8695 1.76857 14.1324 1.95258 14.3503 2.18356C15.287 3.15856 15.287 4.74023 14.3503 5.71606L7.002 13.3669C6.92934 13.4438 6.84175 13.505 6.7446 13.5468C6.64745 13.5887 6.54278 13.6103 6.437 13.6103C6.33123 13.6103 6.22656 13.5887 6.12941 13.5468C6.03226 13.505 5.94467 13.4438 5.872 13.3669C5.72174 13.2079 5.63803 12.9974 5.63803 12.7786C5.63803 12.5598 5.72174 12.3493 5.872 12.1902L13.2203 4.53773C13.3708 4.37865 13.4547 4.16797 13.4547 3.94898C13.4547 3.72998 13.3708 3.51931 13.2203 3.36023C13.1477 3.28323 13.06 3.22188 12.9628 3.17996C12.8656 3.13803 12.7608 3.1164 12.6549 3.1164C12.549 3.1164 12.4443 3.13803 12.347 3.17996C12.2498 3.22188 12.1622 3.28323 12.0895 3.36023L3.61034 12.1919C2.67451 13.1669 2.67451 14.7486 3.61034 15.7236C3.8283 15.9545 4.09114 16.1386 4.38275 16.2643C4.67436 16.3901 4.98859 16.455 5.30617 16.455C5.62375 16.455 5.93798 16.3901 6.22959 16.2643C6.5212 16.1386 6.78405 15.9545 7.002 15.7236L16.6112 5.71606Z" fill="#6B7177"/>
</svg>
