<svg width="11" height="17" viewBox="0 0 11 17" fill="none" xmlns="http://www.w3.org/2000/svg">
<path d="M9.62671 15.7914C9.89832 15.5182 10.0508 15.1485 10.0508 14.7633C10.0508 14.378 9.89832 14.0084 9.62671 13.7352L4.46421 8.49973L9.62671 3.33723C9.89832 3.064 10.0508 2.69438 10.0508 2.30911C10.0508 1.92384 9.89832 1.55422 9.62671 1.28098C9.49114 1.14429 9.32984 1.0358 9.15213 0.961765C8.97442 0.887727 8.78381 0.849609 8.59129 0.849609C8.39877 0.849609 8.20816 0.887727 8.03045 0.961765C7.85274 1.0358 7.69145 1.14429 7.55588 1.28098L1.37254 7.46432C1.23586 7.59989 1.12736 7.76118 1.05333 7.93889C0.979288 8.1166 0.94117 8.30722 0.94117 8.49973C0.94117 8.69225 0.979288 8.88286 1.05333 9.06057C1.12736 9.23829 1.23586 9.39958 1.37254 9.53515L7.55588 15.7914C7.69145 15.9281 7.85274 16.0366 8.03045 16.1106C8.20816 16.1847 8.39877 16.2228 8.59129 16.2228C8.78381 16.2228 8.97442 16.1847 9.15213 16.1106C9.32984 16.0366 9.49114 15.9281 9.62671 15.7914Z" fill="#6B7177"/>
</svg>
