<svg width="12" height="13" viewBox="0 0 12 13" fill="none" xmlns="http://www.w3.org/2000/svg">
<path fill-rule="evenodd" clip-rule="evenodd" d="M2.4375 3.125C1.91973 3.125 1.5 3.54473 1.5 4.0625V8.9375C1.5 9.45527 1.91973 9.875 2.4375 9.875H9.5625C10.0803 9.875 10.5 9.45527 10.5 8.9375V4.0625C10.5 3.54473 10.0803 3.125 9.5625 3.125H2.4375ZM0.75 4.0625C0.75 3.13052 1.50552 2.375 2.4375 2.375H9.5625C10.4945 2.375 11.25 3.13052 11.25 4.0625V8.9375C11.25 9.86948 10.4945 10.625 9.5625 10.625H2.4375C1.50552 10.625 0.75 9.86948 0.75 8.9375V4.0625Z" fill="#6B7177"/>
<path fill-rule="evenodd" clip-rule="evenodd" d="M10.875 5.70312H1.125V4.29688H10.875V5.70312Z" fill="#6B7177"/>
<path fill-rule="evenodd" clip-rule="evenodd" d="M2.29688 7.53125C2.29688 7.14292 2.61167 6.82812 3 6.82812H4.125C4.51333 6.82812 4.82812 7.14292 4.82812 7.53125V8C4.82812 8.38833 4.51333 8.70312 4.125 8.70312H3C2.61167 8.70312 2.29688 8.38833 2.29688 8V7.53125Z" fill="#6B7177"/>
</svg>
