<svg width="27" height="29" viewBox="0 0 27 29" fill="none" xmlns="http://www.w3.org/2000/svg">
<path d="M0 13.7715C0 7.5982 0 4.51153 1.83835 2.53076C1.95474 2.40535 2.07576 2.28433 2.20117 2.16794C4.18194 0.32959 7.26861 0.32959 13.442 0.32959C19.6153 0.32959 22.702 0.32959 24.6828 2.16794C24.8082 2.28433 24.9292 2.40535 25.0456 2.53076C26.8839 4.51153 26.8839 7.5982 26.8839 13.7715V15.2288C26.8839 21.4021 26.8839 24.4888 25.0456 26.4696C24.9292 26.595 24.8082 26.716 24.6828 26.8324C22.702 28.6708 19.6153 28.6708 13.442 28.6708C7.26861 28.6708 4.18194 28.6708 2.20117 26.8324C2.07576 26.716 1.95474 26.595 1.83835 26.4696C0 24.4888 0 21.4021 0 15.2288V13.7715Z" fill="#EEF8F2"/>
<path d="M11.2565 13.7715H9.79926V15.2287H11.2565V13.7715ZM14.171 13.7715H12.7138V15.2287H14.171V13.7715ZM17.0855 13.7715H15.6283V15.2287H17.0855V13.7715ZM18.5428 8.67112H17.8141V7.21387H16.3569V8.67112H10.5279V7.21387H9.07064V8.67112H8.34201C7.53324 8.67112 6.89205 9.32688 6.89205 10.1284L6.88477 20.3291C6.88477 21.1306 7.53324 21.7863 8.34201 21.7863H18.5428C19.3442 21.7863 20 21.1306 20 20.3291V10.1284C20 9.32688 19.3442 8.67112 18.5428 8.67112ZM18.5428 20.3291H8.34201V12.3142H18.5428V20.3291Z" fill="#5BBB7B"/>
</svg>
