<svg width="20" height="20" viewBox="0 0 20 20" fill="none" xmlns="http://www.w3.org/2000/svg">
<g clip-path="url(#clip0_166_4179)">
<path d="M10 18.75C7.67936 18.75 5.45376 17.8281 3.81282 16.1872C2.17187 14.5462 1.25 12.3206 1.25 10C1.25 7.67936 2.17187 5.45376 3.81282 3.81282C5.45376 2.17187 7.67936 1.25 10 1.25C12.3206 1.25 14.5462 2.17187 16.1872 3.81282C17.8281 5.45376 18.75 7.67936 18.75 10C18.75 12.3206 17.8281 14.5462 16.1872 16.1872C14.5462 17.8281 12.3206 18.75 10 18.75ZM10 20C12.6522 20 15.1957 18.9464 17.0711 17.0711C18.9464 15.1957 20 12.6522 20 10C20 7.34784 18.9464 4.8043 17.0711 2.92893C15.1957 1.05357 12.6522 0 10 0C7.34784 0 4.8043 1.05357 2.92893 2.92893C1.05357 4.8043 0 7.34784 0 10C0 12.6522 1.05357 15.1957 2.92893 17.0711C4.8043 18.9464 7.34784 20 10 20Z" fill="#6B7177"/>
<path d="M5.35643 11.9588C5.49998 11.8759 5.67057 11.8534 5.83068 11.8963C5.99078 11.9392 6.1273 12.044 6.21018 12.1875C6.59426 12.8528 7.14673 13.4051 7.81203 13.7891C8.47733 14.1731 9.23201 14.3752 10.0002 14.375C10.7683 14.3752 11.523 14.1731 12.1883 13.7891C12.8536 13.4051 13.4061 12.8528 13.7902 12.1875C13.8309 12.1158 13.8854 12.053 13.9506 12.0025C14.0157 11.952 14.0902 11.9148 14.1697 11.8932C14.2493 11.8716 14.3323 11.866 14.4141 11.8766C14.4958 11.8872 14.5746 11.9139 14.646 11.9551C14.7174 11.9964 14.7799 12.0513 14.83 12.1168C14.88 12.1822 14.9167 12.257 14.9377 12.3367C14.9588 12.4163 14.9639 12.4994 14.9527 12.5811C14.9416 12.6627 14.9144 12.7414 14.8727 12.8125C14.3789 13.6678 13.6686 14.378 12.8133 14.8717C11.958 15.3654 10.9878 15.6252 10.0002 15.625C9.0126 15.6252 8.04237 15.3654 7.18705 14.8717C6.33173 14.378 5.62147 13.6678 5.12768 12.8125C5.0448 12.669 5.02234 12.4984 5.06524 12.3383C5.10814 12.1781 5.21288 12.0416 5.35643 11.9588ZM8.75018 8.125C8.75018 9.16 8.19018 10 7.50018 10C6.81018 10 6.25018 9.16 6.25018 8.125C6.25018 7.09 6.81018 6.25 7.50018 6.25C8.19018 6.25 8.75018 7.09 8.75018 8.125ZM13.7502 8.125C13.7502 9.16 13.1902 10 12.5002 10C11.8102 10 11.2502 9.16 11.2502 8.125C11.2502 7.09 11.8102 6.25 12.5002 6.25C13.1902 6.25 13.7502 7.09 13.7502 8.125Z" fill="#6B7177"/>
</g>
<defs>
<clipPath id="clip0_166_4179">
<rect width="20" height="20" fill="white"/>
</clipPath>
</defs>
</svg>
