<svg width="28" height="29" viewBox="0 0 28 29" fill="none" xmlns="http://www.w3.org/2000/svg">
<path d="M0 14.2687C0 7.77806 0 4.53275 2.01638 2.51638C4.03275 0.5 7.27806 0.5 13.7687 0.5H14.2313C20.7219 0.5 23.9672 0.5 25.9836 2.51638C28 4.53275 28 7.77806 28 14.2687V14.7313C28 21.2219 28 24.4672 25.9836 26.4836C23.9672 28.5 20.7219 28.5 14.2313 28.5H13.7687C7.27806 28.5 4.03275 28.5 2.01638 26.4836C0 24.4672 0 21.2219 0 14.7313V14.2687Z" fill="#EEF8F2"/>
<path d="M20.8461 9.79316H18.2788V8.08164C18.2788 7.13175 17.5172 6.37012 16.5673 6.37012H11.4327C10.4828 6.37012 9.72119 7.13175 9.72119 8.08164V9.79316H7.15391C6.20401 9.79316 5.44238 10.5548 5.44238 11.5047V20.9181C5.44238 21.868 6.20401 22.6296 7.15391 22.6296H20.8461C21.796 22.6296 22.5576 21.868 22.5576 20.9181V11.5047C22.5576 10.5548 21.796 9.79316 20.8461 9.79316ZM11.4327 8.08164H16.5673V9.79316H11.4327V8.08164ZM20.8461 20.9181H7.15391V19.2065H20.8461V20.9181ZM20.8461 16.6393H7.15391V11.5047H9.72119V13.2162H11.4327V11.5047H16.5673V13.2162H18.2788V11.5047H20.8461V16.6393Z" fill="#5BBB7B"/>
</svg>
