<svg width="18" height="14" viewBox="0 0 18 14" fill="none" xmlns="http://www.w3.org/2000/svg">
<path d="M17.267 6.66634C15.5836 2.75801 12.417 0.333008 9.0003 0.333008C5.58363 0.333008 2.41697 2.75801 0.733633 6.66634C0.687747 6.77148 0.664062 6.88496 0.664062 6.99967C0.664063 7.11439 0.687747 7.22787 0.733633 7.33301C2.41697 11.2413 5.58363 13.6663 9.0003 13.6663C12.417 13.6663 15.5836 11.2413 17.267 7.33301C17.3129 7.22787 17.3365 7.11439 17.3365 6.99967C17.3365 6.88496 17.3129 6.77148 17.267 6.66634ZM9.0003 11.9997C6.3503 11.9997 3.85863 10.0913 2.41697 6.99967C3.85863 3.90801 6.3503 1.99967 9.0003 1.99967C11.6503 1.99967 14.142 3.90801 15.5836 6.99967C14.142 10.0913 11.6503 11.9997 9.0003 11.9997ZM9.0003 3.66634C8.34103 3.66634 7.69656 3.86184 7.1484 4.22811C6.60024 4.59438 6.17299 5.11498 5.9207 5.72406C5.66841 6.33315 5.6024 7.00337 5.73102 7.64998C5.85963 8.29658 6.1771 8.89052 6.64328 9.3567C7.10945 9.82287 7.7034 10.1403 8.35 10.269C8.9966 10.3976 9.66682 10.3316 10.2759 10.0793C10.885 9.82698 11.4056 9.39974 11.7719 8.85157C12.1381 8.30341 12.3336 7.65895 12.3336 6.99967C12.3336 6.11562 11.9824 5.26777 11.3573 4.64265C10.7322 4.01753 9.88435 3.66634 9.0003 3.66634ZM9.0003 8.66634C8.67066 8.66634 8.34843 8.56859 8.07435 8.38546C7.80027 8.20232 7.58665 7.94202 7.4605 7.63748C7.33435 7.33294 7.30135 6.99783 7.36566 6.67452C7.42997 6.35122 7.5887 6.05425 7.82179 5.82116C8.05488 5.58808 8.35185 5.42934 8.67515 5.36503C8.99845 5.30072 9.33356 5.33373 9.63811 5.45988C9.94265 5.58602 10.2029 5.79964 10.3861 6.07372C10.5692 6.34781 10.667 6.67004 10.667 6.99967C10.667 7.4417 10.4914 7.86562 10.1788 8.17819C9.86625 8.49075 9.44233 8.66634 9.0003 8.66634Z" fill="#6B7177"/>
</svg>
