<svg width="20" height="21" viewBox="0 0 20 21" fill="none" xmlns="http://www.w3.org/2000/svg">
<path d="M0 10.5C0 7.84784 1.05357 5.3043 2.92893 3.42893C4.8043 1.55357 7.34784 0.5 10 0.5C12.6522 0.5 15.1957 1.55357 17.0711 3.42893C18.9464 5.3043 20 7.84784 20 10.5C20 13.1522 18.9464 15.6957 17.0711 17.5711C15.1957 19.4464 12.6522 20.5 10 20.5C7.34784 20.5 4.8043 19.4464 2.92893 17.5711C1.05357 15.6957 0 13.1522 0 10.5ZM9.375 1.84625C8.5375 2.10125 7.70625 2.87125 7.01625 4.165C6.83708 4.50083 6.6725 4.86417 6.5225 5.255C7.40375 5.45125 8.3625 5.57625 9.375 5.61375V1.84625ZM5.31125 4.92375C5.48958 4.44292 5.69 3.99375 5.9125 3.57625C6.13005 3.1684 6.37959 2.77843 6.65875 2.41C5.59443 2.85071 4.6276 3.49724 3.81375 4.3125C4.26708 4.54333 4.76625 4.74625 5.31125 4.92375ZM4.38625 9.875C4.43125 8.5375 4.62125 7.26625 4.93125 6.115C4.2543 5.89947 3.5993 5.62031 2.975 5.28125C1.97918 6.61781 1.38825 8.21228 1.2725 9.875H4.38625ZM6.13625 6.44875C5.8411 7.56836 5.67337 8.71773 5.63625 9.875H9.375V6.86375C8.2375 6.82625 7.14625 6.6825 6.13625 6.44875ZM10.625 6.8625V9.875H14.3625C14.3258 8.71778 14.1585 7.56841 13.8637 6.44875C12.8537 6.6825 11.7625 6.82375 10.625 6.8625ZM5.6375 11.125C5.68125 12.3588 5.8575 13.5175 6.13625 14.5513C7.20006 14.3097 8.28464 14.1712 9.375 14.1375V11.125H5.6375ZM10.625 11.125V14.1363C11.7625 14.1738 12.8537 14.3175 13.8637 14.5513C14.1425 13.5175 14.3188 12.3588 14.3638 11.125H10.625ZM6.5225 15.745C6.6725 16.1358 6.83708 16.4992 7.01625 16.835C7.70625 18.1287 8.53875 18.8975 9.375 19.1538V15.3875C8.3625 15.425 7.40375 15.5487 6.5225 15.745ZM6.66 18.59C6.3804 18.2216 6.13045 17.8316 5.9125 17.4237C5.68276 16.9878 5.48191 16.5373 5.31125 16.075C4.79707 16.2403 4.29642 16.4451 3.81375 16.6875C4.6276 17.5028 5.59568 18.1493 6.66 18.59ZM4.93125 14.885C4.60715 13.6564 4.42388 12.395 4.385 11.125H1.2725C1.38825 12.7877 1.97918 14.3822 2.975 15.7188C3.5625 15.3963 4.21875 15.1163 4.93125 14.885ZM13.3413 18.59C14.405 18.1495 15.3714 17.5034 16.185 16.6888C15.7027 16.4464 15.2025 16.2417 14.6888 16.0763C14.518 16.5381 14.3172 16.9882 14.0875 17.4237C13.8699 17.8316 13.6204 18.2216 13.3413 18.59ZM10.625 15.3863V19.1538C11.4625 18.8988 12.2937 18.1287 12.9838 16.835C13.1637 16.4992 13.3283 16.1358 13.4775 15.745C12.5396 15.5391 11.5847 15.4182 10.625 15.3863ZM15.0688 14.885C15.7812 15.1163 16.4375 15.3963 17.025 15.7188C18.0208 14.3822 18.6118 12.7877 18.7275 11.125H15.615C15.5761 12.395 15.3929 13.6564 15.0688 14.885ZM18.7275 9.875C18.6118 8.21228 18.0208 6.61781 17.025 5.28125C16.4375 5.60375 15.7812 5.88375 15.0688 6.115C15.3788 7.265 15.5687 8.5375 15.615 9.875H18.7275ZM14.0875 3.57625C14.3092 3.99458 14.51 4.44375 14.69 4.92375C15.2033 4.75828 15.7031 4.55351 16.185 4.31125C15.3713 3.49702 14.4049 2.85136 13.3413 2.41125C13.6138 2.765 13.8638 3.1575 14.0875 3.57625ZM13.4775 5.255C13.3348 4.88214 13.1699 4.51815 12.9838 4.165C12.2937 2.87125 11.4625 2.1025 10.625 1.84625V5.6125C11.6375 5.575 12.5962 5.45125 13.4775 5.255Z" fill="#323232"/>
</svg>
