<svg width="20" height="20" viewBox="0 0 20 20" fill="none" xmlns="http://www.w3.org/2000/svg">
<rect x="0.5" y="0.5" width="19" height="19" rx="9.5" stroke="white"/>
<path d="M9.99369 14.2062L9.99475 14.207C10.0391 14.2372 10.0914 14.2535 10.1451 14.2536C10.1987 14.2535 10.251 14.2373 10.2954 14.207L10.2962 14.2065C12.1461 12.9507 12.9265 12.1044 13.3444 11.5953C14.2423 10.5006 14.6494 9.41021 14.6378 8.245L9.99369 14.2062ZM9.99369 14.2062C8.14384 12.9505 7.36338 12.1043 6.94553 11.5951L9.99369 14.2062ZM9.65706 6.95452L9.65706 6.95452C9.27838 6.51408 8.67174 6.03613 7.81848 6.03613C6.64872 6.03613 5.6646 7.01667 5.6521 8.24467L9.65706 6.95452ZM9.65706 6.95452L9.6587 6.95642M9.65706 6.95452L9.6587 6.95642M9.6587 6.95642C9.71915 7.02602 9.79385 7.08184 9.87773 7.12009C9.96162 7.15834 10.0527 7.17813 10.1449 7.17813C10.2371 7.17813 10.3283 7.15834 10.4121 7.12009L10.4121 7.12009M9.6587 6.95642L10.4121 7.12009M10.4121 7.12009C10.496 7.08184 10.5707 7.02602 10.6312 6.95641L10.633 6.95434M10.4121 7.12009L10.633 6.95434M10.633 6.95434C11.0114 6.51374 11.618 6.03613 12.4714 6.03613M10.633 6.95434L12.4714 6.03613M12.4714 6.03613C13.6411 6.03613 14.6253 7.01665 14.6378 8.24491L12.4714 6.03613ZM6.94549 11.5951C6.04716 10.5002 5.64051 9.40982 5.6521 8.24476L6.94549 11.5951Z" stroke="white"/>
</svg>
