<svg width="20" height="21" viewBox="0 0 20 21" fill="none" xmlns="http://www.w3.org/2000/svg">
<rect x="0.5" y="1" width="19" height="19" rx="9.5" stroke="white"/>
<path d="M12.4712 6.53613C13.5678 6.53613 14.5018 7.39784 14.6245 8.51758L14.6382 8.74512C14.649 9.83751 14.2919 10.8645 13.5073 11.8906L13.3442 12.0957C12.9786 12.5412 12.3352 13.2448 10.9409 14.2549L10.2964 14.7061L10.2954 14.707C10.2511 14.7373 10.1987 14.7528 10.145 14.7529C10.1183 14.7528 10.0921 14.749 10.0669 14.7412L9.99463 14.707L9.99365 14.7061L9.34912 14.2539C8.15383 13.3879 7.51026 12.7477 7.12061 12.3018L6.9458 12.0947C6.10354 11.0682 5.69311 10.0458 5.65479 8.96191L5.65186 8.74512C5.66431 7.51708 6.64907 6.53613 7.81885 6.53613C8.56544 6.53625 9.12299 6.90249 9.50439 7.28906L9.65674 7.4541L9.65869 7.45605C9.68886 7.4908 9.72264 7.5224 9.75928 7.5498L9.87744 7.62012C9.96133 7.65837 10.0528 7.67773 10.145 7.67773C10.1911 7.67773 10.2369 7.67283 10.2817 7.66309L10.4126 7.62012C10.4545 7.60097 10.4941 7.57726 10.5308 7.5498L10.6313 7.45605L10.6333 7.4541C11.0117 7.01362 11.6181 6.53621 12.4712 6.53613Z" stroke="white"/>
</svg>
