<svg width="12" height="14" viewBox="0 0 12 14" fill="none" xmlns="http://www.w3.org/2000/svg">
<path fill-rule="evenodd" clip-rule="evenodd" d="M2.5 1C2.23478 1 1.98043 1.10536 1.79289 1.29289C1.60536 1.48043 1.5 1.73478 1.5 2V12C1.5 12.2652 1.60536 12.5196 1.79289 12.7071C1.98043 12.8946 2.23478 13 2.5 13H9.5C9.76522 13 10.0196 12.8946 10.2071 12.7071C10.3946 12.5196 10.5 12.2652 10.5 12V5.91414C10.5 5.91411 10.5 5.91416 10.5 5.91414C10.5 5.78162 10.4473 5.65447 10.3536 5.56074C10.3536 5.56073 10.3536 5.56075 10.3536 5.56074L5.9393 1.14641C5.84557 1.0527 5.71847 1.00004 5.58594 1C5.58591 1 5.58596 1 5.58594 1H2.5ZM1.08579 0.585786C1.46086 0.210714 1.96957 0 2.5 0H5.58601C5.9837 6.00815e-05 6.36509 0.158044 6.64633 0.439219L11.0608 4.85367C11.342 5.13491 11.4999 5.5163 11.5 5.91399V12C11.5 12.5304 11.2893 13.0391 10.9142 13.4142C10.5391 13.7893 10.0304 14 9.5 14H2.5C1.96957 14 1.46086 13.7893 1.08579 13.4142C0.710714 13.0391 0.5 12.5304 0.5 12V2C0.5 1.46957 0.710714 0.960859 1.08579 0.585786Z" fill="#6B7177"/>
<path fill-rule="evenodd" clip-rule="evenodd" d="M6 0.25C6.27614 0.25 6.5 0.473858 6.5 0.75V4.5C6.5 4.63261 6.55268 4.75978 6.64645 4.85355C6.74022 4.94732 6.86739 5 7 5H10.75C11.0261 5 11.25 5.22386 11.25 5.5C11.25 5.77614 11.0261 6 10.75 6H7C6.60218 6 6.22064 5.84196 5.93934 5.56066C5.65804 5.27936 5.5 4.89783 5.5 4.5V0.75C5.5 0.473858 5.72386 0.25 6 0.25Z" fill="#6B7177"/>
</svg>
