<svg width="19" height="19" viewBox="0 0 19 19" fill="none" xmlns="http://www.w3.org/2000/svg">
<path fill-rule="evenodd" clip-rule="evenodd" d="M2.12906 6.28531C2.35176 6.06261 2.65381 5.9375 2.96875 5.9375H16.0312C16.3462 5.9375 16.6482 6.06261 16.8709 6.28531C17.0936 6.50801 17.2188 6.81006 17.2188 7.125V15.187C17.2188 16.6544 15.9795 17.8125 14.5469 17.8125H4.45312C3.00302 17.8125 1.78125 16.5907 1.78125 15.1406V7.125C1.78125 6.81006 1.90636 6.50801 2.12906 6.28531ZM16.0312 7.125H2.96875L2.96875 15.1406C2.96875 15.9349 3.65886 16.625 4.45312 16.625H14.5469C15.3587 16.625 16.0312 15.964 16.0312 15.187V7.125Z" fill="#5BBB7B"/>
<path fill-rule="evenodd" clip-rule="evenodd" d="M9.5 2.375C8.71264 2.375 7.95753 2.68778 7.40078 3.24453C6.84403 3.80128 6.53125 4.55639 6.53125 5.34375V6.53125C6.53125 6.85917 6.26542 7.125 5.9375 7.125C5.60958 7.125 5.34375 6.85917 5.34375 6.53125V5.34375C5.34375 4.24144 5.78164 3.18429 6.56109 2.40484C7.34054 1.62539 8.39769 1.1875 9.5 1.1875C10.6023 1.1875 11.6595 1.62539 12.4389 2.40484C13.2184 3.18429 13.6562 4.24144 13.6562 5.34375V6.53125C13.6562 6.85917 13.3904 7.125 13.0625 7.125C12.7346 7.125 12.4688 6.85917 12.4688 6.53125V5.34375C12.4688 4.55639 12.156 3.80128 11.5992 3.24453C11.0425 2.68778 10.2874 2.375 9.5 2.375Z" fill="#5BBB7B"/>
<path fill-rule="evenodd" clip-rule="evenodd" d="M5.9375 7.71875C6.26542 7.71875 6.53125 7.98458 6.53125 8.3125V8.90625C6.53125 9.69361 6.84403 10.4487 7.40078 11.0055C7.95753 11.5622 8.71264 11.875 9.5 11.875C10.2874 11.875 11.0425 11.5622 11.5992 11.0055C12.156 10.4487 12.4688 9.69361 12.4688 8.90625V8.3125C12.4688 7.98458 12.7346 7.71875 13.0625 7.71875C13.3904 7.71875 13.6562 7.98458 13.6562 8.3125V8.90625C13.6562 10.0086 13.2184 11.0657 12.4389 11.8452C11.6595 12.6246 10.6023 13.0625 9.5 13.0625C8.39769 13.0625 7.34054 12.6246 6.56109 11.8452C5.78164 11.0657 5.34375 10.0086 5.34375 8.90625V8.3125C5.34375 7.98458 5.60958 7.71875 5.9375 7.71875Z" fill="#5BBB7B"/>
</svg>
