<svg width="27" height="29" viewBox="0 0 27 29" fill="none" xmlns="http://www.w3.org/2000/svg">
<path d="M0 14.0899C0 7.91656 0 4.82989 1.83835 2.84912C1.95474 2.72371 2.07576 2.60269 2.20117 2.4863C4.18194 0.647949 7.26861 0.647949 13.442 0.647949C19.6153 0.647949 22.702 0.647949 24.6828 2.4863C24.8082 2.60269 24.9292 2.72371 25.0456 2.84912C26.8839 4.82989 26.8839 7.91656 26.8839 14.0899V14.9096C26.8839 21.083 26.8839 24.1696 25.0456 26.1504C24.9292 26.2758 24.8082 26.3968 24.6828 26.5132C22.702 28.3516 19.6153 28.3516 13.442 28.3516C7.26861 28.3516 4.18194 28.3516 2.20117 26.5132C2.07576 26.3968 1.95474 26.2758 1.83835 26.1504C0 24.1696 0 21.083 0 14.9096V14.0899Z" fill="#EEF8F2"/>
<path d="M6.88477 9.17163H12.6227M10.9833 7.53223V9.17163C10.9833 12.7931 9.14796 15.7292 6.88477 15.7292" stroke="#5BBB7B" stroke-width="1.6394" stroke-linecap="round" stroke-linejoin="round"/>
<path d="M7.7041 12.4502C7.7041 14.2076 10.1239 15.6536 13.1961 15.729M13.442 21.4669L16.7208 14.0896L19.9996 21.4669M19.2619 19.8275H14.1797" stroke="#5BBB7B" stroke-width="1.6394" stroke-linecap="round" stroke-linejoin="round"/>
</svg>
