<svg width="24" height="24" viewBox="0 0 24 24" fill="none" xmlns="http://www.w3.org/2000/svg">
<path d="M2.25 6C1.8375 6 1.5 5.6625 1.5 5.25C1.5 4.8375 1.8375 4.5 2.25 4.5H8.25V3C8.25 2.5875 8.5875 2.25 9 2.25C9.4125 2.25 9.75 2.5875 9.75 3V4.5H13.1627C13.1753 4.49968 13.1881 4.49967 13.2008 4.5H15.75C16.1625 4.5 16.5 4.8375 16.5 5.25C16.5 5.6625 16.1625 6 15.75 6H13.7461C13.3598 7.2558 12.2672 10.3653 10.247 13.0232C11.3778 14.2891 12.3018 15.0349 12.4339 15.1415C12.4438 15.1495 12.4501 15.1547 12.4501 15.1547C12.7782 15.4078 12.8391 15.8813 12.586 16.2047C12.4454 16.4016 12.2251 16.5 12.0001 16.5C11.8407 16.5 11.6813 16.4484 11.5407 16.3453C11.5388 16.3438 11.5357 16.3414 11.5316 16.3381C11.4183 16.2486 10.4751 15.5033 9.28319 14.1914C6.78162 17.0326 4.35697 18.5085 4.14128 18.6398L4.12973 18.6469C4.01254 18.7172 3.88129 18.75 3.75004 18.75C3.49223 18.75 3.24379 18.6187 3.10316 18.3797C2.89223 18.0234 3.00941 17.564 3.36566 17.3531C3.39219 17.3398 5.84557 15.8671 8.29922 13.0372C8.20979 12.9254 8.1199 12.8109 8.02974 12.6938C6.27193 10.4156 5.36724 8.66719 5.32974 8.59219C5.14224 8.22188 5.28755 7.77188 5.65318 7.58438C6.02349 7.39688 6.47349 7.54219 6.66099 7.90782C6.67037 7.92657 7.54693 9.61407 9.21099 11.775C9.22721 11.7961 9.24342 11.8171 9.25963 11.8379C10.7946 9.7192 11.7336 7.29722 12.1675 6H2.25Z" fill="#1E293B"/>
<path fill-rule="evenodd" clip-rule="evenodd" d="M21.75 21.75C21.4594 21.75 21.1828 21.5812 21.061 21.2953L19.9701 18.75H14.5299L13.4391 21.2953C13.275 21.675 12.8344 21.8531 12.4547 21.6891C12.075 21.525 11.8969 21.0844 12.061 20.7047L16.561 10.2047C16.6782 9.92812 16.95 9.75 17.25 9.75C17.55 9.75 17.8219 9.92812 17.9391 10.2047L22.4391 20.7047C22.6032 21.0844 22.425 21.525 22.0453 21.6891C21.9469 21.7313 21.8485 21.75 21.75 21.75ZM19.3273 17.25L17.25 12.4031L15.1728 17.25H19.3273Z" fill="#1E293B"/>
</svg>
