<svg width="12" height="12" viewBox="0 0 12 12" fill="none" xmlns="http://www.w3.org/2000/svg">
<path fill-rule="evenodd" clip-rule="evenodd" d="M2.25 4.33594C2.25 2.33938 3.94739 0.75 6 0.75C8.05261 0.75 9.75 2.33938 9.75 4.33594C9.75 5.46151 9.14143 6.8541 8.47477 8.05777C7.79813 9.27949 7.01887 10.3802 6.60097 10.9445C6.53202 11.0388 6.44185 11.1155 6.33775 11.1685C6.23313 11.2218 6.11739 11.2495 6 11.2495C5.88261 11.2495 5.76687 11.2218 5.66225 11.1685C5.55814 11.1155 5.46796 11.0388 5.399 10.9445C4.98112 10.3799 4.20186 9.27883 3.52522 8.05696C2.85859 6.8532 2.25 5.46071 2.25 4.33594ZM6 1.5C4.32604 1.5 3 2.78828 3 4.33594C3 5.25022 3.51641 6.49293 4.18133 7.69362C4.83444 8.87298 5.59092 9.94299 6 10.4958C6.40906 9.94325 7.16556 8.87363 7.81868 7.6944C8.48357 6.49391 9 5.25106 9 4.33594C9 2.78828 7.67396 1.5 6 1.5Z" fill="#6B7177"/>
<path fill-rule="evenodd" clip-rule="evenodd" d="M6 3.75C5.58579 3.75 5.25 4.08579 5.25 4.5C5.25 4.91421 5.58579 5.25 6 5.25C6.41421 5.25 6.75 4.91421 6.75 4.5C6.75 4.08579 6.41421 3.75 6 3.75ZM4.5 4.5C4.5 3.67157 5.17157 3 6 3C6.82843 3 7.5 3.67157 7.5 4.5C7.5 5.32843 6.82843 6 6 6C5.17157 6 4.5 5.32843 4.5 4.5Z" fill="#6B7177"/>
</svg>
