<svg width="264" height="186" viewBox="0 0 264 186" fill="none" xmlns="http://www.w3.org/2000/svg">
<path d="M213.788 0H55.4898C48.2044 0 42.2983 5.90603 42.2983 13.1915V171.489C42.2983 178.775 48.2044 184.681 55.4898 184.681H213.788C221.073 184.681 226.979 178.775 226.979 171.489V13.1915C226.979 5.90603 221.073 0 213.788 0Z" fill="#EEF8F2"/>
<g filter="url(#filter0_d_184_6725)">
<path d="M71.3199 71.2344H249.405C251.154 71.2344 252.832 71.9293 254.069 73.1662C255.306 74.4032 256.001 76.0808 256.001 77.8301V110.809C256.001 112.558 255.306 114.236 254.069 115.473C252.832 116.71 251.154 117.405 249.405 117.405H71.3199C69.5706 117.405 67.8929 116.71 66.656 115.473C65.419 114.236 64.7241 112.558 64.7241 110.809V77.8301C64.7241 76.0808 65.419 74.4032 66.656 73.1662C67.8929 71.9293 69.5706 71.2344 71.3199 71.2344V71.2344Z" fill="white"/>
</g>
<path d="M168.935 81.7876H134.637C132.451 81.7876 130.679 83.5594 130.679 85.745C130.679 87.9307 132.451 89.7025 134.637 89.7025H168.935C171.12 89.7025 172.892 87.9307 172.892 85.745C172.892 83.5594 171.12 81.7876 168.935 81.7876Z" fill="#5BBB7B"/>
<path d="M192.679 98.9365H134.637C132.451 98.9365 130.679 100.708 130.679 102.894C130.679 105.08 132.451 106.851 134.637 106.851H192.679C194.865 106.851 196.637 105.08 196.637 102.894C196.637 100.708 194.865 98.9365 192.679 98.9365Z" fill="#EEF8F2"/>
<path d="M104.957 106.851C111.878 106.851 117.489 101.241 117.489 94.3195C117.489 87.3983 111.878 81.7876 104.957 81.7876C98.036 81.7876 92.4253 87.3983 92.4253 94.3195C92.4253 101.241 98.036 106.851 104.957 106.851Z" fill="#5BBB7B" fill-opacity="0.3"/>
<path d="M104.827 96.9049H101.217L100.553 98.7451H99.4128L102.405 90.5176H103.651L106.631 98.7451H105.491L104.827 96.9049ZM104.518 96.0264L103.022 91.8473L101.526 96.0264H104.518ZM113.468 92.8921C113.468 93.5806 113.23 94.1545 112.755 94.6135C112.288 95.0647 111.572 95.2903 110.606 95.2903H109.015V98.7451H107.935V90.4701H110.606C111.54 90.4701 112.249 90.6957 112.732 91.1468C113.222 91.598 113.468 92.1797 113.468 92.8921ZM110.606 94.3998C111.208 94.3998 111.651 94.2692 111.936 94.0081C112.221 93.7469 112.363 93.3749 112.363 92.8921C112.363 91.871 111.778 91.3605 110.606 91.3605H109.015V94.3998H110.606Z" fill="#2B4570"/>
<g filter="url(#filter1_d_184_6725)">
<path d="M14.5953 127.958H192.68C194.43 127.958 196.107 128.652 197.344 129.889C198.581 131.126 199.276 132.804 199.276 134.553V167.532C199.276 169.281 198.581 170.959 197.344 172.196C196.107 173.433 194.43 174.128 192.68 174.128H14.5953C12.846 174.128 11.1683 173.433 9.93136 172.196C8.69442 170.959 7.99951 169.281 7.99951 167.532V134.553C7.99951 132.804 8.69442 131.126 9.93136 129.889C11.1683 128.652 12.846 127.958 14.5953 127.958V127.958Z" fill="white"/>
</g>
<path d="M112.212 138.511H77.914C75.7284 138.511 73.9565 140.283 73.9565 142.468C73.9565 144.654 75.7284 146.426 77.914 146.426H112.212C114.397 146.426 116.169 144.654 116.169 142.468C116.169 140.283 114.397 138.511 112.212 138.511Z" fill="#5BBB7B"/>
<path d="M135.957 155.66H77.914C75.7284 155.66 73.9565 157.431 73.9565 159.617C73.9565 161.803 75.7284 163.575 77.914 163.575H135.957C138.142 163.575 139.914 161.803 139.914 159.617C139.914 157.431 138.142 155.66 135.957 155.66Z" fill="#EEF8F2"/>
<path d="M31.0861 163.574C38.0073 163.574 43.618 157.963 43.618 151.042C43.618 144.121 38.0073 138.51 31.0861 138.51C24.1649 138.51 18.5542 144.121 18.5542 151.042C18.5542 157.963 24.1649 163.574 31.0861 163.574Z" fill="#5BBB7B" fill-opacity="0.3"/>
<path d="M30.2313 147.193V153.307C30.2313 153.988 30.0215 154.534 29.602 154.945C29.1825 155.349 28.6285 155.551 27.9399 155.551C27.2434 155.551 26.6854 155.345 26.2659 154.934C25.8464 154.514 25.6367 153.944 25.6367 153.224H26.7171C26.725 153.628 26.8279 153.956 27.0257 154.209C27.2315 154.463 27.5362 154.589 27.9399 154.589C28.3436 154.589 28.6443 154.47 28.8422 154.233C29.0401 153.988 29.139 153.679 29.139 153.307V147.193H30.2313ZM34.9834 155.551C34.4373 155.551 33.9466 155.456 33.5113 155.266C33.0839 155.068 32.7475 154.799 32.5021 154.459C32.2568 154.11 32.1301 153.711 32.1222 153.26H33.2738C33.3134 153.647 33.4717 153.976 33.7487 154.245C34.0337 154.506 34.4452 154.637 34.9834 154.637C35.4979 154.637 35.9016 154.51 36.1944 154.257C36.4952 153.996 36.6456 153.663 36.6456 153.26C36.6456 152.943 36.5585 152.686 36.3844 152.488C36.2103 152.29 35.9926 152.14 35.7314 152.037C35.4702 151.934 35.118 151.823 34.6748 151.704C34.1286 151.562 33.6894 151.419 33.3569 151.277C33.0324 151.134 32.7514 150.913 32.514 150.612C32.2845 150.303 32.1697 149.892 32.1697 149.377C32.1697 148.926 32.2845 148.526 32.514 148.178C32.7435 147.83 33.0641 147.561 33.4757 147.371C33.8951 147.181 34.374 147.086 34.9122 147.086C35.6879 147.086 36.3211 147.28 36.8118 147.668C37.3104 148.055 37.5914 148.57 37.6547 149.211H36.4675C36.4279 148.894 36.2617 148.617 35.9689 148.38C35.676 148.135 35.2882 148.012 34.8054 148.012C34.3542 148.012 33.9862 148.131 33.7012 148.368C33.4163 148.598 33.2738 148.922 33.2738 149.342C33.2738 149.642 33.3569 149.888 33.5231 150.078C33.6973 150.268 33.907 150.414 34.1524 150.517C34.4057 150.612 34.7579 150.723 35.209 150.849C35.7551 151 36.1944 151.15 36.5269 151.301C36.8593 151.443 37.1442 151.669 37.3817 151.977C37.6191 152.278 37.7378 152.69 37.7378 153.212C37.7378 153.616 37.631 153.996 37.4173 154.352C37.2036 154.708 36.887 154.997 36.4675 155.218C36.048 155.44 35.5533 155.551 34.9834 155.551Z" fill="#2B4570"/>
<g filter="url(#filter2_d_184_6725)">
<path d="M192.68 14.5107H14.5953C10.9525 14.5107 7.99951 17.4638 7.99951 21.1065V54.0852C7.99951 57.7279 10.9525 60.681 14.5953 60.681H192.68C196.323 60.681 199.276 57.7279 199.276 54.0852V21.1065C199.276 17.4638 196.323 14.5107 192.68 14.5107Z" fill="white"/>
</g>
<path d="M109.575 25.064H75.2773C73.0916 25.064 71.3198 26.8358 71.3198 29.0214C71.3198 31.207 73.0916 32.9789 75.2773 32.9789H109.575C111.761 32.9789 113.533 31.207 113.533 29.0214C113.533 26.8358 111.761 25.064 109.575 25.064Z" fill="#5BBB7B"/>
<path d="M133.32 42.2129H75.2773C73.0916 42.2129 71.3198 43.9847 71.3198 46.1703C71.3198 48.356 73.0916 50.1278 75.2773 50.1278H133.32C135.505 50.1278 137.277 48.356 137.277 46.1703C137.277 43.9847 135.505 42.2129 133.32 42.2129Z" fill="#EEF8F2"/>
<path d="M48.2365 50.1278C55.1577 50.1278 60.7684 44.5171 60.7684 37.5959C60.7684 30.6747 55.1577 25.064 48.2365 25.064C41.3153 25.064 35.7046 30.6747 35.7046 37.5959C35.7046 44.5171 41.3153 50.1278 48.2365 50.1278Z" fill="#5BBB7B" fill-opacity="0.3"/>
<path d="M43.5185 40.7853C42.9724 40.7853 42.4816 40.6903 42.0463 40.5003C41.6189 40.3024 41.2825 40.0333 41.0372 39.693C40.7918 39.3447 40.6652 38.945 40.6573 38.4939H41.8089C41.8485 38.8817 42.0068 39.2102 42.2838 39.4793C42.5687 39.7405 42.9803 39.8711 43.5185 39.8711C44.033 39.8711 44.4366 39.7444 44.7295 39.4912C45.0302 39.23 45.1806 38.8976 45.1806 38.4939C45.1806 38.1773 45.0936 37.9201 44.9194 37.7222C44.7453 37.5243 44.5276 37.3739 44.2665 37.271C44.0053 37.1681 43.6531 37.0573 43.2098 36.9386C42.6637 36.7961 42.2244 36.6537 41.892 36.5112C41.5675 36.3687 41.2865 36.1471 41.0491 35.8464C40.8195 35.5377 40.7048 35.1261 40.7048 34.6116C40.7048 34.1605 40.8195 33.7608 41.0491 33.4125C41.2786 33.0643 41.5991 32.7952 42.0107 32.6052C42.4302 32.4153 42.9091 32.3203 43.4473 32.3203C44.2229 32.3203 44.8561 32.5142 45.3468 32.902C45.8455 33.2899 46.1265 33.8043 46.1898 34.4454H45.0025C44.963 34.1288 44.7968 33.8518 44.5039 33.6144C44.2111 33.369 43.8232 33.2463 43.3404 33.2463C42.8893 33.2463 42.5212 33.365 42.2363 33.6025C41.9514 33.832 41.8089 34.1565 41.8089 34.576C41.8089 34.8768 41.892 35.1221 42.0582 35.3121C42.2323 35.5021 42.4421 35.6485 42.6874 35.7514C42.9407 35.8464 43.2929 35.9572 43.7441 36.0838C44.2902 36.2342 44.7295 36.3846 45.0619 36.535C45.3943 36.6774 45.6793 36.903 45.9167 37.2117C46.1542 37.5124 46.2729 37.924 46.2729 38.4464C46.2729 38.8501 46.166 39.23 45.9523 39.5861C45.7386 39.9423 45.422 40.2312 45.0025 40.4528C44.5831 40.6744 44.0884 40.7853 43.5185 40.7853ZM50.4391 32.4271C51.3414 32.4271 52.121 32.5973 52.7779 32.9376C53.4428 33.2701 53.9493 33.7489 54.2976 34.3742C54.6537 34.9995 54.8318 35.7356 54.8318 36.5824C54.8318 37.4293 54.6537 38.1654 54.2976 38.7907C53.9493 39.4081 53.4428 39.883 52.7779 40.2154C52.121 40.5399 51.3414 40.7021 50.4391 40.7021H47.8628V32.4271H50.4391ZM50.4391 39.8117C51.5076 39.8117 52.3228 39.5307 52.8848 38.9688C53.4467 38.3989 53.7277 37.6035 53.7277 36.5824C53.7277 35.5535 53.4428 34.7501 52.8729 34.1724C52.3109 33.5946 51.4996 33.3057 50.4391 33.3057H48.9431V39.8117H50.4391Z" fill="#2B4570"/>
<defs>
<filter id="filter0_d_184_6725" x="56.8092" y="67.2769" width="207.106" height="62.0002" filterUnits="userSpaceOnUse" color-interpolation-filters="sRGB">
<feFlood flood-opacity="0" result="BackgroundImageFix"/>
<feColorMatrix in="SourceAlpha" type="matrix" values="0 0 0 0 0 0 0 0 0 0 0 0 0 0 0 0 0 0 127 0" result="hardAlpha"/>
<feOffset dy="3.95745"/>
<feGaussianBlur stdDeviation="3.95745"/>
<feColorMatrix type="matrix" values="0 0 0 0 0 0 0 0 0 0 0 0 0 0 0 0 0 0 0.161 0"/>
<feBlend mode="normal" in2="BackgroundImageFix" result="effect1_dropShadow_184_6725"/>
<feBlend mode="normal" in="SourceGraphic" in2="effect1_dropShadow_184_6725" result="shape"/>
</filter>
<filter id="filter1_d_184_6725" x="0.0846186" y="124" width="207.106" height="62.0002" filterUnits="userSpaceOnUse" color-interpolation-filters="sRGB">
<feFlood flood-opacity="0" result="BackgroundImageFix"/>
<feColorMatrix in="SourceAlpha" type="matrix" values="0 0 0 0 0 0 0 0 0 0 0 0 0 0 0 0 0 0 127 0" result="hardAlpha"/>
<feOffset dy="3.95745"/>
<feGaussianBlur stdDeviation="3.95745"/>
<feColorMatrix type="matrix" values="0 0 0 0 0 0 0 0 0 0 0 0 0 0 0 0 0 0 0.161 0"/>
<feBlend mode="normal" in2="BackgroundImageFix" result="effect1_dropShadow_184_6725"/>
<feBlend mode="normal" in="SourceGraphic" in2="effect1_dropShadow_184_6725" result="shape"/>
</filter>
<filter id="filter2_d_184_6725" x="0.0846186" y="10.5533" width="207.106" height="62.0002" filterUnits="userSpaceOnUse" color-interpolation-filters="sRGB">
<feFlood flood-opacity="0" result="BackgroundImageFix"/>
<feColorMatrix in="SourceAlpha" type="matrix" values="0 0 0 0 0 0 0 0 0 0 0 0 0 0 0 0 0 0 127 0" result="hardAlpha"/>
<feOffset dy="3.95745"/>
<feGaussianBlur stdDeviation="3.95745"/>
<feColorMatrix type="matrix" values="0 0 0 0 0 0 0 0 0 0 0 0 0 0 0 0 0 0 0.161 0"/>
<feBlend mode="normal" in2="BackgroundImageFix" result="effect1_dropShadow_184_6725"/>
<feBlend mode="normal" in="SourceGraphic" in2="effect1_dropShadow_184_6725" result="shape"/>
</filter>
</defs>
</svg>
