<svg width="24" height="24" viewBox="0 0 24 24" fill="none" xmlns="http://www.w3.org/2000/svg">
<path fill-rule="evenodd" clip-rule="evenodd" d="M9.22356 3.77601C9.55901 2.64942 10.5428 1.5 12.0001 1.5C13.4577 1.5 14.4405 2.64947 14.7785 3.77394C14.7802 3.77603 14.7825 3.77868 14.7854 3.78172C14.7923 3.78895 14.8002 3.79559 14.8076 3.80075C14.8132 3.80467 14.8166 3.80636 14.817 3.80656C15.6653 4.15582 16.6638 4.71371 17.4447 5.73514C18.2319 6.76478 18.744 8.19413 18.744 10.1883C18.744 12.1765 18.9537 13.2668 19.2626 14.0153C19.5335 14.6716 19.8896 15.103 20.3964 15.7168C20.4705 15.8065 20.5477 15.9 20.6283 15.9987C21.5624 17.1429 20.6806 18.75 19.2418 18.75H4.76302C3.32686 18.75 2.42998 17.1513 3.37177 15.9987C3.45248 15.9 3.52976 15.8063 3.60384 15.7166C4.11056 15.1029 4.46677 14.6714 4.73786 14.0151C5.04704 13.2666 5.25731 12.1763 5.25849 10.1883M9.22356 3.77601C9.22226 3.77755 9.22064 3.77936 9.21866 3.78141C9.21228 3.78803 9.20473 3.79442 9.1972 3.79961C9.19021 3.80443 9.18601 3.8063 9.18602 3.80631C8.33738 4.15578 7.33812 4.71281 6.55714 5.73399C5.76999 6.76324 5.25857 8.19281 5.25849 10.1883M12.0001 3C11.4226 3 10.8712 3.48152 10.6577 4.21574L10.6572 4.21761C10.5196 4.68648 10.1386 5.03643 9.75673 5.1935C9.75667 5.19352 9.75679 5.19348 9.75673 5.1935C9.04027 5.48856 8.30765 5.91428 7.74863 6.64523C7.1958 7.36809 6.75849 8.46069 6.75849 10.1883C6.7573 12.2617 6.54148 13.5776 6.12425 14.5878C5.76127 15.4666 5.25456 16.0772 4.75182 16.6832C4.67876 16.7712 4.60578 16.8592 4.53334 16.9478C4.50349 16.9843 4.4951 17.0144 4.49305 17.0369C4.49074 17.0625 4.49555 17.093 4.51161 17.1245C4.53948 17.1791 4.60888 17.25 4.76302 17.25H19.2418C19.3903 17.25 19.4586 17.1814 19.487 17.1254C19.5175 17.0652 19.5137 17.0055 19.4668 16.9478C19.3944 16.8592 19.3214 16.7713 19.2484 16.6833C18.7456 16.0773 18.2388 15.4665 17.8761 14.5876C17.4591 13.5773 17.244 12.2617 17.244 10.1883C17.244 8.4629 16.8064 7.3699 16.253 6.64619C15.6935 5.91434 14.9607 5.48786 14.2458 5.19353C13.8596 5.03471 13.4827 4.67986 13.3459 4.2188L13.3453 4.2169C13.1291 3.48116 12.5775 3 12.0001 3Z" fill="#1E293B"/>
<path fill-rule="evenodd" clip-rule="evenodd" d="M9 17.25C9.41421 17.25 9.75 17.5858 9.75 18V18.75C9.75 19.3467 9.98705 19.919 10.409 20.341C10.831 20.7629 11.4033 21 12 21C12.5967 21 13.169 20.7629 13.591 20.341C14.0129 19.919 14.25 19.3467 14.25 18.75V18C14.25 17.5858 14.5858 17.25 15 17.25C15.4142 17.25 15.75 17.5858 15.75 18V18.75C15.75 19.7446 15.3549 20.6984 14.6516 21.4016C13.9484 22.1049 12.9946 22.5 12 22.5C11.0054 22.5 10.0516 22.1049 9.34835 21.4016C8.64509 20.6984 8.25 19.7446 8.25 18.75V18C8.25 17.5858 8.58579 17.25 9 17.25Z" fill="#1E293B"/>
</svg>
