<svg width="27" height="32" viewBox="0 0 27 32" fill="none" xmlns="http://www.w3.org/2000/svg">
<circle cx="14.5" cy="19.1875" r="12.5" fill="#EEFCEE"/>
<mask id="mask0_123_3122" style="mask-type:luminance" maskUnits="userSpaceOnUse" x="0" y="2" width="11" height="18">
<path d="M0 2.39795H10.2736V19.8121H0V2.39795Z" fill="white"/>
</mask>
<g mask="url(#mask0_123_3122)">
<path fill-rule="evenodd" clip-rule="evenodd" d="M9.546 18.4935C5.05085 18.4935 1.40092 14.8435 1.40092 10.3481C1.40092 7.59465 2.7707 5.15842 4.86425 3.68385C5.17263 3.4664 5.24626 3.04096 5.02977 2.73384C4.81358 2.42577 4.3872 2.35213 4.07976 2.56832C1.63535 4.29023 0.0371094 7.13364 0.0371094 10.3481C0.0371094 15.5962 4.29814 19.857 9.546 19.857C9.92236 19.857 10.2279 19.5517 10.2279 19.1754C10.2279 18.799 9.92236 18.4935 9.546 18.4935Z" fill="#5BBB7B"/>
</g>
<mask id="mask1_123_3122" style="mask-type:luminance" maskUnits="userSpaceOnUse" x="9" y="0" width="10" height="18">
<path d="M9.3877 0.8125H18.9998V17.7843H9.3877V0.8125Z" fill="white"/>
</mask>
<g mask="url(#mask1_123_3122)">
<path fill-rule="evenodd" clip-rule="evenodd" d="M10.0702 2.21976C14.3209 2.4907 17.6901 6.02955 17.6901 10.3485C17.6901 12.8313 16.5774 15.0548 14.8237 16.5492C14.5374 16.794 14.5028 17.2248 14.7473 17.5112C14.9908 17.7975 15.4219 17.8321 15.7083 17.5876C17.7556 15.8431 19.0536 13.2457 19.0536 10.3485C19.0536 5.30611 15.1202 1.17535 10.1564 0.858786C9.78104 0.835185 9.45661 1.1206 9.433 1.49601C9.4094 1.87142 9.69482 2.19616 10.0702 2.21976Z" fill="#5BBB7B"/>
</g>
<path fill-rule="evenodd" clip-rule="evenodd" d="M17.9904 16.8895H15.0412V13.9404C15.0412 13.564 14.736 13.2588 14.3596 13.2588C13.9833 13.2588 13.6777 13.564 13.6777 13.9404V17.5714C13.6777 17.9478 13.9833 18.253 14.3596 18.253H17.9904C18.3667 18.253 18.6723 17.9478 18.6723 17.5714C18.6723 17.1951 18.3667 16.8895 17.9904 16.8895Z" fill="#5BBB7B"/>
<path fill-rule="evenodd" clip-rule="evenodd" d="M1.62722 3.0059H4.57542V5.95379C4.57542 6.33014 4.88066 6.63569 5.25701 6.63569C5.63336 6.63569 5.93891 6.33014 5.93891 5.95379V2.32399C5.93891 1.94764 5.63431 1.64209 5.25701 1.64209H1.62722C1.25086 1.64209 0.945312 1.94764 0.945312 2.32399C0.945312 2.70035 1.25086 3.0059 1.62722 3.0059Z" fill="#5BBB7B"/>
</svg>
