<svg width="24" height="24" viewBox="0 0 24 24" fill="none" xmlns="http://www.w3.org/2000/svg">
<g clip-path="url(#clip0_636_2934)">
<path d="M17 13.548C17 14.8002 16.5734 15.8785 15.7203 16.7829C14.8672 17.6873 13.759 18.2459 12.3957 18.4587V20.6071C12.3957 20.7217 12.3571 20.8158 12.2799 20.8895C12.2027 20.9632 12.1041 21 11.9841 21H10.2478C10.1364 21 10.0399 20.9611 9.95844 20.8834C9.87698 20.8056 9.83625 20.7135 9.83625 20.6071V18.4587C9.27036 18.385 8.72375 18.2582 8.19644 18.0781C7.66912 17.8981 7.23398 17.716 6.89101 17.5318C6.54805 17.3477 6.2308 17.1512 5.93928 16.9425C5.64775 16.7338 5.4484 16.5804 5.34123 16.4821C5.23405 16.3839 5.15902 16.3103 5.11615 16.2612C4.97039 16.0893 4.96182 15.9215 5.09043 15.7578L6.41515 14.1004C6.47517 14.0186 6.57377 13.9695 6.71096 13.9531C6.83957 13.9368 6.94246 13.9736 7.01963 14.0636L7.04535 14.0882C8.01423 14.8984 9.056 15.41 10.1706 15.6228C10.4879 15.6882 10.8051 15.721 11.1224 15.721C11.8169 15.721 12.4278 15.545 12.9551 15.1931C13.4824 14.8411 13.7461 14.3419 13.7461 13.6953C13.7461 13.4661 13.6818 13.2493 13.5532 13.0446C13.4246 12.84 13.2809 12.6682 13.1223 12.529C12.9637 12.3899 12.7129 12.2364 12.3699 12.0686C12.027 11.9009 11.744 11.7699 11.5211 11.6758C11.2982 11.5817 10.9552 11.4487 10.4922 11.2768C10.1578 11.1458 9.89413 11.0435 9.70121 10.9699C9.50829 10.8962 9.24463 10.7878 8.91024 10.6445C8.57585 10.5013 8.3079 10.3744 8.10641 10.264C7.90491 10.1535 7.66269 10.0082 7.37974 9.82812C7.09679 9.64807 6.86743 9.47414 6.69166 9.30636C6.51589 9.13858 6.3294 8.93806 6.1322 8.7048C5.93499 8.47154 5.7828 8.23419 5.67562 7.99275C5.56844 7.7513 5.47841 7.47917 5.40553 7.17634C5.33265 6.87351 5.29621 6.55432 5.29621 6.21875C5.29621 5.08929 5.71635 4.09896 6.55662 3.24777C7.39689 2.39658 8.4901 1.84821 9.83625 1.60268V-0.607143C9.83625 -0.713542 9.87698 -0.805618 9.95844 -0.883371C10.0399 -0.961124 10.1364 -1 10.2478 -1H11.9841C12.1041 -1 12.2027 -0.96317 12.2799 -0.889509C12.3571 -0.815848 12.3957 -0.721726 12.3957 -0.607143V1.55357C12.8844 1.60268 13.3581 1.6968 13.8168 1.83594C14.2755 1.97507 14.6485 2.11217 14.9358 2.24721C15.223 2.38225 15.4952 2.53571 15.7525 2.70759C16.0097 2.87946 16.1769 2.99814 16.254 3.06362C16.3312 3.12909 16.3955 3.18638 16.447 3.23549C16.5927 3.38281 16.6142 3.53832 16.5113 3.70201L15.4695 5.49442C15.4009 5.61719 15.3023 5.68266 15.1737 5.69085C15.0537 5.7154 14.9379 5.68676 14.8264 5.60491C14.8007 5.58036 14.7386 5.53125 14.64 5.45759C14.5413 5.38393 14.3742 5.27548 14.1384 5.13225C13.9026 4.98903 13.6518 4.85807 13.386 4.7394C13.1202 4.62072 12.8008 4.51432 12.4278 4.4202C12.0548 4.32608 11.6883 4.27902 11.3282 4.27902C10.5136 4.27902 9.84911 4.45499 9.33466 4.80692C8.82021 5.15885 8.56298 5.6131 8.56298 6.16964C8.56298 6.38244 8.59942 6.57887 8.6723 6.75893C8.74519 6.93899 8.87165 7.10882 9.05171 7.26842C9.23177 7.42801 9.40111 7.56306 9.55973 7.67355C9.71836 7.78404 9.95844 7.9109 10.28 8.05413C10.6015 8.19736 10.8609 8.30785 11.0581 8.3856C11.2553 8.46336 11.5554 8.57589 11.9584 8.72321C12.4128 8.8869 12.7601 9.01581 13.0001 9.10993C13.2402 9.20405 13.566 9.34728 13.9776 9.53962C14.3892 9.73196 14.7128 9.90588 14.9486 10.0614C15.1844 10.2169 15.4502 10.4215 15.746 10.6752C16.0418 10.9289 16.269 11.1888 16.4277 11.4548C16.5863 11.7208 16.7213 12.0339 16.8328 12.394C16.9443 12.7541 17 13.1388 17 13.548Z" fill="#6B7177"/>
</g>
<defs>
<clipPath id="clip0_636_2934">
<rect width="24" height="24" fill="white"/>
</clipPath>
</defs>
</svg>
