<svg width="32" height="37" viewBox="0 0 32 37" fill="none" xmlns="http://www.w3.org/2000/svg">
<circle cx="17.8354" cy="22.2729" r="14.1645" fill="#EEFCEE"/>
<path d="M22.7086 9.72519C22.6235 9.53274 22.4852 9.36759 22.3095 9.24844C22.1338 9.12929 21.9276 9.06092 21.7144 9.05105H16.4801L17.9315 3.72542C17.9777 3.55877 17.9842 3.38388 17.9505 3.21435C17.9169 3.04482 17.8438 2.88521 17.7372 2.74793C17.6307 2.61196 17.494 2.50177 17.3375 2.42582C17.181 2.34986 17.0089 2.31015 16.8344 2.30974H8.83435C8.57634 2.30105 8.32293 2.3785 8.11541 2.52948C7.90789 2.68045 7.75847 2.89605 7.6915 3.14117L4.62864 14.3767C4.58241 14.5433 4.5759 14.7182 4.60959 14.8878C4.64329 15.0573 4.71629 15.2169 4.82293 15.3542C4.93057 15.4917 5.06913 15.6028 5.22775 15.6788C5.38637 15.7548 5.56075 15.7937 5.73721 15.7924H10.1601L8.0915 23.3651C8.02372 23.6093 8.04181 23.8688 8.14282 24.1017C8.24382 24.3345 8.42184 24.527 8.64802 24.6479C8.8742 24.7688 9.13529 24.8111 9.38899 24.768C9.64268 24.7248 9.87411 24.5986 10.0458 24.41L22.5029 10.9274C22.6513 10.7677 22.7496 10.5693 22.7861 10.3561C22.8225 10.1429 22.7957 9.92378 22.7086 9.72519ZM11.5201 19.4776L12.7429 14.9834C12.7892 14.8168 12.7957 14.6419 12.762 14.4723C12.7283 14.3028 12.6553 14.1432 12.5486 14.0059C12.4422 13.87 12.3054 13.7598 12.1489 13.6838C11.9924 13.6079 11.8203 13.5681 11.6458 13.5677H7.25721L9.70293 4.55685H15.3372L13.8858 9.88248C13.8392 10.0522 13.8337 10.2303 13.8699 10.4025C13.9061 10.5746 13.9828 10.736 14.094 10.8737C14.2051 11.0114 14.3476 11.1216 14.5099 11.1953C14.6723 11.269 14.8499 11.3042 15.0286 11.2982H19.1086L11.5201 19.4776Z" fill="#5BBB7B"/>
</svg>
