<svg width="21" height="21" viewBox="0 0 21 21" fill="none" xmlns="http://www.w3.org/2000/svg">
<mask id="mask0_102_2415" style="mask-type:luminance" maskUnits="userSpaceOnUse" x="0" y="0" width="21" height="21">
<path d="M0 0H21V21.0002H0V0Z" fill="white"/>
</mask>
<g mask="url(#mask0_102_2415)">
<path d="M10.5 0C4.7009 0 0 4.70109 0 10.5002C0 16.2991 4.7009 21.0002 10.5 21.0002C16.2989 21.0002 21 16.2991 21 10.5002C21 4.70109 16.2989 0 10.5 0ZM9.66578 4.00554C11.9241 3.08122 14.5041 4.16255 15.4284 6.42105L14.6407 6.74343C13.8943 4.92021 11.8114 4.04706 9.98816 4.79322C8.16494 5.53957 7.29179 7.62251 8.03814 9.44574L8.01088 9.45686L8.47823 10.5986C7.96028 10.8105 7.36854 10.5625 7.15646 10.0445C7.06859 9.82985 7.06006 9.60257 7.11679 9.39476C6.99574 9.00305 6.93197 8.60522 6.92177 8.21091C6.29778 8.71515 6.04936 9.58644 6.36878 10.3671C6.75882 11.3201 7.84756 11.7765 8.80061 11.3863L9.12317 12.1742C7.73504 12.7424 6.1491 12.0776 5.58091 10.6895C5.0192 9.31708 5.66303 7.75209 7.01909 7.16777C7.31589 5.79094 8.26393 4.57929 9.66578 4.00554ZM4.00535 11.3344C3.08104 9.0759 4.16237 6.49595 6.42068 5.57164L6.74325 6.35951C4.92002 7.10567 4.04688 9.18861 4.79304 11.0118C5.53938 12.8351 7.62233 13.7082 9.44555 12.9619L9.45667 12.9891L10.5984 12.5218C10.8103 13.0397 10.5623 13.6315 10.0443 13.8435C9.82966 13.9314 9.6022 13.9399 9.39457 13.8832C9.00286 14.0043 8.60503 14.068 8.21073 14.0784C8.71496 14.7022 9.58626 14.9508 10.3667 14.6314C11.3199 14.2412 11.7762 13.1524 11.3861 12.1994L12.174 11.8768C12.742 13.2651 12.0774 14.8509 10.6893 15.4191C9.3169 15.9808 7.75191 15.337 7.1674 13.9809C5.79076 13.6843 4.5791 12.7361 4.00535 11.3344ZM11.3342 16.9947C9.07572 17.919 6.49576 16.8376 5.57145 14.5793L6.35932 14.2568C7.10548 16.0802 9.18843 16.9531 11.0117 16.207C12.8351 15.4606 13.708 13.3777 12.9619 11.5545L12.9889 11.5435L12.5216 10.4017C13.0397 10.1897 13.6315 10.4377 13.8434 10.9557C13.9312 11.1703 13.9398 11.3978 13.8832 11.6054C14.0043 11.9971 14.0679 12.395 14.0782 12.7893C14.702 12.285 14.9506 11.4137 14.6312 10.6333C14.2412 9.68024 13.1523 9.22384 12.1992 9.61388L11.8768 8.82601C13.265 8.25781 14.8509 8.92259 15.4189 10.3107C15.9806 11.6831 15.3368 13.2481 13.9807 13.8326C13.6841 15.2092 12.7361 16.4211 11.3342 16.9947ZM14.5791 15.4285L14.2568 14.6409C16.08 13.8945 16.9529 11.8116 16.2068 9.98835C15.4606 8.16512 13.3775 7.29198 11.5543 8.03832L11.5431 8.01107L10.4016 8.47842C10.1895 7.96046 10.4375 7.36872 10.9555 7.15665C11.1702 7.06878 11.3974 7.06025 11.6052 7.11679C11.997 6.99574 12.3948 6.93215 12.7891 6.92177C12.2849 6.29796 11.4136 6.04937 10.6331 6.36878C9.68006 6.75901 9.22365 7.84775 9.61369 8.8008L8.82582 9.12317C8.25763 7.73504 8.92241 6.1491 10.3105 5.58109C11.6829 5.01939 13.2481 5.66322 13.8324 7.01928C15.2091 7.31589 16.4209 8.26412 16.9945 9.66578C17.9188 11.9243 16.8374 14.5042 14.5791 15.4285Z" fill="#5BBB7B"/>
</g>
</svg>
