<svg width="24" height="24" viewBox="0 0 24 24" fill="none" xmlns="http://www.w3.org/2000/svg">
<g clip-path="url(#clip0_23_922)">
<path d="M12 22.5C9.21523 22.5 6.54451 21.3938 4.57538 19.4246C2.60625 17.4555 1.5 14.7848 1.5 12C1.5 9.21523 2.60625 6.54451 4.57538 4.57538C6.54451 2.60625 9.21523 1.5 12 1.5C14.7848 1.5 17.4555 2.60625 19.4246 4.57538C21.3938 6.54451 22.5 9.21523 22.5 12C22.5 14.7848 21.3938 17.4555 19.4246 19.4246C17.4555 21.3938 14.7848 22.5 12 22.5ZM12 24C15.1826 24 18.2348 22.7357 20.4853 20.4853C22.7357 18.2348 24 15.1826 24 12C24 8.8174 22.7357 5.76516 20.4853 3.51472C18.2348 1.26428 15.1826 0 12 0C8.8174 0 5.76516 1.26428 3.51472 3.51472C1.26428 5.76516 0 8.8174 0 12C0 15.1826 1.26428 18.2348 3.51472 20.4853C5.76516 22.7357 8.8174 24 12 24Z" fill="#5BBB7B"/>
<path d="M16.4555 7.45505L16.4255 7.48805L11.216 14.1256L8.07651 10.9846C7.86325 10.7858 7.58118 10.6776 7.28972 10.6828C6.99827 10.6879 6.72019 10.806 6.51408 11.0121C6.30796 11.2182 6.18989 11.4963 6.18475 11.7878C6.1796 12.0792 6.28779 12.3613 6.48651 12.5746L10.4555 16.5451C10.5624 16.6518 10.6898 16.7359 10.8299 16.7923C10.97 16.8488 11.1201 16.8764 11.2711 16.8736C11.4222 16.8708 11.5711 16.8376 11.7091 16.776C11.847 16.7144 11.9711 16.6257 12.074 16.5151L18.062 9.03005C18.2659 8.81605 18.3774 8.5304 18.3723 8.23486C18.3673 7.93931 18.2462 7.65763 18.0351 7.4507C17.824 7.24376 17.54 7.12822 17.2444 7.12903C16.9488 7.12985 16.6654 7.24696 16.4555 7.45505Z" fill="#5BBB7B"/>
</g>
<defs>
<clipPath id="clip0_23_922">
<rect width="24" height="24" fill="white"/>
</clipPath>
</defs>
</svg>
