<svg width="21" height="20" viewBox="0 0 21 20" fill="none" xmlns="http://www.w3.org/2000/svg">
<path fill-rule="evenodd" clip-rule="evenodd" d="M10.72 0.819582L19.22 5.56958C19.4695 5.69415 19.6794 5.88581 19.826 6.12305C19.9726 6.36029 20.0502 6.6337 20.05 6.91258V8.35258C20.05 9.04258 19.49 9.60258 18.8 9.60258H18.05V17.6026H19.05C19.3152 17.6026 19.5696 17.7079 19.7571 17.8955C19.9446 18.083 20.05 18.3374 20.05 18.6026C20.05 18.8678 19.9446 19.1222 19.7571 19.3097C19.5696 19.4972 19.3152 19.6026 19.05 19.6026H1.04999C0.784771 19.6026 0.530417 19.4972 0.342881 19.3097C0.155345 19.1222 0.0499878 18.8678 0.0499878 18.6026C0.0499878 18.3374 0.155345 18.083 0.342881 17.8955C0.530417 17.7079 0.784771 17.6026 1.04999 17.6026H2.04999V9.60258H1.29999C0.609988 9.60258 0.0499878 9.04258 0.0499878 8.35258V6.91258C0.0499878 6.39058 0.319988 5.91058 0.755988 5.63858L9.37899 0.819582C9.58732 0.715382 9.81705 0.661133 10.05 0.661133C10.2829 0.661133 10.5117 0.715382 10.72 0.819582ZM15.05 9.60258H5.04999V17.6026H7.04999V11.6026H9.04999V17.6026H11.05V11.6026H13.05V17.6026H15.05V9.60258ZM10.05 4.60258C9.78477 4.60258 9.53042 4.70794 9.34288 4.89548C9.15534 5.08301 9.04999 5.33737 9.04999 5.60258C9.04999 5.8678 9.15534 6.12215 9.34288 6.30969C9.53042 6.49722 9.78477 6.60258 10.05 6.60258C10.3152 6.60258 10.5696 6.49722 10.7571 6.30969C10.9446 6.12215 11.05 5.8678 11.05 5.60258C11.05 5.33737 10.9446 5.08301 10.7571 4.89548C10.5696 4.70794 10.3152 4.60258 10.05 4.60258Z" fill="#8A8A8A"/>
</svg>
