<svg width="17" height="17" viewBox="0 0 17 17" fill="none" xmlns="http://www.w3.org/2000/svg">
<path d="M8.70833 0.583008C7.14256 0.583008 5.61195 1.04731 4.31006 1.91721C3.00817 2.7871 1.99347 4.02352 1.39428 5.4701C0.795087 6.91668 0.63831 8.50846 0.943777 10.0441C1.24924 11.5798 2.00323 12.9904 3.1104 14.0976C4.21756 15.2048 5.62818 15.9588 7.16386 16.2642C8.69955 16.5697 10.2913 16.4129 11.7379 15.8137C13.1845 15.2145 14.4209 14.1998 15.2908 12.8979C16.1607 11.5961 16.625 10.0654 16.625 8.49967C16.625 7.46004 16.4202 6.43059 16.0224 5.4701C15.6245 4.5096 15.0414 3.63688 14.3063 2.90175C13.5711 2.16662 12.6984 1.58348 11.7379 1.18563C10.7774 0.787778 9.74796 0.583008 8.70833 0.583008ZM8.70833 14.833C7.45571 14.833 6.23123 14.4616 5.18971 13.7656C4.1482 13.0697 3.33644 12.0806 2.85709 10.9233C2.37773 9.76607 2.25231 8.49265 2.49669 7.2641C2.74106 6.03556 3.34425 4.90706 4.22998 4.02133C5.11572 3.1356 6.24421 2.53241 7.47276 2.28803C8.7013 2.04366 9.97472 2.16908 11.132 2.64844C12.2893 3.12779 13.2784 3.93955 13.9743 4.98106C14.6702 6.02257 15.0417 7.24706 15.0417 8.49967C15.0417 10.1794 14.3744 11.7903 13.1867 12.978C11.9989 14.1657 10.388 14.833 8.70833 14.833ZM8.70833 3.74967C8.49836 3.74967 8.297 3.83308 8.14853 3.98155C8.00007 4.13001 7.91666 4.33138 7.91666 4.54134V8.04051L6.25416 8.99842C6.10165 9.08485 5.98214 9.21944 5.91436 9.3811C5.84658 9.54276 5.83438 9.72234 5.87966 9.89169C5.92494 10.061 6.02514 10.2106 6.16455 10.3168C6.30397 10.4231 6.4747 10.4801 6.64999 10.4788C6.78867 10.4798 6.92517 10.4443 7.04583 10.3759L9.10416 9.18843L9.17541 9.11717L9.30208 9.01426C9.33303 8.97507 9.35958 8.93259 9.38124 8.88759C9.40704 8.84509 9.42827 8.79998 9.44458 8.75301C9.46611 8.70267 9.47947 8.64922 9.48416 8.59468L9.49999 8.49967V4.54134C9.49999 4.33138 9.41659 4.13001 9.26812 3.98155C9.11965 3.83308 8.91829 3.74967 8.70833 3.74967Z" fill="#5BBB7B"/>
</svg>
