<svg width="29" height="31" viewBox="0 0 29 31" fill="none" xmlns="http://www.w3.org/2000/svg">
<circle cx="16.5" cy="17.875" r="12.5" fill="#EEFCEE"/>
<path d="M20.7182 5.99842C20.6936 5.95356 20.6607 5.91466 20.6207 5.8825C20.5807 5.85034 20.5359 5.82692 20.4868 5.81223C20.4372 5.79754 20.3869 5.79278 20.3358 5.79794C20.2847 5.8031 20.2363 5.81779 20.1908 5.84201C20.1452 5.86583 20.1064 5.89798 20.0731 5.93729C20.0402 5.97698 20.016 6.02105 20.0006 6.07028C19.9851 6.11951 19.9792 6.16953 19.9835 6.22074C19.9879 6.27235 20.0014 6.32079 20.0248 6.36684C23.636 13.009 18.5623 21.4346 10.9923 21.3385C10.8255 21.3385 10.6587 21.3341 10.4919 21.3258C10.3251 21.3174 10.1587 21.3047 9.99225 21.2885C9.82623 21.2718 9.6606 21.2511 9.49538 21.2265C9.33015 21.2019 9.16571 21.1729 9.00207 21.1404C8.83803 21.1074 8.67518 21.0709 8.51313 21.03C8.35146 20.9895 8.19059 20.9447 8.03052 20.8962C7.87084 20.8474 7.71235 20.795 7.55544 20.7386C7.39814 20.6822 7.24242 20.6219 7.08789 20.558C6.93376 20.4941 6.78121 20.4262 6.63025 20.3547C6.47928 20.2833 6.3303 20.2078 6.1829 20.1292C6.0359 20.0502 5.89049 19.9676 5.74745 19.8819C5.60401 19.7957 5.46296 19.7064 5.32428 19.6135C5.1856 19.5206 5.0489 19.4246 4.91497 19.3249C4.78065 19.2253 4.6491 19.1224 4.51993 19.0164C4.39116 18.9104 4.26476 18.8013 4.14074 18.6893C4.01712 18.577 3.89627 18.4618 3.77819 18.3435C3.66012 18.2252 3.54481 18.1045 3.43268 17.9807C3.32055 17.8568 3.21159 17.7302 3.10579 17.6011C2.9996 17.4721 2.89698 17.3403 2.79753 17.2061C2.69807 17.0719 2.60179 16.9354 2.50907 16.7964C2.41596 16.6575 2.32681 16.5165 2.24083 16.3732C2.15484 16.2299 2.07282 16.0846 1.99397 15.9373C1.91513 15.7896 1.83984 15.6407 1.76852 15.4895C1.6968 15.3386 1.62944 15.1858 1.56526 15.0314C1.50146 14.8773 1.44124 14.7213 1.38457 14.5641C1.32831 14.4069 1.27601 14.2481 1.22727 14.0881C1.17854 13.9285 1.13416 13.7673 1.09335 13.6053C1.05254 13.4434 1.01608 13.2802 0.983195 13.1166C0.950705 12.9527 0.92178 12.7879 0.897214 12.6228C0.872647 12.4576 0.852044 12.2917 0.835402 12.1253C0.81876 11.959 0.806477 11.7926 0.798156 11.6255C0.789836 11.4588 0.785477 11.2916 0.785081 11.1245C0.690778 3.54973 9.10826 -1.5271 15.7475 2.08679C15.7934 2.111 15.8422 2.12569 15.8941 2.13085C15.946 2.13562 15.9967 2.13046 16.0466 2.11497C16.0961 2.09989 16.1413 2.07567 16.1813 2.04232C16.2218 2.00937 16.2538 1.96967 16.2784 1.92362C16.3026 1.87757 16.3172 1.82874 16.3224 1.77673C16.3272 1.72512 16.322 1.6743 16.3069 1.62428C16.2915 1.57466 16.2673 1.5294 16.234 1.4893C16.2012 1.44921 16.1615 1.41705 16.1156 1.39243C15.9317 1.29557 15.7455 1.20386 15.5565 1.11771C15.3675 1.03156 15.1761 0.950574 14.9827 0.875144C14.7894 0.799714 14.5937 0.729842 14.3963 0.665528C14.1986 0.601214 13.9997 0.542458 13.7988 0.48926C13.5979 0.436459 13.3959 0.389216 13.1926 0.347531C12.9889 0.305846 12.7845 0.270117 12.5788 0.239945C12.3736 0.21017 12.1671 0.185953 11.9603 0.167691C11.7535 0.149429 11.5463 0.137122 11.3386 0.130373C11.131 0.124021 10.9234 0.123227 10.7162 0.128388C10.5085 0.133549 10.3009 0.144665 10.0941 0.161736C9.88725 0.178807 9.68081 0.201436 9.47517 0.230417C9.26953 0.259001 9.06468 0.293539 8.86101 0.333636C8.65735 0.37413 8.45488 0.420182 8.2536 0.471792C8.05271 0.523799 7.85301 0.580967 7.65529 0.64409C7.45718 0.707213 7.26144 0.775894 7.06729 0.850133C6.87353 0.924372 6.68176 1.00377 6.49236 1.08913C6.30257 1.17408 6.11594 1.2646 5.9313 1.36028C5.74705 1.45595 5.56558 1.55679 5.38688 1.66279C5.20818 1.76879 5.03265 1.87955 4.86029 1.99548C4.68793 2.1114 4.51914 2.23209 4.35352 2.35754C4.18789 2.48299 4.02623 2.61321 3.86814 2.74779C3.71004 2.88277 3.55551 3.02172 3.40534 3.16504C3.25517 3.30835 3.10896 3.45604 2.96711 3.60769C2.82526 3.75974 2.68777 3.91537 2.55464 4.07456C2.42151 4.23416 2.29313 4.39732 2.16911 4.56406C2.04548 4.7308 1.92622 4.90112 1.81211 5.0746C1.69799 5.24809 1.58863 5.42476 1.48442 5.6046C1.38022 5.78444 1.28116 5.96706 1.18725 6.15246C1.09335 6.33786 1.00459 6.52564 0.921384 6.7158C0.838175 6.90636 0.760515 7.09891 0.688005 7.29383C0.615891 7.48876 0.548929 7.68527 0.487909 7.88377C0.42689 8.08227 0.371418 8.28276 0.321493 8.48443C0.271569 8.68611 0.227587 8.88898 0.189153 9.09343C0.150719 9.29749 0.118228 9.50274 0.0912845 9.70878C0.0647371 9.91482 0.0437371 10.1217 0.0286803 10.3289C0.0136237 10.5361 0.0045104 10.7438 0.00134057 10.9514C-0.00182926 11.159 0.00054806 11.367 0.00926514 11.5747C0.0175859 11.7823 0.0322464 11.9895 0.0524541 12.1964C0.0726618 12.4032 0.0984166 12.6093 0.130511 12.8145C0.162209 13.0198 0.200247 13.2242 0.243436 13.4275C0.287021 13.6303 0.336154 13.8324 0.39123 14.0329C0.445909 14.233 0.506532 14.4319 0.572702 14.6288C0.638872 14.8257 0.71059 15.0206 0.787854 15.2136C0.865119 15.4065 0.947535 15.5971 1.0355 15.7853C1.12346 15.9738 1.21697 16.1592 1.31523 16.3422C1.4139 16.5253 1.51731 16.7051 1.62627 16.8822C1.73484 17.0592 1.84856 17.2331 1.96703 17.4038C2.0855 17.5745 2.20873 17.7417 2.33671 17.9052C2.46509 18.0688 2.59743 18.2288 2.73453 18.3848C2.87162 18.5408 3.01307 18.6929 3.15849 18.841C3.3043 18.989 3.45408 19.1332 3.60781 19.2725C3.76195 19.4122 3.91965 19.5472 4.08091 19.6778C4.24257 19.8088 4.4074 19.9347 4.5762 20.0558C4.74459 20.1773 4.91656 20.2936 5.09209 20.4051C5.26722 20.5167 5.44552 20.6231 5.6266 20.7247C5.80768 20.8264 5.99192 20.9224 6.17855 21.0133C6.36517 21.1043 6.55457 21.19 6.74594 21.2702C6.93732 21.3508 7.13108 21.4254 7.32682 21.4945C7.52255 21.564 7.72027 21.6275 7.91957 21.6859C8.11927 21.7438 8.32016 21.7962 8.52224 21.8431C8.72471 21.8895 8.92837 21.9304 9.13283 21.9657C9.33768 22.0011 9.54332 22.0301 9.74936 22.0539C9.95579 22.0773 10.1626 22.0948 10.3699 22.1067C10.5775 22.1186 10.7847 22.1241 10.9927 22.1241C19.1459 22.2262 24.6095 13.1539 20.7182 5.99842Z" fill="#5BBB7B"/>
<path d="M10.9926 7.98195C11.3346 7.98195 11.6678 8.03753 11.9915 8.14909C12.0407 8.16616 12.091 8.17291 12.1433 8.16973C12.1952 8.16656 12.2443 8.15345 12.2911 8.13083C12.3378 8.1078 12.3786 8.07683 12.4131 8.03793C12.4476 7.99902 12.4733 7.95496 12.4904 7.90573C12.6627 7.21058 11.44 7.23837 10.9926 7.19629C5.78501 7.41146 5.78501 14.8381 10.9926 15.0533C11.121 15.0529 11.2494 15.0466 11.377 15.0339C11.505 15.0211 11.6322 15.0021 11.7582 14.9771C11.8842 14.9517 12.0086 14.9203 12.1318 14.883C12.2546 14.8457 12.3755 14.8024 12.4943 14.7532C12.6128 14.7036 12.7289 14.6488 12.8422 14.588C12.9556 14.5273 13.0657 14.4614 13.1727 14.3899C13.2793 14.3185 13.3827 14.2418 13.4817 14.1601C13.5812 14.0787 13.6763 13.9921 13.767 13.9012C13.8582 13.8103 13.9441 13.715 14.0258 13.6158C14.1074 13.5161 14.1839 13.4133 14.2556 13.3061C14.3269 13.1993 14.3927 13.089 14.4537 12.9758C14.5143 12.8623 14.569 12.7463 14.6185 12.6272C14.6677 12.5085 14.7108 12.3879 14.7485 12.2648C14.7857 12.1417 14.817 12.0171 14.8424 11.8908C14.8674 11.7646 14.8864 11.6375 14.8991 11.5097C14.9117 11.3819 14.9181 11.2532 14.9185 11.1246C14.8785 10.6688 14.905 9.458 14.2132 9.6299C14.1641 9.64697 14.1201 9.67238 14.0808 9.70691C14.042 9.74145 14.0111 9.78234 13.9881 9.82919C13.9655 9.87604 13.9525 9.92526 13.9493 9.97727C13.9461 10.0293 13.9529 10.0801 13.9699 10.1293C14.0801 10.4521 14.1343 10.7836 14.1331 11.1246C13.9758 15.2875 8.00904 15.2875 7.85173 11.1246C7.85173 11.0218 7.85689 10.9194 7.86719 10.8169C7.87749 10.7145 7.89255 10.6129 7.91275 10.5116C7.93296 10.4108 7.95792 10.3111 7.98764 10.2127C8.01775 10.1142 8.05223 10.0178 8.09185 9.92248C8.13108 9.8276 8.17506 9.7347 8.22379 9.64379C8.27213 9.55328 8.32483 9.46514 8.38228 9.37939C8.43934 9.29403 8.50036 9.21146 8.56574 9.13206C8.63112 9.05226 8.70006 8.97643 8.77257 8.90339C8.84548 8.83074 8.92155 8.76166 9.0008 8.69655C9.08044 8.63105 9.16286 8.56991 9.24844 8.51274C9.33403 8.45557 9.42199 8.40277 9.51272 8.35394C9.60346 8.30551 9.69618 8.26144 9.79127 8.22214C9.88597 8.18283 9.98265 8.1479 10.0813 8.11812C10.1796 8.08835 10.279 8.06294 10.3801 8.04309C10.4807 8.02284 10.5825 8.00776 10.6848 7.99743C10.787 7.98711 10.8896 7.98195 10.9926 7.98195Z" fill="#5BBB7B"/>
<path d="M14.7511 5.12795C14.7764 5.0823 14.7919 5.03387 14.7978 4.98186C14.8038 4.93025 14.7998 4.87943 14.7851 4.82901C14.7709 4.77899 14.7475 4.73373 14.715 4.69284C14.6829 4.65235 14.6437 4.619 14.5981 4.59399C14.0462 4.2883 13.4649 4.05645 12.8543 3.89845C12.2437 3.74044 11.6228 3.66104 10.9924 3.66064C1.09822 4.06995 1.09822 18.1797 10.9924 18.589C11.1537 18.589 11.315 18.5839 11.4758 18.5735C11.6367 18.5632 11.7972 18.5473 11.9573 18.5267C12.1173 18.5056 12.2766 18.4798 12.4347 18.4489C12.5932 18.4175 12.7501 18.3814 12.9062 18.3401C13.0623 18.2984 13.2165 18.2524 13.3694 18.2008C13.5224 18.1495 13.6737 18.0932 13.8231 18.032C13.9721 17.9709 14.1195 17.9046 14.2645 17.8339C14.4095 17.7633 14.5522 17.6878 14.692 17.6076C14.8323 17.5278 14.9698 17.4433 15.1041 17.3543C15.2388 17.2654 15.3704 17.1721 15.4992 17.0745C15.6275 16.9772 15.7531 16.8756 15.8748 16.77C15.9968 16.6644 16.1153 16.5548 16.2302 16.4413C16.3451 16.3281 16.4564 16.211 16.5634 16.0907C16.6708 15.97 16.7742 15.8461 16.8737 15.7187C16.9727 15.5917 17.0678 15.4611 17.1586 15.3277C17.2493 15.1943 17.3357 15.0581 17.4177 14.9192C17.4997 14.7798 17.577 14.6385 17.6499 14.4944C17.7228 14.3503 17.7905 14.2038 17.8539 14.0553C17.9173 13.9068 17.9756 13.7563 18.0291 13.6043C18.0826 13.4518 18.1313 13.2978 18.1749 13.1426C18.2185 12.987 18.2569 12.8305 18.2902 12.6725C18.3235 12.5145 18.3516 12.3557 18.375 12.1957C18.398 12.0361 18.4158 11.8758 18.4285 11.7146C18.4411 11.5538 18.4487 11.3926 18.4507 11.231C18.453 11.0698 18.4499 10.9083 18.4415 10.7471C18.4336 10.5859 18.4198 10.4251 18.4011 10.2647C18.3825 10.1043 18.3587 9.94475 18.3298 9.78595C18.3005 9.62715 18.2664 9.46954 18.2272 9.31312C18.188 9.15631 18.1436 9.00108 18.0941 8.84744C18.0449 8.6938 17.9906 8.54175 17.9312 8.39169C17.8722 8.24162 17.808 8.09354 17.7394 7.94745C17.6705 7.80135 17.5972 7.65764 17.5187 7.5163C17.4938 7.47065 17.4609 7.43135 17.4201 7.39879C17.3793 7.36624 17.3337 7.34282 17.2838 7.32813C17.2334 7.31383 17.1827 7.30947 17.1308 7.31542C17.0789 7.32098 17.0302 7.33686 16.9846 7.36187C16.9387 7.38728 16.8998 7.42063 16.8673 7.46152C16.8348 7.50241 16.8115 7.54767 16.7972 7.59809C16.7829 7.6485 16.779 7.69932 16.7849 7.75133C16.7909 7.80294 16.8067 7.85177 16.8321 7.89742C19.3208 12.216 15.9778 17.8895 10.9921 17.803C10.8831 17.803 10.7737 17.8002 10.6648 17.7946C10.5558 17.7891 10.4468 17.7811 10.3383 17.7704C10.2297 17.7593 10.1211 17.7458 10.0134 17.7299C9.9052 17.7136 9.79782 17.695 9.69084 17.6735C9.58346 17.6521 9.47727 17.6283 9.37108 17.6013C9.26529 17.5747 9.16029 17.5457 9.05568 17.5139C8.95108 17.4822 8.84766 17.4476 8.74464 17.4107C8.64202 17.3738 8.54019 17.3345 8.43915 17.2928C8.33851 17.2507 8.23866 17.2067 8.14 17.1598C8.04134 17.113 7.94386 17.0637 7.84758 17.0121C7.7513 16.9609 7.6562 16.9069 7.56269 16.8506C7.46918 16.7946 7.37686 16.7358 7.28612 16.6751C7.19539 16.6147 7.10624 16.5516 7.01827 16.4865C6.93071 16.4214 6.84473 16.3543 6.76033 16.2848C6.67593 16.2154 6.59312 16.1443 6.51229 16.0708C6.43146 15.9974 6.35221 15.922 6.27534 15.845C6.19808 15.7675 6.1228 15.6885 6.04949 15.6076C5.97619 15.5266 5.90487 15.444 5.83553 15.3594C5.76619 15.2749 5.69883 15.1887 5.63385 15.101C5.56887 15.0132 5.50587 14.9239 5.44525 14.8334C5.38462 14.7425 5.32598 14.65 5.27011 14.5563C5.21385 14.4626 5.15996 14.3677 5.10845 14.2713C5.05694 14.1752 5.00781 14.0775 4.96105 13.9787C4.9143 13.8802 4.86992 13.7802 4.82832 13.6793C4.78632 13.5785 4.74709 13.4765 4.71024 13.3736C4.67339 13.2708 4.63892 13.1672 4.60722 13.0624C4.57552 12.958 4.5462 12.8528 4.51966 12.7468C4.49311 12.6408 4.46894 12.5344 4.44754 12.4272C4.42615 12.32 4.40752 12.2124 4.39128 12.1044C4.37543 11.996 4.36196 11.8877 4.35086 11.7793C4.34016 11.6705 4.33224 11.5613 4.32669 11.4522C4.32114 11.3434 4.31837 11.2342 4.31837 11.1246C4.23279 6.13594 9.90123 2.79042 14.2177 5.2812C14.2629 5.3066 14.3117 5.32209 14.3636 5.32804C14.4151 5.334 14.4662 5.32963 14.5161 5.31534C14.5664 5.30105 14.6116 5.27762 14.6524 5.24507C14.6932 5.21252 14.7261 5.17361 14.7511 5.12795Z" fill="#5BBB7B"/>
<path d="M21.2627 3.62515L18.4047 6.48513C18.3286 6.56017 18.2371 6.59828 18.1301 6.59907H18.0984L16.2179 6.45377L11.2714 11.4036C11.2341 11.4393 11.1917 11.4663 11.1438 11.4853C11.0958 11.5044 11.0459 11.5135 10.9944 11.5127C10.9429 11.5123 10.8934 11.502 10.8458 11.4822C10.7987 11.4619 10.7567 11.4337 10.7202 11.3972C10.6838 11.3607 10.6556 11.319 10.6354 11.2714C10.6156 11.2237 10.6053 11.1741 10.6045 11.1229C10.6041 11.0713 10.6132 11.0213 10.6322 10.9736C10.6509 10.9256 10.6782 10.8831 10.7139 10.8458L15.6604 5.89599L15.5154 4.01421C15.5114 3.95744 15.5197 3.90225 15.5395 3.84866C15.5593 3.79546 15.5891 3.74822 15.6291 3.70772L18.4871 0.84774C18.5418 0.794542 18.6067 0.759606 18.6812 0.743726C18.7561 0.727846 18.829 0.733404 18.9007 0.759606C18.9725 0.786205 19.0315 0.829478 19.0783 0.890219C19.1246 0.95096 19.1516 1.01924 19.1587 1.09507L19.2879 2.82361L21.0154 2.95343C21.0915 2.96057 21.1596 2.98717 21.2203 3.03402C21.2809 3.08047 21.3245 3.13962 21.351 3.21108C21.3772 3.28294 21.3823 3.35638 21.3665 3.43102C21.3506 3.50565 21.3162 3.57036 21.2627 3.62515Z" fill="#5BBB7B"/>
</svg>
