<svg width="11" height="11" viewBox="0 0 11 11" fill="none" xmlns="http://www.w3.org/2000/svg">
<path d="M6.61626 5.50031L10.0204 2.10406C10.1695 1.95499 10.2533 1.7528 10.2533 1.54198C10.2533 1.33115 10.1695 1.12897 10.0204 0.979893C9.87135 0.830819 9.66917 0.74707 9.45835 0.74707C9.24752 0.74707 9.04534 0.830819 8.89626 0.979893L5.50001 4.38406L2.10376 0.979893C1.95469 0.830819 1.7525 0.74707 1.54168 0.74707C1.33086 0.74707 1.12867 0.830819 0.979596 0.979893C0.830522 1.12897 0.746773 1.33115 0.746773 1.54198C0.746773 1.7528 0.830522 1.95499 0.979596 2.10406L4.38376 5.50031L0.979596 8.89656C0.905394 8.97016 0.846499 9.05771 0.806307 9.15419C0.766115 9.25066 0.745422 9.35413 0.745422 9.45864C0.745422 9.56315 0.766115 9.66663 0.806307 9.7631C0.846499 9.85957 0.905394 9.94713 0.979596 10.0207C1.05319 10.0949 1.14075 10.1538 1.23722 10.194C1.33369 10.2342 1.43717 10.2549 1.54168 10.2549C1.64619 10.2549 1.74966 10.2342 1.84614 10.194C1.94261 10.1538 2.03017 10.0949 2.10376 10.0207L5.50001 6.61656L8.89626 10.0207C8.96986 10.0949 9.05742 10.1538 9.15389 10.194C9.25036 10.2342 9.35384 10.2549 9.45835 10.2549C9.56285 10.2549 9.66633 10.2342 9.7628 10.194C9.85927 10.1538 9.94683 10.0949 10.0204 10.0207C10.0946 9.94713 10.1535 9.85957 10.1937 9.7631C10.2339 9.66663 10.2546 9.56315 10.2546 9.45864C10.2546 9.35413 10.2339 9.25066 10.1937 9.15419C10.1535 9.05771 10.0946 8.97016 10.0204 8.89656L6.61626 5.50031Z" fill="#EB4335"/>
</svg>
