<svg width="26" height="25" viewBox="0 0 26 25" fill="none" xmlns="http://www.w3.org/2000/svg">
<rect x="0.257812" width="25" height="25" rx="5" fill="white" fill-opacity="0.87"/>
<path d="M13.1745 10.3571C13.1745 10.1204 12.9879 9.92857 12.7578 9.92857C12.5277 9.92857 12.3411 10.1204 12.3411 10.3571V16.3571C12.3411 16.5938 12.5277 16.7857 12.7578 16.7857C12.9879 16.7857 13.1745 16.5938 13.1745 16.3571V10.3571Z" fill="#FF6161"/>
<path d="M10.8679 9.92885C11.0979 9.9204 11.291 10.1053 11.2992 10.3418L11.5076 16.3418C11.5158 16.5784 11.336 16.777 11.106 16.7854C10.8761 16.7939 10.683 16.609 10.6747 16.3724L10.4664 10.3724C10.4582 10.1359 10.638 9.93729 10.8679 9.92885Z" fill="#FF6161"/>
<path d="M15.0492 10.3724C15.0574 10.1359 14.8777 9.93729 14.6477 9.92885C14.4177 9.9204 14.2246 10.1053 14.2164 10.3418L14.0081 16.3418C13.9999 16.5784 14.1796 16.777 14.4096 16.7854C14.6396 16.7939 14.8327 16.609 14.8409 16.3724L15.0492 10.3724Z" fill="#FF6161"/>
<path fill-rule="evenodd" clip-rule="evenodd" d="M10.7531 7.1617C10.7009 7.29181 10.6742 7.43124 10.6745 7.57198V8.21428H8.17448C7.94436 8.21428 7.75781 8.40616 7.75781 8.64285C7.75781 8.87955 7.94436 9.07143 8.17448 9.07143H8.61639L9.11267 17.2388C9.14887 17.9398 9.66281 18.5 10.362 18.5H15.1537C15.8595 18.5 16.3616 17.9347 16.4029 17.2404L16.8993 9.07143H17.3411C17.5713 9.07143 17.7578 8.87955 17.7578 8.64285C17.7578 8.40616 17.5713 8.21428 17.3411 8.21428H14.8411V7.57207C14.8415 7.43129 14.8148 7.29184 14.7626 7.1617C14.7103 7.03137 14.6335 6.91296 14.5366 6.81326C14.4397 6.71357 14.3245 6.63458 14.1978 6.58082C14.0713 6.52715 13.9358 6.49968 13.7989 6.5H11.7167C11.5798 6.49968 11.4443 6.52715 11.3178 6.58082C11.1911 6.63458 11.076 6.71357 10.979 6.81326C10.8821 6.91295 10.8053 7.03137 10.7531 7.1617ZM11.7149 7.35714C11.6877 7.35706 11.6607 7.36251 11.6356 7.37319C11.6104 7.38387 11.5875 7.39956 11.5683 7.41936C11.5491 7.43915 11.5338 7.46267 11.5234 7.48855C11.513 7.51444 11.5077 7.54218 11.5078 7.57017L11.5078 7.57143V8.21428H14.0078V7.57143L14.0078 7.57017C14.0079 7.54218 14.0026 7.51444 13.9922 7.48855C13.9818 7.46267 13.9666 7.43915 13.9473 7.41936C13.9281 7.39956 13.9052 7.38387 13.8801 7.37319C13.8549 7.36251 13.8279 7.35706 13.8007 7.35714L13.7995 7.35714H11.7161L11.7149 7.35714ZM11.0911 9.07143L11.0896 9.07143H9.45135L9.94452 17.1876L9.94478 17.1923C9.95919 17.4807 10.1454 17.6429 10.362 17.6429H15.1537C15.3682 17.6429 15.5535 17.4843 15.5711 17.1881L16.0643 9.07143H14.426L14.4245 9.07143L14.423 9.07143H11.0927L11.0911 9.07143Z" fill="#FF6161"/>
</svg>
