<svg width="24" height="24" viewBox="0 0 24 24" fill="none" xmlns="http://www.w3.org/2000/svg">
<g clip-path="url(#clip0_886_409)">
<path d="M12 13C12.5523 13 13 12.5523 13 12C13 11.4477 12.5523 11 12 11C11.4477 11 11 11.4477 11 12C11 12.5523 11.4477 13 12 13Z" stroke="#8A8A8A" stroke-width="2" stroke-linecap="round" stroke-linejoin="round"/>
<path d="M16.924 11.1321C16.7523 10.1582 16.2957 9.25704 15.6119 8.54265C14.9281 7.82825 14.0478 7.33267 13.0824 7.11858C12.1169 6.90449 11.1096 6.9815 10.188 7.33987C9.26626 7.69825 8.47154 8.32189 7.90428 9.13193C7.33703 9.94198 7.02272 10.902 7.0011 11.8907C6.97949 12.8794 7.25154 13.8523 7.78285 14.6863C8.31416 15.5204 9.08087 16.1782 9.98602 16.5765C10.8912 16.9748 11.8941 17.0958 12.868 16.9241" stroke="#8A8A8A" stroke-width="2" stroke-linecap="round" stroke-linejoin="round"/>
<path d="M3 12C3 13.78 3.52784 15.5201 4.51677 17.0001C5.50571 18.4802 6.91131 19.6337 8.55585 20.3149C10.2004 20.9961 12.01 21.1743 13.7558 20.8271C15.5016 20.4798 17.1053 19.6226 18.364 18.364C19.6226 17.1053 20.4798 15.5016 20.8271 13.7558C21.1743 12.01 20.9961 10.2004 20.3149 8.55585C19.6337 6.91131 18.4802 5.50571 17.0001 4.51677C15.5201 3.52784 13.78 3 12 3" stroke="#8A8A8A" stroke-width="2" stroke-linecap="round" stroke-linejoin="round"/>
</g>
<defs>
<clipPath id="clip0_886_409">
<rect width="24" height="24" fill="white"/>
</clipPath>
</defs>
</svg>
