<svg width="18" height="19" viewBox="0 0 18 19" fill="none" xmlns="http://www.w3.org/2000/svg">
<path d="M15.1202 4.25012C14.3252 3.45303 13.2713 2.96653 12.149 2.8785C11.0266 2.79047 9.90978 3.10672 9.00021 3.77012C8.04595 3.06035 6.8582 2.73851 5.67615 2.8694C4.49409 3.0003 3.40554 3.57421 2.62969 4.47556C1.85384 5.37692 1.44832 6.53876 1.49481 7.72713C1.54129 8.9155 2.03632 10.0421 2.88021 10.8801L7.53771 15.5451C7.92772 15.929 8.453 16.1441 9.00021 16.1441C9.54742 16.1441 10.0727 15.929 10.4627 15.5451L15.1202 10.8801C15.9959 9.99907 16.4874 8.80733 16.4874 7.56512C16.4874 6.32292 15.9959 5.13117 15.1202 4.25012ZM14.0627 9.84512L9.40521 14.5026C9.35221 14.5561 9.28913 14.5986 9.21961 14.6276C9.1501 14.6566 9.07552 14.6715 9.00021 14.6715C8.92489 14.6715 8.85032 14.6566 8.7808 14.6276C8.71129 14.5986 8.64821 14.5561 8.59521 14.5026L3.93771 9.82262C3.34952 9.22138 3.02016 8.41372 3.02016 7.57262C3.02016 6.73152 3.34952 5.92387 3.93771 5.32262C4.53707 4.73087 5.34544 4.39905 6.18771 4.39905C7.02998 4.39905 7.83834 4.73087 8.43771 5.32262C8.50743 5.39292 8.59038 5.44872 8.68177 5.48679C8.77317 5.52487 8.8712 5.54447 8.97021 5.54447C9.06921 5.54447 9.16724 5.52487 9.25864 5.48679C9.35003 5.44872 9.43298 5.39292 9.50271 5.32262C10.1021 4.73087 10.9104 4.39905 11.7527 4.39905C12.595 4.39905 13.4033 4.73087 14.0027 5.32262C14.599 5.91599 14.9391 6.71927 14.9504 7.56039C14.9616 8.40151 14.6429 9.21357 14.0627 9.82262V9.84512Z" fill="#1F4B3F"/>
</svg>
