<svg width="20" height="21" viewBox="0 0 20 21" fill="none" xmlns="http://www.w3.org/2000/svg">
<path d="M18.5536 2.52315C18.3163 2.32576 18.03 2.1964 17.725 2.14882C17.4201 2.10124 17.1079 2.13724 16.8218 2.25297L1.88772 8.28243C1.56835 8.41384 1.29649 8.63926 1.10822 8.92878C0.919961 9.2183 0.824197 9.55824 0.833645 9.90346C0.843093 10.2487 0.957305 10.5829 1.16112 10.8617C1.36494 11.1404 1.64872 11.3507 1.97481 11.4644L4.99564 12.515L6.67939 18.083C6.70227 18.1574 6.73548 18.2282 6.77804 18.2934C6.7845 18.3034 6.79361 18.3108 6.80047 18.3205C6.84965 18.3891 6.90907 18.4498 6.97667 18.5003C6.99589 18.515 7.0143 18.5287 7.03485 18.5417C7.11396 18.5942 7.20157 18.6326 7.29379 18.6552L7.30366 18.656L7.30925 18.6584C7.36469 18.6697 7.42113 18.6754 7.47771 18.6755C7.48315 18.6755 7.48798 18.6729 7.49337 18.6728C7.57876 18.6713 7.6634 18.6566 7.74428 18.6292C7.7631 18.6228 7.77922 18.6121 7.79748 18.6043C7.8578 18.5793 7.91494 18.5473 7.96772 18.5089C8.00999 18.4732 8.05228 18.4376 8.09457 18.402L10.3464 15.9159L13.7049 18.5176C14.0006 18.7478 14.3646 18.8729 14.7393 18.8732C15.1319 18.8727 15.5125 18.7373 15.8171 18.4895C16.1217 18.2418 16.3319 17.8968 16.4125 17.5125L19.1314 4.16541C19.193 3.86501 19.1718 3.55351 19.07 3.26423C18.9682 2.97496 18.7897 2.7188 18.5536 2.52315ZM7.80814 12.7803C7.69259 12.8954 7.61361 13.0421 7.58109 13.2019L7.32317 14.4552L6.66978 12.2943L10.0575 10.5302L7.80814 12.7803ZM14.7263 17.2L10.7574 14.1255C10.5913 13.9972 10.383 13.9362 10.174 13.9546C9.96494 13.973 9.77051 14.0694 9.62942 14.2248L8.90825 15.0208L9.16312 13.7821L15.0656 7.87958C15.2065 7.73888 15.2923 7.55237 15.3076 7.35384C15.3228 7.15532 15.2665 6.95789 15.1487 6.79734C15.0309 6.63678 14.8596 6.52371 14.6656 6.4786C14.4717 6.4335 14.268 6.45934 14.0915 6.55145L5.62043 10.962L2.5168 9.82622L17.4989 3.83254L14.7263 17.2Z" fill="white"/>
</svg>
