<svg width="19" height="19" viewBox="0 0 19 19" fill="none" xmlns="http://www.w3.org/2000/svg">
<path d="M14 10.9998C13.5569 11.0028 13.1199 11.1038 12.7205 11.2958C12.3211 11.4877 11.9692 11.7657 11.69 12.1098L7.86499 10.3473C8.04483 9.79665 8.04483 9.20303 7.86499 8.65234L11.69 6.88984C12.1412 7.43432 12.7702 7.8019 13.4661 7.92772C14.162 8.05354 14.8799 7.92951 15.4932 7.57752C16.1065 7.22553 16.5758 6.6682 16.8182 6.0039C17.0605 5.3396 17.0605 4.61103 16.818 3.94677C16.5755 3.28252 16.1061 2.72527 15.4927 2.37339C14.8794 2.02151 14.1614 1.89761 13.4656 2.02356C12.7697 2.14951 12.1408 2.51721 11.6896 3.06176C11.2385 3.60632 10.9943 4.29273 11 4.99984C11.0022 5.17852 11.0198 5.35667 11.0525 5.53234L7.09249 7.35484C6.6703 6.94203 6.13567 6.66298 5.55559 6.55266C4.97552 6.44235 4.37578 6.50567 3.83153 6.73469C3.28728 6.96371 2.82271 7.34826 2.49604 7.84014C2.16937 8.33202 1.99512 8.90937 1.99512 9.49984C1.99512 10.0903 2.16937 10.6677 2.49604 11.1595C2.82271 11.6514 3.28728 12.036 3.83153 12.265C4.37578 12.494 4.97552 12.5573 5.55559 12.447C6.13567 12.3367 6.6703 12.0577 7.09249 11.6448L11.0525 13.4673C11.0198 13.643 11.0022 13.8212 11 13.9998C11 14.5932 11.1759 15.1732 11.5056 15.6666C11.8352 16.1599 12.3038 16.5444 12.8519 16.7715C13.4001 16.9985 14.0033 17.058 14.5853 16.9422C15.1672 16.8264 15.7018 16.5407 16.1213 16.1212C16.5409 15.7016 16.8266 15.1671 16.9423 14.5851C17.0581 14.0032 16.9987 13.4 16.7716 12.8518C16.5446 12.3036 16.16 11.8351 15.6667 11.5054C15.1734 11.1758 14.5933 10.9998 14 10.9998ZM14 3.49984C14.2967 3.49984 14.5867 3.58782 14.8333 3.75264C15.08 3.91746 15.2723 4.15173 15.3858 4.42582C15.4993 4.69991 15.529 5.00151 15.4712 5.29248C15.4133 5.58345 15.2704 5.85072 15.0607 6.0605C14.8509 6.27028 14.5836 6.41314 14.2926 6.47102C14.0017 6.5289 13.7001 6.49919 13.426 6.38566C13.1519 6.27213 12.9176 6.07987 12.7528 5.8332C12.588 5.58652 12.5 5.29651 12.5 4.99984C12.5 4.60202 12.658 4.22049 12.9393 3.93918C13.2206 3.65788 13.6022 3.49984 14 3.49984ZM4.99999 10.9998C4.70332 10.9998 4.41331 10.9119 4.16664 10.747C3.91996 10.5822 3.7277 10.348 3.61417 10.0739C3.50064 9.79978 3.47093 9.49818 3.52881 9.20721C3.58669 8.91623 3.72955 8.64896 3.93933 8.43918C4.14911 8.2294 4.41638 8.08654 4.70736 8.02866C4.99833 7.97079 5.29993 8.00049 5.57402 8.11402C5.8481 8.22755 6.08237 8.41981 6.24719 8.66649C6.41202 8.91316 6.49999 9.20317 6.49999 9.49984C6.49999 9.89767 6.34196 10.2792 6.06065 10.5605C5.77935 10.8418 5.39782 10.9998 4.99999 10.9998ZM14 15.4998C13.7033 15.4998 13.4133 15.4119 13.1666 15.247C12.92 15.0822 12.7277 14.848 12.6142 14.5739C12.5006 14.2998 12.4709 13.9982 12.5288 13.7072C12.5867 13.4162 12.7296 13.149 12.9393 12.9392C13.1491 12.7294 13.4164 12.5865 13.7074 12.5287C13.9983 12.4708 14.2999 12.5005 14.574 12.614C14.8481 12.7276 15.0824 12.9198 15.2472 13.1665C15.412 13.4132 15.5 13.7032 15.5 13.9998C15.5 14.3977 15.342 14.7792 15.0607 15.0605C14.7793 15.3418 14.3978 15.4998 14 15.4998Z" fill="#1F4B3F"/>
</svg>
