<svg width="24" height="25" viewBox="0 0 24 25" fill="none" xmlns="http://www.w3.org/2000/svg">
<path d="M18.3 9.09L19.21 8.19C19.3983 8.0017 19.5041 7.7463 19.5041 7.48C19.5041 7.2137 19.3983 6.9583 19.21 6.77C19.0217 6.5817 18.7663 6.47591 18.5 6.47591C18.2337 6.47591 17.9783 6.5817 17.79 6.77L16.89 7.68C15.4886 6.59585 13.7669 6.00764 11.995 6.00764C10.2232 6.00764 8.50147 6.59585 7.10003 7.68L6.19003 6.76C6.0004 6.5717 5.74373 6.46644 5.47649 6.46737C5.20925 6.46831 4.95333 6.57537 4.76503 6.765C4.57672 6.95463 4.47146 7.2113 4.4724 7.47854C4.47334 7.74578 4.5804 8.0017 4.77003 8.19L5.69003 9.1C4.59304 10.4975 3.99782 12.2233 4.00003 14C3.99676 15.2754 4.29849 16.5331 4.88005 17.6683C5.46161 18.8034 6.30614 19.783 7.34322 20.5254C8.38029 21.2679 9.57985 21.7516 10.8418 21.9362C12.1038 22.1208 13.3917 22.0011 14.598 21.5869C15.8043 21.1727 16.8941 20.4761 17.7764 19.5552C18.6588 18.6342 19.3082 17.5157 19.6705 16.2928C20.0328 15.0699 20.0974 13.7781 19.859 12.5251C19.6206 11.2722 19.0861 10.0944 18.3 9.09ZM12 20C10.8133 20 9.6533 19.6481 8.6666 18.9888C7.67991 18.3295 6.91087 17.3925 6.45675 16.2961C6.00262 15.1997 5.8838 13.9933 6.11531 12.8295C6.34683 11.6656 6.91827 10.5965 7.75739 9.75736C8.5965 8.91824 9.6656 8.3468 10.8295 8.11529C11.9934 7.88378 13.1998 8.0026 14.2961 8.45672C15.3925 8.91085 16.3296 9.67988 16.9888 10.6666C17.6481 11.6533 18 12.8133 18 14C18 15.5913 17.3679 17.1174 16.2427 18.2426C15.1174 19.3679 13.5913 20 12 20ZM10 5H14C14.2652 5 14.5196 4.89464 14.7071 4.70711C14.8947 4.51957 15 4.26522 15 4C15 3.73478 14.8947 3.48043 14.7071 3.29289C14.5196 3.10536 14.2652 3 14 3H10C9.73481 3 9.48046 3.10536 9.29292 3.29289C9.10538 3.48043 9.00003 3.73478 9.00003 4C9.00003 4.26522 9.10538 4.51957 9.29292 4.70711C9.48046 4.89464 9.73481 5 10 5ZM13 11C13 10.7348 12.8947 10.4804 12.7071 10.2929C12.5196 10.1054 12.2652 10 12 10C11.7348 10 11.4805 10.1054 11.2929 10.2929C11.1054 10.4804 11 10.7348 11 11V12.89C10.7736 13.0925 10.614 13.359 10.5423 13.6542C10.4707 13.9495 10.4904 14.2595 10.5988 14.5433C10.7072 14.8271 10.8992 15.0712 11.1494 15.2435C11.3996 15.4158 11.6962 15.508 12 15.508C12.3038 15.508 12.6004 15.4158 12.8507 15.2435C13.1009 15.0712 13.2929 14.8271 13.4013 14.5433C13.5097 14.2595 13.5294 13.9495 13.4577 13.6542C13.3861 13.359 13.2265 13.0925 13 12.89V11Z" fill="#B7B7B7"/>
</svg>
