<svg width="24" height="25" viewBox="0 0 24 25" fill="none" xmlns="http://www.w3.org/2000/svg">
<path d="M19.8699 9.1001C19.7954 8.92882 19.6744 8.78183 19.5206 8.67578C19.3668 8.56974 19.1865 8.50888 18.9999 8.5001H14.4199L15.6899 3.7601C15.7303 3.61177 15.736 3.45612 15.7065 3.30523C15.6771 3.15434 15.6132 3.01229 15.5199 2.8901C15.4267 2.76908 15.3071 2.67101 15.1701 2.60341C15.0332 2.53581 14.8826 2.50047 14.7299 2.5001H7.72988C7.50411 2.49236 7.28238 2.5613 7.1008 2.69567C6.91922 2.83004 6.78848 3.02194 6.72988 3.2401L4.04988 13.2401C4.00943 13.3884 4.00373 13.5441 4.03321 13.695C4.06269 13.8459 4.12657 13.9879 4.21988 14.1101C4.31406 14.2325 4.4353 14.3313 4.5741 14.399C4.71289 14.4667 4.86547 14.5013 5.01988 14.5001H8.88988L7.07988 21.2401C7.02057 21.4574 7.0364 21.6884 7.12478 21.8957C7.21316 22.1029 7.36893 22.2742 7.56684 22.3818C7.76474 22.4895 7.9932 22.5271 8.21518 22.4887C8.43716 22.4503 8.63967 22.338 8.78988 22.1701L19.6899 10.1701C19.8197 10.028 19.9057 9.85143 19.9376 9.66163C19.9695 9.47184 19.946 9.27686 19.8699 9.1001ZM10.0799 17.7801L11.1499 13.7801C11.1903 13.6318 11.196 13.4761 11.1665 13.3252C11.1371 13.1743 11.0732 13.0323 10.9799 12.9101C10.8867 12.7891 10.7671 12.691 10.6301 12.6234C10.4932 12.5558 10.3426 12.5205 10.1899 12.5201H6.34988L8.48988 4.5001H13.4199L12.1499 9.2401C12.1091 9.39115 12.1043 9.54967 12.136 9.7029C12.1676 9.85613 12.2348 9.9998 12.332 10.1224C12.4293 10.2449 12.554 10.3429 12.696 10.4085C12.8381 10.4741 12.9935 10.5055 13.1499 10.5001H16.7199L10.0799 17.7801Z" fill="#B7B7B7"/>
</svg>
