<svg width="32" height="35" viewBox="0 0 32 35" fill="none" xmlns="http://www.w3.org/2000/svg">
<circle cx="19.5" cy="21.875" r="12.5" fill="#EEFCEE"/>
<path d="M11.25 13.875C14.0114 13.875 16.25 11.6364 16.25 8.875C16.25 6.11357 14.0114 3.875 11.25 3.875C8.48857 3.875 6.25 6.11357 6.25 8.875C6.25 11.6364 8.48857 13.875 11.25 13.875Z" stroke="#5BBB7B" stroke-width="1.5" stroke-linecap="round" stroke-linejoin="round"/>
<path d="M2.5 22.625C2.5 17.7925 6.41751 13.875 11.25 13.875C13.2937 13.875 15.1739 14.5757 16.6632 15.75" stroke="#5BBB7B" stroke-width="1.5" stroke-linecap="round" stroke-linejoin="round"/>
<path d="M26.7048 21.0086L27.0752 23.5086C27.299 25.0187 26.1288 26.375 24.6022 26.375H20.3975C18.8708 26.375 17.7007 25.0187 17.9245 23.5086L18.2948 21.0086C18.4765 19.7827 19.5287 18.875 20.7678 18.875H24.2318C25.471 18.875 26.5232 19.7827 26.7048 21.0086Z" stroke="#5BBB7B" stroke-width="1.5" stroke-linecap="round" stroke-linejoin="round"/>
<path d="M21.25 16.375H23.75" stroke="#5BBB7B" stroke-width="1.5" stroke-linecap="round" stroke-linejoin="round"/>
</svg>
