<svg width="65" height="66" viewBox="0 0 65 66" fill="none" xmlns="http://www.w3.org/2000/svg">
<circle cx="32.5" cy="33" r="32.5" fill="#EEF8F2"/>
<path d="M52.1126 39.3654H50.1395V33.8985C50.1395 33.8735 50.1371 33.8492 50.1323 33.8245C50.1275 33.8002 50.1203 33.7766 50.1107 33.7537C50.1015 33.7307 50.0898 33.7092 50.0758 33.6883C50.0621 33.6677 50.0463 33.6486 50.0289 33.6311C50.0114 33.6136 49.9922 33.5979 49.9717 33.5842C49.9508 33.5705 49.9292 33.5585 49.9063 33.5493C49.8834 33.5397 49.8597 33.5325 49.8351 33.5277C49.8108 33.5229 49.7865 33.5205 49.7615 33.5205H46.605C46.5803 33.5205 46.5557 33.5229 46.5314 33.5277C46.5071 33.5325 46.4831 33.5397 46.4605 33.5493C46.4376 33.5585 46.4157 33.5705 46.3951 33.5842C46.3742 33.5979 46.3551 33.6136 46.3376 33.6311C46.3201 33.6486 46.3044 33.6677 46.2907 33.6883C46.277 33.7092 46.2653 33.7307 46.2558 33.7537C46.2462 33.7766 46.239 33.8002 46.2342 33.8245C46.2294 33.8492 46.227 33.8735 46.227 33.8985V39.3654H44.2569C44.2199 39.3654 44.1833 39.3709 44.1477 39.3815C44.1121 39.3925 44.0789 39.4082 44.048 39.4288C44.0169 39.4493 43.9895 39.4736 43.9659 39.5024C43.9422 39.5311 43.9231 39.5623 43.9087 39.5969C43.8943 39.6311 43.8851 39.6667 43.881 39.7037C43.8772 39.7403 43.8786 39.7773 43.8854 39.8139C43.8923 39.8502 43.9046 39.8852 43.9217 39.918C43.9388 39.9509 43.9604 39.9807 43.9864 40.0074L47.9187 44.0554C47.9362 44.0736 47.9554 44.0897 47.9763 44.1041C47.9971 44.1181 48.0194 44.1304 48.0427 44.14C48.066 44.1499 48.0899 44.1575 48.1146 44.1623C48.1392 44.1674 48.1646 44.1698 48.1896 44.1698C48.2149 44.1698 48.2399 44.1674 48.2649 44.1623C48.2895 44.1575 48.3135 44.1499 48.3368 44.14C48.3601 44.1304 48.3823 44.1181 48.4032 44.1041C48.4238 44.0897 48.4433 44.0736 48.4607 44.0554L52.3931 40.0074C52.4191 39.9807 52.4407 39.9509 52.4578 39.918C52.4749 39.8852 52.4869 39.8502 52.4937 39.8139C52.5009 39.7773 52.5023 39.7403 52.4982 39.7037C52.4944 39.6667 52.4852 39.6311 52.4708 39.5969C52.4564 39.5623 52.4372 39.5311 52.4136 39.5024C52.3896 39.4736 52.3622 39.4493 52.3314 39.4288C52.3003 39.4082 52.2671 39.3925 52.2315 39.3815C52.1958 39.3709 52.1596 39.3654 52.1222 39.3654H52.1126ZM48.1803 43.2495L45.144 40.1217H46.6019C46.6269 40.1217 46.6516 40.1193 46.6759 40.1142C46.7002 40.1094 46.7238 40.1022 46.7467 40.093C46.7697 40.0834 46.7916 40.0718 46.8121 40.0581C46.8327 40.044 46.8519 40.0283 46.8693 40.0108C46.8868 39.9933 46.9025 39.9742 46.9162 39.9536C46.9303 39.9331 46.9419 39.9112 46.9515 39.8882C46.9607 39.8653 46.9679 39.8417 46.9727 39.8174C46.9779 39.7931 46.9803 39.7684 46.9803 39.7434V34.2765H49.3804V39.7434C49.3804 39.7684 49.3828 39.7931 49.3876 39.8174C49.3924 39.8417 49.3996 39.8653 49.4092 39.8882C49.4187 39.9112 49.4304 39.9331 49.4441 39.9536C49.4578 39.9742 49.4735 39.9933 49.491 40.0108C49.5088 40.0283 49.5276 40.044 49.5485 40.0581C49.569 40.0718 49.591 40.0834 49.6139 40.093C49.6368 40.1022 49.6605 40.1094 49.6848 40.1142C49.7091 40.1193 49.7337 40.1217 49.7584 40.1217H51.2156L48.1803 43.2495Z" fill="#5BBB7B"/>
<mask id="mask0_1462_9000" style="mask-type:luminance" maskUnits="userSpaceOnUse" x="11" y="33" width="10" height="12">
<path d="M11.5 33.4639H20.2155V44.245H11.5V33.4639Z" fill="white"/>
</mask>
<g mask="url(#mask0_1462_9000)">
<path d="M20.1075 39.5969C20.0932 39.5626 20.074 39.5311 20.0504 39.5024C20.0267 39.4739 19.9993 39.4493 19.9682 39.4288C19.937 39.4079 19.9038 39.3925 19.8682 39.3815C19.8326 39.3709 19.7963 39.3654 19.759 39.3654H17.7889V33.8985C17.7889 33.8735 17.7865 33.8492 17.7817 33.8245C17.7769 33.8002 17.7697 33.7766 17.7601 33.7537C17.7509 33.7307 17.7392 33.7092 17.7252 33.6883C17.7115 33.6677 17.6958 33.6486 17.6783 33.6311C17.6608 33.6136 17.6417 33.5979 17.6211 33.5842C17.6002 33.5705 17.5787 33.5585 17.5557 33.5493C17.5328 33.5397 17.5092 33.5325 17.4849 33.5277C17.4602 33.5229 17.4359 33.5205 17.4109 33.5205H14.2507C14.226 33.5205 14.2014 33.5229 14.177 33.5277C14.1527 33.5325 14.1288 33.5397 14.1058 33.5493C14.0832 33.5585 14.0613 33.5705 14.0408 33.5842C14.0199 33.5979 14.0007 33.6136 13.9833 33.6311C13.9658 33.6486 13.95 33.6677 13.9363 33.6883C13.9227 33.7092 13.911 33.7307 13.9014 33.7537C13.8918 33.7766 13.8846 33.8002 13.8799 33.8245C13.8751 33.8492 13.8727 33.8735 13.8727 33.8985V39.3654H11.8995C11.8625 39.3654 11.8262 39.3709 11.7906 39.3815C11.755 39.3925 11.7214 39.4082 11.6906 39.4288C11.6595 39.4493 11.6321 39.4736 11.6085 39.5024C11.5848 39.5311 11.5657 39.5623 11.5513 39.5969C11.5369 39.6311 11.5276 39.6667 11.5235 39.7037C11.5198 39.7403 11.5211 39.7773 11.528 39.8139C11.5352 39.8502 11.5472 39.8852 11.5643 39.918C11.5814 39.9509 11.603 39.9807 11.629 40.0074L15.5613 44.0554C15.5788 44.0736 15.598 44.0897 15.6188 44.1041C15.6397 44.1181 15.662 44.1304 15.6853 44.14C15.7085 44.1499 15.7325 44.1575 15.7572 44.1623C15.7822 44.1674 15.8072 44.1698 15.8325 44.1698C15.8575 44.1698 15.8825 44.1674 15.9075 44.1623C15.9321 44.1575 15.9561 44.1499 15.9794 44.14C16.0027 44.1304 16.0249 44.1181 16.0458 44.1041C16.0667 44.0897 16.0859 44.0736 16.1033 44.0554L20.0356 40.0074C20.0613 39.9807 20.0822 39.9506 20.099 39.9173C20.1154 39.8841 20.1271 39.8495 20.1332 39.8129C20.1397 39.7766 20.1408 39.74 20.1363 39.703C20.1319 39.6664 20.1223 39.6308 20.1075 39.5969ZM15.8291 43.2495L12.7935 40.1217H14.2507C14.2757 40.1217 14.3 40.1193 14.3246 40.1142C14.3489 40.1094 14.3725 40.1022 14.3955 40.093C14.4184 40.0834 14.44 40.0718 14.4609 40.0581C14.4814 40.044 14.5006 40.0283 14.5181 40.0108C14.5355 39.9933 14.5513 39.9742 14.565 39.9536C14.579 39.9331 14.5906 39.9112 14.5999 39.8882C14.6095 39.8653 14.6167 39.8417 14.6215 39.8174C14.6263 39.7931 14.6287 39.7684 14.6287 39.7434V34.2765H17.0329V39.7434C17.0329 39.7684 17.0353 39.7931 17.0401 39.8174C17.0449 39.8417 17.0521 39.8653 17.0617 39.8882C17.0712 39.9112 17.0829 39.9331 17.0966 39.9536C17.1103 39.9742 17.126 39.9933 17.1435 40.0108C17.161 40.0283 17.1801 40.044 17.201 40.0581C17.2216 40.0718 17.2431 40.0834 17.2661 40.093C17.289 40.1022 17.3126 40.1094 17.3373 40.1142C17.3616 40.1193 17.3862 40.1217 17.4109 40.1217H18.8688L15.8291 43.2495Z" fill="#5BBB7B"/>
</g>
<path d="M32.0054 36.9772C32.1571 36.9772 32.3084 36.9697 32.4591 36.955C32.6101 36.9399 32.76 36.9176 32.9086 36.8882C33.0572 36.8584 33.2041 36.8218 33.3493 36.7779C33.4944 36.7338 33.6369 36.6828 33.7773 36.6249C33.9173 36.5667 34.0542 36.502 34.1878 36.4304C34.3217 36.3592 34.4514 36.2811 34.5774 36.1969C34.7038 36.1127 34.8253 36.0226 34.9424 35.9264C35.0598 35.8302 35.1718 35.7285 35.279 35.6214C35.3865 35.5142 35.4882 35.4019 35.584 35.2848C35.6802 35.1677 35.7706 35.0458 35.8549 34.9198C35.9391 34.7938 36.0168 34.664 36.0884 34.5302C36.1599 34.3966 36.2246 34.2597 36.2825 34.1196C36.3407 33.9796 36.3917 33.8368 36.4356 33.692C36.4797 33.5468 36.5164 33.3999 36.5461 33.2513C36.5756 33.1024 36.5978 32.9528 36.6126 32.8018C36.6276 32.6511 36.6348 32.4998 36.6348 32.3481C36.6348 32.1964 36.6276 32.0455 36.6126 31.8945C36.5978 31.7435 36.5756 31.5938 36.5458 31.4452C36.5164 31.2967 36.4797 31.1498 36.4356 31.0046C36.3914 30.8594 36.3404 30.717 36.2825 30.577C36.2243 30.4369 36.1596 30.3 36.088 30.1661C36.0168 30.0326 35.9388 29.9028 35.8545 29.7768C35.7703 29.6505 35.6802 29.5289 35.584 29.4118C35.4878 29.2947 35.3861 29.1824 35.2786 29.0752C35.1715 28.9681 35.0592 28.8664 34.9421 28.7702C34.825 28.674 34.7031 28.5839 34.5771 28.4997C34.4511 28.4155 34.321 28.3377 34.1874 28.2662C34.0536 28.1946 33.9166 28.1299 33.7766 28.072C33.6365 28.0138 33.4941 27.9632 33.3489 27.919C33.2038 27.8752 33.0569 27.8382 32.9083 27.8087C32.7593 27.779 32.6097 27.757 32.4587 27.742C32.3077 27.7273 32.1564 27.7197 32.0051 27.7197C31.8534 27.7197 31.702 27.7273 31.5511 27.7423C31.4001 27.757 31.2504 27.7793 31.1018 27.8087C30.9529 27.8385 30.806 27.8752 30.6608 27.9193C30.516 27.9632 30.3732 28.0142 30.2332 28.0724C30.0932 28.1302 29.9562 28.1953 29.8227 28.2665C29.6888 28.3381 29.559 28.4161 29.433 28.5004C29.3067 28.5846 29.1852 28.6746 29.0681 28.7709C28.951 28.8671 28.8387 28.9688 28.7315 29.0759C28.6243 29.1831 28.5226 29.2954 28.4264 29.4125C28.3302 29.5299 28.2398 29.6515 28.1556 29.7775C28.0714 29.9035 27.9936 30.0336 27.9221 30.1671C27.8509 30.301 27.7862 30.4376 27.728 30.5776C27.6701 30.718 27.6191 30.8605 27.5749 31.0056C27.5311 31.1505 27.4941 31.2973 27.4647 31.4463C27.4352 31.5949 27.413 31.7445 27.3982 31.8955C27.3832 32.0465 27.376 32.1975 27.376 32.3492C27.376 32.5008 27.3835 32.6518 27.3986 32.8028C27.4136 32.9535 27.4359 33.1031 27.4657 33.2517C27.4955 33.4003 27.5324 33.5472 27.5763 33.692C27.6204 33.8372 27.6715 33.9796 27.7297 34.1196C27.7879 34.2597 27.8526 34.3963 27.9241 34.5298C27.9957 34.6637 28.0734 34.7935 28.1576 34.9195C28.2419 35.0451 28.3323 35.1667 28.4285 35.2841C28.5247 35.4012 28.6264 35.5132 28.7335 35.6203C28.8407 35.7275 28.9527 35.8292 29.0698 35.9254C29.1872 36.0213 29.3088 36.1117 29.4348 36.1959C29.5608 36.2801 29.6905 36.3578 29.824 36.4294C29.9579 36.5009 30.0945 36.5657 30.2346 36.6235C30.3746 36.6817 30.517 36.7327 30.6622 36.7769C30.807 36.8207 30.9539 36.8577 31.1025 36.8875C31.2511 36.9169 31.4011 36.9395 31.5517 36.9543C31.7027 36.9693 31.8537 36.9769 32.0054 36.9772ZM32.0054 28.4767C32.1324 28.4767 32.2588 28.4829 32.3851 28.4952C32.5115 28.5076 32.6368 28.5264 32.7611 28.551C32.8853 28.5757 33.0083 28.6065 33.1298 28.6435C33.2514 28.6801 33.3705 28.7229 33.4876 28.7715C33.605 28.8198 33.7194 28.8743 33.8314 28.9338C33.9433 28.9938 34.0519 29.0588 34.1573 29.1293C34.2628 29.1999 34.3645 29.2752 34.4627 29.3557C34.5606 29.4361 34.6545 29.5214 34.7442 29.6107C34.8339 29.7004 34.9191 29.7946 34.9996 29.8925C35.08 29.9904 35.1554 30.0921 35.2259 30.1976C35.2964 30.303 35.3615 30.4119 35.4214 30.5235C35.4813 30.6355 35.5354 30.7502 35.584 30.8673C35.6323 30.9844 35.6751 31.1035 35.7121 31.2251C35.7487 31.3463 35.7795 31.4692 35.8042 31.5938C35.8292 31.7181 35.8477 31.8434 35.86 31.9698C35.8727 32.0958 35.8788 32.2225 35.8788 32.3492C35.8788 32.4762 35.8727 32.6025 35.86 32.7289C35.8477 32.8549 35.8292 32.9802 35.8042 33.1048C35.7795 33.2291 35.7487 33.352 35.7121 33.4732C35.6751 33.5948 35.6323 33.7139 35.584 33.831C35.5354 33.9484 35.4813 34.0628 35.4214 34.1748C35.3615 34.2867 35.2964 34.3953 35.2259 34.5007C35.1554 34.6062 35.08 34.7079 34.9996 34.8058C34.9191 34.9041 34.8339 34.9979 34.7442 35.0876C34.6545 35.1773 34.5606 35.2622 34.4627 35.3426C34.3645 35.4231 34.2628 35.4988 34.1573 35.569C34.0519 35.6395 33.9433 35.7049 33.8314 35.7645C33.7194 35.8244 33.605 35.8785 33.4876 35.9271C33.3705 35.9754 33.2514 36.0182 33.1298 36.0552C33.0083 36.0918 32.8853 36.1226 32.7611 36.1473C32.6368 36.1723 32.5115 36.1907 32.3851 36.2031C32.2588 36.2154 32.1324 36.2219 32.0054 36.2219C31.8787 36.2219 31.752 36.2154 31.6257 36.2031C31.4994 36.1907 31.374 36.1723 31.2498 36.1473C31.1255 36.1226 31.0025 36.0918 30.881 36.0552C30.7598 36.0182 30.6403 35.9754 30.5232 35.9271C30.4061 35.8785 30.2914 35.8244 30.1794 35.7645C30.0678 35.7046 29.9589 35.6395 29.8535 35.569C29.748 35.4988 29.6463 35.4231 29.5481 35.3426C29.4502 35.2622 29.3563 35.1773 29.2666 35.0876C29.1769 34.9979 29.0917 34.9041 29.0112 34.8058C28.9308 34.7079 28.8554 34.6062 28.7849 34.5007C28.7144 34.3953 28.6493 34.2867 28.5894 34.1748C28.5295 34.0628 28.4754 33.9484 28.4268 33.831C28.3785 33.7139 28.3357 33.5948 28.2987 33.4732C28.2621 33.352 28.2313 33.2291 28.2066 33.1048C28.1816 32.9802 28.1631 32.8549 28.1508 32.7289C28.1385 32.6025 28.132 32.4762 28.132 32.3492C28.1323 32.2225 28.1385 32.0958 28.1511 31.9698C28.1638 31.8434 28.1823 31.7185 28.2073 31.5942C28.2319 31.4696 28.2631 31.347 28.2997 31.2254C28.3367 31.1042 28.3795 30.9851 28.4281 30.868C28.4768 30.7509 28.5309 30.6365 28.5908 30.5246C28.6507 30.4129 28.7157 30.3041 28.7863 30.199C28.8568 30.0935 28.9321 29.9918 29.0126 29.8935C29.0931 29.7956 29.1783 29.7018 29.268 29.6121C29.3577 29.5224 29.4515 29.4375 29.5495 29.357C29.6474 29.2766 29.7491 29.2012 29.8545 29.1307C29.96 29.0602 30.0685 28.9951 30.1805 28.9352C30.2921 28.8753 30.4068 28.8212 30.5239 28.7726C30.641 28.724 30.7601 28.6812 30.8817 28.6445C31.0029 28.6075 31.1258 28.5767 31.2501 28.5517C31.3744 28.5271 31.4997 28.5082 31.626 28.4956C31.752 28.4833 31.8787 28.4767 32.0054 28.4767Z" fill="#5BBB7B"/>
<path d="M32.0059 40.3008C31.935 40.3008 31.8641 40.3042 31.7936 40.3111C31.7227 40.3179 31.6525 40.3285 31.583 40.3422C31.5135 40.3562 31.4447 40.3734 31.3766 40.3939C31.3088 40.4145 31.242 40.4384 31.1763 40.4655C31.1109 40.4925 31.0469 40.523 30.9842 40.5562C30.9215 40.5898 30.8606 40.626 30.8017 40.6654C30.7425 40.7051 30.6856 40.7473 30.6309 40.7921C30.5757 40.8373 30.5234 40.8849 30.473 40.9349C30.423 40.9852 30.3751 41.0376 30.3302 41.0924C30.285 41.1475 30.2429 41.2043 30.2036 41.2632C30.1638 41.3221 30.1276 41.3831 30.094 41.4457C30.0604 41.5084 30.0303 41.5724 30.0029 41.6378C29.9759 41.7035 29.9519 41.7703 29.9314 41.8381C29.9108 41.9059 29.8934 41.9747 29.8797 42.0442C29.8656 42.1141 29.8554 42.1843 29.8482 42.2548C29.8413 42.3253 29.8379 42.3962 29.8379 42.4671C29.8379 42.5379 29.8413 42.6088 29.8482 42.6797C29.855 42.7502 29.8656 42.8204 29.8793 42.8899C29.8934 42.9594 29.9105 43.0282 29.931 43.0964C29.9516 43.1642 29.9755 43.2309 30.0026 43.2963C30.03 43.3621 30.0601 43.4261 30.0937 43.4888C30.1269 43.5514 30.1635 43.612 30.2029 43.6712C30.2423 43.7301 30.2844 43.787 30.3296 43.8421C30.3744 43.8969 30.4223 43.9493 30.4723 43.9996C30.5227 44.0499 30.5751 44.0975 30.6298 44.1424C30.685 44.1876 30.7418 44.2297 30.8007 44.2691C30.8599 44.3084 30.9205 44.3451 30.9832 44.3786C31.0458 44.4118 31.1099 44.4423 31.1756 44.4694C31.241 44.4967 31.3078 44.5204 31.3759 44.5413C31.4437 44.5618 31.5125 44.5789 31.582 44.593C31.6515 44.6066 31.7217 44.6173 31.7926 44.6241C31.8631 44.631 31.934 44.6344 32.0049 44.6344C32.0757 44.6344 32.1466 44.631 32.2175 44.6241C32.288 44.6173 32.3582 44.6066 32.4277 44.593C32.4976 44.5793 32.566 44.5618 32.6342 44.5413C32.702 44.5207 32.7687 44.4967 32.8345 44.4697C32.8999 44.4426 32.9639 44.4122 33.0265 44.3786C33.0892 44.3454 33.1502 44.3088 33.209 44.2694C33.2683 44.23 33.3251 44.1879 33.3799 44.1427C33.435 44.0979 33.4874 44.0503 33.5377 43.9999C33.5877 43.9496 33.6353 43.8972 33.6805 43.8424C33.7254 43.7877 33.7678 43.7305 33.8072 43.6716C33.8466 43.6127 33.8832 43.5518 33.9164 43.4891C33.95 43.4264 33.9804 43.3624 34.0075 43.297C34.0345 43.2313 34.0585 43.1645 34.079 43.0967C34.0996 43.0289 34.1171 42.9601 34.1307 42.8903C34.1448 42.8208 34.1551 42.7506 34.1619 42.68C34.1691 42.6095 34.1725 42.5386 34.1725 42.4678C34.1725 42.3965 34.1688 42.326 34.1619 42.2555C34.1551 42.1846 34.1444 42.1148 34.1307 42.0452C34.1167 41.9754 34.0996 41.9069 34.0787 41.8388C34.0582 41.771 34.0342 41.7042 34.0071 41.6388C33.9801 41.5734 33.9496 41.5094 33.9161 41.4468C33.8829 41.3841 33.8462 41.3235 33.8068 41.2643C33.7675 41.2054 33.7254 41.1485 33.6802 41.0938C33.6353 41.039 33.5877 40.9862 33.5374 40.9363C33.4874 40.8859 33.4347 40.8383 33.3799 40.7935C33.3251 40.7483 33.2683 40.7062 33.2094 40.6668C33.1502 40.6271 33.0895 40.5908 33.0269 40.5572C32.9646 40.5237 32.9005 40.4935 32.8348 40.4665C32.7694 40.4391 32.7026 40.4151 32.6349 40.3946C32.5667 40.3741 32.4982 40.3566 32.4284 40.3429C32.3589 40.3289 32.2887 40.3186 32.2182 40.3114C32.1476 40.3045 32.0768 40.3008 32.0059 40.3008ZM32.0059 43.8777C31.9597 43.8777 31.9134 43.8757 31.8676 43.8709C31.8217 43.8664 31.7758 43.8596 31.7306 43.8507C31.6851 43.8418 31.6406 43.8305 31.5961 43.8171C31.5519 43.8038 31.5084 43.7883 31.4656 43.7705C31.4231 43.7527 31.3814 43.7332 31.3406 43.7113C31.2999 43.6897 31.2602 43.6658 31.2218 43.6401C31.1831 43.6148 31.1462 43.587 31.1105 43.5579C31.0746 43.5285 31.0404 43.4977 31.0078 43.4648C30.975 43.4323 30.9441 43.398 30.9147 43.3624C30.8853 43.3265 30.8579 43.2895 30.8322 43.2511C30.8065 43.2128 30.7825 43.1731 30.761 43.1323C30.7391 43.0916 30.7192 43.0498 30.7017 43.007C30.6839 42.9646 30.6685 42.9211 30.6548 42.8769C30.6415 42.8324 30.6302 42.7879 30.6213 42.7423C30.6124 42.6972 30.6055 42.6516 30.6007 42.6054C30.5963 42.5595 30.5942 42.5133 30.5942 42.4671C30.5939 42.4208 30.5963 42.375 30.6007 42.3287C30.6055 42.2829 30.612 42.2373 30.6213 42.1918C30.6302 42.1466 30.6415 42.1017 30.6548 42.0576C30.6682 42.0134 30.6836 41.9699 30.7014 41.9271C30.7192 41.8843 30.7387 41.8426 30.7606 41.8018C30.7825 41.7611 30.8062 41.7217 30.8318 41.683C30.8575 41.6447 30.8849 41.6077 30.9144 41.5721C30.9438 41.5361 30.9746 41.5019 31.0075 41.4694C31.04 41.4365 31.0743 41.4057 31.1099 41.3762C31.1458 41.3471 31.1828 41.3194 31.2211 41.2937C31.2598 41.268 31.2992 41.2444 31.3399 41.2225C31.3807 41.2009 31.4225 41.1811 31.4653 41.1633C31.5081 41.1458 31.5515 41.13 31.5957 41.1167C31.6399 41.1033 31.6847 41.092 31.7299 41.0831C31.7755 41.0742 31.821 41.0674 31.8672 41.0629C31.9131 41.0585 31.9593 41.0561 32.0055 41.0561C32.0518 41.0561 32.0977 41.0585 32.1439 41.0629C32.1898 41.0674 32.2353 41.0742 32.2808 41.0831C32.326 41.0924 32.3709 41.1033 32.415 41.117C32.4592 41.1304 32.5027 41.1458 32.5455 41.1636C32.5883 41.1814 32.6301 41.2009 32.6708 41.2228C32.7116 41.2447 32.7509 41.2684 32.7896 41.294C32.828 41.3197 32.8649 41.3471 32.9005 41.3766C32.9365 41.406 32.9707 41.4368 33.0033 41.4697C33.0361 41.5022 33.0669 41.5365 33.0964 41.5724C33.1255 41.608 33.1532 41.645 33.1789 41.6837C33.2046 41.722 33.2282 41.7617 33.2498 41.8025C33.2717 41.8432 33.2916 41.885 33.309 41.9275C33.3268 41.9703 33.3422 42.0137 33.3556 42.0579C33.3689 42.1021 33.3802 42.1469 33.3891 42.1925C33.3984 42.2377 33.4049 42.2832 33.4097 42.3294C33.4141 42.3753 33.4162 42.4215 33.4162 42.4678C33.4162 42.5136 33.4138 42.5599 33.4093 42.6057C33.4045 42.6516 33.3977 42.6972 33.3888 42.7427C33.3795 42.7879 33.3686 42.8324 33.3549 42.8766C33.3415 42.9207 33.3261 42.9642 33.3083 43.007C33.2905 43.0495 33.271 43.0912 33.2491 43.132C33.2272 43.1727 33.2036 43.2121 33.1779 43.2505C33.1522 43.2888 33.1248 43.3258 33.0954 43.3617C33.0663 43.3973 33.0351 43.4312 33.0026 43.4641C32.9697 43.4966 32.9358 43.5278 32.8999 43.5569C32.8643 43.5863 32.8273 43.6137 32.7889 43.6394C32.7506 43.6651 32.7109 43.6887 32.6705 43.7106C32.6297 43.7322 32.5879 43.752 32.5452 43.7699C32.5027 43.7873 32.4592 43.8031 32.415 43.8164C32.3709 43.8298 32.326 43.8411 32.2808 43.8503C32.2356 43.8592 32.1901 43.8661 32.1442 43.8709C32.098 43.8753 32.0521 43.8777 32.0059 43.8777Z" fill="#5BBB7B"/>
<path d="M12.8594 17.8674V26.8058C12.8594 26.8667 12.8625 26.9276 12.8686 26.9886C12.8748 27.0495 12.8837 27.1098 12.8957 27.1697C12.9077 27.2296 12.9227 27.2889 12.9405 27.3474C12.9583 27.406 12.9789 27.4635 13.0022 27.52C13.0258 27.5765 13.0518 27.6316 13.0806 27.6854C13.1097 27.7395 13.1408 27.7918 13.1751 27.8425C13.209 27.8935 13.2452 27.9425 13.2843 27.9897C13.323 28.037 13.3641 28.0822 13.4072 28.1253C13.4503 28.1688 13.4955 28.2095 13.5428 28.2486C13.5904 28.2873 13.6393 28.3236 13.69 28.3578C13.741 28.3917 13.7934 28.4232 13.8472 28.452C13.9013 28.4807 13.9564 28.5067 14.0129 28.5304C14.0694 28.5536 14.1269 28.5745 14.1854 28.5923C14.244 28.6098 14.3032 28.6249 14.3631 28.6368C14.4231 28.6488 14.4833 28.6577 14.5443 28.6639C14.6052 28.6701 14.6662 28.6731 14.7274 28.6731H21.1106V49.8793C21.1106 49.9039 21.113 49.9286 21.1178 49.9529C21.1226 49.9772 21.1298 50.0008 21.1393 50.0238C21.1489 50.0467 21.1606 50.0686 21.1743 50.0892C21.188 50.1097 21.2037 50.1289 21.2212 50.1463C21.239 50.1641 21.2578 50.1799 21.2787 50.1936C21.2992 50.2073 21.3211 50.2189 21.3441 50.2285C21.3667 50.2381 21.3907 50.2453 21.415 50.2501C21.4393 50.2549 21.4639 50.2573 21.4886 50.2573H42.5235C42.5485 50.2573 42.5728 50.2549 42.5971 50.2501C42.6218 50.2453 42.6454 50.2381 42.6683 50.2285C42.6913 50.2189 42.7129 50.2073 42.7337 50.1936C42.7543 50.1799 42.7735 50.1641 42.7909 50.1463C42.8084 50.1289 42.8241 50.1097 42.8378 50.0892C42.8515 50.0686 42.8635 50.0467 42.8727 50.0238C42.8823 50.0008 42.8895 49.9772 42.8943 49.9529C42.8991 49.9286 42.9015 49.9039 42.9015 49.8793V28.6731H49.285C49.3459 28.6731 49.4069 28.6701 49.4678 28.6639C49.5288 28.6577 49.589 28.6488 49.6489 28.6368C49.7092 28.6249 49.7684 28.6098 49.8266 28.5923C49.8852 28.5745 49.9427 28.5536 49.9992 28.5304C50.0557 28.5067 50.1108 28.4807 50.1649 28.452C50.2187 28.4232 50.2711 28.3917 50.3221 28.3578C50.3728 28.3236 50.4221 28.2873 50.4693 28.2486C50.5166 28.2095 50.5618 28.1688 50.6049 28.1253C50.648 28.0822 50.6891 28.037 50.7282 27.9897C50.7668 27.9425 50.8031 27.8935 50.8374 27.8425C50.8713 27.7918 50.9028 27.7395 50.9315 27.6854C50.9603 27.6316 50.9863 27.5765 51.0099 27.52C51.0332 27.4635 51.0541 27.406 51.0719 27.3474C51.0897 27.2889 51.1044 27.2296 51.1164 27.1697C51.1284 27.1098 51.1373 27.0495 51.1435 26.9886C51.1496 26.9276 51.1527 26.8667 51.1527 26.8058V17.8674C51.1527 17.8064 51.1496 17.7452 51.1435 17.6845C51.1373 17.6236 51.1284 17.5633 51.1164 17.5031C51.1044 17.4432 51.0897 17.3839 51.0719 17.3257C51.0541 17.2672 51.0332 17.2097 51.0099 17.1532C50.9863 17.0967 50.9603 17.0415 50.9315 16.9874C50.9028 16.9337 50.8713 16.8813 50.8374 16.8303C50.8031 16.7796 50.7668 16.7307 50.7282 16.6834C50.6891 16.6362 50.648 16.591 50.6049 16.5475C50.5618 16.5043 50.5166 16.4633 50.4693 16.4246C50.4221 16.3859 50.3728 16.3492 50.3221 16.3153C50.2711 16.2814 50.2187 16.2499 50.1649 16.2212C50.1108 16.1924 50.0557 16.1661 49.9992 16.1428C49.9427 16.1192 49.8852 16.0986 49.8266 16.0808C49.7684 16.063 49.7092 16.0483 49.6489 16.0363C49.589 16.0243 49.5288 16.0151 49.4678 16.0092C49.4069 16.0031 49.3459 16 49.285 16H14.7274C14.6662 16 14.6052 16.0031 14.5443 16.0092C14.4833 16.0151 14.4231 16.0243 14.3631 16.0363C14.3032 16.0483 14.244 16.063 14.1854 16.0808C14.1269 16.0986 14.0694 16.1192 14.0129 16.1428C13.9564 16.1661 13.9013 16.1924 13.8472 16.2212C13.7934 16.2499 13.741 16.2814 13.69 16.3153C13.6393 16.3492 13.5904 16.3859 13.5428 16.4246C13.4955 16.4633 13.4503 16.5043 13.4072 16.5475C13.3641 16.591 13.323 16.6362 13.2843 16.6834C13.2452 16.7307 13.209 16.7796 13.1751 16.8303C13.1408 16.8813 13.1097 16.9337 13.0806 16.9874C13.0518 17.0415 13.0258 17.0967 13.0022 17.1532C12.9789 17.2097 12.9583 17.2672 12.9405 17.3257C12.9227 17.3839 12.9077 17.4432 12.8957 17.5031C12.8837 17.5633 12.8748 17.6236 12.8686 17.6845C12.8625 17.7452 12.8594 17.8064 12.8594 17.8674ZM42.1455 49.5013H21.8666V22.7146H23.9842V44.6209C23.9842 44.6455 23.9866 44.6702 23.9914 44.6945C23.9962 44.7188 24.0034 44.7424 24.013 44.7654C24.0222 44.7883 24.0339 44.8102 24.0479 44.8308C24.0616 44.8513 24.0774 44.8705 24.0948 44.8879C24.1123 44.9058 24.1315 44.9212 24.152 44.9352C24.1729 44.9489 24.1945 44.9605 24.2174 44.9701C24.2403 44.9794 24.264 44.9866 24.2886 44.9917C24.3129 44.9965 24.3372 44.9989 24.3622 44.9989C24.4276 44.9989 24.493 45.0023 24.5584 45.0088C24.6235 45.0153 24.6882 45.0249 24.7526 45.0379C24.8166 45.0506 24.8803 45.0667 24.9429 45.0855C25.0056 45.1047 25.0672 45.1269 25.1275 45.1519C25.1881 45.1773 25.2473 45.205 25.3048 45.2362C25.3627 45.267 25.4188 45.3005 25.4733 45.3372C25.5277 45.3735 25.5801 45.4125 25.6308 45.4539C25.6815 45.4957 25.7301 45.5395 25.7763 45.5861C25.8225 45.6323 25.8663 45.6809 25.9081 45.7312C25.9495 45.7819 25.9886 45.8346 26.0249 45.8891C26.0612 45.9435 26.0951 45.9997 26.1259 46.0575C26.1567 46.1151 26.1848 46.1743 26.2098 46.2349C26.2348 46.2955 26.257 46.3568 26.2758 46.4194C26.295 46.4821 26.3111 46.5458 26.3238 46.6098C26.3364 46.6742 26.346 46.7389 26.3525 46.8039C26.359 46.8693 26.3625 46.9347 26.3625 47.0001C26.3625 47.0248 26.3649 47.0494 26.3697 47.0737C26.3744 47.0981 26.3816 47.1217 26.3912 47.1446C26.4008 47.1676 26.4125 47.1895 26.4262 47.21C26.4398 47.2309 26.4556 47.2497 26.4731 47.2675C26.4909 47.285 26.5097 47.3008 26.5306 47.3144C26.5511 47.3281 26.573 47.3398 26.596 47.3494C26.6189 47.359 26.6425 47.3661 26.6668 47.3709C26.6912 47.3757 26.7158 47.3781 26.7405 47.3781H37.2692C37.2942 47.3781 37.3189 47.3757 37.3432 47.3709C37.3675 47.3661 37.3911 47.359 37.4141 47.3494C37.437 47.3398 37.4589 47.3281 37.4795 47.3144C37.5 47.3008 37.5192 47.285 37.5366 47.2675C37.5541 47.2497 37.5698 47.2309 37.5835 47.21C37.5976 47.1895 37.6092 47.1676 37.6188 47.1446C37.6281 47.1217 37.6352 47.0981 37.64 47.0737C37.6452 47.0494 37.6476 47.0248 37.6476 47.0001C37.6476 46.9347 37.6507 46.8693 37.6572 46.8039C37.6637 46.7389 37.6732 46.6742 37.6863 46.6098C37.6989 46.5458 37.7147 46.4821 37.7339 46.4194C37.753 46.3568 37.7749 46.2955 37.7999 46.2349C37.8253 46.1743 37.853 46.1151 37.8842 46.0575C37.915 45.9997 37.9485 45.9435 37.9848 45.8891C38.0215 45.8346 38.0601 45.7819 38.1019 45.7312C38.1433 45.6809 38.1872 45.6323 38.2337 45.5861C38.28 45.5395 38.3282 45.4957 38.3789 45.4539C38.4296 45.4125 38.4823 45.3735 38.5367 45.3372C38.5912 45.3005 38.6473 45.267 38.7049 45.2362C38.7627 45.205 38.822 45.1773 38.8822 45.1519C38.9428 45.1269 39.0045 45.1047 39.0671 45.0855C39.1298 45.0667 39.1931 45.0506 39.2575 45.0379C39.3215 45.0249 39.3862 45.0153 39.4516 45.0088C39.5167 45.0023 39.5821 44.9989 39.6478 44.9989C39.6725 44.9989 39.6971 44.9965 39.7214 44.9917C39.7457 44.9866 39.7693 44.9794 39.7923 44.9701C39.8152 44.9605 39.8371 44.9489 39.8577 44.9352C39.8782 44.9212 39.8974 44.9058 39.9149 44.8879C39.9327 44.8705 39.9481 44.8513 39.9621 44.8308C39.9758 44.8102 39.9874 44.7883 39.997 44.7654C40.0066 44.7424 40.0135 44.7188 40.0186 44.6945C40.0234 44.6702 40.0258 44.6455 40.0258 44.6209V22.7146H42.1431L42.1455 49.5013ZM29.9038 22.7146C29.9305 22.833 29.9671 22.9484 30.0133 23.0604C30.0596 23.1727 30.1147 23.2802 30.1791 23.3833C30.2438 23.486 30.3164 23.5829 30.3968 23.6733C30.4776 23.764 30.5656 23.8472 30.6605 23.9232C30.7553 23.9989 30.8556 24.066 30.9618 24.1249C31.0682 24.1838 31.1785 24.2331 31.2932 24.2735C31.4076 24.3135 31.5246 24.3436 31.6445 24.3642C31.764 24.3844 31.8845 24.3947 32.006 24.3947C32.1276 24.3947 32.2481 24.3844 32.3676 24.3642C32.4874 24.3436 32.6045 24.3135 32.7189 24.2735C32.8336 24.2331 32.9438 24.1838 33.0503 24.1249C33.1565 24.066 33.2568 23.9989 33.3516 23.9232C33.4465 23.8472 33.5345 23.764 33.6153 23.6733C33.6961 23.5829 33.7687 23.486 33.833 23.3833C33.8974 23.2802 33.9525 23.1727 33.9987 23.0604C34.045 22.9484 34.0816 22.833 34.1083 22.7146H39.2695V44.2624C39.1219 44.2833 38.9767 44.3155 38.8343 44.3596C38.6919 44.4042 38.5539 44.4593 38.4203 44.526C38.2871 44.5925 38.1598 44.6692 38.0386 44.7565C37.9177 44.8434 37.8044 44.94 37.6989 45.0454C37.5935 45.1509 37.4973 45.2642 37.4103 45.3851C37.3233 45.5063 37.2463 45.6333 37.1799 45.7669C37.1134 45.9004 37.0583 46.0384 37.0142 46.1808C36.97 46.3232 36.9375 46.4684 36.9169 46.616H27.0952C27.0746 46.4684 27.0421 46.3239 26.9979 46.1815C26.9538 46.0394 26.8986 45.9018 26.8322 45.7682C26.7658 45.635 26.6891 45.508 26.6021 45.3871C26.5152 45.2663 26.4193 45.153 26.3138 45.0478C26.2087 44.9424 26.0957 44.8462 25.9749 44.7592C25.854 44.6719 25.727 44.5952 25.5938 44.5288C25.4606 44.462 25.323 44.4065 25.1809 44.3624C25.0388 44.3182 24.894 44.2857 24.7464 44.2648V22.717L29.9038 22.7146ZM30.6851 22.7146H33.3273C33.3027 22.782 33.2732 22.8471 33.2386 22.9101C33.2041 22.9727 33.165 23.0326 33.1215 23.0895C33.0777 23.1463 33.0301 23.1997 32.9784 23.2494C32.9264 23.2987 32.8713 23.3442 32.8124 23.3853C32.7538 23.4264 32.6922 23.463 32.6278 23.4945C32.5635 23.5264 32.4974 23.5531 32.4289 23.5746C32.3604 23.5962 32.2909 23.6123 32.22 23.6233C32.1492 23.6342 32.0779 23.6397 32.006 23.6397C31.9345 23.6397 31.8629 23.6342 31.7921 23.6233C31.7212 23.6123 31.6517 23.5962 31.5832 23.5746C31.5147 23.5531 31.4486 23.5264 31.3843 23.4945C31.3199 23.463 31.2583 23.4264 31.1997 23.3853C31.1408 23.3442 31.0857 23.2987 31.0337 23.2494C30.982 23.1997 30.9344 23.1463 30.8905 23.0895C30.8471 23.0326 30.808 22.9727 30.7734 22.9101C30.7389 22.8471 30.7094 22.782 30.6851 22.7146ZM50.3964 17.8674V26.8058C50.3964 26.8787 50.3892 26.9509 50.3748 27.0225C50.3604 27.0937 50.3395 27.1632 50.3115 27.2307C50.2834 27.2981 50.2492 27.3621 50.2088 27.4227C50.168 27.4833 50.1221 27.5395 50.0704 27.5912C50.0187 27.6426 49.9626 27.6888 49.902 27.7292C49.8414 27.7699 49.7773 27.8042 49.7099 27.8319C49.6428 27.86 49.5733 27.8812 49.5017 27.8956C49.4302 27.9096 49.3579 27.9168 49.285 27.9172H42.9015V22.7146H46.4415C46.4665 22.7146 46.4908 22.7122 46.5151 22.7074C46.5397 22.7026 46.5633 22.6954 46.5863 22.6858C46.6092 22.6762 46.6308 22.6646 46.6517 22.6509C46.6722 22.6372 46.6914 22.6214 46.7089 22.604C46.7263 22.5862 46.7421 22.5673 46.7558 22.5465C46.7698 22.5259 46.7814 22.504 46.7907 22.4811C46.8003 22.4581 46.8075 22.4345 46.8123 22.4102C46.8171 22.3859 46.8195 22.3612 46.8195 22.3366C46.8195 22.3116 46.8171 22.2873 46.8123 22.2626C46.8075 22.2383 46.8003 22.2147 46.7907 22.1917C46.7814 22.1688 46.7698 22.1472 46.7558 22.1263C46.7421 22.1058 46.7263 22.0866 46.7089 22.0692C46.6914 22.0517 46.6722 22.036 46.6517 22.0223C46.6308 22.0086 46.6092 21.9969 46.5863 21.9873C46.5633 21.9777 46.5397 21.9706 46.5151 21.9658C46.4908 21.961 46.4665 21.9586 46.4415 21.9586H17.5706C17.546 21.9586 17.5213 21.961 17.497 21.9658C17.4727 21.9706 17.4487 21.9777 17.4258 21.9873C17.4029 21.9969 17.3813 22.0086 17.3607 22.0223C17.3399 22.036 17.3207 22.0517 17.3032 22.0692C17.2858 22.0866 17.27 22.1058 17.2563 22.1263C17.2426 22.1472 17.231 22.1688 17.2214 22.1917C17.2118 22.2147 17.2046 22.2383 17.1998 22.2626C17.195 22.2873 17.1926 22.3116 17.1926 22.3366C17.1926 22.3612 17.195 22.3859 17.1998 22.4102C17.2046 22.4345 17.2118 22.4581 17.2214 22.4811C17.231 22.504 17.2426 22.5259 17.2563 22.5465C17.27 22.5673 17.2858 22.5862 17.3032 22.604C17.3207 22.6214 17.3399 22.6372 17.3607 22.6509C17.3813 22.6646 17.4029 22.6762 17.4258 22.6858C17.4487 22.6954 17.4727 22.7026 17.497 22.7074C17.5213 22.7122 17.546 22.7146 17.5706 22.7146H21.1106V27.9172H14.7274C14.6542 27.9168 14.5819 27.9096 14.5104 27.8956C14.4388 27.8812 14.3696 27.86 14.3022 27.8319C14.2347 27.8042 14.1707 27.7699 14.1101 27.7292C14.0495 27.6888 13.9934 27.6426 13.9417 27.5912C13.89 27.5395 13.8441 27.4833 13.8033 27.4227C13.7629 27.3621 13.7287 27.2981 13.7006 27.2307C13.6725 27.1632 13.6517 27.0937 13.6373 27.0225C13.6229 26.9509 13.6157 26.8787 13.6157 26.8058V17.8674C13.6157 17.7945 13.6229 17.7222 13.6373 17.6507C13.6517 17.5791 13.6725 17.5096 13.7006 17.4425C13.7287 17.375 13.7629 17.311 13.8033 17.2504C13.8441 17.1898 13.89 17.1336 13.9417 17.0819C13.9934 17.0302 14.0495 16.9844 14.1101 16.9436C14.1707 16.9032 14.2347 16.869 14.3022 16.8409C14.3696 16.8132 14.4388 16.7919 14.5104 16.7776C14.5819 16.7632 14.6542 16.756 14.7274 16.756H49.2864C49.3593 16.7563 49.4315 16.7635 49.5027 16.7779C49.5743 16.7923 49.6438 16.8135 49.7109 16.8416C49.7784 16.8693 49.8424 16.9036 49.903 16.9443C49.9633 16.9847 50.0194 17.0309 50.0711 17.0826C50.1225 17.134 50.1684 17.1901 50.2091 17.2507C50.2495 17.3113 50.2837 17.3754 50.3115 17.4428C50.3395 17.5099 50.3608 17.5794 50.3748 17.651C50.3892 17.7222 50.3964 17.7945 50.3964 17.8674Z" fill="#5BBB7B"/>
<path d="M17.5704 19.1655H22.9955C23.0202 19.1655 23.0448 19.1631 23.0691 19.158C23.0938 19.1532 23.1174 19.146 23.1403 19.1368C23.1633 19.1272 23.1849 19.1155 23.2054 19.1018C23.2263 19.0878 23.2455 19.072 23.2629 19.0546C23.2804 19.0371 23.2961 19.0179 23.3098 18.9974C23.3235 18.9769 23.3352 18.9549 23.3447 18.932C23.3543 18.9091 23.3615 18.8854 23.3663 18.8611C23.3711 18.8368 23.3735 18.8122 23.3735 18.7872C23.3735 18.7625 23.3711 18.7379 23.3663 18.7136C23.3615 18.6893 23.3543 18.6656 23.3447 18.6427C23.3352 18.6197 23.3235 18.5978 23.3098 18.5773C23.2961 18.5567 23.2804 18.5376 23.2629 18.5201C23.2455 18.5023 23.2263 18.4869 23.2054 18.4729C23.1849 18.4592 23.1633 18.4475 23.1403 18.4379C23.1174 18.4287 23.0938 18.4215 23.0691 18.4167C23.0448 18.4116 23.0202 18.4092 22.9955 18.4092H17.5704C17.5457 18.4092 17.5211 18.4116 17.4968 18.4167C17.4725 18.4215 17.4485 18.4287 17.4255 18.4379C17.4026 18.4475 17.381 18.4592 17.3605 18.4729C17.3396 18.4869 17.3204 18.5023 17.303 18.5201C17.2855 18.5376 17.2698 18.5567 17.2561 18.5773C17.2424 18.5978 17.2307 18.6197 17.2211 18.6427C17.2116 18.6656 17.2044 18.6893 17.1996 18.7136C17.1948 18.7379 17.1924 18.7625 17.1924 18.7872C17.1924 18.8122 17.1948 18.8368 17.1996 18.8611C17.2044 18.8854 17.2116 18.9091 17.2211 18.932C17.2307 18.9549 17.2424 18.9769 17.2561 18.9974C17.2698 19.0179 17.2855 19.0371 17.303 19.0546C17.3204 19.072 17.3396 19.0878 17.3605 19.1018C17.381 19.1155 17.4026 19.1272 17.4255 19.1368C17.4485 19.146 17.4725 19.1532 17.4968 19.158C17.5211 19.1631 17.5457 19.1655 17.5704 19.1655Z" fill="#5BBB7B"/>
<path d="M25.8579 19.1637C25.9602 19.1644 26.0486 19.1291 26.1225 19.0579C26.1985 18.9833 26.2365 18.8925 26.2359 18.7857C26.2365 18.7357 26.227 18.6874 26.2071 18.6416C26.1872 18.5953 26.1592 18.5553 26.1225 18.521C26.0965 18.4947 26.0671 18.4724 26.0345 18.4546C26.002 18.4368 25.9674 18.4245 25.9311 18.4169C25.8948 18.4094 25.8579 18.4074 25.8212 18.4108C25.7843 18.4142 25.7483 18.4231 25.7141 18.4371C25.6678 18.4567 25.6274 18.4847 25.5932 18.521C25.5562 18.5553 25.5281 18.5953 25.5083 18.6412C25.4884 18.6874 25.4788 18.7357 25.4795 18.7857C25.4799 18.8922 25.5175 18.9829 25.5932 19.0579C25.6668 19.1291 25.7551 19.1644 25.8579 19.1637Z" fill="#5BBB7B"/>
</svg>
