<svg width="17" height="17" viewBox="0 0 17 17" fill="none" xmlns="http://www.w3.org/2000/svg">
<path fill-rule="evenodd" clip-rule="evenodd" d="M3.29375 11.8999C3.34323 11.8339 3.4074 11.7804 3.48117 11.7435C3.55493 11.7066 3.63628 11.6874 3.71875 11.6874H6.375C6.5159 11.6874 6.65102 11.7434 6.75065 11.843C6.85028 11.9426 6.90625 12.0778 6.90625 12.2187C6.90625 12.3596 6.85028 12.4947 6.75065 12.5943C6.65102 12.6939 6.5159 12.7499 6.375 12.7499H3.98438L1.59375 15.9375H15.4062L13.0156 12.7499H10.625C10.4841 12.7499 10.349 12.6939 10.2493 12.5943C10.1497 12.4947 10.0938 12.3596 10.0938 12.2187C10.0938 12.0778 10.1497 11.9426 10.2493 11.843C10.349 11.7434 10.4841 11.6874 10.625 11.6874H13.2812C13.3637 11.6874 13.4451 11.7066 13.5188 11.7435C13.5926 11.7804 13.6568 11.8339 13.7062 11.8999L16.8937 16.15C16.9529 16.2289 16.989 16.3228 16.9979 16.421C17.0067 16.5193 16.988 16.6181 16.9439 16.7063C16.8998 16.7946 16.832 16.8688 16.748 16.9207C16.6641 16.9725 16.5674 17 16.4688 17H0.53125C0.432591 17 0.33588 16.9725 0.251956 16.9207C0.168031 16.8688 0.100208 16.7946 0.0560858 16.7063C0.011964 16.6181 -0.00671331 16.5193 0.00214687 16.421C0.011007 16.3228 0.0470546 16.2289 0.10625 16.15L3.29375 11.8999Z" fill="#5BBB7B"/>
<path fill-rule="evenodd" clip-rule="evenodd" d="M4.25 4.24969C4.25008 3.43179 4.48615 2.63128 4.92989 1.94422C5.37363 1.25717 6.00619 0.712741 6.75166 0.376277C7.49714 0.0398136 8.32386 -0.0743961 9.13263 0.0473523C9.94141 0.169101 10.6979 0.521635 11.3113 1.06266C11.9246 1.60367 12.3689 2.3102 12.5907 3.09745C12.8125 3.88469 12.8025 4.71923 12.5618 5.5009C12.3211 6.28258 11.8599 6.9782 11.2337 7.50429C10.6075 8.03039 9.84272 8.3646 9.03125 8.46684V14.3436C9.03125 14.4845 8.97528 14.6197 8.87565 14.7193C8.77602 14.8189 8.6409 14.8749 8.5 14.8749C8.3591 14.8749 8.22398 14.8189 8.12435 14.7193C8.02472 14.6197 7.96875 14.4845 7.96875 14.3436V8.4679C6.94128 8.33845 5.99642 7.83829 5.31167 7.06137C4.62691 6.28446 4.24939 5.28531 4.25 4.24969Z" fill="#5BBB7B"/>
</svg>
