<svg width="51" height="31" viewBox="0 0 51 31" fill="none" xmlns="http://www.w3.org/2000/svg">
<path fill-rule="evenodd" clip-rule="evenodd" d="M25.234 26.5715C27.9669 29.0864 31.5467 30.4796 35.2607 30.4738C39.2365 30.4485 43.0409 28.8514 45.8433 26.0311C48.6458 23.2108 50.2187 19.3963 50.2187 15.4204C50.2187 11.4445 48.6458 7.62999 45.8433 4.80968C43.0409 1.98936 39.2365 0.392236 35.2607 0.366962C31.5467 0.361003 27.9668 1.75426 25.234 4.26924C23.6793 5.68118 22.4371 7.40259 21.5871 9.32297C20.737 11.2434 20.2979 13.3203 20.2979 15.4204C20.2979 17.5205 20.737 19.5974 21.5871 21.5178C22.4371 23.4382 23.6793 25.1596 25.234 26.5715Z" fill="#E9B040"/>
<path fill-rule="evenodd" clip-rule="evenodd" d="M48.2339 23.8059C48.2337 23.7447 48.2455 23.6841 48.2688 23.6276C48.2921 23.5711 48.3263 23.5197 48.3696 23.4765C48.4128 23.4333 48.4642 23.399 48.5207 23.3757C48.5772 23.3524 48.6378 23.3406 48.6989 23.3408C48.762 23.338 48.825 23.3478 48.8841 23.3699C48.9432 23.3919 48.9973 23.4256 49.0431 23.469C49.0889 23.5125 49.1255 23.5647 49.1506 23.6225C49.1758 23.6804 49.189 23.7428 49.1895 23.8059C49.1918 23.8709 49.1806 23.9358 49.1568 23.9963C49.1329 24.0569 49.0969 24.1119 49.0509 24.158C49.0049 24.204 48.9499 24.2401 48.8894 24.2641C48.8288 24.288 48.764 24.2992 48.6989 24.2971C48.6358 24.2965 48.5734 24.2832 48.5155 24.258C48.4576 24.2328 48.4054 24.1962 48.362 24.1503C48.3186 24.1045 48.2849 24.0503 48.2628 23.9912C48.2408 23.932 48.231 23.8689 48.2339 23.8059ZM48.6989 24.194C48.8009 24.1914 48.898 24.1497 48.9701 24.0775C49.0422 24.0053 49.0837 23.9082 49.0861 23.8062C49.0826 23.7069 49.0398 23.6132 48.9672 23.5454C48.8947 23.4776 48.7982 23.4413 48.6989 23.4445C48.6036 23.4465 48.5128 23.4852 48.4454 23.5526C48.378 23.62 48.3393 23.7109 48.3373 23.8062C48.3388 23.9041 48.3767 23.998 48.4435 24.0697C48.5103 24.1413 48.6013 24.1856 48.6989 24.194ZM48.6472 24.0388H48.5438V23.5993H48.7245C48.761 23.5953 48.7977 23.6046 48.8279 23.6255C48.8796 23.6511 48.8796 23.6772 48.8796 23.7289C48.8796 23.7806 48.8541 23.8323 48.8024 23.8323L48.9058 24.0391H48.7762L48.7245 23.8567H48.6472V23.7791H48.7506C48.7762 23.7791 48.7762 23.7529 48.7762 23.7274C48.7762 23.7018 48.7762 23.7012 48.7506 23.6757H48.6472V24.0388Z" fill="#E9B040"/>
<path fill-rule="evenodd" clip-rule="evenodd" d="M30.066 13.8311C30.0143 13.2885 29.9108 12.7717 29.8074 12.2288H20.6591C20.7696 11.6964 20.9076 11.17 21.0725 10.6518H29.3682C29.1882 10.1078 28.9815 9.57369 28.7481 9.04953H21.7188C21.9773 8.50206 22.2612 7.96797 22.5704 7.44726H27.8685C27.5276 6.89534 27.1476 6.36852 26.7315 5.87084H23.7089C24.1766 5.29962 24.6863 4.76405 25.2336 4.26856C23.421 2.64856 21.2421 1.49301 18.8842 0.901248C16.5263 0.309485 14.0599 0.29922 11.6972 0.871334C9.33442 1.44345 7.14596 2.58082 5.31994 4.18568C3.49392 5.79053 2.08498 7.81485 1.21424 10.0846C0.343501 12.3543 0.0370197 14.8016 0.321146 17.2159C0.605272 19.6303 1.4715 21.9396 2.84537 23.9451C4.21924 25.9507 6.05963 27.5927 8.20833 28.7298C10.357 29.8669 12.7497 30.4651 15.1807 30.4731C18.9025 30.479 22.4906 29.0862 25.2336 26.5708C25.7726 26.084 26.2737 25.5569 26.7328 24.9941H23.7089C23.3006 24.4813 22.921 23.9464 22.5717 23.3918H27.8697C28.2028 22.8808 28.4966 22.3452 28.7484 21.7896H21.7188C21.4769 21.2752 21.2611 20.749 21.0725 20.2128H29.3682C29.542 19.6866 29.6885 19.1518 29.8071 18.6106C29.9205 18.0812 30.0068 17.5464 30.0657 17.0083C30.118 16.4844 30.144 15.9581 30.1435 15.4316C30.1435 14.8899 30.1177 14.3473 30.066 13.8305V13.8311Z" fill="#CC2131"/>
<path fill-rule="evenodd" clip-rule="evenodd" d="M48.2339 18.922C48.231 18.859 48.2409 18.796 48.2629 18.7369C48.285 18.6777 48.3187 18.6237 48.3621 18.5779C48.4055 18.5321 48.4577 18.4955 48.5156 18.4703C48.5735 18.4452 48.6358 18.4319 48.6989 18.4314C48.7639 18.4292 48.8287 18.4404 48.8893 18.4643C48.9498 18.4882 49.0047 18.5242 49.0507 18.5702C49.0967 18.6162 49.1328 18.6712 49.1567 18.7317C49.1805 18.7922 49.1917 18.857 49.1895 18.922C49.1918 18.9862 49.1812 19.0502 49.1582 19.1102C49.1352 19.1701 49.1004 19.2249 49.0558 19.2711C49.0112 19.3173 48.9577 19.3541 48.8986 19.3792C48.8395 19.4043 48.7759 19.4172 48.7117 19.4172C48.6475 19.4172 48.5839 19.4043 48.5248 19.3792C48.4657 19.3541 48.4122 19.3173 48.3676 19.2711C48.323 19.2249 48.2882 19.1701 48.2652 19.1102C48.2423 19.0502 48.2316 18.9862 48.2339 18.922ZM48.6989 19.2837C48.7486 19.2872 48.7984 19.2805 48.8454 19.2639C48.8923 19.2473 48.9353 19.2212 48.9717 19.1873C49.0082 19.1534 49.0372 19.1123 49.0571 19.0667C49.0769 19.021 49.0872 18.9718 49.0872 18.922C49.0872 18.8722 49.0769 18.823 49.0571 18.7774C49.0372 18.7317 49.0082 18.6907 48.9717 18.6567C48.9353 18.6228 48.8923 18.5967 48.8454 18.5802C48.7984 18.5636 48.7486 18.5569 48.6989 18.5604C48.603 18.5604 48.511 18.5985 48.4432 18.6663C48.3754 18.7341 48.3373 18.8261 48.3373 18.922C48.3373 19.0179 48.3754 19.1099 48.4432 19.1777C48.511 19.2456 48.603 19.2837 48.6989 19.2837ZM48.6472 19.1285H48.5438V18.7152H48.8279C48.8796 18.7414 48.8796 18.7931 48.8796 18.8448C48.876 18.867 48.8672 18.888 48.8537 18.906C48.8402 18.924 48.8226 18.9385 48.8023 18.9482L48.9058 19.1288H48.7762L48.7245 18.9737H48.6472V18.8962H48.6989C48.7245 18.8962 48.7506 18.8962 48.7506 18.87C48.7762 18.87 48.7762 18.8445 48.7762 18.8183C48.7763 18.8149 48.7757 18.8116 48.7744 18.8084C48.7732 18.8053 48.7713 18.8024 48.7689 18.8001C48.7665 18.7977 48.7636 18.7958 48.7605 18.7945C48.7574 18.7933 48.754 18.7927 48.7506 18.7928C48.7506 18.7666 48.7245 18.7928 48.6989 18.7928H48.6472V19.1285Z" fill="white"/>
<path fill-rule="evenodd" clip-rule="evenodd" d="M20.1423 19.7749C19.7481 19.8959 19.3399 19.9654 18.9278 19.9817C18.1525 19.9817 17.6872 19.4905 17.6872 18.613C17.6927 18.422 17.7099 18.2316 17.7389 18.0427L17.8423 17.4487L17.9198 16.9575L18.6176 12.72H20.1687L19.9863 13.6504H20.969L20.7363 15.2016H19.7545L19.3412 17.734C19.3231 17.819 19.3144 17.9057 19.3153 17.9925C19.3153 18.3286 19.4704 18.4576 19.8579 18.4576C20.0227 18.4547 20.187 18.4374 20.3488 18.4059L20.1423 19.7746V19.7749ZM25.1559 19.7232C24.6179 19.8763 24.0613 19.9545 23.502 19.9555C21.7446 19.9555 20.7366 19.0251 20.7366 17.1908C20.7366 15.0456 21.9255 13.495 23.5792 13.495C24.8971 13.495 25.7499 14.3737 25.7499 15.743C25.7448 16.2564 25.6843 16.7677 25.5693 17.268H22.3377C22.3192 17.3354 22.3105 17.405 22.3118 17.4749C22.3118 18.1984 22.8027 18.5601 23.7331 18.5601C24.3149 18.5581 24.8889 18.4258 25.4129 18.1729L25.1559 19.7232ZM24.1997 16.0277V15.7175C24.213 15.6113 24.2024 15.5035 24.1685 15.402C24.1346 15.3006 24.0784 15.208 24.004 15.1311C23.9296 15.0542 23.8389 14.995 23.7386 14.9578C23.6383 14.9207 23.5309 14.9065 23.4244 14.9163C22.9073 14.9163 22.5457 15.3038 22.3903 16.0274H24.1994L24.1997 16.0277ZM7.73835 19.8521H6.13546L7.06587 13.9862L4.97269 19.8521H3.86162L3.73236 14.0124L2.75025 19.8521H1.17383L2.44001 12.2288H4.79172L4.84343 16.9326L6.41985 12.2288H9.00514L7.73835 19.8521ZM11.6409 17.0874C11.5387 17.0677 11.4347 17.0589 11.3307 17.0612C10.4003 17.0612 9.93524 17.4229 9.93524 17.9916C9.92649 18.0742 9.93545 18.1577 9.9615 18.2366C9.98755 18.3155 10.0301 18.3879 10.0863 18.4491C10.1426 18.5102 10.2112 18.5587 10.2876 18.5913C10.364 18.6238 10.4465 18.6397 10.5296 18.6379C11.3048 18.6379 11.6148 17.9916 11.6409 17.0868V17.0874ZM12.933 19.8521H11.5369L11.5628 19.2064C11.2008 19.697 10.7111 19.9555 9.85707 19.9555C9.08179 19.9555 8.40992 19.2581 8.40992 18.2501C8.41296 17.9783 8.45652 17.7083 8.53918 17.4493C8.79741 16.4928 9.75366 15.8981 11.2267 15.8726C11.4092 15.8726 11.6917 15.8726 11.9502 15.8987C11.9883 15.7643 12.0056 15.6248 12.0016 15.4851C12.0016 15.0715 11.6671 14.9422 10.9164 14.9422C10.4604 14.9396 10.0069 15.0094 9.57269 15.149L9.34001 15.2007L9.2366 15.2263L9.46928 13.8308C10.0762 13.6201 10.7127 13.5072 11.355 13.4962C12.7505 13.4962 13.4999 14.1423 13.4999 15.3309C13.5163 15.7374 13.4903 16.1445 13.4223 16.5457L13.061 18.7669L13.0093 19.1547L12.9835 19.4649L12.9576 19.6718L12.9317 19.8521H12.933ZM32.9611 13.7019C33.4701 13.719 33.967 13.8609 34.4082 14.1152L34.6923 12.4612C34.5579 12.401 34.4198 12.3492 34.279 12.3061L33.6333 12.1236C33.3873 12.0681 33.1356 12.0421 32.8835 12.046C32.0821 12.046 31.617 12.0719 31.1264 12.3563C30.7729 12.5891 30.4513 12.8671 30.1699 13.1833L29.9631 13.1316L28.3091 14.2943L28.3869 13.6483H26.681L25.6736 19.8503H27.302L27.896 16.5171C27.896 16.5171 28.129 16.0514 28.2321 15.8969C28.3325 15.7553 28.4701 15.6442 28.6297 15.5757C28.7892 15.5073 28.9646 15.4843 29.1364 15.5091H29.2659C29.2117 15.903 29.1857 16.3002 29.1881 16.6978C29.1881 18.7134 30.325 19.9799 32.0824 19.9799C32.5635 19.9767 33.0419 19.9071 33.504 19.773L33.7887 18.0159C33.3738 18.265 32.9034 18.4071 32.42 18.4293C31.4641 18.4293 30.895 17.7057 30.895 16.5688C30.895 14.889 31.7466 13.7003 32.9632 13.7003L32.9611 13.7019ZM46.6829 12.2288L46.3216 14.3996C46.1782 14.1338 45.9655 13.9117 45.7061 13.757C45.4467 13.6023 45.1503 13.5207 44.8483 13.5209C44.3937 13.5342 43.952 13.6744 43.5729 13.9255C43.1939 14.1767 42.8926 14.5288 42.7031 14.9422V14.9166L41.669 14.2962L41.7724 13.6501H40.0408L39.0587 19.8521H40.661L41.2039 16.5189C41.2039 16.5189 41.6173 16.0533 41.721 15.8987C41.8077 15.787 41.9169 15.6948 42.0416 15.628C42.1662 15.5612 42.3035 15.5213 42.4446 15.511C42.2482 16.1025 42.1522 16.7227 42.1605 17.3459C42.1605 18.8971 42.9613 19.9312 44.1499 19.9312C44.4365 19.9369 44.7205 19.877 44.9803 19.756C45.2401 19.635 45.4688 19.4562 45.6488 19.2332L45.5715 19.8533H47.0957L48.336 12.2301H46.6817L46.6829 12.2288ZM44.6929 18.3794C44.1499 18.3794 43.8659 17.9661 43.8659 17.1646C43.8659 15.9498 44.3829 15.0714 45.1317 15.0714C45.7002 15.0714 45.9834 15.5109 45.9834 16.2862C45.9834 17.5266 45.4663 18.3794 44.6913 18.3794H44.6929ZM37.2247 17.0874C37.1225 17.0677 37.0185 17.0589 36.9145 17.0612C35.9835 17.0612 35.5184 17.4229 35.5184 17.9916C35.5097 18.0742 35.5187 18.1578 35.5448 18.2367C35.5709 18.3155 35.6135 18.388 35.6697 18.4491C35.726 18.5102 35.7946 18.5587 35.871 18.5913C35.9475 18.6238 36.03 18.6397 36.113 18.6379C36.8883 18.6379 37.1985 17.9916 37.2247 17.0874ZM38.5167 19.8521H37.0951L37.1468 19.2064C36.7852 19.697 36.2952 19.9555 35.4415 19.9555C34.64 19.9555 33.9426 19.2837 33.9426 18.2501C33.9426 16.7774 35.0534 15.8729 36.8107 15.8729C37.0437 15.8695 37.2767 15.8782 37.5088 15.899C37.5529 15.7652 37.5791 15.6261 37.5866 15.4854C37.5866 15.0718 37.2521 14.9425 36.4753 14.9425C36.0194 14.942 35.5661 15.0117 35.1315 15.1493L34.9247 15.201L34.8213 15.2266L35.0537 13.8311C35.6606 13.6205 36.2971 13.5076 36.9394 13.4965C38.3349 13.4965 39.0584 14.1426 39.0584 15.3312C39.0884 15.7378 39.0624 16.1465 38.9812 16.546L38.6466 18.7684L38.5949 19.1562L38.5432 19.4665L38.5176 19.6733V19.8533L38.5167 19.8521ZM16.3176 14.968C16.7246 14.9702 17.1308 15.0048 17.5324 15.0714L17.765 13.6243C17.2997 13.5726 16.6795 13.495 16.3176 13.495C14.5088 13.495 13.9148 14.4771 13.9148 15.6141C13.9148 16.3638 14.2493 16.9061 15.1292 17.3194C15.7753 17.6297 15.8787 17.6811 15.8787 17.9658C15.8787 18.3529 15.5441 18.5859 14.9224 18.5859C14.4201 18.5859 13.9217 18.4984 13.4494 18.3274L13.2669 19.7484L13.2925 19.7746L13.6027 19.8263C13.7392 19.8591 13.8772 19.8849 14.0164 19.9035C14.4038 19.9297 14.7399 19.9552 14.9468 19.9552C16.7559 19.9552 17.5053 19.2578 17.5053 17.887C17.5053 17.0354 17.0916 16.5183 16.2905 16.1561C15.5928 15.8455 15.5152 15.7944 15.5152 15.5097C15.5152 15.225 15.8255 14.9671 16.3164 14.9671L16.3176 14.968Z" fill="#1B3771"/>
<path fill-rule="evenodd" clip-rule="evenodd" d="M35.1312 11.9704L34.8465 13.6244C34.4054 13.3699 33.9084 13.2279 33.3994 13.211C32.1846 13.211 31.3311 14.3997 31.3311 16.0795C31.3311 17.2426 31.8996 17.94 32.8562 17.94C33.3358 17.9162 33.8038 17.7838 34.2248 17.5528L33.9408 19.2837C33.4795 19.4247 33.0013 19.5031 32.5192 19.5167C30.7621 19.5167 29.6766 18.2502 29.6766 16.2091C29.6766 13.4954 31.1754 11.5829 33.3203 11.5829C33.5722 11.579 33.8237 11.605 34.0694 11.6605L34.7157 11.8156C34.9229 11.8931 34.9746 11.919 35.1297 11.9704H35.1312ZM29.9111 13.1076H29.7559C29.2136 13.1076 28.9043 13.3662 28.4122 14.1153L28.5673 13.159H27.094L26.0866 19.3613H27.7151C28.3091 15.5624 28.4642 14.9164 29.2395 14.9164H29.3429C29.4617 14.295 29.6706 13.6942 29.9631 13.1332L29.9111 13.1076ZM20.5559 19.2837C20.1836 19.4209 19.7899 19.491 19.3932 19.4906C18.5662 19.4906 18.1008 19.0255 18.1008 18.1219C18.1064 17.94 18.1237 17.7586 18.1525 17.579L18.2559 16.9588L18.3335 16.4682L19.0312 12.2295H20.6344L20.4519 13.1599H21.2789L21.0721 14.6847H20.2457L19.8065 17.2699C19.7863 17.3546 19.7777 17.4415 19.7807 17.5285C19.7807 17.8387 19.9358 17.968 20.3233 17.968C20.4717 17.9814 20.6212 17.9638 20.7625 17.9163L20.5559 19.285V19.2837ZM14.3278 15.1229C14.3278 15.8985 14.6894 16.4408 15.5423 16.8545C16.2142 17.1647 16.3176 17.2678 16.3176 17.5263C16.3176 17.9141 16.0332 18.0948 15.3872 18.0948C14.8958 18.0914 14.4078 18.0131 13.94 17.8624L13.7073 19.2834L13.7849 19.3096L14.0693 19.3613C14.2128 19.3976 14.3605 19.415 14.5085 19.413C14.7997 19.4518 15.0934 19.4691 15.3872 19.4647C17.0926 19.4647 17.894 18.8184 17.894 17.3965C17.894 16.5433 17.5594 16.0521 16.7571 15.6649C16.0594 15.3559 15.9809 15.2787 15.9809 14.9943C15.9809 14.6597 16.2653 14.5034 16.782 14.5034C17.1709 14.5068 17.5592 14.5327 17.9451 14.5809L18.1775 13.1596C17.7077 13.0804 17.2325 13.0372 16.7562 13.0304C14.9471 13.0304 14.301 13.9863 14.3269 15.1232L14.3278 15.1229ZM47.5108 19.3613H45.9858L46.0637 18.7667C45.8783 18.9818 45.6479 19.1535 45.3888 19.2696C45.1296 19.3858 44.8481 19.4434 44.5642 19.4386C43.3756 19.4386 42.6003 18.4312 42.6003 16.8806C42.6003 14.8124 43.8151 13.0556 45.2361 13.0556C45.5451 13.0573 45.8487 13.1361 46.1196 13.2848C46.3905 13.4335 46.6199 13.6475 46.7873 13.9072L47.1489 11.7365H48.7512L47.5108 19.3601V19.3613ZM45.133 17.9141C45.8827 17.9141 46.3995 17.0354 46.3995 15.8207C46.3995 15.0195 46.1148 14.6059 45.5478 14.6059C44.8243 14.6059 44.2819 15.4575 44.2819 16.6741C44.2819 17.5014 44.5658 17.915 45.1336 17.9147L45.133 17.9141ZM25.5176 19.232C24.9752 19.4081 24.408 19.4954 23.8377 19.4906C22.0286 19.4906 21.0982 18.5346 21.0982 16.6997C21.0982 14.5806 22.2872 13.0042 23.9153 13.0042C25.259 13.0042 26.1116 13.8829 26.1116 15.2525C26.1079 15.7762 26.0385 16.2973 25.9048 16.8037H22.7008C22.6811 16.8624 22.6724 16.9243 22.675 16.9862C22.675 17.7097 23.1662 18.0714 24.0963 18.0714C24.6796 18.0819 25.2565 17.9487 25.7761 17.6836L25.5176 19.2348V19.232ZM24.613 15.5366V15.2266C24.6264 15.1205 24.6157 15.0127 24.5818 14.9112C24.548 14.8097 24.4918 14.7172 24.4174 14.6403C24.343 14.5634 24.2523 14.5042 24.152 14.467C24.0516 14.4299 23.9443 14.4157 23.8377 14.4255C23.3207 14.4255 22.959 14.8133 22.8036 15.5366H24.613ZM8.15139 19.3616H6.54912L7.47952 13.4951L5.38634 19.3616H4.27497L4.14571 13.5468L3.1639 19.3616H1.66504L2.93275 11.738H5.2586L5.33555 16.4673L6.88673 11.738H9.4194L8.15322 19.3616H8.15139ZM12.1571 16.5962C12.002 16.5962 11.9244 16.5707 11.7951 16.5707C10.8906 16.5707 10.4265 16.9053 10.4265 17.5266C10.4153 17.6063 10.4218 17.6874 10.4457 17.7642C10.4695 17.841 10.5101 17.9115 10.5644 17.9708C10.6187 18.0301 10.6855 18.0766 10.7599 18.107C10.8344 18.1375 10.9146 18.1511 10.9949 18.1468C11.6668 18.1468 12.1321 17.5266 12.158 16.5956L12.1571 16.5962ZM13.3457 19.3616H12.0017L12.0269 18.7153C11.824 18.9684 11.5629 19.1687 11.266 19.2992C10.969 19.4298 10.6449 19.4866 10.3212 19.465C9.44252 19.465 8.8482 18.7931 8.8482 17.7852C8.8482 16.2608 9.88232 15.3824 11.6908 15.3824C11.8733 15.3824 12.1045 15.4082 12.3627 15.4338C12.3993 15.308 12.4167 15.1773 12.4144 15.0463C12.4144 14.6329 12.13 14.4778 11.3803 14.4778C10.9276 14.4723 10.476 14.5244 10.0365 14.6329L9.80385 14.7105L9.64873 14.7364L9.88141 13.3409C10.5081 13.1399 11.1617 13.0353 11.8198 13.0307C13.2152 13.0307 13.9647 13.6508 13.9647 14.8395C13.9547 15.2558 13.9115 15.6707 13.8354 16.0801L13.4734 18.277L13.4217 18.6642L13.3959 18.9744L13.37 19.2074L13.3448 19.3619L13.3457 19.3616ZM37.7415 16.5962C37.559 16.5962 37.4829 16.5707 37.3798 16.5707C36.4494 16.5707 35.9838 16.9053 35.9838 17.5266C35.9755 17.6079 35.9849 17.6901 36.0115 17.7674C36.0381 17.8446 36.0812 17.9152 36.1377 17.9742C36.1943 18.0332 36.263 18.0792 36.3391 18.109C36.4151 18.1388 36.4968 18.1517 36.5784 18.1468C37.2247 18.1468 37.7153 17.5266 37.7415 16.5956V16.5962ZM38.9301 19.3616H37.5863L37.6119 18.7153C37.4091 18.9684 37.1481 19.1688 36.8512 19.2993C36.5542 19.4298 36.2301 19.4867 35.9065 19.465C35.0278 19.465 34.4332 18.7931 34.4332 17.7852C34.4332 16.2608 35.4673 15.3824 37.2758 15.3824C37.4583 15.3824 37.6898 15.4082 37.9221 15.4338C37.9636 15.3082 37.9897 15.1781 38 15.0463C38 14.6329 37.7153 14.4778 36.9659 14.4778C36.505 14.4724 36.0452 14.5245 35.5972 14.6329L35.3904 14.7105L35.2352 14.7364L35.4676 13.3409C36.0943 13.14 36.7479 13.0354 37.406 13.0307C38.8014 13.0307 39.525 13.6508 39.525 14.8395C39.5287 15.2565 39.4854 15.6727 39.396 16.0801L39.0615 18.277L39.0098 18.6642L38.9581 18.9744L38.9325 19.2074V19.3619L38.9301 19.3616ZM43.2716 13.1076H43.1164C42.5741 13.1076 42.2648 13.3662 41.7727 14.1153L41.9278 13.159H40.4545L39.4724 19.3613H41.0734C41.6681 15.5624 41.8232 14.9164 42.5985 14.9164H42.7019C42.8207 14.295 43.0296 13.6942 43.322 13.1332L43.2703 13.1076H43.2716Z" fill="white"/>
</svg>
