<svg width="72" height="19" viewBox="0 0 72 19" fill="none" xmlns="http://www.w3.org/2000/svg">
<path d="M13.4184 1.73659C12.5787 0.779546 11.0609 0.36924 9.11924 0.36924H3.48383C3.29162 0.369139 3.10568 0.437641 2.95948 0.562421C2.81328 0.687201 2.71641 0.860063 2.6863 1.0499L0.340851 15.9327C0.329975 16.0017 0.334196 16.0723 0.353223 16.1396C0.372251 16.2068 0.405632 16.2691 0.451067 16.3222C0.496501 16.3754 0.55291 16.418 0.616406 16.4472C0.679902 16.4764 0.748976 16.4915 0.818869 16.4915H4.29792L5.1717 10.9494L5.14461 11.1229C5.17414 10.9334 5.27036 10.7608 5.41594 10.636C5.56152 10.5112 5.74689 10.4425 5.93863 10.4422H7.59189C10.8397 10.4422 13.3828 9.12305 14.1256 5.30693C14.1477 5.19407 14.1668 5.08422 14.1833 4.97688C14.404 3.5664 14.1818 2.60635 13.4189 1.73709" fill="#003087"/>
<path d="M56.0104 8.81771C55.7977 10.2141 54.7314 10.2141 53.7001 10.2141H53.1132L53.525 7.60687C53.5501 7.44937 53.6855 7.3335 53.845 7.3335H54.1144C54.8166 7.3335 55.4797 7.3335 55.8218 7.73327C56.026 7.97253 56.0877 8.32766 56.0104 8.81771ZM55.5615 5.17414H51.6711C51.5423 5.1742 51.4177 5.22019 51.3197 5.30385C51.2217 5.3875 51.1567 5.50335 51.1364 5.63059L49.5644 15.6058C49.5572 15.652 49.5601 15.6993 49.5728 15.7443C49.5856 15.7894 49.6079 15.8311 49.6383 15.8667C49.6687 15.9023 49.7064 15.9309 49.7489 15.9505C49.7914 15.9702 49.8377 15.9804 49.8845 15.9805H51.8808C52.0669 15.9805 52.2254 15.845 52.2545 15.6615L52.7009 12.8325C52.742 12.5701 52.9688 12.376 53.2346 12.376H54.4655C57.0287 12.376 58.5074 11.1366 58.8936 8.67827C59.0676 7.60386 58.9006 6.75917 58.3975 6.1678C57.8442 5.51773 56.8636 5.17364 55.562 5.17364" fill="#009CDE"/>
<path d="M28.263 8.81872C28.0503 10.2152 26.9839 10.2152 25.9521 10.2152H25.3652L25.7771 7.60788C25.8021 7.45038 25.9376 7.33451 26.0971 7.33451H26.3664C27.0687 7.33451 27.7318 7.33451 28.0738 7.73428C28.2785 7.97354 28.3402 8.32867 28.263 8.81872ZM27.814 5.17515H23.9237C23.6578 5.17515 23.4311 5.36876 23.3895 5.6316L21.817 15.6068C21.8097 15.653 21.8124 15.7003 21.8252 15.7454C21.8379 15.7905 21.8602 15.8323 21.8906 15.8679C21.921 15.9035 21.9588 15.9321 22.0013 15.9517C22.0439 15.9713 22.0902 15.9815 22.137 15.9815H23.9949C24.2607 15.9815 24.487 15.7879 24.5286 15.525L24.9534 12.834C24.9946 12.5711 25.2213 12.3775 25.4871 12.3775H26.718C29.2812 12.3775 30.7599 11.1376 31.1461 8.67928C31.3202 7.60487 31.1531 6.76018 30.65 6.16881C30.0968 5.51874 29.1162 5.17465 27.8145 5.17465M36.8462 12.4001C36.6656 13.4645 35.8215 14.1793 34.7435 14.1793C34.2033 14.1793 33.7704 14.0052 33.4926 13.6762C33.2167 13.3501 33.1134 12.8851 33.2006 12.368C33.3682 11.3126 34.2269 10.5753 35.2883 10.5753C35.8174 10.5753 36.2463 10.7509 36.5302 11.0829C36.8156 11.4175 36.928 11.885 36.8462 12.4001ZM39.4425 8.77358H37.5795C37.5021 8.77349 37.4272 8.80109 37.3683 8.85141C37.3094 8.90173 37.2705 8.97144 37.2585 9.04795L37.1773 9.56861L37.0469 9.38001C36.6436 8.79465 35.7442 8.59852 34.8464 8.59852C32.7883 8.59852 31.0302 10.1585 30.6882 12.3454C30.5101 13.4374 30.7629 14.4802 31.3819 15.208C31.9502 15.8766 32.7612 16.155 33.7278 16.155C35.3871 16.155 36.307 15.0896 36.307 15.0896L36.2237 15.6073C36.2164 15.6536 36.2192 15.7009 36.232 15.746C36.2447 15.7912 36.2671 15.833 36.2976 15.8686C36.328 15.9042 36.3659 15.9328 36.4085 15.9524C36.451 15.9719 36.4974 15.982 36.5443 15.982H38.2216C38.4874 15.982 38.7142 15.7889 38.7558 15.5255L39.763 9.14877C39.7702 9.10244 39.7674 9.05509 39.7545 9.00998C39.7417 8.96487 39.7193 8.92308 39.6888 8.88747C39.6583 8.85186 39.6204 8.82328 39.5778 8.80371C39.5352 8.78413 39.4889 8.77403 39.442 8.77408" fill="#003087"/>
<path d="M64.5932 12.4001C64.4126 13.4645 63.5684 14.1793 62.4905 14.1793C61.9503 14.1793 61.5174 14.0052 61.2395 13.6762C60.9636 13.3501 60.8603 12.8851 60.9476 12.368C61.1151 11.3126 61.9734 10.5753 63.0352 10.5753C63.5644 10.5753 63.9933 10.7509 64.2772 11.0829C64.5626 11.4175 64.6749 11.885 64.5932 12.4001ZM67.1894 8.77358H65.3265C65.2491 8.77349 65.1741 8.80109 65.1153 8.85141C65.0564 8.90173 65.0175 8.97144 65.0055 9.04795L64.9242 9.56861L64.7938 9.38001C64.3905 8.79465 63.4912 8.59852 62.5933 8.59852C60.5358 8.59852 58.7777 10.1585 58.4351 12.3454C58.257 13.4374 58.5104 14.4802 59.1293 15.208C59.6976 15.8766 60.5087 16.155 61.4753 16.155C63.135 16.155 64.055 15.0896 64.055 15.0896L63.9717 15.6073C63.9642 15.6535 63.9669 15.7009 63.9795 15.746C63.9921 15.7911 64.0144 15.8329 64.0448 15.8686C64.0752 15.9042 64.113 15.9328 64.1555 15.9524C64.1981 15.972 64.2444 15.9821 64.2912 15.982H65.968C66.2339 15.982 66.4606 15.7889 66.5027 15.5255L67.5099 9.14877C67.5172 9.10244 67.5143 9.05509 67.5015 9.00998C67.4887 8.96487 67.4663 8.92308 67.4358 8.88747C67.4052 8.85186 67.3674 8.82328 67.3248 8.80371C67.2822 8.78413 67.2358 8.77403 67.1889 8.77408" fill="#009CDE"/>
<path d="M49.364 8.77378H47.4911C47.312 8.77378 47.145 8.86256 47.0446 9.01103L44.4614 12.8151L43.3665 9.1595C43.333 9.048 43.2646 8.95023 43.1713 8.88066C43.078 8.8111 42.9647 8.77345 42.8483 8.77328H41.008C40.9564 8.7733 40.9055 8.78563 40.8596 8.80925C40.8137 8.83286 40.7741 8.86708 40.7441 8.90906C40.7141 8.95104 40.6945 8.99958 40.687 9.05063C40.6795 9.10169 40.6843 9.1538 40.701 9.20264L42.7625 15.2549L40.8234 17.9911C40.7891 18.0396 40.7688 18.0967 40.7648 18.156C40.7607 18.2153 40.773 18.2746 40.8003 18.3273C40.8277 18.3801 40.869 18.4244 40.9197 18.4553C40.9705 18.4862 41.0288 18.5026 41.0882 18.5027H42.9592C43.1357 18.5027 43.3018 18.4159 43.4031 18.2704L49.6299 9.2829C49.6637 9.23431 49.6835 9.1774 49.6873 9.11833C49.691 9.05926 49.6785 9.00029 49.6511 8.94783C49.6237 8.89536 49.5825 8.8514 49.5319 8.82072C49.4813 8.79004 49.4232 8.7738 49.364 8.77378Z" fill="#003087"/>
<path d="M69.3852 5.44801L67.7881 15.6058C67.7808 15.6521 67.7837 15.6994 67.7965 15.7444C67.8093 15.7895 67.8316 15.8313 67.8621 15.8669C67.8926 15.9025 67.9304 15.9311 67.9729 15.9507C68.0155 15.9703 68.0618 15.9805 68.1086 15.9805H69.7142C69.98 15.9805 70.2068 15.7869 70.2484 15.524L71.8229 5.54833C71.8302 5.50203 71.8274 5.45469 71.8147 5.40958C71.8019 5.36447 71.7796 5.32266 71.7491 5.28704C71.7186 5.25142 71.6808 5.22283 71.6382 5.20325C71.5956 5.18367 71.5493 5.17357 71.5024 5.17364H69.7057C69.6283 5.17344 69.5535 5.20096 69.4947 5.2512C69.4359 5.30144 69.397 5.37158 69.3852 5.44801Z" fill="#009CDE"/>
<path d="M13.4184 1.73659C12.5787 0.779546 11.0609 0.36924 9.11924 0.36924H3.48383C3.29162 0.369139 3.10568 0.437641 2.95948 0.562421C2.81328 0.687201 2.71641 0.860063 2.6863 1.0499L0.340851 15.9327C0.329975 16.0017 0.334196 16.0723 0.353223 16.1396C0.372251 16.2068 0.405632 16.2691 0.451067 16.3222C0.496501 16.3754 0.55291 16.418 0.616406 16.4472C0.679902 16.4764 0.748976 16.4915 0.818869 16.4915H4.29792L5.1717 10.9494L5.14461 11.1229C5.17414 10.9334 5.27036 10.7608 5.41594 10.636C5.56152 10.5112 5.74689 10.4425 5.93863 10.4422H7.59189C10.8397 10.4422 13.3828 9.12305 14.1256 5.30693C14.1477 5.19407 14.1668 5.08422 14.1833 4.97688C14.404 3.5664 14.1818 2.60635 13.4189 1.73709" fill="#003087"/>
<path d="M6.11076 4.99594C6.13712 4.83006 6.22174 4.67901 6.34943 4.56989C6.47711 4.46077 6.63951 4.40073 6.80747 4.40055H11.2255C11.7487 4.40055 12.2367 4.43465 12.6826 4.50588C12.9264 4.5451 13.1676 4.59904 13.4049 4.66739C13.6744 4.74316 13.9352 4.84706 14.1829 4.97738C14.4046 3.5664 14.1819 2.60685 13.419 1.73709C12.5788 0.780548 11.0615 0.370243 9.11982 0.370243H3.48391C3.29187 0.37038 3.10618 0.43899 2.96018 0.563748C2.81419 0.688506 2.71746 0.861237 2.68738 1.05091L0.34093 15.9322C0.329981 16.0012 0.33413 16.0718 0.353091 16.1391C0.372053 16.2064 0.405376 16.2687 0.450764 16.3219C0.496153 16.3751 0.552527 16.4177 0.616003 16.447C0.679479 16.4763 0.748546 16.4914 0.818447 16.4915H4.298L5.17178 10.9488L6.11076 4.99594Z" fill="#003087"/>
<path d="M14.1836 4.97622C14.1664 5.08657 14.1472 5.19661 14.1259 5.30626C13.3831 9.12188 10.84 10.4416 7.59218 10.4416H5.93843C5.74671 10.4417 5.56136 10.5104 5.41584 10.6352C5.27033 10.76 5.17423 10.9328 5.14491 11.1222L4.29822 16.4903L4.05746 18.0131C4.04788 18.0736 4.05153 18.1354 4.06816 18.1943C4.08478 18.2532 4.11398 18.3078 4.15375 18.3544C4.19351 18.4009 4.24289 18.4383 4.29849 18.4639C4.35409 18.4895 4.41457 18.5027 4.47578 18.5027H7.4086C7.7557 18.5027 8.05064 18.2499 8.10532 17.9073L8.13391 17.7578L8.68666 14.2547L8.72177 14.0611C8.74805 13.8951 8.83272 13.7439 8.96053 13.6347C9.08834 13.5256 9.25091 13.4656 9.41899 13.4657H9.85788C12.6989 13.4657 14.9235 12.312 15.5735 8.97341C15.8444 7.57898 15.704 6.41378 14.9867 5.59569C14.7589 5.34205 14.4868 5.13212 14.1836 4.97622Z" fill="#009CDE"/>
<path d="M13.4048 4.66778C13.2914 4.63418 13.1746 4.60408 13.0542 4.5775C12.9338 4.55091 12.8094 4.52734 12.682 4.50727C12.2356 4.43454 11.748 4.40043 11.2244 4.40043H6.80683C6.63868 4.40023 6.47601 4.46019 6.34822 4.56949C6.22044 4.67878 6.13598 4.83018 6.11011 4.99633L5.17113 10.9502L5.14404 11.1233C5.17336 10.9338 5.26946 10.7611 5.41498 10.6363C5.56049 10.5114 5.74584 10.4428 5.93756 10.4426H7.59132C10.8391 10.4426 13.3822 9.12344 14.1251 5.30731C14.1471 5.19446 14.1657 5.08511 14.1828 4.97727C13.9866 4.87462 13.7822 4.78838 13.5718 4.71945C13.5171 4.70139 13.4615 4.68484 13.4048 4.66778Z" fill="#012169"/>
</svg>
