<svg width="76" height="17" viewBox="0 0 76 17" fill="none" xmlns="http://www.w3.org/2000/svg">
<mask id="path-1-inside-1_74_3363" fill="white">
<path d="M4.877 4.59541L4.24658 6.91576L7.855 4.5822L5.49502 13.3873L7.89182 13.3893L11.3782 0.383789"/>
</mask>
<path d="M4.877 4.59541L4.24658 6.91576L7.855 4.5822L5.49502 13.3873L7.89182 13.3893L11.3782 0.383789" fill="#3395FF"/>
<path d="M4.24658 6.91576L4.08575 6.87206L3.97164 7.29205L4.33709 7.05571L4.24658 6.91576ZM7.855 4.5822L8.01598 4.62535L8.12808 4.20712L7.76449 4.44225L7.855 4.5822ZM5.49502 13.3873L5.33403 13.3441L5.27785 13.5538L5.49488 13.554L5.49502 13.3873ZM7.89182 13.3893L7.89168 13.556L8.01967 13.5561L8.0528 13.4324L7.89182 13.3893ZM4.71617 4.55171L4.08575 6.87206L4.40742 6.95946L5.03784 4.6391L4.71617 4.55171ZM4.33709 7.05571L7.9455 4.72215L7.76449 4.44225L4.15608 6.77581L4.33709 7.05571ZM7.69401 4.53905L5.33403 13.3441L5.656 13.4304L8.01598 4.62535L7.69401 4.53905ZM5.49488 13.554L7.89168 13.556L7.89196 13.2226L5.49516 13.2206L5.49488 13.554ZM8.0528 13.4324L11.5391 0.426943L11.2172 0.340635L7.73084 13.3461L8.0528 13.4324Z" fill="#5BBB7B" mask="url(#path-1-inside-1_74_3363)"/>
<mask id="path-3-inside-2_74_3363" fill="white">
<path d="M0.992664 9.68257L0 13.3842H4.91249L6.92263 5.85401L0.992664 9.68257ZM18.0569 6.42359C17.9368 6.86989 17.7054 7.19771 17.3604 7.40705C17.0162 7.61599 16.5331 7.72086 15.9094 7.72086H13.9281L14.6238 5.12712H16.6051C17.2279 5.12712 17.6558 5.23119 17.888 5.44334C18.1201 5.65548 18.1762 5.97969 18.0569 6.42799M20.1083 6.37196C20.3604 5.43533 20.2564 4.71485 19.7952 4.21051C19.3349 3.71018 18.5272 3.45801 17.3744 3.45801H12.9527L10.2909 13.3887H12.4391L13.5118 9.38597H14.9208C15.237 9.38597 15.486 9.43801 15.6677 9.53807C15.8498 9.64214 15.9567 9.82227 15.9895 10.0824L16.373 13.3887H18.6745L18.3014 10.3066C18.2254 9.61813 17.9104 9.21386 17.3568 9.09378C18.0625 8.88964 18.6537 8.54941 19.13 8.0771C19.603 7.60824 19.9409 7.0206 20.1083 6.37596M25.3301 9.83427C25.15 10.5067 24.8738 11.0151 24.5004 11.3713C24.1265 11.7275 23.6798 11.9037 23.1587 11.9037C22.6279 11.9037 22.2681 11.7315 22.078 11.3833C21.8874 11.0351 21.881 10.5307 22.058 9.8703C22.2349 9.20986 22.5171 8.69351 22.9053 8.32126C23.2936 7.94901 23.7475 7.76289 24.2686 7.76289C24.789 7.76289 25.1452 7.94301 25.3253 8.30045C25.5095 8.65949 25.5135 9.17303 25.3334 9.84148L25.3301 9.83427ZM26.2716 6.31992L26.0026 7.32459C25.8865 6.96435 25.6612 6.67616 25.3281 6.46002C24.9943 6.24787 24.5812 6.1398 24.0885 6.1398C23.4841 6.1398 22.9037 6.29591 22.3474 6.60811C21.791 6.92032 21.3027 7.36062 20.8864 7.929C20.4701 8.49738 20.1659 9.14181 19.9698 9.86629C19.7776 10.5948 19.7376 11.2312 19.8537 11.7836C19.9738 12.3399 20.2259 12.7642 20.6142 13.0604C21.0065 13.3606 21.5068 13.5087 22.1192 13.5087C22.6058 13.5112 23.087 13.4059 23.5281 13.2005C23.9643 13.0038 24.3523 12.7142 24.6649 12.352L24.3847 13.3991H26.4621L28.359 6.32352H26.2776L26.2716 6.31992ZM35.824 6.31992H29.7827L29.3604 7.89698H32.8756L28.2285 11.9117L27.8314 13.3927H34.0676L34.4899 11.8156H30.7234L35.4417 7.74087M41.1415 9.82227C40.9546 10.5187 40.6772 11.0423 40.311 11.3833C39.9447 11.7275 39.5012 11.8997 38.9805 11.8997C37.8918 11.8997 37.5339 11.2072 37.9054 9.82227C38.0895 9.1338 38.3681 8.61626 38.7403 8.26763C39.1126 7.91779 39.5637 7.74327 40.094 7.74327C40.6144 7.74327 40.9658 7.91659 41.1467 8.26562C41.3276 8.61386 41.326 9.133 41.1415 9.82146M42.3575 6.5861C41.8792 6.2883 41.2688 6.1394 40.5243 6.1394C39.7706 6.1394 39.0729 6.2875 38.4309 6.5837C37.7915 6.87804 37.2296 7.31743 36.7898 7.86696C36.3375 8.42333 36.0121 9.07577 35.8124 9.82026C35.6162 10.562 35.5922 11.2132 35.7443 11.7708C35.8964 12.3271 36.2166 12.7554 36.697 13.0516C37.1813 13.3502 37.7977 13.4987 38.5542 13.4987C39.2987 13.4987 39.9912 13.349 40.6276 13.0512C41.264 12.7518 41.8084 12.3267 42.2607 11.7664C42.713 11.2084 43.0372 10.5576 43.2373 9.81306C43.4375 9.06856 43.4615 8.41853 43.3094 7.85975C43.1573 7.30338 42.8411 6.87509 42.3647 6.57689M49.7737 8.20999L50.3061 6.2847C50.1259 6.19264 49.8898 6.1446 49.5936 6.1446C49.1173 6.1446 48.661 6.26228 48.2207 6.50084C47.842 6.70338 47.5202 6.98917 47.248 7.34701L47.5242 6.31032L46.921 6.31272H45.44L43.5307 13.3854H45.6373L46.628 9.68818C46.7721 9.15062 47.0315 8.72753 47.4057 8.42733C47.778 8.12593 48.2423 7.97503 48.8027 7.97503C49.1469 7.97503 49.4671 8.05388 49.7713 8.21119M55.6352 9.85629C55.4551 10.5167 55.1829 11.0211 54.8107 11.3693C54.4384 11.7191 53.9901 11.8937 53.4698 11.8937C52.9494 11.8937 52.5932 11.7175 52.4051 11.3653C52.2129 11.0111 52.2089 10.5007 52.389 9.82987C52.5692 9.15942 52.8454 8.64508 53.2256 8.28884C53.6059 7.9298 54.0542 7.75048 54.5745 7.75048C55.0869 7.75048 55.4311 7.9346 55.6152 8.30685C55.7993 8.6791 55.8033 9.19545 55.6264 9.85589M57.0994 6.59771C56.7091 6.2855 56.2108 6.12939 55.6064 6.12939C55.0768 6.12939 54.5721 6.24948 54.0934 6.49204C53.6151 6.7342 53.2268 7.06442 52.9286 7.4823L52.9358 7.43427L53.2893 6.30951H51.2319L50.7075 8.26682L50.6915 8.33487L48.5301 16.3979H50.6395L51.7282 12.3391C51.8363 12.7002 52.0564 12.9836 52.3927 13.1885C52.7289 13.3927 53.144 13.4939 53.6375 13.4939C54.2499 13.4939 54.8343 13.3458 55.3887 13.0496C55.945 12.7526 56.4253 12.3251 56.8336 11.7728C57.2419 11.2204 57.5449 10.58 57.7382 9.85549C57.9344 9.1298 57.9744 8.48257 57.8623 7.91619C57.7482 7.34901 57.4957 6.90992 57.1058 6.59931M64.0965 9.82747C63.9164 10.4959 63.6402 11.0083 63.2679 11.3605C62.8957 11.7151 62.4474 11.8916 61.927 11.8916C61.3947 11.8916 61.0344 11.7195 60.8463 11.3713C60.6542 11.0231 60.6502 10.5187 60.8263 9.85829C61.0024 9.19785 61.2834 8.6815 61.6717 8.30925C62.0599 7.937 62.5142 7.75128 63.0354 7.75128C63.5557 7.75128 63.908 7.9314 64.0921 8.28764C64.2762 8.64508 64.2774 9.15862 64.0981 9.82867L64.0965 9.82747ZM65.0371 6.31112L64.7677 7.31579C64.6517 6.95355 64.4275 6.66535 64.0953 6.45121C63.7591 6.23747 63.3468 6.131 62.8545 6.131C62.25 6.131 61.6665 6.2871 61.1093 6.59931C60.5529 6.91152 60.0646 7.34941 59.6483 7.91619C59.232 8.48297 58.9278 9.129 58.7317 9.85349C58.5376 10.5808 58.4995 11.2184 58.6156 11.7732C58.7329 12.3255 58.9855 12.7522 59.3761 13.05C59.766 13.3462 60.2687 13.4959 60.8811 13.4959C61.3735 13.4959 61.8438 13.3935 62.2901 13.1877C62.7252 12.9901 63.1122 12.7001 63.424 12.3379L63.1438 13.3858H65.2212L67.1177 6.31312H65.0403L65.0371 6.31112ZM75.8391 6.31352L75.8403 6.31152H74.5635C74.5227 6.31152 74.4866 6.31352 74.4494 6.31432H73.787L73.4467 6.78663L73.3627 6.89871L73.3267 6.95475L70.6349 10.7045L70.0785 6.31352H67.8738L68.9906 12.986L66.5249 16.4003H68.7224L69.3188 15.5545C69.3356 15.5297 69.3508 15.5089 69.3708 15.4825L70.0673 14.4938L70.0873 14.4658L73.2066 10.0428L75.8363 6.32032L75.8403 6.31792H75.8391V6.31352Z"/>
</mask>
<path d="M0.992664 9.68257L0 13.3842H4.91249L6.92263 5.85401L0.992664 9.68257ZM18.0569 6.42359C17.9368 6.86989 17.7054 7.19771 17.3604 7.40705C17.0162 7.61599 16.5331 7.72086 15.9094 7.72086H13.9281L14.6238 5.12712H16.6051C17.2279 5.12712 17.6558 5.23119 17.888 5.44334C18.1201 5.65548 18.1762 5.97969 18.0569 6.42799M20.1083 6.37196C20.3604 5.43533 20.2564 4.71485 19.7952 4.21051C19.3349 3.71018 18.5272 3.45801 17.3744 3.45801H12.9527L10.2909 13.3887H12.4391L13.5118 9.38597H14.9208C15.237 9.38597 15.486 9.43801 15.6677 9.53807C15.8498 9.64214 15.9567 9.82227 15.9895 10.0824L16.373 13.3887H18.6745L18.3014 10.3066C18.2254 9.61813 17.9104 9.21386 17.3568 9.09378C18.0625 8.88964 18.6537 8.54941 19.13 8.0771C19.603 7.60824 19.9409 7.0206 20.1083 6.37596M25.3301 9.83427C25.15 10.5067 24.8738 11.0151 24.5004 11.3713C24.1265 11.7275 23.6798 11.9037 23.1587 11.9037C22.6279 11.9037 22.2681 11.7315 22.078 11.3833C21.8874 11.0351 21.881 10.5307 22.058 9.8703C22.2349 9.20986 22.5171 8.69351 22.9053 8.32126C23.2936 7.94901 23.7475 7.76289 24.2686 7.76289C24.789 7.76289 25.1452 7.94301 25.3253 8.30045C25.5095 8.65949 25.5135 9.17303 25.3334 9.84148L25.3301 9.83427ZM26.2716 6.31992L26.0026 7.32459C25.8865 6.96435 25.6612 6.67616 25.3281 6.46002C24.9943 6.24787 24.5812 6.1398 24.0885 6.1398C23.4841 6.1398 22.9037 6.29591 22.3474 6.60811C21.791 6.92032 21.3027 7.36062 20.8864 7.929C20.4701 8.49738 20.1659 9.14181 19.9698 9.86629C19.7776 10.5948 19.7376 11.2312 19.8537 11.7836C19.9738 12.3399 20.2259 12.7642 20.6142 13.0604C21.0065 13.3606 21.5068 13.5087 22.1192 13.5087C22.6058 13.5112 23.087 13.4059 23.5281 13.2005C23.9643 13.0038 24.3523 12.7142 24.6649 12.352L24.3847 13.3991H26.4621L28.359 6.32352H26.2776L26.2716 6.31992ZM35.824 6.31992H29.7827L29.3604 7.89698H32.8756L28.2285 11.9117L27.8314 13.3927H34.0676L34.4899 11.8156H30.7234L35.4417 7.74087M41.1415 9.82227C40.9546 10.5187 40.6772 11.0423 40.311 11.3833C39.9447 11.7275 39.5012 11.8997 38.9805 11.8997C37.8918 11.8997 37.5339 11.2072 37.9054 9.82227C38.0895 9.1338 38.3681 8.61626 38.7403 8.26763C39.1126 7.91779 39.5637 7.74327 40.094 7.74327C40.6144 7.74327 40.9658 7.91659 41.1467 8.26562C41.3276 8.61386 41.326 9.133 41.1415 9.82146M42.3575 6.5861C41.8792 6.2883 41.2688 6.1394 40.5243 6.1394C39.7706 6.1394 39.0729 6.2875 38.4309 6.5837C37.7915 6.87804 37.2296 7.31743 36.7898 7.86696C36.3375 8.42333 36.0121 9.07577 35.8124 9.82026C35.6162 10.562 35.5922 11.2132 35.7443 11.7708C35.8964 12.3271 36.2166 12.7554 36.697 13.0516C37.1813 13.3502 37.7977 13.4987 38.5542 13.4987C39.2987 13.4987 39.9912 13.349 40.6276 13.0512C41.264 12.7518 41.8084 12.3267 42.2607 11.7664C42.713 11.2084 43.0372 10.5576 43.2373 9.81306C43.4375 9.06856 43.4615 8.41853 43.3094 7.85975C43.1573 7.30338 42.8411 6.87509 42.3647 6.57689M49.7737 8.20999L50.3061 6.2847C50.1259 6.19264 49.8898 6.1446 49.5936 6.1446C49.1173 6.1446 48.661 6.26228 48.2207 6.50084C47.842 6.70338 47.5202 6.98917 47.248 7.34701L47.5242 6.31032L46.921 6.31272H45.44L43.5307 13.3854H45.6373L46.628 9.68818C46.7721 9.15062 47.0315 8.72753 47.4057 8.42733C47.778 8.12593 48.2423 7.97503 48.8027 7.97503C49.1469 7.97503 49.4671 8.05388 49.7713 8.21119M55.6352 9.85629C55.4551 10.5167 55.1829 11.0211 54.8107 11.3693C54.4384 11.7191 53.9901 11.8937 53.4698 11.8937C52.9494 11.8937 52.5932 11.7175 52.4051 11.3653C52.2129 11.0111 52.2089 10.5007 52.389 9.82987C52.5692 9.15942 52.8454 8.64508 53.2256 8.28884C53.6059 7.9298 54.0542 7.75048 54.5745 7.75048C55.0869 7.75048 55.4311 7.9346 55.6152 8.30685C55.7993 8.6791 55.8033 9.19545 55.6264 9.85589M57.0994 6.59771C56.7091 6.2855 56.2108 6.12939 55.6064 6.12939C55.0768 6.12939 54.5721 6.24948 54.0934 6.49204C53.6151 6.7342 53.2268 7.06442 52.9286 7.4823L52.9358 7.43427L53.2893 6.30951H51.2319L50.7075 8.26682L50.6915 8.33487L48.5301 16.3979H50.6395L51.7282 12.3391C51.8363 12.7002 52.0564 12.9836 52.3927 13.1885C52.7289 13.3927 53.144 13.4939 53.6375 13.4939C54.2499 13.4939 54.8343 13.3458 55.3887 13.0496C55.945 12.7526 56.4253 12.3251 56.8336 11.7728C57.2419 11.2204 57.5449 10.58 57.7382 9.85549C57.9344 9.1298 57.9744 8.48257 57.8623 7.91619C57.7482 7.34901 57.4957 6.90992 57.1058 6.59931M64.0965 9.82747C63.9164 10.4959 63.6402 11.0083 63.2679 11.3605C62.8957 11.7151 62.4474 11.8916 61.927 11.8916C61.3947 11.8916 61.0344 11.7195 60.8463 11.3713C60.6542 11.0231 60.6502 10.5187 60.8263 9.85829C61.0024 9.19785 61.2834 8.6815 61.6717 8.30925C62.0599 7.937 62.5142 7.75128 63.0354 7.75128C63.5557 7.75128 63.908 7.9314 64.0921 8.28764C64.2762 8.64508 64.2774 9.15862 64.0981 9.82867L64.0965 9.82747ZM65.0371 6.31112L64.7677 7.31579C64.6517 6.95355 64.4275 6.66535 64.0953 6.45121C63.7591 6.23747 63.3468 6.131 62.8545 6.131C62.25 6.131 61.6665 6.2871 61.1093 6.59931C60.5529 6.91152 60.0646 7.34941 59.6483 7.91619C59.232 8.48297 58.9278 9.129 58.7317 9.85349C58.5376 10.5808 58.4995 11.2184 58.6156 11.7732C58.7329 12.3255 58.9855 12.7522 59.3761 13.05C59.766 13.3462 60.2687 13.4959 60.8811 13.4959C61.3735 13.4959 61.8438 13.3935 62.2901 13.1877C62.7252 12.9901 63.1122 12.7001 63.424 12.3379L63.1438 13.3858H65.2212L67.1177 6.31312H65.0403L65.0371 6.31112ZM75.8391 6.31352L75.8403 6.31152H74.5635C74.5227 6.31152 74.4866 6.31352 74.4494 6.31432H73.787L73.4467 6.78663L73.3627 6.89871L73.3267 6.95475L70.6349 10.7045L70.0785 6.31352H67.8738L68.9906 12.986L66.5249 16.4003H68.7224L69.3188 15.5545C69.3356 15.5297 69.3508 15.5089 69.3708 15.4825L70.0673 14.4938L70.0873 14.4658L73.2066 10.0428L75.8363 6.32032L75.8403 6.31792H75.8391V6.31352Z" fill="#072654"/>
<path d="M0.992664 9.68257L0.902263 9.54255L0.848317 9.57738L0.831685 9.6394L0.992664 9.68257ZM0 13.3842L-0.160979 13.3411L-0.21725 13.5509H0V13.3842ZM4.91249 13.3842V13.5509H5.0405L5.07351 13.4272L4.91249 13.3842ZM6.92263 5.85401L7.08366 5.897L7.19504 5.47975L6.83223 5.71399L6.92263 5.85401ZM17.3604 7.40705L17.274 7.26456L17.2739 7.26457L17.3604 7.40705ZM13.9281 7.72086L13.7671 7.67768L13.7109 7.88753H13.9281V7.72086ZM14.6238 5.12712V4.96046H14.4959L14.4628 5.08395L14.6238 5.12712ZM19.7952 4.21051L19.9183 4.09805L19.9179 4.09767L19.7952 4.21051ZM12.9527 3.45801V3.29134H12.8248L12.7917 3.41486L12.9527 3.45801ZM10.2909 13.3887L10.1299 13.3455L10.0737 13.5553H10.2909V13.3887ZM12.4391 13.3887V13.5553H12.567L12.6001 13.4318L12.4391 13.3887ZM13.5118 9.38597V9.21931H13.384L13.3509 9.34283L13.5118 9.38597ZM15.6677 9.53807L15.7504 9.39335L15.7481 9.39208L15.6677 9.53807ZM15.9895 10.0824L16.1551 10.0632L16.1549 10.0616L15.9895 10.0824ZM16.373 13.3887L16.2074 13.4079L16.2245 13.5553H16.373V13.3887ZM18.6745 13.3887V13.5553H18.8626L18.84 13.3686L18.6745 13.3887ZM18.3014 10.3066L18.1358 10.3249L18.136 10.3266L18.3014 10.3066ZM17.3568 9.09378L17.3105 8.93368L17.3215 9.25666L17.3568 9.09378ZM19.13 8.0771L19.0127 7.95873L19.0126 7.95875L19.13 8.0771ZM25.3301 9.83427L25.4824 9.76657L25.2911 9.33606L25.1692 9.79115L25.3301 9.83427ZM24.5004 11.3713L24.6154 11.492L24.6154 11.4919L24.5004 11.3713ZM22.078 11.3833L22.2243 11.3034L22.2242 11.3033L22.078 11.3833ZM25.3253 8.30045L25.1765 8.37545L25.177 8.3765L25.3253 8.30045ZM25.3334 9.84148L25.1811 9.90918L25.372 10.3387L25.4943 9.88484L25.3334 9.84148ZM26.2716 6.31992L26.3573 6.17701L26.1678 6.06324L26.1106 6.27682L26.2716 6.31992ZM26.0026 7.32459L25.844 7.37571L26.0174 7.91386L26.1636 7.3677L26.0026 7.32459ZM25.3281 6.46002L25.4189 6.32021L25.4175 6.31935L25.3281 6.46002ZM19.9698 9.86629L19.8089 9.82274L19.8086 9.82379L19.9698 9.86629ZM19.8537 11.7836L19.6906 11.8179L19.6908 11.8187L19.8537 11.7836ZM20.6142 13.0604L20.7155 12.9281L20.7153 12.9279L20.6142 13.0604ZM22.1192 13.5087L22.12 13.3421H22.1192V13.5087ZM23.5281 13.2005L23.4596 13.0486L23.4578 13.0494L23.5281 13.2005ZM24.6649 12.352L24.8259 12.395L24.5387 12.2431L24.6649 12.352ZM24.3847 13.3991L24.2237 13.356L24.1676 13.5657H24.3847V13.3991ZM26.4621 13.3991V13.5657H26.59L26.6231 13.4422L26.4621 13.3991ZM28.359 6.32352L28.52 6.36668L28.5762 6.15686H28.359V6.32352ZM26.2776 6.32352L26.1918 6.46643L26.2314 6.49019H26.2776V6.32352ZM29.7827 6.31992V6.15326H29.6548L29.6217 6.27681L29.7827 6.31992ZM29.3604 7.89698L29.1994 7.85387L29.1433 8.06364H29.3604V7.89698ZM32.8756 7.89698L32.9846 8.0231L33.3235 7.73031H32.8756V7.89698ZM28.2285 11.9117L28.1195 11.7855L28.0808 11.819L28.0675 11.8685L28.2285 11.9117ZM27.8314 13.3927L27.6704 13.3495L27.6142 13.5593H27.8314V13.3927ZM34.0676 13.3927V13.5593H34.1955L34.2286 13.4358L34.0676 13.3927ZM34.4899 11.8156L34.6509 11.8587L34.707 11.6489H34.4899V11.8156ZM30.7234 11.8156L30.6144 11.6895L30.2754 11.9823H30.7234V11.8156ZM40.311 11.3833L40.1974 11.2613L40.1968 11.2619L40.311 11.3833ZM37.9054 9.82227L38.0663 9.86544L38.0664 9.86533L37.9054 9.82227ZM38.7403 8.26763L38.8542 8.38927L38.8545 8.38908L38.7403 8.26763ZM41.1467 8.26562L40.9988 8.34232L40.9988 8.34246L41.1467 8.26562ZM38.4309 6.5837L38.5006 6.73509L38.5007 6.73504L38.4309 6.5837ZM36.7898 7.86696L36.9191 7.97209L36.9199 7.9711L36.7898 7.86696ZM35.8124 9.82026L35.6514 9.77708L35.6512 9.77766L35.8124 9.82026ZM35.7443 11.7708L35.5835 11.8146L35.5835 11.8147L35.7443 11.7708ZM36.697 13.0516L36.6095 13.1935L36.6095 13.1935L36.697 13.0516ZM40.6276 13.0512L40.6982 13.2022L40.6985 13.202L40.6276 13.0512ZM42.2607 11.7664L42.1312 11.6614L42.131 11.6617L42.2607 11.7664ZM43.3094 7.85975L43.4702 7.81598L43.4701 7.8158L43.3094 7.85975ZM50.3061 6.2847L50.4667 6.32912L50.5029 6.19814L50.3819 6.13629L50.3061 6.2847ZM48.2207 6.50084L48.2993 6.64781L48.3001 6.64738L48.2207 6.50084ZM47.248 7.34701L47.087 7.3041L47.3807 7.44791L47.248 7.34701ZM47.5242 6.31032L47.6852 6.35322L47.7413 6.14278L47.5235 6.14365L47.5242 6.31032ZM46.921 6.31272V6.47939L46.9217 6.47938L46.921 6.31272ZM45.44 6.31272V6.14605H45.3124L45.2791 6.26928L45.44 6.31272ZM43.5307 13.3854L43.3698 13.342L43.3131 13.5521H43.5307V13.3854ZM45.6373 13.3854V13.5521H45.7652L45.7983 13.4286L45.6373 13.3854ZM46.628 9.68818L46.467 9.64502L46.467 9.64504L46.628 9.68818ZM47.4057 8.42733L47.51 8.55734L47.5106 8.55686L47.4057 8.42733ZM54.8107 11.3693L54.6968 11.2476L54.6965 11.2478L54.8107 11.3693ZM52.4051 11.3653L52.5521 11.2868L52.5516 11.2858L52.4051 11.3653ZM52.389 9.82987L52.2281 9.78663L52.2281 9.78665L52.389 9.82987ZM53.2256 8.28884L53.3396 8.41047L53.34 8.41002L53.2256 8.28884ZM54.0934 6.49204L54.1687 6.64073L54.1687 6.64071L54.0934 6.49204ZM52.9286 7.4823L52.7638 7.45757L53.0643 7.57911L52.9286 7.4823ZM52.9358 7.43427L52.7768 7.3843L52.7729 7.39669L52.771 7.40954L52.9358 7.43427ZM53.2893 6.30951L53.4483 6.35948L53.5163 6.14285H53.2893V6.30951ZM51.2319 6.30951V6.14285H51.104L51.0709 6.26639L51.2319 6.30951ZM50.7075 8.26682L50.5465 8.22368L50.5453 8.22865L50.7075 8.26682ZM50.6915 8.33487L50.8526 8.37805L50.8537 8.37305L50.6915 8.33487ZM48.5301 16.3979L48.3691 16.3547L48.3128 16.5645H48.5301V16.3979ZM50.6395 16.3979V16.5645H50.7673L50.8005 16.441L50.6395 16.3979ZM51.7282 12.3391L51.8879 12.2914L51.7194 11.7286L51.5672 12.296L51.7282 12.3391ZM52.3927 13.1885L52.3059 13.3308L52.3062 13.331L52.3927 13.1885ZM55.3887 13.0496L55.3102 12.9026L55.3101 12.9026L55.3887 13.0496ZM57.7382 9.85549L57.5773 9.812L57.5772 9.81252L57.7382 9.85549ZM57.8623 7.91619L58.0258 7.88384L58.0257 7.88333L57.8623 7.91619ZM64.0965 9.82747L64.1964 9.69411L63.9996 9.54653L63.9356 9.7841L64.0965 9.82747ZM63.2679 11.3605L63.1534 11.2394L63.153 11.2398L63.2679 11.3605ZM60.8463 11.3713L60.9929 11.2921L60.9922 11.2908L60.8463 11.3713ZM64.0921 8.28764L64.2402 8.21132L64.2401 8.21111L64.0921 8.28764ZM64.0981 9.82867L63.9981 9.96203L64.1954 10.1099L64.2591 9.87176L64.0981 9.82867ZM65.0371 6.31112L65.1255 6.16981L64.9345 6.05035L64.8761 6.26795L65.0371 6.31112ZM64.7677 7.31579L64.609 7.36665L64.782 7.90632L64.9287 7.35895L64.7677 7.31579ZM64.0953 6.45121L64.1856 6.31112L64.1847 6.31056L64.0953 6.45121ZM61.1093 6.59931L61.0278 6.45391L61.0277 6.45396L61.1093 6.59931ZM58.7317 9.85349L58.5708 9.80993L58.5707 9.8105L58.7317 9.85349ZM58.6156 11.7732L58.4525 11.8073L58.4526 11.8078L58.6156 11.7732ZM59.3761 13.05L59.2751 13.1826L59.2753 13.1827L59.3761 13.05ZM62.2901 13.1877L62.2211 13.036L62.2203 13.0364L62.2901 13.1877ZM63.424 12.3379L63.585 12.381L63.2977 12.2292L63.424 12.3379ZM63.1438 13.3858L62.9828 13.3428L62.9268 13.5525H63.1438V13.3858ZM65.2212 13.3858V13.5525H65.3491L65.3822 13.429L65.2212 13.3858ZM67.1177 6.31312L67.2787 6.35628L67.3349 6.14645H67.1177V6.31312ZM65.0403 6.31312L64.9519 6.45443L64.9925 6.47978H65.0403V6.31312ZM75.8391 6.31352L75.6963 6.22771L75.6725 6.26732V6.31352H75.8391ZM75.8403 6.31152L75.9832 6.39732L76.1348 6.14485H75.8403V6.31152ZM74.4494 6.31432V6.48102L74.453 6.48095L74.4494 6.31432ZM73.787 6.31432V6.14765H73.7016L73.6517 6.2169L73.787 6.31432ZM73.4467 6.78663L73.5801 6.88665L73.582 6.88405L73.4467 6.78663ZM73.3627 6.89871L73.229 6.79845L73.2225 6.80858L73.3627 6.89871ZM73.3267 6.95475L73.4622 7.05207L73.4669 7.04487L73.3267 6.95475ZM70.6349 10.7045L70.4695 10.7254L70.5228 11.1463L70.7702 10.8017L70.6349 10.7045ZM70.0785 6.31352L70.2438 6.29257L70.2254 6.14685H70.0785V6.31352ZM67.8738 6.31352V6.14685H67.6769L67.7094 6.34103L67.8738 6.31352ZM68.9906 12.986L69.1257 13.0836L69.1664 13.0271L69.1549 12.9585L68.9906 12.986ZM66.5249 16.4003L66.3898 16.3027L66.199 16.5669H66.5249V16.4003ZM68.7224 16.4003V16.5669H68.8088L68.8586 16.4963L68.7224 16.4003ZM69.3188 15.5545L69.455 15.6506L69.4568 15.648L69.3188 15.5545ZM69.3708 15.4825L69.5037 15.5832L69.5071 15.5784L69.3708 15.4825ZM70.0673 14.4938L69.9317 14.3969L69.931 14.3978L70.0673 14.4938ZM70.0873 14.4658L70.2229 14.5626L70.2235 14.5618L70.0873 14.4658ZM73.2066 10.0428L73.0704 9.94665L73.0704 9.94676L73.2066 10.0428ZM75.8363 6.32032L75.7506 6.17737L75.7205 6.19544L75.7002 6.22416L75.8363 6.32032ZM75.8403 6.31792L75.926 6.46087L76.4426 6.15125H75.8403V6.31792ZM75.8391 6.31792H75.6725V6.48459H75.8391V6.31792ZM0.831685 9.6394L-0.160979 13.3411L0.160979 13.4274L1.15364 9.72574L0.831685 9.6394ZM0 13.5509H4.91249V13.2176H0V13.5509ZM5.07351 13.4272L7.08366 5.897L6.7616 5.81103L4.75146 13.3413L5.07351 13.4272ZM6.83223 5.71399L0.902263 9.54255L1.08306 9.82259L7.01303 5.99403L6.83223 5.71399ZM17.8959 6.38029C17.7852 6.79196 17.5767 7.08086 17.274 7.26456L17.4469 7.54954C17.8342 7.31456 18.0884 6.94782 18.2178 6.46689L17.8959 6.38029ZM17.2739 7.26457C16.9663 7.45132 16.5178 7.55419 15.9094 7.55419V7.88753C16.5484 7.88753 17.0661 7.78066 17.4469 7.54952L17.2739 7.26457ZM15.9094 7.55419H13.9281V7.88753H15.9094V7.55419ZM14.0891 7.76404L14.7848 5.1703L14.4628 5.08395L13.7671 7.67768L14.0891 7.76404ZM14.6238 5.29379H16.6051V4.96046H14.6238V5.29379ZM16.6051 5.29379C17.2222 5.29379 17.593 5.39957 17.7755 5.56637L18.0004 5.3203C17.7186 5.06282 17.2337 4.96046 16.6051 4.96046V5.29379ZM17.7755 5.56637C17.9419 5.7184 18.0075 5.96533 17.8958 6.38514L18.2179 6.47085C18.3448 5.99406 18.2983 5.59256 18.0004 5.3203L17.7755 5.56637ZM20.2692 6.41529C20.5294 5.44892 20.4326 4.66065 19.9182 4.09805L19.6722 4.32297C20.0801 4.76905 20.1915 5.42174 19.9473 6.32863L20.2692 6.41529ZM19.9179 4.09767C19.41 3.54564 18.5433 3.29134 17.3744 3.29134V3.62467C18.5111 3.62467 19.2598 3.87471 19.6726 4.32335L19.9179 4.09767ZM17.3744 3.29134H12.9527V3.62467H17.3744V3.29134ZM12.7917 3.41486L10.1299 13.3455L10.4519 13.4318L13.1137 3.50116L12.7917 3.41486ZM10.2909 13.5553H12.4391V13.222H10.2909V13.5553ZM12.6001 13.4318L13.6728 9.42912L13.3509 9.34283L12.2781 13.3455L12.6001 13.4318ZM13.5118 9.55264H14.9208V9.21931H13.5118V9.55264ZM14.9208 9.55264C15.2213 9.55264 15.4392 9.60251 15.5873 9.68407L15.7481 9.39208C15.5327 9.2735 15.2527 9.21931 14.9208 9.21931V9.55264ZM15.585 9.68278C15.7106 9.75454 15.7961 9.88101 15.8241 10.1033L16.1549 10.0616C16.1173 9.76352 15.989 9.52975 15.7504 9.39337L15.585 9.68278ZM15.8239 10.1016L16.2074 13.4079L16.5385 13.3694L16.1551 10.0632L15.8239 10.1016ZM16.373 13.5553H18.6745V13.222H16.373V13.5553ZM18.84 13.3686L18.4669 10.2866L18.136 10.3266L18.509 13.4087L18.84 13.3686ZM18.4671 10.2883C18.4268 9.92382 18.3216 9.61822 18.1397 9.38462C17.9557 9.1484 17.7028 8.99828 17.3921 8.9309L17.3215 9.25666C17.5644 9.30936 17.7458 9.42142 17.8767 9.58946C18.0097 9.76014 18.1 10.0009 18.1358 10.3249L18.4671 10.2883ZM17.4031 9.25388C18.1333 9.04267 18.7496 8.68905 19.2474 8.19545L19.0126 7.95875C18.5578 8.40978 17.9917 8.73662 17.3105 8.93368L17.4031 9.25388ZM19.2473 8.19547C19.7416 7.70552 20.0947 7.09146 20.2696 6.41783L19.9469 6.33409C19.7871 6.94974 19.4644 7.51095 19.0127 7.95873L19.2473 8.19547ZM25.1692 9.79115C24.9944 10.4435 24.7305 10.9215 24.3854 11.2507L24.6154 11.4919C25.0172 11.1087 25.3056 10.5699 25.4911 9.8774L25.1692 9.79115ZM24.3854 11.2506C24.0432 11.5768 23.6379 11.737 23.1587 11.737V12.0703C23.7218 12.0703 24.2099 11.8783 24.6154 11.492L24.3854 11.2506ZM23.1587 11.737C22.6647 11.737 22.3752 11.5798 22.2243 11.3034L21.9317 11.4632C22.161 11.8833 22.5912 12.0703 23.1587 12.0703V11.737ZM22.2242 11.3033C22.0648 11.012 22.0457 10.5603 22.2189 9.91342L21.897 9.82717C21.7164 10.5012 21.7101 11.0581 21.9318 11.4633L22.2242 11.3033ZM22.2189 9.91342C22.3901 9.27445 22.6597 8.7877 23.0207 8.44157L22.79 8.20096C22.3745 8.59932 22.0796 9.14526 21.897 9.82717L22.2189 9.91342ZM23.0207 8.44157C23.3791 8.09796 23.7921 7.92955 24.2686 7.92955V7.59622C23.7029 7.59622 23.2081 7.80007 22.79 8.20096L23.0207 8.44157ZM24.2686 7.92955C24.7489 7.92955 25.0337 8.09204 25.1765 8.37545L25.4742 8.22545C25.2568 7.79397 24.8291 7.59622 24.2686 7.59622V7.92955ZM25.177 8.3765C25.3329 8.68035 25.3487 9.14387 25.1724 9.79811L25.4943 9.88484C25.6782 9.20219 25.6861 8.63863 25.4736 8.22439L25.177 8.3765ZM25.4856 9.77377L25.4824 9.76657L25.1779 9.90198L25.1811 9.90918L25.4856 9.77377ZM26.1106 6.27682L25.8416 7.28149L26.1636 7.3677L26.4326 6.36303L26.1106 6.27682ZM26.1612 7.27348C26.0327 6.87467 25.7822 6.55601 25.4189 6.32021L25.2374 6.59982C25.5401 6.79631 25.7403 7.05403 25.844 7.37571L26.1612 7.27348ZM25.4175 6.31935C25.0515 6.08675 24.6057 5.97314 24.0885 5.97314V6.30647C24.5568 6.30647 24.9371 6.409 25.2388 6.60068L25.4175 6.31935ZM24.0885 5.97314C23.4539 5.97314 22.8456 6.13739 22.2658 6.46277L22.4289 6.75346C22.9618 6.45443 23.5143 6.30647 24.0885 6.30647V5.97314ZM22.2658 6.46277C21.6868 6.7877 21.1809 7.24474 20.7519 7.83052L21.0208 8.02748C21.4244 7.4765 21.8952 7.05295 22.4289 6.75346L22.2658 6.46277ZM20.7519 7.83052C20.3227 8.4166 20.01 9.07994 19.8089 9.82274L20.1306 9.90985C20.3218 9.20368 20.6175 8.57815 21.0208 8.02748L20.7519 7.83052ZM19.8086 9.82379C19.6121 10.5689 19.5676 11.2327 19.6906 11.8179L20.0168 11.7493C19.9076 11.2297 19.9432 10.6207 20.1309 9.9088L19.8086 9.82379ZM19.6908 11.8187C19.8177 12.4069 20.0881 12.8687 20.5131 13.1929L20.7153 12.9279C20.3638 12.6598 20.1298 12.273 20.0166 11.7484L19.6908 11.8187ZM20.5129 13.1928C20.9408 13.5203 21.4795 13.6754 22.1192 13.6754V13.3421C21.5341 13.3421 21.0721 13.201 20.7155 12.9281L20.5129 13.1928ZM22.1184 13.6754C22.6296 13.678 23.135 13.5674 23.5985 13.3516L23.4578 13.0494C23.0389 13.2445 22.5821 13.3444 22.12 13.3421L22.1184 13.6754ZM23.5967 13.3525C24.055 13.1457 24.4626 12.8415 24.7911 12.4609L24.5387 12.2431C24.242 12.5869 23.8737 12.8618 23.4596 13.0486L23.5967 13.3525ZM24.5039 12.3089L24.2237 13.356L24.5457 13.4421L24.8259 12.395L24.5039 12.3089ZM24.3847 13.5657H26.4621V13.2324H24.3847V13.5657ZM26.6231 13.4422L28.52 6.36668L28.198 6.28037L26.3011 13.3559L26.6231 13.4422ZM28.359 6.15686H26.2776V6.49019H28.359V6.15686ZM26.3633 6.18062L26.3573 6.17701L26.1858 6.46283L26.1918 6.46643L26.3633 6.18062ZM35.824 6.15326H29.7827V6.48659H35.824V6.15326ZM29.6217 6.27681L29.1994 7.85387L29.5214 7.94009L29.9437 6.36303L29.6217 6.27681ZM29.3604 8.06364H32.8756V7.73031H29.3604V8.06364ZM32.7666 7.77086L28.1195 11.7855L28.3374 12.0378L32.9846 8.0231L32.7666 7.77086ZM28.0675 11.8685L27.6704 13.3495L27.9924 13.4358L28.3895 11.9548L28.0675 11.8685ZM27.8314 13.5593H34.0676V13.226H27.8314V13.5593ZM34.2286 13.4358L34.6509 11.8587L34.3289 11.7725L33.9066 13.3495L34.2286 13.4358ZM34.4899 11.6489H30.7234V11.9823H34.4899V11.6489ZM30.8323 11.9417L35.5506 7.86701L35.3328 7.61473L30.6144 11.6895L30.8323 11.9417ZM40.9806 9.77906C40.7983 10.4583 40.5326 10.9492 40.1974 11.2613L40.4245 11.5053C40.8218 11.1354 41.1109 10.5792 41.3025 9.86547L40.9806 9.77906ZM40.1968 11.2619C39.8627 11.5759 39.4605 11.733 38.9805 11.733V12.0663C39.542 12.0663 40.0268 11.8792 40.4251 11.5048L40.1968 11.2619ZM38.9805 11.733C38.4702 11.733 38.1829 11.5734 38.0434 11.3037C37.894 11.015 37.8833 10.5479 38.0663 9.86544L37.7444 9.77909C37.556 10.4816 37.5385 11.0532 37.7473 11.4569C37.966 11.8797 38.402 12.0663 38.9805 12.0663V11.733ZM38.0664 9.86533C38.2455 9.19569 38.5119 8.70986 38.8542 8.38927L38.6264 8.14598C38.2242 8.52266 37.9335 9.07192 37.7444 9.7792L38.0664 9.86533ZM38.8545 8.38908C39.1945 8.06954 39.6042 7.90994 40.094 7.90994V7.57661C39.5231 7.57661 39.0307 7.76604 38.6262 8.14617L38.8545 8.38908ZM40.094 7.90994C40.5761 7.90994 40.8561 8.06705 40.9988 8.34232L41.2947 8.18892C41.0755 7.76613 40.6526 7.57661 40.094 7.57661V7.90994ZM40.9988 8.34246C41.15 8.63352 41.1622 9.10065 40.9805 9.77832L41.3025 9.86461C41.4899 9.16535 41.5053 8.59419 41.2946 8.18879L40.9988 8.34246ZM42.4456 6.44461C41.9337 6.12588 41.2902 5.97273 40.5243 5.97273V6.30607C41.2474 6.30607 41.8248 6.45072 42.2695 6.72759L42.4456 6.44461ZM40.5243 5.97273C39.7481 5.97273 39.0264 6.12541 38.3611 6.43236L38.5007 6.73504C39.1195 6.44959 39.7931 6.30607 40.5243 6.30607V5.97273ZM38.3612 6.43231C37.6983 6.73749 37.1157 7.19305 36.6597 7.76281L36.9199 7.9711C37.3436 7.44181 37.8848 7.0186 38.5006 6.73509L38.3612 6.43231ZM36.6605 7.76182C36.1922 8.33789 35.8567 9.01188 35.6514 9.77708L35.9733 9.86345C36.1675 9.13965 36.4828 8.50877 36.9191 7.97209L36.6605 7.76182ZM35.6512 9.77766C35.4501 10.5383 35.4215 11.2207 35.5835 11.8146L35.9051 11.7269C35.7629 11.2057 35.7824 10.5856 35.9735 9.86287L35.6512 9.77766ZM35.5835 11.8147C35.7466 12.4113 36.0927 12.8748 36.6095 13.1935L36.7844 12.9098C36.3406 12.636 36.0462 12.243 35.9051 11.7268L35.5835 11.8147ZM36.6095 13.1935C37.1274 13.5128 37.7767 13.6654 38.5542 13.6654V13.3321C37.8187 13.3321 37.2351 13.1876 36.7844 12.9098L36.6095 13.1935ZM38.5542 13.6654C39.3217 13.6654 40.0384 13.5109 40.6982 13.2022L40.5569 12.9003C39.9439 13.1871 39.2757 13.3321 38.5542 13.3321V13.6654ZM40.6985 13.202C41.3578 12.8919 41.9222 12.451 42.3904 11.871L42.131 11.6617C41.6945 12.2024 41.1702 12.6117 40.5566 12.9004L40.6985 13.202ZM42.3901 11.8713C42.8584 11.2937 43.1926 10.6214 43.3983 9.85633L43.0764 9.76979C42.8818 10.4937 42.5676 11.1231 42.1312 11.6614L42.3901 11.8713ZM43.3983 9.85633C43.6036 9.09247 43.6322 8.41118 43.4702 7.81598L43.1486 7.90353C43.2907 8.42588 43.2713 9.04465 43.0764 9.76979L43.3983 9.85633ZM43.4701 7.8158C43.3073 7.22001 42.9658 6.75655 42.4532 6.43563L42.2763 6.71816C42.7163 6.99363 43.0073 7.38675 43.1486 7.9037L43.4701 7.8158ZM49.9343 8.2544L50.4667 6.32912L50.1454 6.24028L49.6131 8.16557L49.9343 8.2544ZM50.3819 6.13629C50.1708 6.02837 49.9061 5.97794 49.5936 5.97794V6.31127C49.8734 6.31127 50.0811 6.3569 50.2302 6.4331L50.3819 6.13629ZM49.5936 5.97794C49.0883 5.97794 48.6049 6.10311 48.1413 6.3543L48.3001 6.64738C48.717 6.42145 49.1462 6.31127 49.5936 6.31127V5.97794ZM48.1421 6.35388C47.7398 6.56903 47.4002 6.87157 47.1154 7.24611L47.3807 7.44791C47.6401 7.10677 47.9442 6.83773 48.2993 6.64781L48.1421 6.35388ZM47.4091 7.38991L47.6852 6.35322L47.3631 6.26741L47.087 7.3041L47.4091 7.38991ZM47.5235 6.14365L46.9203 6.14605L46.9217 6.47938L47.5249 6.47698L47.5235 6.14365ZM46.921 6.14605H45.44V6.47938H46.921V6.14605ZM45.2791 6.26928L43.3698 13.342L43.6916 13.4289L45.6009 6.35615L45.2791 6.26928ZM43.5307 13.5521H45.6373V13.2188H43.5307V13.5521ZM45.7983 13.4286L46.789 9.73131L46.467 9.64504L45.4763 13.3423L45.7983 13.4286ZM46.789 9.73133C46.9255 9.22183 47.168 8.83166 47.51 8.55734L47.3014 8.29732C46.8949 8.6234 46.6186 9.0794 46.467 9.64502L46.789 9.73133ZM47.5106 8.55686C47.8484 8.28333 48.2739 8.1417 48.8027 8.1417V7.80836C48.2107 7.80836 47.7075 7.96853 47.3008 8.2978L47.5106 8.55686ZM48.8027 8.1417C49.12 8.1417 49.414 8.21405 49.6947 8.35923L49.8479 8.06314C49.5202 7.89372 49.1738 7.80836 48.8027 7.80836V8.1417ZM55.4744 9.81243C55.2995 10.4538 55.0396 10.9269 54.6968 11.2476L54.9245 11.491C55.3263 11.1152 55.6107 10.5797 55.796 9.90014L55.4744 9.81243ZM54.6965 11.2478C54.356 11.5679 53.9489 11.727 53.4698 11.727V12.0603C54.0314 12.0603 54.5208 11.8704 54.9248 11.4908L54.6965 11.2478ZM53.4698 11.727C52.9889 11.727 52.7021 11.5677 52.5521 11.2868L52.258 11.4438C52.4842 11.8673 52.91 12.0603 53.4698 12.0603V11.727ZM52.5516 11.2858C52.3904 10.9887 52.3734 10.5309 52.55 9.87309L52.2281 9.78665C52.0444 10.4706 52.0355 11.0335 52.2586 11.4448L52.5516 11.2858ZM52.55 9.87311C52.7249 9.22208 52.9888 8.73905 53.3396 8.41047L53.1117 8.16721C52.7019 8.5511 52.4134 9.09676 52.2281 9.78663L52.55 9.87311ZM53.34 8.41002C53.6896 8.07993 54.0971 7.91715 54.5745 7.91715V7.58381C54.0112 7.58381 53.5221 7.77966 53.1112 8.16766L53.34 8.41002ZM54.5745 7.91715C54.8114 7.91715 54.9967 7.95978 55.1394 8.03605C55.2799 8.1112 55.3882 8.22375 55.4658 8.38074L55.7646 8.23296C55.6581 8.0177 55.5022 7.85207 55.2965 7.7421C55.0929 7.63323 54.8499 7.58381 54.5745 7.58381V7.91715ZM55.4658 8.38074C55.6235 8.69961 55.6382 9.16795 55.4654 9.81276L55.7874 9.89901C55.9685 9.22294 55.9751 8.65859 55.7646 8.23296L55.4658 8.38074ZM57.2035 6.46756C56.7778 6.12702 56.2404 5.96273 55.6064 5.96273V6.29606C56.1812 6.29606 56.6404 6.44398 56.9953 6.72785L57.2035 6.46756ZM55.6064 5.96273C55.0506 5.96273 54.5201 6.08901 54.0181 6.34337L54.1687 6.64071C54.6242 6.40994 55.1031 6.29606 55.6064 6.29606V5.96273ZM54.0181 6.34334C53.5168 6.59712 53.1075 6.94473 52.7929 7.38549L53.0643 7.57911C53.3462 7.18411 53.7133 6.87127 54.1687 6.64073L54.0181 6.34334ZM53.0934 7.50703L53.1006 7.459L52.771 7.40954L52.7638 7.45757L53.0934 7.50703ZM53.0948 7.48423L53.4483 6.35948L53.1302 6.25955L52.7768 7.3843L53.0948 7.48423ZM53.2893 6.14285H51.2319V6.47618H53.2893V6.14285ZM51.0709 6.26639L50.5465 8.2237L50.8685 8.30995L51.3929 6.35264L51.0709 6.26639ZM50.5453 8.22865L50.5293 8.29669L50.8537 8.37305L50.8698 8.305L50.5453 8.22865ZM50.5305 8.29172L48.3691 16.3547L48.6911 16.441L50.8525 8.37802L50.5305 8.29172ZM48.5301 16.5645H50.6395V16.2312H48.5301V16.5645ZM50.8005 16.441L51.8892 12.3823L51.5672 12.296L50.4785 16.3547L50.8005 16.441ZM51.5685 12.3869C51.6888 12.7887 51.9357 13.1052 52.3059 13.3308L52.4794 13.0462C52.1771 12.862 51.9837 12.6116 51.8879 12.2914L51.5685 12.3869ZM52.3062 13.331C52.6745 13.5546 53.1214 13.6606 53.6375 13.6606V13.3273C53.1665 13.3273 52.7832 13.2307 52.4791 13.0461L52.3062 13.331ZM53.6375 13.6606C54.278 13.6606 54.8893 13.5054 55.4672 13.1966L55.3101 12.9026C54.7793 13.1862 54.2218 13.3273 53.6375 13.3273V13.6606ZM55.4671 13.1967C56.0478 12.8867 56.5464 12.4418 56.9677 11.8718L56.6996 11.6737C56.3043 12.2085 55.8423 12.6185 55.3102 12.9026L55.4671 13.1967ZM56.9677 11.8718C57.3894 11.3013 57.701 10.6415 57.8993 9.89846L57.5772 9.81252C57.3888 10.5184 57.0944 11.1395 56.6996 11.6737L56.9677 11.8718ZM57.8991 9.89897C58.1001 9.15534 58.1441 8.48146 58.0258 7.88384L57.6988 7.94854C57.8047 8.48368 57.7686 9.10426 57.5773 9.812L57.8991 9.89897ZM58.0257 7.88333C57.9052 7.28407 57.635 6.80782 57.2097 6.46896L57.0019 6.72966C57.3563 7.01201 57.5913 7.41395 57.6989 7.94905L58.0257 7.88333ZM63.9356 9.7841C63.7607 10.4332 63.4967 10.9146 63.1534 11.2394L63.3825 11.4816C63.7837 11.1019 64.0721 10.5587 64.2574 9.87083L63.9356 9.7841ZM63.153 11.2398C62.8124 11.5643 62.4055 11.725 61.927 11.725V12.0583C62.4892 12.0583 62.979 11.866 63.3829 11.4812L63.153 11.2398ZM61.927 11.725C61.431 11.725 61.1418 11.5676 60.9929 11.2921L60.6997 11.4505C60.9271 11.8715 61.3584 12.0583 61.927 12.0583V11.725ZM60.9922 11.2908C60.8318 11.0001 60.8146 10.549 60.9873 9.90123L60.6653 9.81535C60.4857 10.4885 60.4765 11.0461 60.7004 11.4518L60.9922 11.2908ZM60.9873 9.90123C61.1577 9.26217 61.4261 8.77555 61.787 8.42956L61.5563 8.18895C61.1407 8.58745 60.8471 9.13352 60.6653 9.81535L60.9873 9.90123ZM61.787 8.42956C62.1453 8.08604 62.5587 7.91795 63.0354 7.91795V7.58461C62.4698 7.58461 61.9745 7.78797 61.5563 8.18895L61.787 8.42956ZM63.0354 7.91795C63.5145 7.91795 63.7971 8.07983 63.944 8.36416L64.2401 8.21111C64.0189 7.78297 63.5969 7.58461 63.0354 7.58461V7.91795ZM63.9439 8.36396C64.0993 8.66562 64.1129 9.12856 63.9371 9.78558L64.2591 9.87176C64.4419 9.18868 64.4531 8.62454 64.2402 8.21132L63.9439 8.36396ZM64.1981 9.69531L64.1964 9.69411L63.9965 9.96083L63.9981 9.96203L64.1981 9.69531ZM64.8761 6.26795L64.6068 7.27262L64.9287 7.35895L65.1981 6.35428L64.8761 6.26795ZM64.9265 7.26493C64.7981 6.86439 64.5489 6.5453 64.1856 6.31112L64.005 6.5913C64.3061 6.78541 64.5052 7.04271 64.609 7.36665L64.9265 7.26493ZM64.1847 6.31056C63.8161 6.07623 63.371 5.96433 62.8545 5.96433V6.29766C63.3225 6.29766 63.702 6.3987 64.0059 6.59186L64.1847 6.31056ZM62.8545 5.96433C62.22 5.96433 61.6085 6.12851 61.0278 6.45391L61.1908 6.74471C61.7244 6.44569 62.2801 6.29766 62.8545 6.29766V5.96433ZM61.0277 6.45396C60.449 6.77873 59.9431 7.23321 59.514 7.81753L59.7826 8.01485C60.186 7.46561 60.6569 7.0443 61.1908 6.74466L61.0277 6.45396ZM59.514 7.81753C59.0845 8.40222 58.7719 9.06726 58.5708 9.80993L58.8926 9.89704C59.0838 9.19074 59.3795 8.56372 59.7826 8.01485L59.514 7.81753ZM58.5707 9.8105C58.3719 10.5552 58.3296 11.2202 58.4525 11.8073L58.7787 11.739C58.6694 11.2166 58.7032 10.6063 58.8927 9.89647L58.5707 9.8105ZM58.4526 11.8078C58.5767 12.3925 58.8477 12.8567 59.2751 13.1826L59.4772 12.9175C59.1233 12.6477 58.8891 12.2586 58.7786 11.7386L58.4526 11.8078ZM59.2753 13.1827C59.7006 13.5059 60.2413 13.6626 60.8811 13.6626V13.3293C60.2961 13.3293 59.8314 13.1866 59.4769 12.9173L59.2753 13.1827ZM60.8811 13.6626C61.3974 13.6626 61.8915 13.555 62.3598 13.3391L62.2203 13.0364C61.7961 13.2319 61.3496 13.3293 60.8811 13.3293V13.6626ZM62.359 13.3395C62.8162 13.1318 63.2227 12.8272 63.5503 12.4467L63.2977 12.2292C63.0016 12.573 62.6343 12.8483 62.2212 13.036L62.359 13.3395ZM63.263 12.2949L62.9828 13.3428L63.3049 13.4289L63.585 12.381L63.263 12.2949ZM63.1438 13.5525H65.2212V13.2192H63.1438V13.5525ZM65.3822 13.429L67.2787 6.35628L66.9567 6.26995L65.0603 13.3427L65.3822 13.429ZM67.1177 6.14645H65.0403V6.47978H67.1177V6.14645ZM65.1287 6.17181L65.1255 6.16981L64.9487 6.45243L64.9519 6.45443L65.1287 6.17181ZM75.982 6.39932L75.9832 6.39732L75.6975 6.22571L75.6963 6.22771L75.982 6.39932ZM75.8403 6.14485H74.5635V6.47818H75.8403V6.14485ZM74.5635 6.14485C74.5214 6.14485 74.4749 6.14707 74.4458 6.14769L74.453 6.48095C74.4984 6.47997 74.5239 6.47818 74.5635 6.47818V6.14485ZM74.4494 6.14765H73.787V6.48099H74.4494V6.14765ZM73.6517 6.2169L73.3115 6.68922L73.582 6.88405L73.9222 6.41173L73.6517 6.2169ZM73.3134 6.68664L73.2293 6.79871L73.496 6.99871L73.5801 6.88663L73.3134 6.68664ZM73.2225 6.80858L73.1865 6.86462L73.4669 7.04487L73.5029 6.98884L73.2225 6.80858ZM73.1913 6.85755L70.4995 10.6073L70.7702 10.8017L73.4621 7.05194L73.1913 6.85755ZM70.8002 10.6835L70.2438 6.29257L69.9131 6.33447L70.4695 10.7254L70.8002 10.6835ZM70.0785 6.14685H67.8738V6.48018H70.0785V6.14685ZM67.7094 6.34103L68.8262 13.0135L69.1549 12.9585L68.0382 6.28601L67.7094 6.34103ZM68.8554 12.8884L66.3898 16.3027L66.66 16.4978L69.1257 13.0836L68.8554 12.8884ZM66.5249 16.5669H68.7224V16.2336H66.5249V16.5669ZM68.8586 16.4963L69.455 15.6505L69.1826 15.4585L68.5862 16.3042L68.8586 16.4963ZM69.4568 15.648C69.4714 15.6264 69.4847 15.6081 69.5037 15.5831L69.238 15.3818C69.2169 15.4096 69.1998 15.433 69.1808 15.461L69.4568 15.648ZM69.5071 15.5784L70.2035 14.5898L69.931 14.3978L69.2346 15.3865L69.5071 15.5784ZM70.2029 14.5907L70.2229 14.5626L69.9517 14.3689L69.9317 14.3969L70.2029 14.5907ZM70.2235 14.5618L73.3428 10.1389L73.0704 9.94676L69.9511 14.3697L70.2235 14.5618ZM73.3427 10.139L75.9725 6.41649L75.7002 6.22416L73.0704 9.94665L73.3427 10.139ZM75.922 6.46328L75.926 6.46087L75.7547 6.17497L75.7506 6.17737L75.922 6.46328ZM75.8403 6.15125H75.8391V6.48459H75.8403V6.15125ZM76.0058 6.31792V6.31352H75.6725V6.31792H76.0058Z" fill="#5BBB7B" mask="url(#path-3-inside-2_74_3363)"/>
</svg>
