<svg width="62" height="27" viewBox="0 0 62 27" fill="none" xmlns="http://www.w3.org/2000/svg">
<mask id="mask0_74_3381" style="mask-type:luminance" maskUnits="userSpaceOnUse" x="0" y="0" width="62" height="27">
<path d="M0.29834 0.841064H61.175V26.0927H0.29834V0.841064Z" fill="white"/>
</mask>
<g mask="url(#mask0_74_3381)">
<path fill-rule="evenodd" clip-rule="evenodd" d="M6.65286 12.2006C5.3409 11.7153 4.6219 11.3379 4.6219 10.7448C4.6219 10.2415 5.03532 9.95395 5.77224 9.95395C7.1202 9.95395 8.50401 10.4752 9.4566 10.9424L9.99578 7.61755C9.24093 7.25805 7.69523 6.66495 5.55657 6.66495C4.04687 6.66495 2.78869 7.06031 1.89014 7.79723C0.955472 8.57001 0.470209 9.68436 0.470209 11.0323C0.470209 13.4766 1.96199 14.5191 4.3883 15.3997C5.95193 15.9568 6.47318 16.3523 6.47318 16.9633C6.47318 17.5564 5.96985 17.8978 5.05325 17.8978C3.92097 17.8978 2.0519 17.3407 0.829708 16.6219L0.290527 19.9827C1.3329 20.5758 3.27395 21.1868 5.28698 21.1868C6.88646 21.1868 8.21649 20.8094 9.11517 20.0906C10.1215 19.2997 10.6428 18.1316 10.6428 16.6219C10.6428 14.1236 9.11517 13.0812 6.65286 12.2006ZM19.4203 10.2415L19.9594 6.93454H17.113V2.92007L13.2859 3.54983L12.7332 6.93454L11.3871 7.15291L10.8833 10.2415H12.7277V16.7297C12.7277 18.4191 13.159 19.5874 14.0396 20.3062C14.7766 20.8993 15.8369 21.1868 17.3286 21.1868C18.4789 21.1868 19.1798 20.9892 19.6651 20.8633V17.3587C19.3955 17.4306 18.7844 17.5564 18.371 17.5564C17.4904 17.5564 17.113 17.1071 17.113 16.0827V10.2415H19.4203ZM27.9684 6.74138C26.7104 6.74138 25.7039 7.40188 25.3085 8.58807L25.0389 6.93454H21.1389V20.9173H25.596V11.8411C26.1533 11.1581 26.944 10.9111 28.0224 10.9111C28.2561 10.9111 28.5076 10.9111 28.8132 10.9651V6.84922C28.5076 6.77737 28.238 6.74138 27.9684 6.74138ZM32.1382 5.5506C33.4322 5.5506 34.4746 4.4903 34.4746 3.19627C34.4746 1.88417 33.4322 0.841797 32.1382 0.841797C30.8261 0.841797 29.7837 1.88417 29.7837 3.19627C29.7837 4.4903 30.8261 5.5506 32.1382 5.5506ZM29.8916 6.93454H34.3668V20.9173H29.8916V6.93454ZM47.0487 8.19259C46.2579 7.16814 45.1616 6.66495 43.7597 6.66495C42.4657 6.66495 41.3334 7.20413 40.2729 8.33641L40.0393 6.93454H36.1213V26.0934L40.5785 25.3566V20.8633C41.2614 21.079 41.9623 21.1868 42.5914 21.1868C43.7058 21.1868 45.3233 20.8993 46.5814 19.5334C47.7855 18.2213 48.3967 16.1905 48.3967 13.5125C48.3967 11.1402 47.9472 9.34293 47.0487 8.19259ZM43.3463 16.8195C42.9868 17.5025 42.4297 17.862 41.7827 17.862C41.3334 17.862 40.9379 17.7721 40.5785 17.5924V10.9424C41.3334 10.1517 42.0163 10.0618 42.2679 10.0618C43.4002 10.0618 43.9573 11.284 43.9573 13.6743C43.9573 15.0402 43.7597 16.1006 43.3463 16.8195ZM61.1752 13.8001C61.1752 11.5715 60.69 9.81013 59.7374 8.57001C58.7669 7.31197 57.3111 6.66495 55.4599 6.66495C51.6676 6.66495 49.3133 9.46869 49.3133 13.9618C49.3133 16.478 49.9422 18.3652 51.1823 19.5693C52.2967 20.6477 53.8963 21.1868 55.9631 21.1868C57.8682 21.1868 59.6295 20.7376 60.7439 20.0006L60.2586 16.9454C59.1622 17.5385 57.8862 17.862 56.4484 17.862C55.5857 17.862 54.9926 17.6822 54.5612 17.3047C54.0939 16.9094 53.8243 16.2624 53.7345 15.3458H61.1213C61.1393 15.1301 61.1752 14.1236 61.1752 13.8001ZM53.6986 12.6139C53.8243 10.6189 54.3635 9.68436 55.3879 9.68436C56.3945 9.68436 56.9157 10.637 56.9876 12.6139H53.6986Z" fill="#1A1918"/>
</g>
</svg>
