<svg width="59" height="21" viewBox="0 0 59 21" fill="none" xmlns="http://www.w3.org/2000/svg">
<path d="M0.470953 17.9142H0.90997L0.498827 19.6215C0.43611 19.8724 0.450047 20.0675 0.533669 20.1929C0.617292 20.3184 0.770599 20.3811 1.00056 20.3811C1.22355 20.3811 1.4117 20.3184 1.55804 20.1929C1.70438 20.0675 1.80194 19.8724 1.86466 19.6215L2.2758 17.9142H2.72179L2.30367 19.6633C2.21308 20.0396 2.05281 20.3253 1.81588 20.5135C1.58592 20.7016 1.2793 20.7992 0.903001 20.7992C0.526701 20.7992 0.268865 20.7086 0.129495 20.5205C-0.00987577 20.3323 -0.0377498 20.0466 0.0528411 19.6703L0.470953 17.9142ZM2.65907 20.7225L3.35592 17.8027L4.67994 19.517C4.71478 19.5658 4.74963 19.6145 4.78447 19.6703C4.81931 19.726 4.85415 19.7888 4.89597 19.8584L5.36286 17.9142H5.774L5.07715 20.8271L3.72525 19.078L3.62073 18.9316C3.58588 18.8759 3.55801 18.8271 3.5371 18.7644L3.07021 20.7156H2.65907V20.7225ZM5.73916 20.7225L6.40814 17.9142H6.85412L6.18514 20.7225H5.73916ZM6.81928 20.7225L7.48826 17.9142H9.01436L8.92377 18.3045H7.84365L7.67641 19.0013H8.75653L8.65897 19.3985H7.57885L7.26526 20.7156H6.81928V20.7225ZM8.84015 20.7225L9.50913 17.9142H9.95511L9.28614 20.7225H8.84015ZM9.92027 20.7225L10.5892 17.9142H12.1154L12.0248 18.3045H10.9446L10.7774 19.0083H11.8575L11.76 19.4055H10.6798L10.4638 20.3114H11.5439L11.4464 20.7225H9.92027ZM11.962 20.7225L12.631 17.9142H13.2303C13.6206 17.9142 13.8923 17.9351 14.0387 17.9769C14.185 18.0188 14.3104 18.0815 14.408 18.179C14.5334 18.3045 14.6171 18.4647 14.6519 18.6529C14.6867 18.848 14.6728 19.071 14.6171 19.3149C14.5543 19.5658 14.4637 19.7818 14.3383 19.9769C14.2129 20.172 14.0526 20.3253 13.8645 20.4508C13.7251 20.5483 13.5718 20.611 13.4045 20.6529C13.2443 20.6947 13.0004 20.7156 12.6798 20.7156H11.962V20.7225ZM12.5056 20.3044H12.8819C13.084 20.3044 13.2443 20.2905 13.3558 20.2626C13.4673 20.2347 13.5648 20.186 13.6554 20.1233C13.7808 20.0327 13.8854 19.9212 13.969 19.7818C14.0526 19.6494 14.1153 19.4891 14.1571 19.3079C14.1989 19.1268 14.2129 18.9734 14.192 18.841C14.1711 18.7086 14.1223 18.5902 14.0387 18.4996C13.976 18.4299 13.8993 18.3881 13.7948 18.3602C13.6902 18.3323 13.53 18.3184 13.3 18.3184H12.9795L12.5056 20.3044ZM16.6658 19.4612L16.3662 20.7225H15.948L16.617 17.9142H17.293C17.4951 17.9142 17.6344 17.9282 17.725 17.9491C17.8156 17.97 17.8853 18.0048 17.941 18.0606C18.0107 18.1233 18.0595 18.2139 18.0804 18.3254C18.1013 18.4369 18.0944 18.5553 18.0665 18.6877C18.0316 18.8201 17.9829 18.9456 17.9062 19.0571C17.8295 19.1686 17.739 19.2592 17.6414 19.3219C17.5578 19.3707 17.4672 19.4125 17.3696 19.4334C17.2721 19.4543 17.1188 19.4682 16.9236 19.4682H16.6658V19.4612ZM16.7843 19.0849H16.8958C17.1397 19.0849 17.3139 19.0571 17.4114 19.0013C17.509 18.9456 17.5717 18.848 17.6066 18.7086C17.6414 18.5623 17.6205 18.4508 17.5508 18.3951C17.4742 18.3323 17.3208 18.3045 17.0909 18.3045H16.9794L16.7843 19.0849ZM19.5786 20.7225L19.4393 19.9978H18.3522L17.8644 20.7225H17.3975L19.4184 17.8027L20.0455 20.7225H19.5786ZM18.617 19.6146H19.3766L19.2511 18.9734C19.2442 18.9316 19.2372 18.8829 19.2372 18.8341C19.2302 18.7783 19.2302 18.7226 19.2302 18.6599C19.2023 18.7226 19.1745 18.7783 19.1396 18.8341C19.1118 18.8898 19.0839 18.9386 19.056 18.9804L18.617 19.6146ZM20.6866 20.7225L20.9933 19.4403L20.4358 17.9212H20.9027L21.2511 18.8759C21.2581 18.9038 21.265 18.9316 21.279 18.9734C21.2929 19.0153 21.2999 19.0571 21.3138 19.0989L21.3974 18.9734C21.4253 18.9316 21.4532 18.8968 21.4811 18.8619L22.2964 17.9212H22.7424L21.4392 19.4334L21.1326 20.7156H20.6866V20.7225ZM24.9305 19.3358C24.9305 19.3149 24.9374 19.2522 24.9514 19.1546C24.9583 19.071 24.9653 19.0083 24.9723 18.9525C24.9444 19.0153 24.9165 19.078 24.8817 19.1477C24.8468 19.2104 24.805 19.2801 24.7563 19.3428L23.6831 20.841L23.3347 19.3149C23.3207 19.2522 23.3068 19.1895 23.2998 19.1337C23.2929 19.078 23.2859 19.0153 23.2859 18.9595C23.272 19.0153 23.2511 19.078 23.2302 19.1477C23.2092 19.2104 23.1814 19.2801 23.1465 19.3497L22.5194 20.7295H22.1082L23.4531 17.8027L23.8364 19.5727C23.8434 19.6006 23.8504 19.6494 23.8573 19.7121C23.8643 19.7748 23.8782 19.8584 23.8922 19.956C23.9409 19.8724 24.0037 19.7748 24.0873 19.6494C24.1082 19.6146 24.1291 19.5936 24.1361 19.5727L25.3486 17.8027L25.3068 20.7295H24.8956L24.9305 19.3358ZM25.6691 20.7225L26.3381 17.9142H27.8642L27.7736 18.3045H26.6935L26.5263 19.0083H27.6064L27.5088 19.4055H26.4287L26.2127 20.3114H27.2928L27.1952 20.7225H25.6691ZM27.7039 20.7225L28.4008 17.8027L29.7248 19.517C29.7597 19.5658 29.7945 19.6145 29.8293 19.6703C29.8642 19.726 29.899 19.7888 29.9408 19.8584L30.4077 17.9142H30.8189L30.122 20.8271L28.7701 19.078L28.6656 18.9316C28.6308 18.8759 28.6029 18.8271 28.582 18.7644L28.1151 20.7156H27.7039V20.7225ZM32.2405 18.2975L31.6621 20.7156H31.2161L31.7945 18.2975H31.0697L31.1603 17.9073H33.0558L32.9652 18.2975H32.2405ZM32.7073 20.1581L33.1046 19.9909C33.1115 20.1163 33.1464 20.2138 33.223 20.2766C33.2997 20.3393 33.4042 20.3741 33.5436 20.3741C33.676 20.3741 33.7875 20.3393 33.885 20.2626C33.9826 20.186 34.0453 20.0884 34.0732 19.963C34.115 19.7957 34.0174 19.6494 33.7805 19.524C33.7457 19.5031 33.7248 19.4891 33.7038 19.4821C33.439 19.3288 33.2718 19.1964 33.2021 19.071C33.1324 18.9456 33.1185 18.7992 33.1603 18.625C33.216 18.3951 33.3345 18.2139 33.5227 18.0675C33.7108 17.9282 33.9199 17.8515 34.1707 17.8515C34.3728 17.8515 34.5331 17.8933 34.6516 17.97C34.77 18.0466 34.8327 18.1651 34.8537 18.3114L34.4634 18.4926C34.4286 18.402 34.3868 18.3393 34.331 18.2975C34.2753 18.2557 34.2056 18.2348 34.122 18.2348C34.0035 18.2348 33.899 18.2696 33.8153 18.3323C33.7317 18.3951 33.676 18.4787 33.6481 18.5902C33.6063 18.7574 33.7248 18.9177 33.9965 19.064C34.0174 19.078 34.0314 19.0849 34.0453 19.0919C34.2822 19.2173 34.4425 19.3428 34.5122 19.4682C34.5819 19.5936 34.5958 19.74 34.554 19.9281C34.4913 20.1929 34.3589 20.402 34.1568 20.5623C33.9547 20.7156 33.7178 20.7992 33.439 20.7992C33.2091 20.7992 33.0279 20.7435 32.9025 20.632C32.7631 20.5205 32.7004 20.3602 32.7073 20.1581ZM35.9895 20.7225L36.6585 17.9142H37.1045L36.4355 20.7225H35.9895ZM37.0766 20.7225L37.7735 17.8027L39.0975 19.517C39.1323 19.5658 39.1672 19.6145 39.202 19.6703C39.2369 19.726 39.2717 19.7888 39.3135 19.8584L39.7804 17.9142H40.1915L39.4947 20.8271L38.1428 19.078L38.0383 18.9316C38.0034 18.8759 37.9756 18.8271 37.9546 18.7644L37.4878 20.7156H37.0766V20.7225ZM41.6131 18.2975L41.0347 20.7156H40.5887L41.1671 18.2975H40.4424L40.533 17.9073H42.4284L42.3378 18.2975H41.6131ZM42.094 20.7225L42.7629 17.9142H44.296L44.2054 18.3045H43.1253L42.958 19.0083H44.0382L43.9406 19.4055H42.8605L42.6445 20.3114H43.7246L43.627 20.7225H42.094ZM44.8465 19.4612L44.5469 20.7156H44.1288L44.7977 17.9073H45.4179C45.5991 17.9073 45.7385 17.9212 45.8291 17.9421C45.9266 17.963 46.0033 18.0048 46.059 18.0606C46.1287 18.1303 46.1705 18.2139 46.1914 18.3254C46.2123 18.4299 46.2054 18.5484 46.1775 18.6808C46.1218 18.9038 46.0312 19.0849 45.8918 19.2104C45.7524 19.3358 45.5782 19.4125 45.3692 19.4403L46.0033 20.7156H45.5016L44.8953 19.4612H44.8465ZM44.958 19.1058H45.0416C45.2786 19.1058 45.4388 19.078 45.5294 19.0222C45.62 18.9665 45.6827 18.8689 45.7176 18.7226C45.7524 18.5693 45.7385 18.4578 45.6688 18.3951C45.5991 18.3323 45.4528 18.2975 45.2298 18.2975H45.1462L44.958 19.1058ZM46.2751 20.7225L46.944 17.9142H48.4701L48.3796 18.3045H47.2994L47.1322 19.0013H48.2123L48.1148 19.3985H47.0346L46.7211 20.7156H46.2751V20.7225ZM49.9544 20.7225L49.8151 19.9978H48.728L48.2402 20.7225H47.7733L49.7942 17.8027L50.4213 20.7225H49.9544ZM48.9858 19.6146H49.7454L49.62 18.9734C49.613 18.9316 49.606 18.8829 49.606 18.8341C49.5991 18.7783 49.599 18.7226 49.599 18.6599C49.5712 18.7226 49.5433 18.7783 49.5085 18.8341C49.4806 18.8898 49.4527 18.9386 49.4248 18.9804L48.9858 19.6146ZM53.3202 18.5971C53.2227 18.4856 53.1042 18.402 52.9788 18.3532C52.8534 18.2975 52.714 18.2696 52.5537 18.2696C52.2541 18.2696 51.9893 18.3672 51.7523 18.5623C51.5154 18.7574 51.3621 19.0153 51.2854 19.3288C51.2157 19.6285 51.2436 19.8794 51.383 20.0814C51.5154 20.2766 51.7244 20.3741 52.0032 20.3741C52.1635 20.3741 52.3237 20.3462 52.484 20.2835C52.6443 20.2278 52.8046 20.1372 52.9718 20.0187L52.8464 20.5344C52.707 20.625 52.5607 20.6877 52.4074 20.7295C52.2541 20.7713 52.1007 20.7922 51.9335 20.7922C51.7244 20.7922 51.5363 20.7574 51.376 20.6877C51.2157 20.618 51.0833 20.5135 50.9788 20.3741C50.8743 20.2417 50.8116 20.0814 50.7837 19.9003C50.7558 19.7191 50.7628 19.524 50.8185 19.3149C50.8673 19.1058 50.9509 18.9177 51.0624 18.7365C51.1739 18.5553 51.3203 18.3951 51.4875 18.2627C51.6548 18.1233 51.8359 18.0188 52.0311 17.9491C52.2262 17.8794 52.4213 17.8445 52.6234 17.8445C52.7837 17.8445 52.93 17.8655 53.0694 17.9142C53.2018 17.963 53.3272 18.0327 53.4387 18.1303L53.3202 18.5971ZM53.3621 20.7225L54.031 17.9142H55.5571L55.4665 18.3045H54.3864L54.2192 19.0083H55.2993L55.2017 19.4055H54.1216L53.9056 20.3114H54.9857L54.8882 20.7225H53.3621Z" fill="#3D3D3C"/>
<path d="M45.2507 15.4696H42.1915L46.4423 0.11792H49.5015L45.2507 15.4696ZM43.6619 0.598748C43.4528 0.30607 43.1253 0.159731 42.6793 0.159731H25.8712L25.042 3.17013H40.3309L39.439 6.38262H27.2092V6.37566H24.15L21.6135 15.5393H24.6727L26.373 9.39303H40.1219C40.5539 9.39303 40.9581 9.24669 41.3344 8.95401C41.7107 8.66133 41.9616 8.29897 42.08 7.86692L43.7803 1.72068C43.9128 1.26076 43.8709 0.891426 43.6619 0.598748ZM19.8295 14.5079C19.6623 15.1142 19.1048 15.5393 18.4776 15.5393H2.70787C2.27582 15.5393 1.95527 15.3929 1.74621 15.1002C1.53716 14.8076 1.48838 14.4452 1.61381 14.0132L5.46043 0.159731H8.51962L5.08413 12.5358H17.3209L20.7563 0.159731H23.8155L19.8295 14.5079Z" fill="#70706E"/>
<path d="M54.7843 0.145996L58.6518 7.83925L50.5195 15.5325L54.7843 0.145996Z" fill="#098041"/>
<path d="M52.0656 0.145996L55.9332 7.83925L47.7939 15.5325L52.0656 0.145996Z" fill="#E97626"/>
</svg>
