<svg width="55" height="17" viewBox="0 0 55 17" fill="none" xmlns="http://www.w3.org/2000/svg">
<path d="M31.6445 13.1317C29.921 13.1317 28.976 12.9 27.5247 12.3151L26.987 12.0746L26.3773 15.5504C27.4258 15.9741 29.3157 16.3383 31.271 16.3669C35.8633 16.3669 38.8647 14.277 38.9007 11.0616C38.9367 9.29394 37.7533 7.95217 35.2535 6.84653C33.737 6.1293 32.792 5.6482 32.792 4.91994C32.792 4.27553 33.5998 3.5892 35.2873 3.5892C36.4086 3.56274 37.5234 3.76489 38.561 4.18285L38.966 4.3594L39.5758 1.00055L39.47 1.02262C38.2143 0.580531 36.8891 0.358667 35.555 0.367179C31.235 0.367179 28.1863 2.47253 28.1637 5.48931C28.1367 7.70721 30.3328 8.95629 31.991 9.70001C33.6943 10.4614 34.2635 10.9403 34.259 11.6244C34.2477 12.6638 32.8978 13.1317 31.6445 13.1317ZM50.6817 0.651864H47.3067C46.256 0.651864 45.4707 0.927723 45.0095 1.93847L38.5182 16.1507H43.1105L44.0285 13.8246L49.631 13.829C49.7682 14.3719 50.171 16.1507 50.171 16.1507H54.2188L50.6817 0.651864ZM45.2863 10.6445L47.0278 6.31247C47.0053 6.35661 47.3877 5.41648 47.6082 4.83387L47.9075 6.17123L48.9177 10.6445H45.2863ZM19.2178 16.0271H23.5917L26.3255 0.521659H21.9538V0.517246L19.2178 16.0271ZM11.2955 11.2205L10.841 9.06664V9.07326L9.3065 1.95391C9.04325 0.967446 8.27375 0.676139 7.31975 0.64083H0.275L0.21875 0.967445C1.805 1.33158 3.23375 1.85902 4.51175 2.50563C4.7102 2.61942 4.85552 2.80471 4.91675 3.02203L8.69675 16.1286H13.3182L20.2055 0.651864H15.5728L11.2955 11.2205Z" fill="#191E6E"/>
</svg>
