<svg width="17" height="17" viewBox="0 0 17 17" fill="none" xmlns="http://www.w3.org/2000/svg">
<path d="M12.3843 1.88434L13.1808 3.38434L14.8843 3.59134L13.6343 4.71784L13.8843 6.38434L12.3843 5.44684L10.8843 6.38434L11.1343 4.71784L9.88428 3.59134L11.6343 3.38434L12.3843 1.88434Z" fill="#009379"/>
<path d="M12.2429 7.50883L11.2739 7.25983C11.1002 7.92895 10.7321 8.53158 10.216 8.99158C9.7 9.45158 9.05921 9.74832 8.37461 9.8443C7.69001 9.94029 6.99232 9.83121 6.36968 9.53086C5.74704 9.2305 5.2274 8.75234 4.87639 8.15679C4.52538 7.56123 4.35876 6.87501 4.39758 6.1848C4.4364 5.49459 4.67892 4.83138 5.0945 4.27894C5.51007 3.7265 6.08006 3.30963 6.73245 3.08099C7.38484 2.85234 8.09036 2.82219 8.75988 2.99433L9.00938 2.02583C8.03337 1.77196 7.00034 1.85368 6.07639 2.25784C5.15243 2.66201 4.39123 3.36514 3.91517 4.25419C3.4391 5.14324 3.27584 6.16655 3.45163 7.1596C3.62742 8.15265 4.13205 9.05773 4.88438 9.72933V15.8843L7.88438 13.8843L10.8844 15.8843V9.73833C11.5485 9.14652 12.0214 8.37039 12.2429 7.50883ZM9.88438 14.0158L7.88438 12.6823L5.88438 14.0158V10.4093C6.50485 10.7212 7.18958 10.8839 7.88402 10.8844C8.57847 10.8849 9.26344 10.7233 9.88438 10.4123V14.0158Z" fill="#009379"/>
</svg>
