<svg width="1440" height="602" viewBox="0 0 1440 602" fill="none" xmlns="http://www.w3.org/2000/svg">
<mask id="mask0_23_579" style="mask-type:luminance" maskUnits="userSpaceOnUse" x="0" y="561" width="89" height="41">
<path d="M0 561.789H88.5541V601.298H0V561.789Z" fill="white"/>
</mask>
<g mask="url(#mask0_23_579)">
<path d="M82.5201 601.219H73.7195C70.953 600.144 68.1864 599.019 65.5391 597.895C55.4506 593.595 46.1731 589.007 37.1817 584.42C28.1665 579.802 19.4375 575.154 10.3507 570.666C7.27413 569.113 4.05442 567.611 0.90625 566.108V562.187C5.79545 564.416 10.5654 566.695 15.1922 569.004C33.3896 578.08 50.1083 587.694 69.8559 596.143C73.9103 597.895 78.084 599.587 82.5201 601.219Z" fill="white" fill-opacity="0.05"/>
</g>
<mask id="mask1_23_579" style="mask-type:luminance" maskUnits="userSpaceOnUse" x="357" y="592" width="129" height="10">
<path d="M357.198 592.361H485.414V601.298H357.198V592.361Z" fill="white"/>
</mask>
<g mask="url(#mask1_23_579)">
<path d="M480.668 601.219H474.825C474.634 601.169 474.443 601.119 474.228 601.059C462.351 597.735 448.185 595.854 433.97 595.526C433.088 595.506 432.181 595.506 431.275 595.506H429.94C429.486 595.506 429.105 595.506 428.652 595.506C426.839 595.526 424.979 595.556 423.166 595.586L417.848 595.775L412.505 596.063C405.374 596.551 398.362 597.278 391.47 598.163C384.72 599.049 378.019 600.064 371.412 601.199H359.964C369.862 599.447 379.903 597.815 390.325 596.501C397.385 595.606 404.587 594.889 411.933 594.401L417.442 594.103L423.047 593.924C424.907 593.894 426.72 593.864 428.509 593.834C428.89 593.834 429.486 593.814 429.94 593.834H431.347C432.301 593.834 433.207 593.864 434.185 593.894C449.091 594.272 463.83 596.282 476.232 599.795C477.782 600.283 479.261 600.741 480.668 601.219Z" fill="white" fill-opacity="0.05"/>
</g>
<mask id="mask2_23_579" style="mask-type:luminance" maskUnits="userSpaceOnUse" x="0" y="490" width="639" height="112">
<path d="M0 490.453H638.052V601.299H0V490.453Z" fill="white"/>
</mask>
<g mask="url(#mask2_23_579)">
<path d="M636.573 562.725V563.819C636.573 564.038 636.502 564.198 636.502 564.387L636.311 565.461L635.977 566.566L635.786 567.123L635.524 567.661C635.405 568.009 635.214 568.387 635.071 568.736L634.499 569.811C633.664 571.234 632.71 572.627 631.422 574C630.85 574.697 630.134 575.364 629.49 576.041L628.393 577.036C628.083 577.384 627.677 577.703 627.296 578.021C625.817 579.345 624.148 580.628 622.478 581.892C619.068 584.42 615.395 586.888 611.746 589.327C605.879 593.218 599.893 597.119 595.027 601.249H591.855C596.888 596.85 603.065 592.71 609.099 588.66C612.771 586.212 616.373 583.743 619.64 581.245C621.262 579.982 622.86 578.728 624.267 577.434C624.672 577.115 624.982 576.787 625.316 576.468L626.342 575.503C626.986 574.856 627.63 574.189 628.131 573.543C629.299 572.229 630.253 570.885 630.969 569.512L631.47 568.497C631.613 568.149 631.732 567.82 631.875 567.472L632.066 566.964L632.185 566.457L632.447 565.432L632.567 564.357C632.567 564.198 632.638 563.989 632.638 563.849V562.834L632.567 562.317C632.519 561.968 632.519 561.62 632.447 561.272C632.185 559.908 631.684 558.535 630.897 557.191C629.371 554.504 626.843 551.927 623.647 549.508C620.427 547.1 616.444 544.871 611.984 542.85C607.501 540.84 602.468 539.039 597.15 537.456C594.431 536.68 591.664 535.954 588.779 535.307C588.063 535.147 587.371 534.988 586.584 534.829L585.487 534.59C585.106 534.501 584.796 534.451 584.414 534.371L579.906 533.535C567.815 531.445 554.96 530.261 542.033 529.753C535.522 529.515 529.035 529.435 522.548 529.485C516.037 529.535 509.55 529.724 503.182 530.022C501.584 530.072 499.962 530.181 498.364 530.261L495.979 530.4L493.594 530.56C490.375 530.769 487.226 530.987 484.007 531.206C480.858 531.445 477.71 531.714 474.562 531.983C471.414 532.222 468.266 532.55 465.165 532.839C458.941 533.406 452.763 534.132 446.586 534.829C440.481 535.575 434.375 536.302 428.318 537.138C422.284 537.914 416.297 538.8 410.311 539.636C404.325 540.522 398.41 541.407 392.567 542.313C368.955 545.945 345.869 549.757 322.711 553.111C319.825 553.539 316.939 553.947 314.03 554.375C311.144 554.773 308.258 555.151 305.348 555.549C299.577 556.355 293.71 557.082 287.938 557.759C282.142 558.455 276.228 559.042 270.384 559.64C264.517 560.197 258.674 560.704 252.807 561.162C229.339 562.963 205.752 563.799 182.641 563.123C171.074 562.834 159.698 562.108 148.632 561.003C147.272 560.844 145.865 560.704 144.506 560.545L142.454 560.336L140.403 560.087C139.044 559.928 137.708 559.739 136.349 559.58C134.99 559.391 133.654 559.202 132.366 559.013L130.363 558.724L128.383 558.395C127.095 558.187 125.736 557.968 124.448 557.778C123.16 557.54 121.872 557.331 120.584 557.082L118.652 556.733L116.792 556.355C115.504 556.116 114.288 555.848 113 555.609C111.784 555.34 110.496 555.072 109.279 554.803C106.775 554.265 104.438 553.678 102.125 553.111C101.886 553.061 101.481 552.952 101.242 552.872L100.336 552.623L98.5948 552.175C97.45 551.877 96.2814 551.558 95.1127 551.23C92.7993 550.583 90.629 549.916 88.4348 549.25C79.7535 546.483 71.7877 543.418 64.5851 540.143C50.1798 533.595 38.6604 526.32 28.6912 519.045C18.6504 511.76 10.1122 504.406 1.81253 497.29C1.43093 496.941 1.02548 496.623 0.596191 496.275V491.926C2.38492 493.428 4.1975 494.931 5.91468 496.434C10.1122 499.977 14.4052 503.58 18.8412 507.172C23.2773 510.775 27.9757 514.397 32.9364 517.99C42.9056 525.166 54.282 532.281 68.3772 538.641C75.389 541.805 83.164 544.791 91.583 547.448C93.7056 548.095 95.8282 548.762 98.0939 549.349C99.1672 549.677 100.264 549.966 101.433 550.265L103.102 550.693L103.937 550.912C104.247 550.991 104.438 551.021 104.772 551.121C107.157 551.688 109.47 552.275 111.855 552.792C113 553.031 114.169 553.3 115.385 553.569C116.601 553.808 117.818 554.046 119.058 554.295L120.918 554.644L122.778 554.962C123.995 555.181 125.283 555.42 126.499 555.639C127.787 555.848 129.027 556.037 130.291 556.256L132.223 556.544L134.155 556.813C135.443 557.002 136.731 557.191 138.018 557.351C139.306 557.51 140.666 557.679 141.954 557.838L143.933 558.077L145.937 558.296C147.272 558.425 148.56 558.585 149.919 558.724C160.652 559.769 171.718 560.466 182.975 560.764C205.489 561.381 228.624 560.545 251.734 558.774C257.506 558.346 263.23 557.808 269.025 557.241C274.821 556.654 280.544 556.067 286.316 555.39C292.04 554.723 297.836 553.997 303.559 553.22C306.445 552.812 309.355 552.444 312.241 552.036C315.127 551.638 317.965 551.2 320.851 550.802C343.889 547.468 366.976 543.656 390.635 540.064C396.55 539.148 402.536 538.292 408.522 537.407C414.556 536.571 420.542 535.685 426.72 534.909C432.825 534.073 439.002 533.346 445.179 532.6C451.404 531.923 457.653 531.206 464.021 530.609C467.169 530.321 470.317 529.992 473.537 529.753C476.756 529.515 479.952 529.246 483.172 528.997C486.392 528.788 489.683 528.599 492.879 528.38L495.335 528.221L497.768 528.111C499.39 528.032 500.988 527.952 502.657 527.873C509.287 527.574 515.846 527.415 522.548 527.395C529.154 527.365 535.856 527.445 542.534 527.713C555.842 528.251 569.222 529.535 581.767 531.764L586.394 532.649C586.775 532.729 587.228 532.819 587.562 532.898L588.659 533.137C589.351 533.296 590.138 533.456 590.901 533.645C593.93 534.341 596.816 535.098 599.654 535.924C605.235 537.596 610.458 539.497 615.085 541.616C619.712 543.736 623.838 546.105 627.177 548.623C630.516 551.18 633.091 553.887 634.642 556.733C635.405 558.157 635.93 559.61 636.168 561.063C636.24 561.431 636.24 561.779 636.311 562.157L636.573 562.725Z" fill="white" fill-opacity="0.05"/>
</g>
<mask id="mask3_23_579" style="mask-type:luminance" maskUnits="userSpaceOnUse" x="741" y="482" width="699" height="120">
<path d="M741.846 482.81H1440V601.299H741.846V482.81Z" fill="white"/>
</mask>
<g mask="url(#mask3_23_579)">
<path d="M1439.88 488.492V492.135C1422.64 498.205 1405.08 504.117 1386.17 509.133C1375.18 512.059 1363.8 514.666 1351.9 516.836C1350.42 517.134 1348.94 517.353 1347.39 517.622C1345.91 517.861 1344.36 518.129 1342.88 518.368C1339.88 518.856 1336.73 519.284 1333.63 519.742C1332.08 519.931 1330.6 520.11 1329.07 520.299L1326.81 520.568L1325.66 520.707C1325.33 520.737 1324.76 520.817 1324.45 520.836C1322.9 521.006 1321.28 521.165 1319.75 521.354C1318.2 521.483 1316.6 521.643 1315.05 521.782C1302.43 522.857 1289.65 523.364 1276.92 523.285C1264.18 523.225 1251.56 522.588 1239.35 521.453C1233.25 520.896 1227.19 520.2 1221.27 519.393C1215.36 518.557 1209.59 517.622 1203.91 516.567C1198.26 515.522 1192.8 514.338 1187.45 513.054C1186.1 512.735 1184.81 512.407 1183.47 512.059C1182.18 511.71 1180.9 511.362 1179.61 511.044C1177.03 510.347 1174.53 509.62 1172.02 508.834C1171.38 508.655 1170.74 508.466 1170.16 508.277L1166.68 507.142C1166.42 507.063 1165.97 506.933 1165.73 506.824L1164.82 506.525C1162.44 505.729 1160.19 504.923 1157.93 504.087C1153.42 502.445 1149.13 500.783 1144.74 499.171C1136.06 495.926 1127.38 492.891 1117.93 490.582C1116.72 490.313 1115.55 490.045 1114.33 489.776C1113.76 489.647 1113.12 489.537 1112.52 489.398L1110.66 489.05C1109.44 488.781 1108.23 488.622 1107.01 488.433L1105.2 488.134C1104.55 488.054 1103.84 487.975 1103.22 487.895L1101.14 487.656L1100.12 487.517L1099.28 487.437C1097.99 487.338 1096.71 487.198 1095.42 487.119C1094.13 487.039 1092.8 486.96 1091.51 486.9C1090.22 486.88 1088.86 486.82 1087.57 486.8C1082.3 486.721 1077.1 486.96 1072.02 487.467C1066.94 487.975 1061.98 488.731 1057.28 489.696C1047.84 491.627 1039.28 494.314 1031.76 497.379C1027.97 498.902 1024.42 500.514 1021.08 502.206C1017.74 503.898 1014.64 505.64 1011.68 507.441C1005.91 511.044 1000.83 514.855 996.705 518.717C994.582 520.647 992.722 522.668 990.909 524.648C989.12 526.639 987.308 528.649 985.591 530.669C978.698 538.671 972.139 546.612 963.577 554.076C959.332 557.808 954.586 561.411 948.981 564.735C946.215 566.427 943.257 568.009 940.109 569.542C939.274 569.92 938.559 570.298 937.724 570.666C936.889 571.045 936.055 571.393 935.22 571.771C934.385 572.119 933.479 572.468 932.644 572.816L931.356 573.324L930.021 573.841C929.114 574.16 928.28 574.508 927.326 574.826C926.348 575.155 925.442 575.473 924.488 575.772C924.034 575.931 923.51 576.07 923.08 576.23L920.314 577.056C920.123 577.135 919.718 577.245 919.527 577.304L918.835 577.513C914.972 578.618 910.917 579.613 906.743 580.469C898.491 582.211 889.953 583.505 881.463 584.52C872.972 585.545 864.553 586.321 856.253 587.018C847.954 587.714 839.845 588.311 831.879 588.928C815.995 590.163 800.874 591.556 787.113 593.785C774.83 595.776 763.645 598.353 753.556 601.279H744.994C745.638 601.06 746.33 600.851 746.974 600.632C758.112 597.119 770.848 593.974 784.99 591.586L786.35 591.347C786.541 591.317 786.851 591.257 787.041 591.237L787.685 591.128C788.592 590.989 789.498 590.859 790.333 590.73C792.121 590.461 794.006 590.192 795.866 589.944C799.586 589.436 803.331 588.978 807.123 588.55C814.779 587.714 822.625 586.998 830.591 586.321C846.547 584.978 863.074 583.823 879.412 581.753C887.568 580.708 895.677 579.444 903.333 577.782C907.173 576.956 910.917 576.041 914.518 574.996L915.234 574.807C915.544 574.727 915.615 574.697 915.878 574.617L917.213 574.189L918.573 573.762C919.026 573.622 919.479 573.463 919.908 573.324C920.743 573.035 921.602 572.736 922.436 572.468C923.271 572.169 924.106 571.851 924.869 571.552L926.085 571.094L927.254 570.617C928.017 570.298 928.852 569.97 929.639 569.621C930.402 569.273 931.165 568.925 931.953 568.606C932.716 568.258 933.431 567.9 934.194 567.532C937.152 566.079 939.918 564.576 942.494 562.964C947.693 559.799 952.201 556.335 956.255 552.713C964.364 545.458 970.661 537.596 977.482 529.535C979.223 527.524 980.94 525.484 982.752 523.444C984.541 521.404 986.473 519.364 988.667 517.323C990.861 515.253 993.175 513.273 995.798 511.282C998.446 509.292 1001.21 507.361 1004.24 505.461C1007.25 503.55 1010.54 501.699 1014.07 499.897C1017.55 498.096 1021.34 496.384 1025.4 494.742C1033.43 491.468 1042.62 488.512 1053.18 486.343C1058.45 485.268 1063.98 484.382 1069.83 483.815C1075.62 483.228 1081.73 482.959 1087.76 483.038C1089.31 483.088 1090.79 483.118 1092.34 483.148C1093.82 483.228 1095.37 483.307 1096.85 483.387C1098.33 483.496 1099.81 483.626 1101.29 483.765C1101.71 483.815 1101.86 483.815 1102.57 483.894L1103.6 484.034L1105.65 484.273C1106.37 484.352 1107.01 484.432 1107.7 484.541L1109.9 484.89C1111.37 485.109 1112.85 485.347 1114.21 485.616L1116.26 486.014C1116.98 486.153 1117.67 486.283 1118.31 486.452C1119.67 486.741 1120.96 487.039 1122.3 487.338C1132.72 489.886 1141.93 493.11 1150.68 496.384C1155.04 498.016 1159.41 499.688 1163.8 501.271C1165.97 502.047 1168.16 502.853 1170.4 503.599L1171.24 503.898C1171.57 504.007 1171.76 504.057 1172.02 504.167L1173.77 504.734L1175.48 505.291C1176.08 505.48 1176.65 505.64 1177.22 505.829C1179.49 506.525 1181.92 507.232 1184.31 507.899C1185.52 508.217 1186.74 508.546 1187.98 508.894C1189.2 509.212 1190.48 509.511 1191.7 509.829C1196.71 511.064 1201.93 512.168 1207.32 513.183C1212.66 514.208 1218.2 515.094 1223.78 515.9C1229.38 516.676 1235.11 517.353 1240.95 517.911C1264.25 520.14 1288.94 520.409 1313 518.428C1314.48 518.289 1316 518.159 1317.48 518.02C1318.96 517.861 1320.44 517.721 1321.99 517.562C1322.37 517.532 1322.56 517.512 1323.02 517.453L1324.19 517.323L1326.43 517.055C1327.91 516.866 1329.46 516.676 1331.01 516.517C1333.89 516.119 1336.78 515.711 1339.69 515.283L1344.05 514.587C1345.46 514.338 1346.94 514.129 1348.37 513.86C1359.82 511.82 1370.93 509.352 1381.73 506.555C1402.2 501.211 1421.09 494.961 1439.88 488.492Z" fill="white" fill-opacity="0.05"/>
</g>
<mask id="mask4_23_579" style="mask-type:luminance" maskUnits="userSpaceOnUse" x="1022" y="546" width="418" height="56">
<path d="M1022.7 546.502H1440V601.298H1022.7V546.502Z" fill="white"/>
</mask>
<g mask="url(#mask4_23_579)">
<path d="M1439.88 561.381V563.152C1422.64 564.685 1405.08 565.59 1387.39 565.809L1382 565.859H1379.3L1376.58 565.839L1371.19 565.809H1369.83L1368.5 565.779L1365.85 565.73C1362.32 565.65 1358.77 565.57 1355.17 565.491L1344.43 565.053L1341.74 564.953L1339.09 564.814L1333.77 564.525L1328.43 564.227C1326.62 564.117 1324.88 563.988 1323.16 563.879C1319.61 563.63 1316.08 563.421 1312.55 563.152L1301.98 562.346C1273.89 560.117 1246.24 557.3 1218.39 555.101C1214.91 554.832 1211.45 554.583 1207.89 554.315L1202.69 553.946L1197.42 553.618L1192.2 553.299L1189.58 553.14C1188.74 553.081 1187.84 553.061 1186.93 553.001L1176.46 552.493C1175.55 552.444 1174.72 552.414 1173.81 552.384L1171.19 552.304L1165.92 552.115C1164.18 552.065 1162.44 551.986 1160.62 551.956L1150.08 551.797L1147.51 551.737H1144.88C1141.47 551.737 1137.94 551.767 1134.53 551.876C1127.64 552.036 1120.77 552.414 1114.14 553.081C1107.51 553.727 1101.14 554.693 1095.37 556.036C1092.46 556.703 1089.69 557.459 1087.19 558.345C1084.69 559.231 1082.37 560.196 1080.37 561.241L1079.61 561.649L1078.89 562.047C1078.63 562.217 1078.39 562.346 1078.13 562.505L1077.48 562.913C1076.65 563.451 1075.81 564.068 1075.1 564.685C1073.62 565.889 1072.4 567.203 1071.31 568.516C1069.18 571.183 1067.82 574 1066.54 576.866C1065.27 579.742 1063.98 582.668 1062.17 585.624C1061.27 587.097 1060.19 588.58 1058.83 590.023C1058.5 590.401 1058.19 590.749 1057.81 591.097L1057.21 591.635L1056.59 592.172L1056 592.66C1055.8 592.819 1055.61 592.978 1055.42 593.167L1054.06 594.242C1052.2 595.606 1050.15 596.899 1047.84 598.134C1045.72 599.238 1043.45 600.313 1041.09 601.298H1027.18C1029.64 600.522 1031.88 599.716 1034.08 598.86C1036.46 597.895 1038.7 596.899 1040.76 595.825C1042.81 594.75 1044.62 593.595 1046.29 592.411L1047.46 591.555C1047.65 591.426 1047.84 591.237 1048.03 591.078L1048.6 590.59L1049.13 590.132L1049.63 589.654C1049.96 589.326 1050.27 589.007 1050.61 588.679C1051.82 587.395 1052.78 586.052 1053.68 584.688C1055.42 581.942 1056.71 579.095 1058.07 576.169C1059.41 573.273 1060.88 570.298 1063.27 567.362C1064.49 565.919 1065.85 564.436 1067.63 563.043C1068.54 562.346 1069.45 561.679 1070.54 560.973L1071.38 560.465C1071.64 560.306 1071.88 560.166 1072.14 560.007C1072.4 559.848 1072.59 559.738 1072.98 559.529L1073.88 559.042C1076.27 557.808 1079.03 556.653 1081.99 555.658C1084.95 554.663 1088.17 553.777 1091.44 553.031C1098.07 551.528 1105.2 550.503 1112.33 549.836C1119.53 549.159 1126.8 548.791 1134.08 548.652C1137.75 548.572 1141.35 548.542 1144.95 548.572L1147.65 548.602L1150.34 548.652L1155.76 548.761L1161.15 548.871C1162.96 548.921 1164.75 549 1166.49 549.06L1171.83 549.269L1174.53 549.378C1175.43 549.408 1176.32 549.458 1177.22 549.508L1187.91 550.105C1188.81 550.155 1189.7 550.214 1190.53 550.264L1193.18 550.453L1203.72 551.15L1208.99 551.558C1212.54 551.846 1216 552.085 1219.56 552.384C1247.53 554.752 1275.17 557.698 1302.96 560.037L1313.38 560.893C1316.84 561.162 1320.39 561.41 1323.85 561.649C1325.59 561.779 1327.33 561.918 1329.07 562.027L1339.62 562.664L1342.24 562.834L1344.89 562.933L1355.38 563.421C1358.91 563.53 1362.44 563.61 1366.04 563.719L1368.69 563.799L1369.98 563.819L1371.31 563.849L1376.58 563.898L1379.23 563.928L1380.59 563.958H1381.93L1387.2 563.928C1404.96 563.719 1422.57 562.853 1439.88 561.381Z" fill="white" fill-opacity="0.05"/>
</g>
<mask id="mask5_23_579" style="mask-type:luminance" maskUnits="userSpaceOnUse" x="0" y="248" width="523" height="220">
<path d="M0 248.418H522.047V467.523H0V248.418Z" fill="white"/>
</mask>
<g mask="url(#mask5_23_579)">
<path d="M25.2807 315.584C17.1241 314.161 8.94363 312.848 0.834709 311.693V310.27C9.32522 311.454 17.9588 312.798 26.5686 314.271C28.9536 314.649 31.1954 315.107 33.5089 315.505C35.8223 315.933 38.2073 316.341 40.5207 316.799C42.8341 317.246 45.1475 317.704 47.5325 318.192C48.7011 318.431 49.9175 318.65 51.0623 318.889C52.2309 319.127 53.3757 319.376 54.5443 319.645C56.8578 320.152 59.2427 320.63 61.5562 321.148C63.8696 321.685 66.183 322.222 68.4964 322.75C69.6651 323.019 70.8099 323.287 72.0262 323.556C73.1948 323.855 74.3635 324.123 75.5083 324.422C77.8217 324.979 80.1351 325.576 82.4485 326.134C100.908 330.921 119.249 336.444 136.659 342.893C137.756 343.291 138.853 343.699 139.95 344.097C141.047 344.505 142.073 344.933 143.17 345.331C145.293 346.167 147.463 347.003 149.586 347.859C151.708 348.715 153.783 349.601 155.906 350.486L157.504 351.133L159.054 351.8C160.079 352.258 161.105 352.716 162.131 353.173C163.156 353.631 164.205 354.089 165.231 354.547C166.257 354.995 167.211 355.482 168.236 355.94C170.239 356.876 172.291 357.821 174.294 358.786C176.226 359.752 178.205 360.747 180.137 361.742L181.616 362.489L183.047 363.245C184.001 363.752 184.979 364.26 185.861 364.768C193.445 368.848 200.719 373.117 207.35 377.685C208.184 378.253 209.091 378.81 209.854 379.377C210.689 379.944 211.452 380.532 212.239 381.099C213.002 381.656 213.837 382.253 214.624 382.811L215.196 383.239C215.459 383.408 215.578 383.537 215.769 383.696L216.937 384.582C220.014 386.951 223.043 389.339 225.929 391.777C231.796 396.644 237.376 401.63 243.029 406.626C248.753 411.652 254.62 416.697 261.107 421.664C267.618 426.63 274.606 431.546 282.858 436.134C286.96 438.443 291.348 440.672 296.023 442.792C300.721 444.912 305.682 446.922 311.072 448.833C321.757 452.565 333.92 455.71 346.966 458.068C360.012 460.427 374.036 462.099 388.441 462.905C402.846 463.711 417.657 463.731 432.3 462.766C435.973 462.557 439.575 462.228 443.247 461.88C445.036 461.691 446.777 461.502 448.59 461.313L451.356 460.994L452.692 460.835C453.074 460.785 453.527 460.725 453.98 460.676C460.992 459.73 467.813 458.446 474.228 456.884C477.448 456.108 480.596 455.252 483.554 454.306C486.582 453.401 489.492 452.405 492.187 451.301C497.577 449.151 502.419 446.743 506.02 444.026C509.621 441.319 511.982 438.363 512.579 435.298C512.626 434.93 512.698 434.551 512.698 434.143V432.989L512.507 431.894C512.388 431.516 512.245 431.088 512.126 430.68C512.054 430.471 511.982 430.362 511.863 430.143L511.529 429.585L511.219 429.018C511.1 428.829 510.957 428.64 510.838 428.451C510.575 428.083 510.313 427.704 510.003 427.356L508.977 426.281C507.499 424.858 505.686 423.485 503.564 422.201C501.369 420.907 498.865 419.733 496.099 418.628C490.637 416.399 484.198 414.518 477.448 412.806C463.949 409.363 449.162 406.656 434.566 403.461C430.893 402.655 427.292 401.849 423.691 400.963C421.902 400.535 420.089 400.077 418.301 399.59L415.725 398.893C415.319 398.784 414.819 398.654 414.365 398.515L413.078 398.147C406.137 396.126 399.698 393.798 393.855 391.24C393.068 390.922 392.376 390.603 391.732 390.255L389.609 389.26C388.25 388.583 386.914 387.886 385.555 387.19C384.339 386.463 382.979 385.766 381.834 385.02L380.022 383.915L379.116 383.348L378.281 382.791C373.797 379.755 370.053 376.501 367.095 373.117C366.904 372.908 366.714 372.689 366.523 372.48L365.998 371.834L364.973 370.52C364.782 370.301 364.663 370.092 364.52 369.873L364.138 369.226L363.303 367.912C362.85 367.027 362.397 366.141 361.944 365.285C361.824 365.066 361.705 364.857 361.634 364.608L361.371 363.942L360.87 362.598C359.63 359.025 359.129 355.433 359.129 351.86C359.129 348.257 359.583 344.694 360.155 341.121C360.727 337.549 361.443 334.006 361.944 330.463C362.087 329.577 362.206 328.691 362.349 327.806C362.397 326.92 362.588 326.034 362.588 325.148C362.659 324.263 362.731 323.377 362.778 322.491V319.187L362.731 318.51L362.588 317.167L362.54 316.5C362.54 316.261 362.54 316.072 362.468 315.853L362.206 314.539C362.135 314.112 362.087 313.654 361.944 313.226L361.562 311.912C361.443 311.474 361.371 311.026 361.181 310.588L360.656 309.275C358.032 302.298 352.762 295.422 345.177 289.002C337.569 282.593 327.743 276.572 315.771 271.367C303.87 266.162 289.798 261.704 274.224 258.509C273.27 258.32 272.293 258.081 271.267 257.912L268.31 257.355C266.33 256.977 264.255 256.658 262.276 256.33L260.725 256.091L259.175 255.872L256.099 255.444C255.121 255.285 254.047 255.175 252.95 255.046L249.731 254.668C249.158 254.588 248.753 254.558 248.18 254.509L246.582 254.349C245.485 254.24 244.46 254.13 243.363 254.051L240.143 253.782C239.046 253.702 238.02 253.623 236.923 253.543L235.325 253.434L233.704 253.324L230.436 253.135C228.242 253.026 226.072 252.926 223.878 252.847C206.324 252.2 188.437 252.658 170.621 253.543C152.805 254.429 134.942 255.743 116.864 256.847C112.356 257.116 107.801 257.385 103.222 257.624L99.8112 257.783L98.094 257.862L96.3529 257.942L89.4604 258.241C87.1469 258.32 84.9051 258.4 82.5916 258.479L79.1096 258.589L75.6275 258.669L68.7588 258.828L61.8185 258.937C41.2839 259.176 20.7254 258.858 0.143066 257.892V255.335C20.5823 256.28 41.1646 256.599 61.6277 256.33L68.4249 256.23L75.2459 256.061L78.6564 255.982L82.0669 255.872C84.3088 255.792 86.5745 255.713 88.8164 255.633L95.5659 255.335L97.2354 255.255L98.9287 255.175L102.315 254.986C106.823 254.747 111.331 254.479 115.767 254.21C133.702 253.085 151.661 251.772 169.715 250.856C187.793 249.941 206.062 249.463 224.331 250.1C226.573 250.189 228.886 250.289 231.152 250.398L234.562 250.587L237.901 250.806C239.046 250.886 240.143 250.966 241.312 251.045L244.651 251.344C245.795 251.423 246.893 251.553 247.99 251.662L249.659 251.822C250.184 251.871 250.875 251.961 251.4 252.011L254.62 252.389C255.717 252.518 256.742 252.628 257.887 252.787L261.179 253.245L262.848 253.484L264.446 253.732C266.569 254.081 268.763 254.399 270.814 254.807L273.986 255.364C275.011 255.554 276.037 255.773 277.062 255.982C293.471 259.335 308.115 263.953 320.588 269.377C333.086 274.801 343.365 281.031 351.211 287.719C359.058 294.406 364.591 301.522 367.358 308.817L367.858 310.19C368.073 310.648 368.121 311.106 368.264 311.564L368.646 312.927C368.765 313.385 368.836 313.843 368.908 314.301L369.146 315.664C369.218 315.883 369.218 316.182 369.218 316.361L369.289 317.037L369.409 318.381L369.48 319.048V322.511C369.409 323.427 369.337 324.342 369.289 325.228C369.218 326.134 369.099 327.019 368.956 327.935C368.908 328.851 368.693 329.736 368.574 330.622C368.073 334.215 367.358 337.768 366.785 341.311C366.189 344.853 365.807 348.367 365.807 351.83C365.807 355.323 366.332 358.786 367.477 362.17L367.93 363.434L368.192 364.071C368.264 364.29 368.383 364.499 368.502 364.688C368.956 365.524 369.337 366.36 369.79 367.186L370.577 368.42L370.959 369.067C371.078 369.286 371.221 369.495 371.412 369.684L372.294 370.868L372.748 371.455C372.891 371.644 373.082 371.863 373.272 372.052C376.039 375.247 379.569 378.302 383.814 381.178L384.601 381.716L385.436 382.253L387.105 383.298C388.25 383.995 389.466 384.662 390.635 385.338C391.923 385.985 393.139 386.652 394.427 387.299L396.43 388.235C397.074 388.563 397.718 388.881 398.482 389.18C404.015 391.618 410.049 393.818 416.607 395.728L417.848 396.077C418.229 396.206 418.611 396.296 419.064 396.425L421.64 397.122C423.309 397.55 424.979 397.988 426.767 398.415C430.249 399.271 433.779 400.077 437.38 400.854C451.738 403.999 466.644 406.735 480.668 410.308C487.68 412.11 494.429 414.09 500.415 416.508C503.373 417.713 506.211 419.036 508.643 420.479C511.028 421.932 513.151 423.465 514.749 425.097L515.918 426.331C516.299 426.739 516.562 427.167 516.872 427.595C517.015 427.814 517.206 428.023 517.325 428.242L517.969 429.526C518.04 429.695 518.231 430.013 518.303 430.202C518.422 430.6 518.613 431.008 518.684 431.436L518.947 432.78V434.094C518.947 434.522 518.803 434.979 518.803 435.407C518.16 438.9 515.393 442.284 511.41 445.26C507.427 448.265 502.156 450.873 496.289 453.152C493.404 454.306 490.327 455.361 487.107 456.346C483.887 457.342 480.596 458.227 477.138 459.063C470.245 460.696 463.043 462.069 455.578 463.034C455.077 463.094 454.695 463.174 454.099 463.223L452.764 463.383L449.997 463.711C448.137 463.92 446.205 464.109 444.345 464.298C440.552 464.646 436.737 464.965 432.944 465.184C417.704 466.149 402.345 466.119 387.344 465.264C372.366 464.408 357.889 462.656 344.343 460.158C330.772 457.67 318.227 454.416 307.089 450.495C301.628 448.564 296.357 446.444 291.539 444.245C286.698 442.035 282.214 439.727 278.016 437.338C269.669 432.591 262.538 427.595 256.027 422.549C249.54 417.504 243.673 412.398 238.02 407.382C232.368 402.337 226.835 397.361 221.111 392.534C218.225 390.115 215.315 387.727 212.239 385.388L211.07 384.502L209.925 383.647C209.091 383.059 208.304 382.492 207.54 381.925C206.777 381.368 205.943 380.77 205.155 380.213C204.392 379.616 203.486 379.079 202.723 378.521C201.888 377.954 201.053 377.417 200.219 376.849C199.384 376.312 198.597 375.755 197.691 375.217C195.973 374.142 194.232 373.068 192.491 371.993C191.657 371.455 190.703 370.918 189.844 370.41C188.962 369.903 188.055 369.365 187.149 368.848C186.243 368.34 185.36 367.803 184.454 367.295C183.5 366.788 182.594 366.27 181.687 365.763C180.733 365.255 179.827 364.748 178.921 364.26L177.514 363.514L176.083 362.787C174.175 361.822 172.243 360.827 170.311 359.861C168.379 358.896 166.328 357.98 164.396 357.035C163.418 356.587 162.464 356.099 161.439 355.641C160.39 355.184 159.364 354.726 158.41 354.278C157.384 353.82 156.407 353.362 155.381 352.905L153.831 352.238L152.304 351.591C150.23 350.705 148.107 349.839 146.056 348.984C143.933 348.128 141.811 347.322 139.688 346.466C138.662 346.058 137.565 345.63 136.54 345.222C135.443 344.824 134.346 344.426 133.32 344.017C116.148 337.598 98.1417 332.095 79.9443 327.288C77.6309 326.701 75.389 326.134 73.0756 325.546C71.907 325.248 70.8099 324.979 69.6651 324.691C68.4964 324.422 67.3516 324.153 66.183 323.884C63.8696 323.347 61.6277 322.81 59.3143 322.272C56.977 321.765 54.6636 321.247 52.3502 320.769C51.2054 320.531 50.0367 320.262 48.9396 320.013C47.7949 319.774 46.6262 319.535 45.4814 319.316C43.168 318.859 40.8546 318.381 38.5889 317.923C36.2754 317.465 33.962 317.067 31.6486 316.629C29.8598 316.42 27.5941 315.963 25.2807 315.584Z" fill="white" fill-opacity="0.05"/>
</g>
<mask id="mask6_23_579" style="mask-type:luminance" maskUnits="userSpaceOnUse" x="0" y="197" width="828" height="327">
<path d="M0 197.465H827.324V523.574H0V197.465Z" fill="white"/>
</mask>
<g mask="url(#mask6_23_579)">
<path d="M821.719 437.26C821.648 438.175 821.648 439.111 821.385 440.026C820.622 443.709 818.762 447.301 815.924 450.765C813.086 454.228 809.293 457.532 804.667 460.617C800.04 463.712 794.65 466.559 788.473 469.106C787.757 469.425 786.922 469.753 786.088 470.042L783.631 470.957C782.033 471.545 780.292 472.112 778.623 472.679C776.834 473.187 775.164 473.744 773.28 474.232L770.514 474.958C769.631 475.197 768.725 475.436 767.747 475.655C760.163 477.456 752.054 478.74 743.778 479.626C735.478 480.541 727.06 481.049 718.617 481.317C710.198 481.566 701.779 481.566 693.407 481.427C676.76 481.108 660.352 480.223 644.158 479.526C627.94 478.819 611.937 478.232 596.053 478.501C580.217 478.77 564.595 479.894 549.474 481.616C534.377 483.338 519.71 485.647 505.495 488.224C491.281 490.802 477.4 493.648 463.758 496.544C450.069 499.44 436.617 502.396 423.047 505.242C409.548 508.089 395.834 510.716 381.954 513.005C368.073 515.284 353.978 517.215 339.692 518.668C325.43 520.111 310.953 521.056 296.476 521.295C289.274 521.404 282.071 521.375 274.94 521.086C267.809 520.817 260.725 520.33 253.833 519.633C246.893 518.936 240.215 518.021 233.656 516.896C232.034 516.598 230.508 516.299 228.958 516.01C228.576 515.931 228.051 515.851 227.741 515.762L224.188 515.015C221.039 514.398 218.082 513.622 215.053 512.895C209.21 511.333 203.486 509.701 198.334 507.82C195.639 506.934 193.207 505.909 190.703 504.944C190.059 504.705 189.462 504.466 188.89 504.197L187.101 503.441C185.933 502.933 184.716 502.446 183.619 501.908C174.556 497.728 166.757 493.16 160.151 488.463C153.449 483.736 147.725 478.899 142.645 474.042C137.565 469.186 133.058 464.299 128.812 459.463C120.393 449.799 113.143 440.295 105.153 431.249C104.2 430.124 103.174 428.989 102.125 427.865C101.624 427.298 101.099 426.74 100.598 426.173C100.074 425.606 99.5727 425.078 98.9764 424.541C97.8793 423.436 96.8538 422.332 95.8282 421.257C94.7312 420.192 93.5864 419.117 92.4177 418.062C87.9817 413.793 82.9732 409.742 77.8932 405.771C67.5901 397.879 56.2138 390.604 44.1935 383.946C30.2891 376.263 15.6454 369.416 0.596207 363.376V361.604C16.5278 367.834 32.221 374.98 46.9601 383.031C59.1712 389.719 70.7383 396.994 81.3037 404.935C86.4314 408.906 91.583 413.016 96.1621 417.316C97.3069 418.391 98.4756 419.465 99.6204 420.54C100.717 421.635 101.743 422.74 102.84 423.834C103.412 424.402 103.937 424.939 104.438 425.506C104.963 426.064 105.487 426.631 105.988 427.168C107.014 428.293 108.039 429.427 109.089 430.552C117.174 439.628 124.567 449.132 133.058 458.716C137.303 463.523 141.882 468.35 146.962 473.157C152.042 477.964 157.694 482.721 164.253 487.338C170.812 491.956 178.396 496.355 187.22 500.435C188.318 500.943 189.462 501.431 190.631 501.908L192.372 502.635C192.944 502.884 193.517 503.122 194.089 503.361C196.546 504.307 198.859 505.272 201.506 506.098C206.515 507.899 211.977 509.482 217.629 510.965C220.539 511.661 223.353 512.388 226.453 513.005L228.695 513.483L229.864 513.721C230.245 513.811 230.555 513.861 230.961 513.94C232.559 514.239 234.109 514.508 235.707 514.796C241.884 515.851 248.371 516.737 255.073 517.374C261.679 518.051 268.5 518.478 275.393 518.747C282.262 518.986 289.274 519.046 296.285 518.936C310.309 518.697 324.404 517.782 338.404 516.359C352.38 514.936 366.261 513.025 379.903 510.776C393.592 508.516 407.044 505.909 420.471 503.063C433.922 500.246 447.35 497.271 461.063 494.365C474.753 491.439 488.705 488.573 503.11 485.965C517.516 483.358 532.446 481.029 547.876 479.257C563.307 477.476 579.382 476.322 595.719 476.063C612.056 475.794 628.393 476.381 644.659 477.128C660.924 477.884 677.214 478.77 693.551 479.088C701.707 479.257 709.935 479.257 718.116 479.038C726.272 478.8 734.381 478.312 742.347 477.456C744.351 477.237 746.33 477.028 748.262 476.759L749.741 476.57C750.194 476.511 750.838 476.431 751.172 476.381L754.129 475.923L755.608 475.685C756.108 475.605 756.562 475.525 757.015 475.436L759.781 474.908L761.141 474.64C761.594 474.55 762.023 474.451 762.476 474.341L765.195 473.724C766.078 473.535 766.984 473.296 767.819 473.077L770.466 472.41C772.183 471.923 773.805 471.415 775.474 470.927C777.072 470.39 778.694 469.853 780.292 469.315L782.606 468.459C783.393 468.161 784.156 467.892 784.871 467.574C796.701 462.737 805.835 456.696 811.368 450.098C814.135 446.794 815.924 443.33 816.687 439.837C816.949 438.952 816.949 438.096 817.092 437.21C817.14 436.782 817.14 436.324 817.092 435.896L817.021 434.583C816.949 434.145 816.83 433.687 816.758 433.259L816.639 432.592C816.568 432.373 816.568 432.164 816.448 431.945L815.995 430.632L815.733 429.985L815.423 429.338C813.729 425.904 810.772 422.551 806.527 419.515L804.81 418.41L803.975 417.853C803.713 417.664 803.379 417.475 803.069 417.316L801.137 416.271L800.23 415.753L799.133 415.246C797.726 414.549 796.248 413.902 794.84 413.285L792.527 412.35C791.74 412.021 790.905 411.753 790.142 411.434C786.922 410.25 783.512 409.155 779.982 408.13C776.428 407.115 772.779 406.149 768.987 405.264C761.451 403.462 753.533 401.88 745.495 400.397C729.421 397.392 712.964 394.655 696.508 391.838C680.028 389.012 663.5 386.086 647.378 382.792C631.231 379.458 615.395 375.696 600.942 371.078C593.739 368.77 586.847 366.252 580.55 363.455C574.254 360.688 568.649 357.633 563.832 354.359C563.188 353.951 562.663 353.523 562.091 353.125L560.421 351.861C560.159 351.642 559.849 351.433 559.587 351.244L558.799 350.597L557.273 349.313L556.486 348.666C556.248 348.447 556.033 348.238 555.842 347.99L554.507 346.646L553.863 345.979C553.672 345.76 553.409 345.522 553.219 345.313L552.05 343.969C549.093 340.287 547.113 336.525 545.873 332.713C543.369 325.09 543.631 317.357 543.703 309.684C543.75 302.001 543.75 294.268 540.865 286.645C535.021 271.448 518.04 256.978 492.95 245.513C480.358 239.791 465.762 234.825 449.544 230.963C445.489 229.968 441.387 229.112 437.142 228.246L430.703 227.072C428.58 226.664 426.386 226.316 424.215 225.967L420.924 225.46C420.399 225.38 419.827 225.271 419.326 225.221L417.657 225.002L410.955 224.086C408.713 223.818 406.447 223.549 404.205 223.31C401.964 223.041 399.698 222.832 397.384 222.614C392.829 222.126 388.202 221.807 383.623 221.429C378.996 221.141 374.369 220.812 369.671 220.623C365.044 220.354 360.346 220.255 355.647 220.066C350.949 219.956 346.251 219.817 341.576 219.767C336.878 219.688 332.179 219.688 327.481 219.658C322.782 219.688 318.036 219.688 313.338 219.737C303.87 219.817 294.497 220.006 285.028 220.255C266.187 220.703 247.274 221.3 228.314 221.728C218.869 221.947 209.329 222.076 199.813 222.156C190.297 222.235 180.781 222.186 171.265 222.026C161.749 221.837 152.233 221.509 142.788 221.031L135.705 220.603L133.892 220.494C133.32 220.464 132.676 220.414 132.104 220.354L125.092 219.817C123.947 219.717 122.778 219.658 121.562 219.528L114.55 218.881C112.165 218.663 109.923 218.424 107.61 218.155C105.297 217.916 102.959 217.677 100.646 217.409C96.0906 216.841 91.4637 216.334 86.9561 215.687C84.7143 215.388 82.4008 215.1 80.1351 214.771L73.3856 213.806C71.1438 213.487 68.878 213.139 66.6362 212.791L59.9344 211.736C42.1902 208.89 24.7083 205.755 7.20259 202.64C4.96071 202.232 2.76654 201.834 0.524658 201.455V199.634C3.29123 200.112 5.98624 200.629 8.75282 201.107C26.187 204.272 43.5496 207.447 61.1746 210.313L67.7809 211.368C69.9751 211.716 72.2408 212.064 74.4827 212.383L81.1607 213.378C83.4264 213.696 85.6683 213.995 87.9101 214.294C92.4177 214.931 96.9253 215.448 101.481 216.035C103.746 216.304 106.06 216.543 108.302 216.811C110.615 217.06 112.881 217.329 115.194 217.538L122.063 218.215C123.232 218.314 124.376 218.394 125.545 218.503L129.027 218.772L132.485 219.041C133.129 219.1 133.654 219.12 134.226 219.18L135.967 219.28L142.979 219.737C152.352 220.255 161.749 220.603 171.193 220.792C180.662 220.952 190.106 221.031 199.575 220.971C209.019 220.922 218.464 220.792 227.932 220.603C246.845 220.225 265.734 219.638 284.647 219.23C294.115 219.011 303.56 218.832 313.004 218.772C317.774 218.722 322.472 218.722 327.218 218.722C331.988 218.742 336.687 218.742 341.433 218.832C346.203 218.881 350.901 219.011 355.576 219.12C360.274 219.309 365.044 219.449 369.743 219.717C374.417 219.926 379.116 220.255 383.742 220.543C388.393 220.922 393.068 221.27 397.647 221.758C399.96 221.967 402.274 222.186 404.516 222.474C406.781 222.743 409.095 223.012 411.337 223.28L418.086 224.196L419.779 224.435C420.352 224.514 420.853 224.604 421.449 224.703L424.788 225.241C426.982 225.589 429.224 225.937 431.346 226.346L437.834 227.53C442.079 228.386 446.324 229.271 450.379 230.267C466.787 234.188 481.503 239.233 494.167 245.006C519.519 256.6 536.691 271.18 542.677 286.565C544.156 290.407 544.847 294.268 545.229 298.14C545.634 302.001 545.634 305.872 545.563 309.704C545.563 317.387 545.372 325.09 547.948 332.614C549.164 336.366 551.215 340.098 554.125 343.641L555.27 344.984C555.461 345.203 555.651 345.412 555.914 345.631L556.558 346.278L557.846 347.592C558.036 347.801 558.299 348.019 558.489 348.238L559.253 348.875L560.731 350.139L561.518 350.786C561.757 350.995 562.091 351.184 562.353 351.403L564.023 352.637C564.595 353.045 565.12 353.473 565.764 353.841C570.51 357.036 576.043 360.022 582.292 362.758C588.469 365.475 595.266 367.944 602.421 370.223C616.754 374.731 632.448 378.443 648.522 381.687C664.597 384.932 681.125 387.808 697.605 390.575C714.133 393.371 730.661 396.048 746.855 399.034C754.964 400.507 763.001 402.089 770.776 403.92C774.64 404.826 778.432 405.801 782.105 406.846C785.754 407.891 789.307 409.016 792.718 410.25C793.553 410.578 794.387 410.867 795.222 411.195L797.655 412.161C799.205 412.827 800.803 413.524 802.234 414.201L803.331 414.708L804.404 415.276L806.479 416.37C806.789 416.559 807.171 416.748 807.433 416.938L808.339 417.525L810.2 418.709C814.779 421.933 817.975 425.447 819.787 429.099L820.169 429.776L820.431 430.442L820.932 431.816C821.004 432.025 821.075 432.274 821.147 432.513L821.266 433.209C821.338 433.667 821.457 434.125 821.528 434.583L821.576 435.976C821.719 436.354 821.791 436.802 821.719 437.26Z" fill="white" fill-opacity="0.05"/>
</g>
<mask id="mask7_23_579" style="mask-type:luminance" maskUnits="userSpaceOnUse" x="1376" y="324" width="64" height="45">
<path d="M1376.82 324.85H1440V368.161H1376.82V324.85Z" fill="white"/>
</mask>
<g mask="url(#mask7_23_579)">
<path d="M1385.41 350.735C1385.03 352.178 1385.07 353.681 1385.91 355.104L1386.24 355.641C1386.31 355.721 1386.36 355.83 1386.43 355.91L1386.7 356.179L1387.15 356.686C1387.34 356.856 1387.53 357.035 1387.65 357.204C1387.98 357.552 1388.44 357.841 1388.87 358.169C1389.08 358.328 1389.32 358.488 1389.58 358.647L1390.34 359.164C1390.87 359.453 1391.44 359.722 1391.97 360.02C1392.61 360.289 1393.18 360.558 1393.83 360.826C1394.54 361.065 1395.19 361.334 1395.88 361.573C1396.66 361.792 1397.36 362.06 1398.14 362.25C1401.22 363.105 1404.7 363.752 1408.3 364.23C1411.98 364.718 1415.77 365.066 1419.61 365.285C1420.59 365.335 1421.54 365.384 1422.57 365.414C1423.54 365.474 1424.57 365.494 1425.52 365.524C1426.5 365.554 1427.53 365.574 1428.55 365.603C1429.53 365.633 1430.56 365.633 1431.58 365.633C1434.35 365.653 1437.04 365.653 1439.81 365.603V367.564C1437.04 367.594 1434.23 367.594 1431.46 367.564C1430.41 367.534 1429.39 367.564 1428.29 367.514C1427.26 367.484 1426.31 367.454 1425.21 367.435C1424.19 367.405 1423.09 367.345 1422.06 367.295C1421.04 367.246 1420.01 367.186 1418.96 367.136C1414.86 366.897 1410.81 366.519 1406.87 365.952C1399.05 364.857 1391.63 362.996 1386.74 360.07L1385.98 359.563C1385.72 359.403 1385.48 359.244 1385.22 359.025C1384.69 358.647 1384.19 358.249 1383.79 357.841C1383.6 357.662 1383.4 357.443 1383.21 357.254L1382.71 356.637L1382.45 356.338C1382.38 356.239 1382.31 356.129 1382.26 356.049L1381.88 355.432C1380.97 353.76 1380.9 352.069 1381.35 350.436C1381.88 348.794 1382.95 347.242 1384.38 345.759C1385.79 344.286 1387.6 342.893 1389.65 341.599C1393.71 339.002 1398.64 336.742 1404.06 334.812C1406.75 333.846 1409.59 332.961 1412.55 332.174C1413.31 331.995 1414.03 331.806 1414.79 331.617C1415.58 331.458 1416.34 331.269 1417.06 331.1C1418.54 330.781 1420.01 330.403 1421.49 330.114C1427.6 328.821 1433.7 327.776 1439.74 326.84V328.263C1434.16 329.149 1428.55 330.164 1423.09 331.348C1421.61 331.667 1420.13 332.015 1418.73 332.364C1418.01 332.523 1417.25 332.712 1416.53 332.881C1415.82 333.06 1415.12 333.249 1414.41 333.408C1411.64 334.165 1408.95 335.021 1406.37 335.936C1401.22 337.787 1396.59 339.967 1392.8 342.435C1390.94 343.669 1389.27 344.983 1387.98 346.356C1386.82 347.829 1385.86 349.252 1385.41 350.735Z" fill="white" fill-opacity="0.05"/>
</g>
<mask id="mask8_23_579" style="mask-type:luminance" maskUnits="userSpaceOnUse" x="1132" y="289" width="308" height="126">
<path d="M1132.6 289.183H1440V414.022H1132.6V289.183Z" fill="white"/>
</mask>
<g mask="url(#mask8_23_579)">
<path d="M1144.31 355.971C1144.31 356.13 1144.31 356.24 1144.31 356.399C1144.31 356.668 1144.31 356.937 1144.31 357.225L1144.5 358.091C1144.81 359.245 1145.46 360.37 1146.43 361.445C1147.46 362.52 1148.75 363.565 1150.27 364.53C1151.82 365.495 1153.68 366.411 1155.69 367.267C1157.67 368.133 1159.86 368.879 1162.17 369.606C1164.49 370.302 1166.94 370.979 1169.45 371.566C1171.95 372.153 1174.53 372.721 1177.22 373.178C1182.57 374.144 1188.1 374.87 1193.75 375.428C1199.4 375.945 1205.13 376.293 1210.85 376.373C1216.65 376.453 1222.56 376.373 1228.43 376.263C1240.19 376.045 1252.09 375.617 1264.06 375.617C1270.02 375.617 1276.08 375.696 1282.07 376.025C1288.03 376.313 1294.02 376.831 1299.86 377.607C1302.77 378.005 1305.58 378.463 1308.35 379.03C1309.06 379.16 1309.71 379.329 1310.42 379.458C1311.12 379.597 1311.76 379.757 1312.4 379.916L1314.41 380.394L1316.34 380.911C1316.91 381.07 1317.56 381.259 1318.2 381.449C1318.84 381.638 1319.49 381.817 1320.06 382.006L1321.87 382.573L1323.59 383.16C1325.93 383.966 1328.17 384.772 1330.29 385.638C1334.61 387.33 1338.59 389.072 1342.57 390.764C1344.58 391.62 1346.63 392.426 1348.61 393.232L1349.39 393.53C1349.7 393.63 1349.85 393.69 1350.09 393.799L1353.31 394.973C1353.83 395.162 1354.4 395.381 1354.93 395.541C1357.1 396.267 1359.17 396.994 1361.49 397.631C1363.73 398.337 1366.04 398.954 1368.36 399.591C1369.52 399.92 1370.74 400.188 1371.91 400.507L1373.7 400.965C1374.27 401.124 1374.91 401.233 1375.51 401.392L1379.16 402.228L1382.9 403.005C1383.55 403.134 1384.12 403.273 1384.76 403.383L1386.62 403.731C1387.91 403.97 1389.13 404.209 1390.42 404.428C1392.99 404.856 1395.5 405.314 1398.14 405.692C1403.27 406.498 1408.57 407.165 1413.84 407.812L1417.82 408.239C1419.18 408.399 1420.51 408.508 1421.8 408.648C1424.45 408.906 1427.14 409.155 1429.84 409.364C1433.13 409.633 1436.47 409.882 1439.74 410.12V412.997C1436.02 412.748 1432.3 412.479 1428.48 412.161C1425.74 411.922 1422.97 411.703 1420.2 411.404C1418.85 411.275 1417.44 411.136 1416.08 411.006L1411.95 410.548C1390.11 408.05 1368.62 404 1350.35 397.72C1349.78 397.531 1349.25 397.312 1348.68 397.123L1347.08 396.536L1345.46 395.939C1345.22 395.859 1344.82 395.7 1344.62 395.62L1343.79 395.302C1341.6 394.466 1339.54 393.61 1337.49 392.744C1333.37 391.032 1329.46 389.311 1325.33 387.679C1323.28 386.872 1321.23 386.086 1319.03 385.34L1317.44 384.802L1315.74 384.295C1315.17 384.106 1314.67 383.966 1314.07 383.807C1313.5 383.648 1313 383.489 1312.36 383.329L1310.54 382.872L1308.75 382.444C1308.16 382.304 1307.51 382.175 1306.94 382.036C1306.3 381.906 1305.73 381.767 1305.08 381.658C1302.58 381.18 1300 380.752 1297.35 380.374C1286.74 378.921 1275.25 378.523 1263.73 378.493C1252.16 378.493 1240.38 378.871 1228.43 379.08C1222.44 379.189 1216.38 379.269 1210.28 379.189C1204.1 379.11 1197.92 378.732 1191.89 378.174C1185.86 377.577 1179.92 376.801 1174.27 375.756C1171.38 375.248 1168.61 374.621 1165.92 374.004C1163.2 373.367 1160.58 372.641 1158 371.865C1155.5 371.059 1153.04 370.193 1150.8 369.257C1148.56 368.292 1146.48 367.267 1144.69 366.142C1142.88 365.018 1141.35 363.784 1140.18 362.49C1139.02 361.206 1138.32 359.833 1137.94 358.459L1137.75 357.444C1137.68 357.096 1137.75 356.718 1137.75 356.369C1137.75 356.18 1137.75 355.991 1137.75 355.832L1137.87 355.354L1137.99 354.867C1137.99 354.757 1138.06 354.488 1138.13 354.329C1138.59 352.956 1139.47 351.622 1140.71 350.358C1143.21 347.801 1147.12 345.551 1151.7 343.67C1156.33 341.79 1161.6 340.237 1167.13 338.943C1172.72 337.659 1178.63 336.664 1184.69 335.908C1196.85 334.435 1209.18 333.708 1221.23 332.773C1227.26 332.285 1233.17 331.748 1238.97 331.051L1241.16 330.783L1243.26 330.484C1244.62 330.305 1246.1 330.056 1247.58 329.817L1248.61 329.658L1249.63 329.469L1251.71 329.091C1253.04 328.822 1254.4 328.553 1255.76 328.265C1266.49 325.956 1276.2 322.781 1285.41 319.348C1294.59 315.914 1303.41 312.202 1312.67 308.629C1317.29 306.858 1322.11 305.116 1327.14 303.484C1329.65 302.678 1332.22 301.872 1334.85 301.115L1336.85 300.548L1338.9 300.011C1340.26 299.643 1341.6 299.344 1342.96 298.996C1354.21 296.338 1366.38 294.487 1378.78 293.253C1391.2 291.96 1403.87 291.293 1416.46 290.755C1424.19 290.427 1431.89 290.188 1439.55 289.979V291.91C1431.96 292.178 1424.45 292.417 1416.91 292.766C1404.44 293.333 1392.04 294.059 1379.99 295.313C1376.99 295.612 1374.03 295.99 1371.07 296.368C1369.57 296.547 1368.09 296.766 1366.69 296.985L1364.49 297.304C1363.8 297.413 1363.08 297.543 1362.37 297.652L1358.08 298.379L1353.9 299.185C1353.19 299.314 1352.47 299.453 1351.78 299.583L1349.78 300.041L1347.73 300.498L1346.7 300.717C1346.29 300.797 1346.06 300.847 1345.72 300.926C1344.36 301.275 1342.96 301.603 1341.74 301.951L1339.81 302.459L1337.88 302.996C1335.37 303.723 1332.87 304.499 1330.41 305.275C1325.59 306.858 1320.89 308.579 1316.34 310.351C1307.2 313.874 1298.45 317.626 1289.13 321.149C1284.43 322.92 1279.61 324.612 1274.53 326.195C1269.45 327.777 1264.04 329.23 1258.38 330.464C1256.98 330.783 1255.57 331.051 1254.09 331.35L1251.9 331.748L1250.8 331.967L1249.63 332.156C1248.15 332.395 1246.82 332.634 1245.2 332.853L1242.88 333.171L1240.64 333.47C1234.53 334.216 1228.43 334.783 1222.25 335.291C1216.15 335.778 1210.02 336.206 1204.05 336.694C1198.07 337.172 1192.08 337.709 1186.36 338.406C1180.63 339.132 1175.17 340.078 1170.02 341.282C1164.87 342.466 1160.05 343.909 1155.95 345.601C1151.89 347.293 1148.48 349.254 1146.43 351.433C1145.38 352.508 1144.62 353.632 1144.24 354.787C1144.17 354.946 1144.17 354.996 1144.1 355.185L1144.05 355.673L1144.31 355.971Z" fill="white" fill-opacity="0.05"/>
</g>
<mask id="mask9_23_579" style="mask-type:luminance" maskUnits="userSpaceOnUse" x="931" y="228" width="509" height="217">
<path d="M931.118 228.037H1440V444.594H931.118V228.037Z" fill="white"/>
</mask>
<g mask="url(#mask9_23_579)">
<path d="M941.778 367.426C941.135 369.655 940.872 371.884 941.135 374.114C941.397 376.343 942.112 378.542 943.138 380.692C944.283 382.842 945.833 384.961 947.765 386.972C949.768 389.012 952.201 390.923 954.967 392.744L957.162 394.088L959.523 395.381C960.31 395.809 961.216 396.187 962.051 396.585L963.339 397.183C963.768 397.362 964.221 397.551 964.674 397.74C965.58 398.118 966.487 398.496 967.441 398.845L970.327 399.86C970.851 400.049 971.304 400.188 971.805 400.347L973.308 400.805L974.834 401.263L978.173 402.119L979.032 402.338C979.342 402.417 979.413 402.417 979.795 402.497C980.94 402.736 982.037 402.975 983.205 403.224C983.778 403.323 984.35 403.462 984.946 403.572L986.664 403.89C987.832 404.109 988.977 404.318 990.146 404.507C994.916 405.234 999.733 405.901 1004.74 406.339C1009.7 406.816 1014.71 407.085 1019.72 407.354C1021.01 407.403 1022.25 407.433 1023.54 407.493C1024.8 407.543 1026.04 407.592 1027.33 407.592C1029.83 407.652 1032.41 407.702 1034.91 407.702C1055.16 407.811 1075.17 406.846 1094.97 406.339C1104.89 406.07 1114.78 405.93 1124.61 406.07C1134.46 406.229 1144.24 406.687 1153.68 407.672C1156.07 407.891 1158.38 408.21 1160.7 408.508C1161.27 408.588 1161.86 408.647 1162.44 408.747L1164.18 409.016C1165.32 409.205 1166.42 409.364 1167.59 409.553C1168.16 409.633 1168.73 409.772 1169.26 409.852L1170.93 410.17C1172.02 410.389 1173.17 410.598 1174.27 410.817C1175.29 411.056 1176.32 411.275 1177.37 411.514L1178.89 411.862L1179.68 412.051C1180.13 412.16 1180.25 412.19 1180.51 412.27C1188.67 414.36 1195.87 416.937 1202.5 419.595C1209.13 422.282 1215.24 425.019 1221.46 427.626C1224.64 428.91 1227.78 430.174 1230.98 431.358C1231.84 431.647 1232.6 431.945 1233.44 432.244C1234.27 432.532 1235.11 432.801 1235.94 433.07C1236.78 433.338 1237.61 433.637 1238.45 433.876C1239.28 434.145 1240.11 434.393 1240.95 434.632L1242.24 435.01L1243.6 435.359C1244.5 435.598 1245.46 435.836 1246.36 436.085C1246.55 436.135 1246.89 436.215 1247.01 436.244L1247.72 436.404L1249.06 436.722C1249.96 436.941 1250.92 437.13 1251.83 437.339C1252.8 437.528 1253.69 437.688 1254.66 437.877L1256.07 438.145L1256.79 438.285L1257.48 438.394C1258.46 438.553 1259.41 438.713 1260.39 438.842L1261.79 439.091L1263.27 439.28C1271.12 440.355 1279.16 440.992 1287.19 441.37C1295.23 441.718 1303.22 441.798 1311.12 441.748C1313.12 441.718 1315.05 441.688 1317.03 441.668C1319.03 441.609 1320.97 441.589 1322.9 441.529C1324.83 441.479 1326.76 441.42 1328.69 441.37C1330.6 441.29 1332.53 441.24 1334.46 441.151C1338.26 440.992 1342.12 440.832 1345.84 440.673C1349.66 440.514 1353.38 440.355 1357.05 440.136C1364.44 439.728 1371.69 439.379 1378.85 438.902C1382.38 438.663 1385.91 438.444 1389.39 438.225C1392.87 437.986 1396.33 437.717 1399.74 437.479C1403.15 437.21 1406.56 436.991 1409.9 436.722C1413.24 436.453 1416.53 436.165 1419.8 435.896C1426.62 435.299 1433.32 434.712 1439.81 434.065V435.488C1433.58 436.105 1427.14 436.722 1420.59 437.319C1394.4 439.678 1365.73 441.639 1334.92 442.932C1319.56 443.549 1303.41 443.997 1286.74 443.3C1278.47 442.952 1270.09 442.305 1261.87 441.211L1260.32 440.992L1258.77 440.753C1257.74 440.594 1256.71 440.434 1255.69 440.265L1254.93 440.166L1254.14 440.026L1252.66 439.758C1251.63 439.568 1250.68 439.379 1249.63 439.2C1248.68 438.981 1247.72 438.762 1246.67 438.553L1245.19 438.225L1244.5 438.066C1244.12 437.986 1243.98 437.936 1243.72 437.877C1242.83 437.638 1241.93 437.399 1240.95 437.18L1239.61 436.832L1238.25 436.434C1237.35 436.165 1236.39 435.896 1235.49 435.627C1234.58 435.359 1233.75 435.06 1232.86 434.762C1231.96 434.473 1231.12 434.204 1230.22 433.906C1229.38 433.607 1228.55 433.289 1227.71 432.99C1224.3 431.786 1221.08 430.492 1217.86 429.179C1211.5 426.551 1205.34 423.814 1198.83 421.207C1192.34 418.599 1185.4 416.161 1177.68 414.231L1177.03 414.061L1176.27 413.882L1174.72 413.534C1173.69 413.285 1172.67 413.076 1171.64 412.827C1170.59 412.618 1169.57 412.459 1168.54 412.24L1166.99 411.942C1166.49 411.862 1165.97 411.752 1165.47 411.673C1164.37 411.514 1163.34 411.354 1162.25 411.165L1160.62 410.926C1160.12 410.847 1159.55 410.787 1159.03 410.707C1156.83 410.439 1154.66 410.12 1152.35 409.931C1143.33 409.016 1133.94 408.558 1124.37 408.428C1114.78 408.289 1105.08 408.458 1095.3 408.727C1075.67 409.235 1055.54 410.25 1034.77 410.15C1032.22 410.15 1029.57 410.09 1026.99 410.041C1025.71 410.011 1024.37 409.961 1023.08 409.931C1021.79 409.881 1020.43 409.852 1019.15 409.802C1013.95 409.553 1008.68 409.264 1003.45 408.747C998.255 408.289 993.103 407.592 988.023 406.816C986.807 406.597 985.519 406.358 984.303 406.149L982.418 405.801C981.774 405.692 981.202 405.532 980.63 405.423C979.413 405.154 978.173 404.886 977.028 404.647C976.838 404.587 976.313 404.477 976.051 404.428L975.216 404.209L971.877 403.353L970.136 402.845L968.419 402.338C967.822 402.169 967.25 401.98 966.725 401.8L963.577 400.666C962.552 400.298 961.598 399.86 960.572 399.462C960.047 399.243 959.523 399.054 959.093 398.845L957.662 398.198C956.78 397.77 955.802 397.342 954.967 396.884L952.392 395.511L950.078 394.068C947.121 392.107 944.473 390.037 942.422 387.887C940.371 385.718 938.75 383.489 937.533 381.2C936.436 378.891 935.744 376.582 935.482 374.223C935.22 371.865 935.554 369.496 936.245 367.167C936.889 364.799 938.249 362.49 939.918 360.211C940.753 359.056 941.85 357.952 942.876 356.827L944.688 355.185C944.927 354.916 945.332 354.647 945.642 354.379L946.668 353.573C949.506 351.483 952.845 349.472 956.708 347.671C960.62 345.87 965.056 344.258 969.897 342.864C971.114 342.546 972.211 342.217 973.499 341.899L975.43 341.411C976.051 341.252 976.694 341.123 977.338 340.963C977.982 340.794 978.626 340.665 979.27 340.526L981.202 340.127C982.49 339.829 983.849 339.62 985.137 339.351C990.456 338.356 995.989 337.58 1001.52 336.903C1012.71 335.589 1024.23 334.833 1035.75 334.216C1047.27 333.599 1058.83 333.151 1070.28 332.444C1076 332.096 1081.8 331.728 1087.38 331.19L1091.7 330.782L1093.82 330.573L1095.94 330.325C1098.71 330.006 1101.52 329.708 1104.29 329.31C1115.43 327.857 1126.3 325.956 1136.7 323.667C1147.12 321.388 1157.09 318.701 1166.49 315.615C1175.82 312.53 1184.5 309.087 1192.42 305.335L1195.37 303.912C1196.26 303.424 1197.23 302.917 1198.19 302.429C1199.09 301.951 1200.12 301.434 1201.03 300.956L1203.72 299.453C1207.32 297.443 1210.66 295.313 1213.95 293.193C1220.44 288.924 1226.5 284.525 1232.67 280.097C1238.78 275.668 1244.96 271.239 1251.75 266.94C1255.16 264.79 1258.72 262.67 1262.51 260.63L1265.32 259.098C1266.37 258.59 1267.33 258.102 1268.35 257.625L1271.38 256.142C1272.41 255.664 1273.5 255.206 1274.6 254.719C1291.63 247.125 1312.48 241.084 1335.25 236.706C1358 232.337 1382.76 229.65 1407.92 228.764C1418.53 228.386 1429.2 228.306 1439.88 228.575V229.51C1429.27 229.222 1418.65 229.271 1408.11 229.62C1383.21 230.476 1358.72 233.133 1336.13 237.432C1313.57 241.731 1292.92 247.792 1276.13 255.286C1275.1 255.774 1274.01 256.202 1272.98 256.679L1269.97 258.162C1269 258.64 1267.9 259.157 1267.02 259.635L1264.18 261.168C1260.43 263.208 1256.98 265.298 1253.57 267.418C1246.89 271.717 1240.76 276.146 1234.65 280.574C1228.55 285.003 1222.56 289.442 1216.07 293.761C1209.59 298.06 1202.58 302.24 1194.66 306.081C1186.74 309.923 1178.01 313.466 1168.54 316.611C1159.1 319.746 1148.99 322.512 1138.44 324.901C1127.9 327.269 1116.91 329.25 1105.58 330.782C1102.81 331.19 1099.85 331.509 1097.04 331.857L1094.92 332.126L1092.8 332.345L1088.48 332.773C1082.64 333.33 1076.91 333.768 1071.04 334.116C1059.48 334.863 1047.89 335.35 1036.46 336.017C1025.06 336.664 1013.8 337.47 1003 338.784C992.197 340.078 981.918 341.949 972.855 344.586C968.466 345.87 964.293 347.402 960.691 349.094C957.09 350.786 954.061 352.667 951.438 354.628L950.46 355.374C950.15 355.613 949.816 355.862 949.553 356.13L947.884 357.663C946.93 358.708 945.904 359.753 945.117 360.828C943.639 362.997 942.422 365.207 941.778 367.426Z" fill="white" fill-opacity="0.05"/>
</g>
<mask id="mask10_23_579" style="mask-type:luminance" maskUnits="userSpaceOnUse" x="1254" y="0" width="186" height="37">
<path d="M1254.71 0.423004H1440V36.957H1254.71V0.423004Z" fill="white"/>
</mask>
<g mask="url(#mask10_23_579)">
<path d="M1439.88 25.0144V28.4479C1438.07 28.8758 1436.21 29.2838 1434.42 29.6819C1430.48 30.5179 1426.5 31.2643 1422.45 31.961C1406.18 34.7276 1388.82 36.3399 1371.31 36.7977C1353.76 37.2256 1336.09 36.4991 1319.11 34.5186C1318.08 34.4092 1316.98 34.2499 1315.96 34.1106C1314.91 33.9812 1313.83 33.8419 1312.79 33.7125L1309.64 33.2547C1308.61 33.1154 1307.66 32.9363 1306.63 32.7969C1302.51 32.15 1298.38 31.4235 1294.4 30.5677C1286.5 28.8758 1278.85 26.7262 1272.67 23.8003L1271.5 23.2429C1271.05 23.0539 1270.81 22.8946 1270.48 22.7055C1270.09 22.5164 1269.9 22.3771 1269.45 22.1084L1268.5 21.5212L1267.52 20.9042C1267.21 20.6853 1266.87 20.4962 1266.61 20.2872L1264.94 18.9934C1262.89 17.2518 1261.29 15.4306 1260.24 13.5496C1259.29 11.6687 1258.77 9.75789 1258.65 7.8869C1258.57 6.00596 1258.84 4.12502 1259.29 2.29384C1259.48 1.67682 1259.67 1.08964 1259.86 0.502472H1268.5C1268.23 1.24888 1267.97 1.97538 1267.71 2.70188C1267.26 4.42359 1267.02 6.13534 1267.02 7.82719C1267.14 9.51904 1267.52 11.181 1268.35 12.8231C1269.26 14.4354 1270.55 15.9879 1272.29 17.4707L1273.7 18.5456C1273.89 18.7247 1274.22 18.8939 1274.46 19.073L1275.29 19.5905L1276.13 20.0981C1276.27 20.2076 1276.72 20.4464 1277.03 20.5857C1277.37 20.745 1277.68 20.954 1278.01 21.0933L1278.89 21.5511C1281.47 22.7851 1284.5 23.8799 1287.72 24.9049C1290.94 25.9001 1294.47 26.756 1298.14 27.5621C1301.79 28.3384 1305.58 29.035 1309.52 29.6521C1310.47 29.8213 1311.52 29.9805 1312.48 30.1397L1315.36 30.5677C1316.34 30.707 1317.36 30.8364 1318.32 30.9757C1319.37 31.1051 1320.32 31.2444 1321.35 31.3439C1353.45 35.1854 1388.75 34.3494 1419.8 29.1744C1423.73 28.5275 1427.53 27.801 1431.25 27.0247C1434.09 26.3579 1437.04 25.7111 1439.88 25.0144Z" fill="white" fill-opacity="0.05"/>
</g>
<mask id="mask11_23_579" style="mask-type:luminance" maskUnits="userSpaceOnUse" x="1102" y="0" width="338" height="71">
<path d="M1102.07 0.423004H1440V70.0775H1102.07V0.423004Z" fill="white"/>
</mask>
<g mask="url(#mask11_23_579)">
<path d="M1413.05 53.6067C1421.99 53.2584 1430.94 53.0394 1439.88 52.93V57.5477C1431.25 57.6572 1422.64 57.8761 1414.08 58.1946L1407.73 58.4633C1406.63 58.5131 1405.61 58.5429 1404.51 58.6026L1401.36 58.7619C1397.17 58.951 1392.92 59.2197 1388.75 59.4585C1380.33 59.9661 1371.91 60.5333 1363.54 61.1504C1346.75 62.3546 1329.91 63.7578 1313 65.0416C1304.56 65.6885 1296.07 66.3254 1287.53 66.8927C1278.97 67.46 1270.4 67.9974 1261.87 68.3955C1253.23 68.8234 1244.62 69.1717 1235.94 69.3608C1227.26 69.5798 1218.51 69.6594 1209.78 69.5499C1192.27 69.3907 1174.72 68.4751 1157.67 66.5941C1155.54 66.3852 1153.42 66.0866 1151.3 65.8477L1148.15 65.4397C1147.12 65.3103 1146.03 65.1511 1145 65.0118L1141.85 64.554L1140.3 64.345C1139.73 64.2654 1139.35 64.2056 1138.71 64.1061C1136.77 63.8076 1134.46 63.3995 1132.46 63.0014C1128.28 62.1953 1124.23 61.2001 1120.44 59.9661C1118.58 59.3192 1116.72 58.6524 1115.09 57.8164C1114.26 57.4482 1113.5 56.9904 1112.78 56.5625C1112.4 56.3435 1112.09 56.1047 1111.76 55.8559C1111.45 55.617 1111.11 55.408 1110.8 55.1393L1109.97 54.383L1109.32 53.6067C1109.06 53.338 1108.92 53.0693 1108.73 52.8006C1108.54 52.4722 1108.49 52.3726 1108.3 51.885L1108.08 51.2182C1108.04 51.0291 1107.96 50.7007 1107.96 50.4121C1107.96 50.1135 1107.89 49.7951 1107.96 49.5263L1108.08 48.7202C1108.42 47.6454 1108.92 46.6004 1109.78 45.6351C1109.97 45.3863 1110.16 45.1474 1110.42 44.9086L1111.11 44.2119C1111.64 43.7542 1112.09 43.2964 1112.66 42.8684C1114.86 41.1169 1117.29 39.5643 1119.75 38.0815L1121.53 36.9867L1122.44 36.4493C1122.75 36.2304 1122.94 36.1309 1123.28 35.9418L1125.02 34.8072L1125.85 34.2499L1126.61 33.7125L1128.16 32.6078C1128.67 32.2595 1129.12 31.8614 1129.64 31.4833L1131.12 30.3288L1132.46 29.1744C1134.27 27.6119 1135.87 26.0295 1137.35 24.4173C1140.26 21.2028 1142.43 17.839 1143.91 14.4553C1145.38 11.0517 1146.17 7.61819 1146.17 4.15487L1146.1 2.86111V2.21422C1146.1 2.05499 1146.03 1.78628 1146.03 1.57729C1145.98 1.19911 1145.98 0.850787 1145.91 0.522369H1156C1156.07 0.82093 1156.07 1.08964 1156.14 1.35834C1156.14 1.59719 1156.19 1.78628 1156.19 2.05499L1156.26 2.75163L1156.33 4.15487C1156.4 7.85704 1155.54 11.5592 1154.02 15.2116C1152.47 18.864 1150.15 22.4567 1147.08 25.92C1145.46 27.6716 1143.79 29.3635 1141.85 31.0553L1140.38 32.3093L1138.83 33.5533C1138.32 33.9514 1137.8 34.3494 1137.23 34.7873L1135.49 36.0214L1134.65 36.6384L1133.75 37.1957L1132.03 38.3303C1131.77 38.5194 1131.31 38.7881 1131.05 38.9473L1130.14 39.5046L1128.36 40.6093C1125.97 42.0822 1123.73 43.5053 1121.92 44.9584C1121.41 45.3365 1121.08 45.6848 1120.7 46.0332L1120.17 46.5706C1119.98 46.7597 1119.86 46.9189 1119.72 47.108C1119.1 47.8345 1118.77 48.5311 1118.58 49.2576L1118.46 49.7951C1118.39 49.9841 1118.46 50.0837 1118.46 50.2528C1118.46 50.3822 1118.46 50.5216 1118.51 50.7903L1118.7 51.4571C1118.7 51.4571 1118.89 51.7258 1118.96 51.8551C1119.03 52.0243 1119.15 52.1836 1119.29 52.3428L1119.67 52.8304L1120.17 53.2783C1120.37 53.4475 1120.58 53.5768 1120.77 53.7361C1121.01 53.8754 1121.22 54.0346 1121.41 54.1939C1121.92 54.4924 1122.37 54.781 1123.01 55.0497C1124.18 55.617 1125.52 56.1246 1126.95 56.6122C1129.91 57.5776 1133.24 58.4135 1136.89 59.1102C1137.8 59.2993 1138.71 59.4585 1139.61 59.6177C1140.45 59.777 1141.54 59.9362 1142.5 60.1054L1148.34 60.9613C1149.32 61.0907 1150.27 61.2598 1151.3 61.3594L1154.33 61.7375C1156.33 61.9764 1158.31 62.2451 1160.39 62.4342C1176.53 64.1857 1193.25 65.0416 1210.02 65.2009C1218.46 65.3103 1226.88 65.2009 1235.3 64.9919C1243.72 64.8028 1252.16 64.4544 1260.58 64.0166C1269 63.6185 1277.42 63.0811 1285.86 62.5138C1294.28 61.9565 1302.63 61.3096 1311.07 60.6926C1327.83 59.3988 1344.7 58.0055 1361.68 56.7715C1370.17 56.1544 1378.66 55.5673 1387.27 55.0497C1391.58 54.8109 1395.83 54.572 1400.19 54.3531L1403.41 54.1939C1404.51 54.1441 1405.54 54.1143 1406.63 54.0645L1413.05 53.6067Z" fill="white" fill-opacity="0.05"/>
</g>
<mask id="mask12_23_579" style="mask-type:luminance" maskUnits="userSpaceOnUse" x="1327" y="0" width="63" height="9">
<path d="M1327.98 0.423004H1389.03V8.93202H1327.98V0.423004Z" fill="white"/>
</mask>
<g mask="url(#mask12_23_579)">
<path d="M1385.79 0.472764C1385.15 0.870847 1384.5 1.24903 1383.86 1.6272C1383.55 1.81629 1383.14 2.02529 1382.83 2.19447C1382.5 2.35371 1382.19 2.5428 1381.81 2.73188L1380.59 3.2693C1380.18 3.44843 1379.76 3.61762 1379.35 3.77685C1377.68 4.44364 1375.82 4.98105 1373.82 5.4687C1371.84 5.9464 1369.71 6.29473 1367.52 6.56343C1365.35 6.81223 1363.01 6.97146 1360.77 7.00132C1358.53 7.02122 1356.22 6.94161 1353.95 6.78238C1351.71 6.59329 1349.51 6.32458 1347.46 5.9464C1345.41 5.57818 1343.41 5.12038 1341.55 4.55311C1339.69 3.98584 1337.99 3.34891 1336.52 2.64232C1335.11 1.97553 1333.89 1.21917 1332.87 0.442908H1336.66C1337.37 0.900702 1338.14 1.32864 1338.97 1.73668C1340.33 2.35371 1341.86 2.91102 1343.48 3.39867C1345.15 3.88632 1346.89 4.28441 1348.82 4.60287C1350.68 4.93129 1352.61 5.17014 1354.59 5.30947C1356.6 5.43885 1358.58 5.48861 1360.65 5.4687C1362.63 5.40899 1364.63 5.27961 1366.57 5.06067C1368.5 4.82182 1370.36 4.50335 1372.1 4.09532C1373.82 3.66738 1375.44 3.17973 1376.92 2.59255C1377.3 2.46318 1377.63 2.32385 1377.94 2.16462L1378.9 1.70682C1379.23 1.54759 1379.54 1.3585 1379.87 1.16941C1380.26 0.980319 1380.52 0.850944 1380.78 0.661854C1380.9 0.582237 1381.02 0.502621 1381.16 0.423004H1385.79V0.472764Z" fill="white" fill-opacity="0.05"/>
</g>
<mask id="mask13_23_579" style="mask-type:luminance" maskUnits="userSpaceOnUse" x="967" y="0" width="473" height="142">
<path d="M967.751 0.423004H1440V141.414H967.751V0.423004Z" fill="white"/>
</mask>
<g mask="url(#mask13_23_579)">
<path d="M1439.88 96.7191V101.148C1431.58 100.61 1423.21 100.212 1415.05 99.8341L1408.61 99.6251L1405.39 99.5156C1404.82 99.4857 1404.51 99.4857 1403.92 99.4857L1402.32 99.4559C1398.07 99.3763 1393.9 99.2469 1389.65 99.2469L1383.36 99.1971L1377.04 99.217C1372.79 99.217 1368.62 99.3265 1364.37 99.4061C1362.25 99.436 1360.13 99.5156 1358.08 99.5653L1351.78 99.7843C1349.66 99.8639 1347.58 99.9734 1345.46 100.053L1342.31 100.182C1341.29 100.242 1340.19 100.262 1339.16 100.352C1322.44 101.287 1305.85 102.71 1289.58 104.641C1287.53 104.86 1285.53 105.148 1283.55 105.397L1277.49 106.174L1271.5 107.029C1269.52 107.328 1267.52 107.597 1265.54 107.915L1259.6 108.861C1258.65 109.02 1257.62 109.179 1256.64 109.338L1253.76 109.856L1247.96 110.871C1246.03 111.219 1244.05 111.627 1242.12 111.976C1234.39 113.419 1226.95 115.061 1219.41 116.753C1211.95 118.444 1204.51 120.216 1197.09 121.987C1182.26 125.56 1167.25 129.153 1151.63 132.347C1143.79 133.93 1135.82 135.383 1127.64 136.697L1121.34 137.642L1119.79 137.881C1119.29 137.96 1118.77 138.01 1118.24 138.1L1112.09 138.896C1111.64 138.956 1110.92 139.035 1110.4 139.115L1108.8 139.304C1106.68 139.543 1104.48 139.732 1102.31 139.951C1097.92 140.319 1093.56 140.647 1089.19 140.856C1084.76 141.075 1080.37 141.235 1075.93 141.265C1071.5 141.314 1067.06 141.294 1062.63 141.155C1060.43 141.105 1058.19 140.996 1056 140.916C1053.82 140.777 1051.56 140.697 1049.36 140.508C1045 140.22 1040.64 139.782 1036.32 139.304C1032 138.816 1027.76 138.179 1023.65 137.453C1019.48 136.756 1015.47 135.87 1011.56 134.925C1007.63 133.99 1003.98 132.855 1000.43 131.651C999.591 131.332 998.708 131.064 997.873 130.715L995.345 129.75C994.511 129.422 993.819 129.073 992.984 128.725C992.579 128.566 992.197 128.377 991.816 128.187L990.718 127.65C989.192 126.924 987.904 126.177 986.473 125.391C985.829 124.993 985.185 124.595 984.541 124.157C984.231 123.948 983.85 123.729 983.659 123.54L982.872 122.953L982.037 122.366C981.775 122.176 981.393 121.878 981.202 121.689L979.652 120.425C979.151 119.997 978.77 119.569 978.317 119.111C978.126 118.902 977.863 118.683 977.673 118.464L977.1 117.798C976.265 116.912 975.622 115.996 974.978 115.11C974.381 114.205 973.809 113.289 973.427 112.344C972.974 111.438 972.664 110.493 972.33 109.557L972.02 108.164C971.877 107.706 971.877 107.218 971.806 106.761C971.567 104.88 971.615 103.029 971.877 101.178C972.139 99.3265 972.664 97.5053 973.356 95.6741C974 93.8529 974.834 92.0515 975.812 90.2801C979.652 83.1643 985.328 76.3173 990.718 69.53C992.078 67.8382 993.437 66.1463 994.701 64.4544L998.374 59.3789C1000.69 55.9653 1002.81 52.5319 1004.62 49.0686C1008.27 42.1419 1010.99 35.1357 1012.66 28.0697C1014.33 21.0137 1014.97 13.9278 1014.52 6.83198C1014.4 4.74205 1014.19 2.62226 1013.88 0.522369H1021.84C1022.18 2.5924 1022.44 4.66243 1022.56 6.73246C1023.13 13.9477 1022.49 21.2028 1020.96 28.3981C1019.34 35.5935 1016.71 42.7589 1013.04 49.815C1011.23 53.3579 1009.06 56.8511 1006.75 60.3442L1003 65.5492C1001.71 67.241 1000.38 68.9926 999.018 70.6844C993.628 77.4718 988.143 84.2093 984.541 91.0862C983.659 92.7979 982.872 94.5196 982.228 96.2414C981.584 97.9531 981.131 99.6748 980.892 101.416C980.63 103.138 980.63 104.86 980.821 106.572C980.892 107.009 980.892 107.437 981.012 107.865L981.345 109.129C981.656 109.955 981.918 110.821 982.371 111.647C982.753 112.483 983.253 113.289 983.778 114.115C984.351 114.921 984.947 115.728 985.71 116.514L986.235 117.101C986.425 117.29 986.616 117.479 986.807 117.688C987.189 118.066 987.57 118.464 988.023 118.842L989.383 119.977C989.621 120.216 989.764 120.296 990.027 120.485L990.862 121.072L991.696 121.669C991.935 121.878 992.197 122.017 992.531 122.176L994.129 123.192C995.345 123.868 996.514 124.535 997.873 125.152L998.827 125.64C999.161 125.799 999.543 125.928 999.853 126.098C1000.57 126.386 1001.21 126.715 1001.98 127.003L1004.17 127.869C1004.86 128.158 1005.72 128.406 1006.48 128.695C1009.56 129.77 1012.92 130.765 1016.38 131.601C1019.86 132.457 1023.51 133.233 1027.33 133.88C1031.12 134.527 1034.96 135.114 1038.97 135.542C1042.88 136 1046.93 136.378 1050.99 136.647C1067.25 137.741 1084.16 137.532 1100.31 136.079C1102.31 135.89 1104.36 135.701 1106.37 135.462L1107.84 135.303C1108.35 135.253 1108.68 135.194 1109.25 135.114L1112.33 134.716L1115.43 134.308C1115.93 134.228 1116.45 134.179 1116.98 134.099L1118.46 133.88L1124.3 133.024C1132.15 131.76 1139.87 130.337 1147.46 128.805C1162.63 125.69 1177.37 122.117 1192.2 118.524C1199.67 116.753 1207.13 114.951 1214.72 113.21C1222.3 111.488 1230.03 109.796 1237.94 108.293C1239.92 107.915 1241.78 107.547 1243.79 107.169L1249.85 106.094L1252.85 105.556C1253.88 105.367 1254.93 105.228 1255.88 105.049L1261.99 104.054C1263.99 103.705 1266.11 103.437 1268.09 103.108L1274.27 102.223L1280.52 101.416C1282.57 101.148 1284.62 100.859 1286.74 100.64C1303.46 98.6299 1320.58 97.1271 1337.8 96.1617C1338.9 96.0821 1339.93 96.0224 1341.02 95.9926L1344.24 95.8333C1346.44 95.7338 1348.56 95.6243 1350.73 95.5447L1357.24 95.3258C1359.41 95.2461 1361.53 95.1665 1363.73 95.1367C1368.09 95.0571 1372.41 94.9476 1376.8 94.9476L1383.29 94.9277L1389.84 94.9774C1394.21 94.9774 1398.53 95.1068 1402.89 95.1964L1404.51 95.2163C1404.96 95.2163 1405.66 95.2461 1406.18 95.276L1409.4 95.3755L1415.82 95.5945C1424 95.8333 1431.96 96.2115 1439.88 96.7191Z" fill="white" fill-opacity="0.05"/>
</g>
<mask id="mask14_23_579" style="mask-type:luminance" maskUnits="userSpaceOnUse" x="790" y="0" width="650" height="208">
<path d="M790.691 0.423004H1440V207.655H790.691V0.423004Z" fill="white"/>
</mask>
<g mask="url(#mask14_23_579)">
<path d="M1401.36 144.22C1414.22 144.24 1427 144.35 1439.88 144.459V146.42C1427 146.26 1414.15 146.121 1401.29 146.071C1367.02 145.852 1332.72 146.042 1298.64 147.067C1264.49 148.052 1230.48 149.933 1197.16 153.127C1163.84 156.322 1131.24 160.92 1100.64 167.229C1098.71 167.628 1096.78 168.006 1094.92 168.404L1089.24 169.668C1087.38 170.096 1085.45 170.504 1083.59 170.932C1081.73 171.36 1079.87 171.788 1077.98 172.245C1070.59 174.017 1063.34 175.898 1056.07 177.799C1041.59 181.62 1027.33 185.591 1012.78 189.403C998.255 193.214 983.325 196.837 967.703 199.902C952.082 202.937 935.673 205.376 918.573 206.64C910.011 207.287 901.401 207.605 892.72 207.635C884.038 207.635 875.286 207.227 866.867 206.212C862.621 205.694 858.567 205.027 854.632 204.191C850.72 203.365 847.047 202.34 843.637 201.186C840.226 200.031 837.078 198.768 834.121 197.424C831.164 196.09 828.469 194.667 825.821 193.244C824.533 192.518 823.269 191.791 822.029 191.035C820.884 190.288 819.596 189.562 818.499 188.786C816.114 187.253 813.992 185.701 811.869 184.108C809.818 182.526 807.958 180.894 806.145 179.252C804.404 177.59 802.735 175.928 801.328 174.206C800.946 173.778 800.612 173.35 800.302 172.912C799.968 172.484 799.586 172.056 799.276 171.628C798.632 170.772 797.989 169.887 797.464 169.021C796.319 167.279 795.413 165.508 794.65 163.706L794.125 162.363L793.672 161.019L793.481 160.353L793.362 159.676C793.219 159.228 793.171 158.77 793.028 158.342C792.718 156.511 792.646 154.71 792.765 152.889C792.956 151.067 793.362 149.266 794.053 147.435C794.196 146.977 794.435 146.549 794.65 146.091C794.84 145.643 795.031 145.206 795.294 144.758L796.057 143.414L796.963 142.091C798.251 140.349 799.777 138.627 801.638 136.995L802.353 136.378C802.615 136.159 802.878 135.97 803.14 135.761L804.666 134.547L806.336 133.373C806.67 133.183 806.861 132.994 807.242 132.775L808.149 132.218C812.966 129.153 818.881 126.446 825.32 123.978C831.736 121.53 838.7 119.33 845.76 117.29C859.926 113.18 874.713 109.527 888.212 105.208C894.962 103.059 901.329 100.75 907.053 98.1422C909.892 96.8584 912.587 95.5149 915.091 94.0917C917.595 92.6686 919.908 91.2156 922.174 89.7128C930.855 83.6719 936.842 76.9841 940.562 70.1172C944.283 63.2204 945.833 56.1246 945.642 49.0387L945.571 47.725C945.571 47.5061 945.571 47.2672 945.523 47.0781L945.452 46.4114L945.189 43.7243C944.879 41.9528 944.688 40.2112 944.164 38.4398C943.782 36.6683 943.257 34.8869 942.757 33.1453C942.16 31.3738 941.588 29.6322 940.872 27.8607C940.228 26.1091 939.465 24.3377 938.75 22.5961C937.987 20.8545 937.223 19.073 936.389 17.3314C934.719 13.8382 932.978 10.3252 931.237 6.83199C930.14 4.7122 929.114 2.62226 928.017 0.502472H934.314C935.292 2.43317 936.198 4.39373 937.152 6.32443C938.893 9.83751 940.562 13.3605 942.16 16.8736C942.995 18.6451 943.71 20.4166 944.474 22.188C945.189 23.9595 945.905 25.7409 946.549 27.5124C947.24 29.2838 947.765 31.0752 948.337 32.8467C948.79 34.648 949.363 36.4195 949.697 38.2208C950.15 40.0221 950.341 41.8135 950.651 43.6447L950.913 46.3317L950.985 46.9985C950.985 47.2374 950.985 47.4563 950.985 47.6952L951.056 49.0686C951.104 56.2938 949.434 63.5687 945.523 70.6247C941.588 77.6907 935.363 84.5576 926.229 90.7876C923.915 92.3501 921.459 93.8529 918.835 95.2959C916.188 96.7489 913.35 98.1422 910.392 99.4857L908.151 100.451C907.817 100.61 907.387 100.799 906.982 100.939L904.668 101.904L903.452 102.362C902.617 102.66 901.854 102.979 901.019 103.277C897.728 104.482 894.389 105.606 890.907 106.711C877.098 111.09 862.24 114.712 848.145 118.733C841.133 120.753 834.312 122.903 828.087 125.262C821.838 127.62 816.114 130.228 811.416 133.154L810.534 133.721C810.271 133.88 810.009 134.099 809.699 134.258L808.077 135.383L806.598 136.537C806.336 136.726 806.097 136.915 805.883 137.124L805.239 137.722C803.379 139.304 801.971 140.936 800.684 142.608L799.777 143.872L799.014 145.156C798.752 145.584 798.561 146.012 798.37 146.45C798.179 146.877 797.917 147.305 797.798 147.733C797.082 149.475 796.772 151.227 796.51 152.968C796.367 154.71 796.438 156.481 796.701 158.263C796.772 158.691 796.891 159.148 796.963 159.576L797.082 160.213L797.273 160.89L797.655 162.204L798.179 163.517C798.895 165.269 799.777 166.981 800.874 168.702C801.399 169.558 802.043 170.394 802.615 171.25C802.925 171.678 803.259 172.086 803.569 172.514C803.903 172.942 804.213 173.35 804.619 173.778C806.026 175.44 807.624 177.082 809.293 178.714C811.034 180.326 812.895 181.939 814.898 183.491C816.901 185.054 819.024 186.586 821.337 188.089C822.411 188.835 823.651 189.562 824.867 190.318C826.012 191.035 827.3 191.761 828.54 192.458C831.044 193.881 833.668 195.254 836.577 196.568C839.392 197.862 842.421 199.096 845.712 200.191C848.979 201.295 852.461 202.261 856.182 203.067C859.926 203.873 863.766 204.52 867.821 204.998C875.858 205.963 884.348 206.371 892.767 206.371C901.258 206.371 909.748 206.043 918.12 205.425C934.838 204.191 951.056 201.803 966.487 198.797C981.918 195.792 996.705 192.169 1011.23 188.378C1025.78 184.596 1039.99 180.595 1054.52 176.783C1061.79 174.873 1069.11 173.002 1076.58 171.2C1078.44 170.743 1080.32 170.315 1082.18 169.887C1084.04 169.429 1085.97 169.021 1087.83 168.593L1093.56 167.329C1095.49 166.901 1097.42 166.523 1099.35 166.125C1130.22 159.736 1163.01 155.088 1196.52 151.814C1213.31 150.172 1230.22 148.888 1247.2 147.863C1264.25 146.848 1281.35 146.091 1298.45 145.554C1332.6 144.38 1367.02 144.141 1401.36 144.22Z" fill="white" fill-opacity="0.05"/>
</g>
<mask id="mask15_23_579" style="mask-type:luminance" maskUnits="userSpaceOnUse" x="0" y="156" width="1440" height="141">
<path d="M0 156.7H1440V296.825H0V156.7Z" fill="white"/>
</mask>
<g mask="url(#mask15_23_579)">
<path d="M1408.95 200.379C1419.23 200.519 1429.58 200.628 1439.88 200.628V203.922C1429.46 203.922 1419.04 203.873 1408.68 203.763C1391.51 203.574 1374.34 203.226 1357.17 202.877C1340.07 202.529 1322.97 202.151 1305.84 201.962C1271.69 201.613 1237.56 201.882 1203.86 203.793C1187.07 204.758 1170.4 206.132 1154.14 208.062L1148.03 208.809L1141.97 209.615C1139.99 209.884 1137.99 210.182 1136.01 210.481C1134.01 210.769 1132.03 211.068 1130.1 211.386C1122.18 212.62 1114.52 214.073 1107.01 215.656L1104.17 216.253C1103.27 216.462 1102.31 216.651 1101.4 216.87L1095.94 218.154C1094.13 218.582 1092.34 219.069 1090.53 219.497C1089.65 219.736 1088.74 219.955 1087.83 220.164L1082.68 221.617L1081.39 221.965L1080.11 222.373L1074.91 223.926C1074.45 224.065 1074.19 224.145 1073.69 224.304L1072.48 224.702L1069.95 225.508L1067.44 226.314L1065.01 227.18C1052.08 231.659 1040.25 236.764 1028.93 242.049C1017.6 247.363 1006.67 252.867 995.417 258.32L991.171 260.36C989.764 261.027 988.333 261.704 986.855 262.401L982.49 264.411L978.126 266.401C975.168 267.745 972.139 269.029 969.063 270.323C965.962 271.606 962.814 272.84 959.594 274.084C946.811 278.991 932.835 283.479 917.476 287.072C913.612 287.987 909.748 288.823 905.694 289.6C903.714 289.998 901.663 290.346 899.66 290.724C897.609 291.073 895.534 291.421 893.483 291.719C891.432 292.038 889.309 292.336 887.186 292.605C886.161 292.735 885.064 292.874 883.967 292.983L882.369 293.172L880.747 293.332C876.454 293.809 872.066 294.158 867.701 294.426C866.604 294.486 865.507 294.566 864.41 294.615L861.071 294.755C859.974 294.805 858.829 294.834 857.66 294.864C856.516 294.884 855.347 294.914 854.321 294.914L851.102 294.944C850.386 294.944 849.957 294.944 849.361 294.914L847.691 294.884L844.352 294.864L841.013 294.755C832.141 294.456 823.317 293.71 814.826 292.605C797.845 290.376 782.224 286.694 768.343 282.245C754.391 277.787 741.965 272.602 730.708 267.098C719.404 261.595 709.172 255.743 699.656 249.702C697.271 248.199 694.886 246.666 692.644 245.164L685.823 240.596C681.315 237.57 676.832 234.535 672.181 231.499C663.047 225.488 653.602 219.547 643.323 213.914C633.02 208.271 621.834 202.957 609.218 198.289C596.697 193.642 582.601 189.671 567.242 186.934C551.859 184.167 535.331 182.744 518.541 182.366C510.194 182.177 501.703 182.257 493.284 182.505C484.841 182.774 476.422 183.202 468.075 183.759C451.285 184.894 434.614 186.476 417.895 188.059C409.548 188.865 401.176 189.641 392.757 190.397L386.461 190.935L380.093 191.442L376.945 191.681L375.323 191.791C374.751 191.84 374.226 191.87 373.725 191.9L367.357 192.328C358.867 192.945 350.257 193.323 341.695 193.751L328.768 194.209C326.646 194.289 324.452 194.319 322.329 194.368L315.913 194.498C313.791 194.528 311.597 194.607 309.402 194.607L302.915 194.637C298.599 194.637 294.306 194.717 289.989 194.637C285.672 194.587 281.379 194.557 277.062 194.498L264.136 194.209C246.892 193.702 229.792 192.836 212.811 191.651C195.83 190.447 178.992 188.895 162.321 187.064L149.848 185.64L137.494 184.108C136.468 183.978 135.442 183.839 134.417 183.71L131.34 183.282L125.211 182.446L119.105 181.62L113.262 180.834L107.157 179.948L104.128 179.49L101.099 179.012L89.007 177.101C81.0412 175.758 73.0754 174.444 65.1572 173.001L59.2425 171.926C57.2391 171.578 55.3073 171.2 53.3755 170.822C49.4641 170.075 45.5289 169.349 41.6891 168.592L30.0504 166.254C28.1186 165.886 26.1868 165.477 24.2549 165.079L18.4594 163.865L12.7355 162.661L7.01156 161.427L1.35917 160.163L0.834473 160.054V158.77L2.64705 159.168L8.37099 160.382L14.0949 161.586L19.8904 162.771L25.6621 163.945C27.5939 164.353 29.5257 164.731 31.4575 165.099L43.0962 167.358C46.9599 168.115 50.9428 168.811 54.8064 169.538C56.7383 169.886 58.7178 170.254 60.6496 170.603L66.5644 171.628C74.4109 173.021 82.4483 174.315 90.3664 175.599L102.387 177.45L105.416 177.908L108.445 178.336L114.479 179.201L120.536 180.057L132.747 181.669L135.824 182.068C136.873 182.207 137.899 182.316 138.924 182.446L151.207 183.929L163.609 185.292C180.208 187.034 196.927 188.517 213.789 189.671C230.627 190.766 247.608 191.572 264.66 192.03L277.444 192.298C281.689 192.358 286.006 192.358 290.251 192.378C294.496 192.438 298.789 192.358 303.035 192.328L309.402 192.278C311.525 192.249 313.648 192.189 315.77 192.139L322.138 192.01C324.261 191.95 326.384 191.92 328.506 191.821L341.242 191.333C349.661 190.905 358.151 190.497 366.523 189.86L372.819 189.432C373.344 189.372 373.916 189.343 374.369 189.323L375.967 189.183L379.115 188.944L385.364 188.407L391.589 187.84C399.96 187.093 408.26 186.257 416.607 185.451C433.35 183.819 450.068 182.177 467.169 180.993C484.197 179.818 501.631 179.092 519.137 179.44C527.866 179.629 536.619 180.057 545.181 180.834L546.779 180.973L551.597 181.48C553.719 181.719 555.842 181.988 557.965 182.237L564.142 183.122L570.39 184.138C586.656 187.014 601.443 191.124 614.56 195.951C627.677 200.787 639.268 206.261 649.81 211.983C660.352 217.696 670.011 223.717 679.264 229.758C683.891 232.783 688.47 235.819 693.026 238.854L699.847 243.392C702.16 244.925 704.402 246.398 706.787 247.881C716.184 253.782 726.272 259.525 737.339 264.869C748.405 270.213 760.425 275.209 773.805 279.449C787.113 283.688 801.852 287.132 817.664 289.192C825.583 290.217 833.668 290.883 841.92 291.152L844.996 291.262L848.073 291.292L851.102 291.311L854.321 291.292C855.419 291.292 856.373 291.262 857.398 291.232C858.448 291.212 859.401 291.182 860.427 291.132L863.527 290.993C864.553 290.943 865.579 290.883 866.604 290.804C882.941 289.809 898.706 287.261 913.23 283.827C927.755 280.384 941.206 276.065 953.608 271.318C956.708 270.133 959.785 268.899 962.742 267.665C965.7 266.431 968.657 265.137 971.567 263.854L975.931 261.893L980.177 259.903C981.584 259.256 983.015 258.589 984.422 257.912L988.596 255.902C999.733 250.508 1010.66 244.945 1022.18 239.581C1033.7 234.206 1045.79 228.972 1059.21 224.304L1061.72 223.418L1064.29 222.582L1066.87 221.756L1068.16 221.319C1068.54 221.219 1069.11 221 1069.52 220.891L1074.72 219.338L1076 218.93L1077.34 218.562L1080.11 217.776L1082.87 217.029C1083.78 216.79 1084.76 216.542 1085.64 216.303C1087.52 215.815 1089.38 215.337 1091.24 214.88L1096.97 213.536C1097.92 213.327 1098.9 213.108 1099.85 212.889L1102.76 212.272C1110.54 210.64 1118.51 209.137 1126.69 207.843C1128.67 207.495 1130.74 207.197 1132.79 206.908C1134.84 206.609 1136.89 206.291 1138.97 206.022L1145.19 205.186L1151.51 204.44C1153.56 204.171 1155.69 203.952 1157.81 203.713C1159.93 203.465 1161.98 203.256 1164.11 203.037L1170.47 202.42L1176.84 201.862C1185.33 201.156 1193.89 200.539 1202.5 200.091C1236.92 198.18 1271.5 197.941 1305.92 198.369C1323.16 198.588 1340.33 198.986 1357.43 199.364C1374.72 199.762 1391.85 200.141 1408.95 200.379Z" fill="white" fill-opacity="0.05"/>
</g>
<mask id="mask16_23_579" style="mask-type:luminance" maskUnits="userSpaceOnUse" x="0" y="0" width="468" height="20">
<path d="M0 0.423004H467.097V19.1229H0V0.423004Z" fill="white"/>
</mask>
<g mask="url(#mask16_23_579)">
<path d="M465.165 0.472748C463.877 0.691692 462.589 0.870832 461.254 1.05992C449.472 2.75177 436.808 3.98583 423.619 5.14027C397.265 7.479 368.693 9.92721 337.975 12.0669C307.232 14.2166 274.296 16.0975 239.308 17.0131C204.392 17.8988 167.354 17.8391 129.075 15.6994C127.858 15.6098 126.69 15.5601 125.473 15.5103C124.257 15.4307 123.088 15.3511 121.872 15.2914C119.487 15.1321 117.054 14.9729 114.669 14.8336C112.284 14.6445 109.852 14.4853 107.467 14.2962C106.25 14.2166 105.034 14.1071 103.865 14.0275C102.649 13.9279 101.481 13.8185 100.264 13.709C97.8315 13.4901 95.4465 13.301 92.99 13.092C90.6289 12.8531 88.1723 12.6043 85.7397 12.3953C84.5233 12.2859 83.2831 12.1465 82.1384 12.047C80.922 11.9375 79.6818 11.7783 78.4655 11.639C76.0328 11.3703 73.6479 11.1016 71.1913 10.8328C68.7587 10.5641 66.4452 10.2457 63.9887 9.94712L60.3874 9.51918L59.4334 9.4097L58.5271 9.28033L56.7384 9.04148C54.3534 8.71306 51.8969 8.39459 49.4642 8.04627C47.0792 7.69795 44.6466 7.34962 42.2616 7.0013C32.674 5.57816 23.0387 4.06544 13.3795 2.56268C9.20584 1.92575 4.96059 1.24901 0.715332 0.631981V0.502604H18.0064C26.8785 1.89589 35.5837 3.28918 44.3127 4.58295C46.6976 4.93127 49.0826 5.2796 51.4676 5.62792C53.8287 5.97624 56.2137 6.29471 58.5987 6.62313L60.3874 6.86198L61.2937 7.0013L62.1284 7.10082C63.3448 7.26006 64.5134 7.39939 65.7297 7.55862C68.1147 7.85718 70.5474 8.17565 72.9324 8.44435C75.3173 8.71306 77.7023 8.98176 80.0634 9.25047C81.2321 9.3898 82.4484 9.51918 83.617 9.65851C84.8334 9.75803 86.002 9.89736 87.2184 10.0068C89.6033 10.2457 91.9645 10.4845 94.3494 10.7234C96.7344 10.9423 99.1194 11.1613 101.48 11.3504C102.649 11.4499 103.865 11.5594 105.034 11.6688C106.25 11.7484 107.419 11.8579 108.564 11.9375C110.949 12.1266 113.334 12.3157 115.647 12.4749C118.008 12.6342 120.393 12.7934 122.707 12.9526C123.875 13.0323 125.092 13.1218 126.26 13.2014C127.405 13.2811 128.622 13.3308 129.79 13.4104C167.544 15.6098 204.201 15.779 238.927 14.9928C273.652 14.1668 306.517 12.4451 337.188 10.4049C352.571 9.3898 367.357 8.28512 381.62 7.18044C395.906 6.08571 409.667 4.95118 422.856 3.82659C434.304 2.86124 445.37 1.84613 455.649 0.522508H465.165V0.472748Z" fill="white" fill-opacity="0.05"/>
</g>
<mask id="mask17_23_579" style="mask-type:luminance" maskUnits="userSpaceOnUse" x="0" y="0" width="565" height="73">
<path d="M0 0.423004H564.786V72.6253H0V0.423004Z" fill="white"/>
</mask>
<g mask="url(#mask17_23_579)">
<path d="M27.5223 54.5422C18.531 53.3579 9.65888 52.1039 0.834473 50.8102V47.8046C10.3505 49.2278 19.9381 50.6012 29.5973 51.885C74.9833 57.9757 122.397 62.6233 170.955 65.4696C219.56 68.286 269.406 69.3111 319.372 68.0173C344.39 67.3804 369.337 66.1662 394.236 64.3947C397.313 64.1857 400.485 63.9668 403.561 63.728C406.638 63.4592 409.738 63.2204 412.815 62.9517L417.442 62.5735L419.779 62.3844L422.092 62.1655L431.346 61.2797C443.629 60.1552 455.792 58.7022 467.669 56.9605C479.57 55.2189 491.209 53.1489 502.204 50.5713C513.222 48.0236 523.573 44.9584 532.517 41.3059C536.953 39.4847 541.055 37.4644 544.585 35.3447C548.138 33.195 551.167 30.916 553.6 28.4976C558.489 23.6908 560.349 18.4361 560.803 13.1715C561.184 8.98163 560.731 4.74205 560.278 0.502472H563.569C564.094 4.7122 564.666 8.95177 564.332 13.2212C564.142 15.9083 563.641 18.6252 562.472 21.2824L562.281 21.7899L562.019 22.2975L561.518 23.2927C561.184 23.9595 560.731 24.6064 560.278 25.2831L558.799 27.2138C558.298 27.8607 557.654 28.4976 557.082 29.1445C554.626 31.6723 551.477 34.0907 547.805 36.3399C544.156 38.599 539.91 40.6889 535.331 42.5997C526.149 46.4313 515.536 49.606 504.326 52.2632C493.093 54.9204 481.311 57.0899 469.22 58.8912C457.128 60.6926 444.845 62.1953 432.372 63.3796L423.118 64.2853L418.491 64.7232L413.793 65.1212C410.692 65.3899 407.544 65.6587 404.468 65.9274C401.319 66.1961 398.219 66.415 395.071 66.6539C370.052 68.5049 344.843 69.7689 319.706 70.4655C294.496 71.1621 269.335 71.2716 244.317 70.8636C219.298 70.4655 194.542 69.53 170.048 68.1268C121.109 65.2606 73.3138 60.6428 27.5223 54.5422Z" fill="white" fill-opacity="0.05"/>
</g>
<mask id="mask18_23_579" style="mask-type:luminance" maskUnits="userSpaceOnUse" x="0" y="0" width="822" height="150">
<path d="M0 0.423004H821.218V149.057H0V0.423004Z" fill="white"/>
</mask>
<g mask="url(#mask18_23_579)">
<path d="M820.05 57.0103L819.978 57.9757L819.907 59.9163C819.597 62.4641 819.215 65.0416 818.309 67.5695C817.927 68.8533 817.331 70.0873 816.83 71.3214C816.258 72.5853 815.542 73.8194 814.779 75.0833C813.157 77.5514 811.178 79.9697 808.65 82.3085C808.077 82.8956 807.314 83.4629 806.67 84.0501C805.955 84.6174 805.191 85.1747 804.476 85.7419C803.641 86.2794 802.878 86.8466 802.043 87.384L800.755 88.1802C800.302 88.4489 799.849 88.6977 799.396 88.9664L797.989 89.7128C797.536 89.9517 796.963 90.2005 796.51 90.4393C795.985 90.6782 795.532 90.927 794.96 91.1658L793.362 91.8625L792.527 92.2108L791.621 92.5293L789.88 93.1761C789.617 93.2856 789.307 93.3951 788.974 93.4747L788.091 93.7733L787.185 94.0619C786.851 94.1713 786.66 94.251 786.207 94.3604L784.275 94.8978L783.321 95.1665L782.367 95.4054L780.364 95.9129L778.313 96.3707C776.953 96.6992 775.546 96.938 774.187 97.2067C773.471 97.3361 772.78 97.4456 772.064 97.555C771.349 97.6844 770.657 97.7939 769.941 97.9034L767.747 98.2218C767.056 98.3313 766.269 98.4109 765.577 98.4905C764.098 98.6796 762.62 98.819 761.141 98.9782C758.183 99.2469 755.155 99.4857 752.197 99.6251C746.211 99.9435 740.177 100.023 734.262 100.023C728.276 100.023 722.361 99.8938 716.494 99.7544C704.736 99.4559 693.098 99.0578 681.578 99.1076C680.171 99.1076 678.74 99.1076 677.261 99.1374C676.57 99.1374 675.783 99.1673 675.139 99.1673L673.016 99.217L668.771 99.3564L664.526 99.5654L662.427 99.6748C661.711 99.7047 660.996 99.7843 660.304 99.8142L656.059 100.103C654.628 100.212 653.292 100.352 651.861 100.451C650.454 100.59 649.095 100.7 647.688 100.859C636.693 101.984 625.961 103.546 615.657 105.477C605.378 107.378 595.409 109.557 585.702 111.866C566.217 116.514 547.757 121.639 528.964 126.446C519.591 128.854 510.122 131.163 500.487 133.293C499.247 133.562 498.03 133.83 496.886 134.099C495.646 134.368 494.429 134.607 493.213 134.845C490.756 135.353 488.324 135.841 485.819 136.318L483.959 136.677L482.075 137.025C480.859 137.234 479.642 137.473 478.426 137.692C478.164 137.742 477.782 137.831 477.448 137.851L476.494 138.01L474.634 138.339C473.346 138.548 472.106 138.737 470.842 138.956C469.602 139.165 468.314 139.354 467.097 139.573C465.809 139.762 464.522 139.951 463.305 140.14C460.729 140.488 458.225 140.886 455.721 141.205C450.569 141.822 445.489 142.528 440.338 143.036C430.13 144.161 419.779 144.967 409.476 145.614C406.901 145.773 404.325 145.912 401.749 146.071C400.485 146.151 399.197 146.201 397.909 146.26C396.621 146.31 395.333 146.36 394.046 146.42C388.894 146.688 383.814 146.798 378.734 146.977C368.503 147.246 358.414 147.415 348.445 147.415C328.387 147.435 308.759 147.007 289.655 146.36C251.4 145.076 214.862 142.767 180.662 139.652C146.438 136.537 114.55 132.537 85.3583 127.889C56.1424 123.251 29.7169 117.987 6.32025 112.344C4.43612 111.896 2.57584 111.438 0.787109 111V109.338C3.14824 109.935 5.60475 110.493 8.10898 111.09C19.8192 113.847 32.2211 116.484 45.41 119.002C58.5989 121.559 72.4317 123.968 86.9562 126.227C145.03 135.273 214.028 141.663 290.18 144.111C309.212 144.728 328.697 145.156 348.516 145.106C358.414 145.106 368.383 144.917 378.472 144.648C383.504 144.459 388.584 144.35 393.592 144.081C394.88 144.031 396.097 143.971 397.385 143.922C398.672 143.872 399.889 143.812 401.177 143.733C403.681 143.573 406.257 143.434 408.761 143.275C411.337 143.145 413.841 142.927 416.369 142.737C417.657 142.658 418.873 142.548 420.161 142.469L422.093 142.339L423.953 142.18C426.457 141.961 429.033 141.722 431.537 141.503C432.825 141.394 434.042 141.265 435.329 141.125C436.617 140.996 437.834 140.856 439.122 140.727C444.202 140.239 449.162 139.573 454.171 138.956C456.675 138.607 459.132 138.259 461.636 137.911C462.852 137.722 464.14 137.562 465.356 137.373C466.596 137.154 467.813 136.965 469.029 136.756C470.246 136.537 471.486 136.348 472.702 136.139L474.562 135.841L475.469 135.681C475.779 135.622 475.969 135.572 476.351 135.522C477.591 135.303 478.808 135.064 480.024 134.845L481.884 134.497L483.697 134.149C486.082 133.661 488.514 133.213 490.899 132.696C492.116 132.457 493.284 132.218 494.501 131.949C495.646 131.681 496.886 131.432 498.03 131.163C507.547 129.073 516.872 126.794 526.269 124.426C544.991 119.708 563.57 114.573 583.317 109.935C593.143 107.597 603.375 105.417 613.916 103.516C624.482 101.586 635.477 100.023 646.853 98.8986C658.229 97.774 670.011 97.2067 681.769 97.2067C693.598 97.2067 705.237 97.6645 716.947 98.0128C722.814 98.1721 728.658 98.3313 734.501 98.3612C740.368 98.391 746.211 98.3313 752.006 98.0327C754.892 97.9034 757.778 97.6844 760.616 97.4456C762.023 97.3162 763.454 97.1769 764.861 97.0176C765.577 96.938 766.269 96.8584 766.984 96.7788L769.035 96.4802C769.751 96.4006 770.395 96.2613 771.11 96.1618C771.802 96.0523 772.446 95.9428 773.161 95.8333C774.449 95.5646 775.785 95.3556 777.073 95.0571L779.004 94.6291L780.888 94.1713L781.842 93.9325L782.749 93.6837L784.537 93.1761C794.006 90.3298 801.208 86.2495 806.098 81.7711C808.53 79.5119 810.534 77.1533 812.132 74.7648C812.895 73.5507 813.61 72.3465 814.183 71.1124C814.779 69.8783 815.423 68.6144 815.733 67.3804C815.924 66.7633 816.186 66.1463 816.377 65.5293L816.83 63.6483C816.902 63.3199 817.021 63.0313 817.021 62.7029L817.14 61.7674L817.402 59.8865L817.546 57.9757L817.593 57.0402L817.546 56.1047L817.474 54.1939L817.212 52.293C816.496 47.2175 814.517 42.1718 811.607 37.1957C811.297 36.5787 810.844 35.9617 810.462 35.3447C810.081 34.7276 809.699 34.1106 809.246 33.4936C808.34 32.2595 807.505 31.0255 806.479 29.8213L805.001 27.9901L803.379 26.1888L802.616 25.2831L801.781 24.3974L800.04 22.5961C795.294 17.839 789.808 13.2013 783.631 8.68307C779.839 5.92635 775.856 3.17958 771.611 0.502472H773.996C777.979 3.0502 781.771 5.62779 785.372 8.25513C791.549 12.7933 797.082 17.4707 801.9 22.2477C806.67 27.0546 810.724 31.9411 813.73 36.9569C816.758 41.9827 818.81 47.0782 819.597 52.2035C819.668 52.8503 819.787 53.4972 819.859 54.1441L819.978 56.0748L820.05 57.0103Z" fill="white" fill-opacity="0.05"/>
</g>
</svg>
