<svg width="46" height="46" viewBox="0 0 46 46" fill="none" xmlns="http://www.w3.org/2000/svg">
<circle cx="23" cy="23" r="22.5" fill="#EEF8F2"/>
<mask id="mask0_1152_7819" style="mask-type:luminance" maskUnits="userSpaceOnUse" x="11" y="12" width="23" height="21">
<path d="M11.4287 12.7158H33.6213V32.0015H11.4287V12.7158Z" fill="white"/>
</mask>
<g mask="url(#mask0_1152_7819)">
<path d="M29.0866 30.0534C28.0111 30.0534 26.9354 30.0534 25.8597 30.0534C23.7089 30.0534 21.5575 30.0534 19.4063 30.0534C18.2909 30.0534 17.1751 30.0534 16.0594 30.0534C15.5021 30.0534 14.9449 30.0534 14.3876 30.0534C14.1976 30.0534 14.0064 30.0573 13.8147 30.0612C13.8965 29.922 13.9783 29.783 14.0601 29.6439C14.3322 29.1816 14.604 28.7196 14.876 28.2575C15.4242 27.3257 15.9727 26.3938 16.5209 25.4622C17.6156 23.6022 18.7106 21.7416 19.8054 19.8813C20.3519 18.9527 20.8984 18.024 21.4451 17.095C21.7196 16.6286 21.9941 16.162 22.2686 15.6956C22.3421 15.5708 22.4156 15.446 22.4891 15.3212C22.5665 15.4523 22.6439 15.5835 22.7213 15.7146C22.9919 16.1727 23.2627 16.6308 23.533 17.0889C24.0832 18.0206 24.6334 18.9522 25.1836 19.8838C26.2807 21.7421 27.3782 23.6005 28.4758 25.4588C29.3813 26.9924 30.287 28.5262 31.1928 30.0597C31.027 30.0565 30.8614 30.0534 30.6973 30.0534C30.1605 30.0534 29.6236 30.0534 29.0866 30.0534ZM22.0246 14.5232C22.0283 14.529 22.032 14.5346 22.0354 14.5405C22.0188 14.5268 22.0168 14.5202 22.0246 14.5232ZM33.4675 30.1232C33.4465 30.0583 33.4184 29.9948 33.3825 29.934C33.3686 29.9069 33.3532 29.8807 33.3366 29.8558C31.1571 26.1655 28.9779 22.4752 26.7984 18.7846C26.2485 17.853 25.6983 16.9214 25.1482 15.9898C24.8781 15.5327 24.608 15.0753 24.3382 14.6182C24.0478 14.1266 23.7819 13.6077 23.4297 13.1583C23.1536 12.8062 22.5985 12.6863 22.1831 12.7855C21.7292 12.8936 21.4635 13.2209 21.2398 13.6011C20.9653 14.0675 20.6906 14.5339 20.4161 15.0006C19.8686 15.931 19.3211 16.8614 18.7734 17.792C16.5856 21.5096 14.3976 25.2273 12.2099 28.9452C12.0797 29.1662 11.9495 29.3874 11.8196 29.6084C11.6282 29.9335 11.4528 30.2321 11.4414 30.6228C11.4306 30.996 11.6126 31.3877 11.8807 31.6404C12.2081 31.9491 12.5947 32.0038 13.024 32.0038C14.0955 32.0038 15.1668 32.0038 16.2384 32.0038C18.3856 32.0038 20.5328 32.0038 22.6798 32.0038C24.5745 32.0038 26.4693 32.0038 28.364 32.0038C29.3088 32.0038 30.2536 32.0038 31.1986 32.0038C31.4348 32.0038 31.6711 32.0038 31.9073 32.0038C32.0145 32.0038 32.1217 32.0038 32.2291 32.0038C32.4787 32.0038 32.6528 31.9359 32.8743 31.8316C33.204 31.6768 33.3935 31.3298 33.5136 31.0074C33.6198 30.723 33.5754 30.4035 33.4675 30.1232Z" fill="#5BBB7B"/>
</g>
<path d="M21.6868 25.7249H23.3347L23.6475 20.4031C23.6519 20.3648 23.6543 20.3259 23.6543 20.2866C23.6543 19.6942 23.142 19.2139 22.51 19.2139C21.878 19.2139 21.3657 19.6942 21.3657 20.2866C21.3657 20.3325 21.3691 20.378 21.3752 20.4224L21.6868 25.7249Z" fill="#5BBB7B"/>
<path d="M22.512 26.167C21.7616 26.167 21.2451 26.6959 21.2451 27.4466C21.2451 28.1723 21.7616 28.7137 22.4996 28.7137H22.512C23.2742 28.7137 23.7662 28.1723 23.7662 27.4466C23.7538 26.6959 23.2619 26.167 22.512 26.167Z" fill="#5BBB7B"/>
</svg>
