<svg width="18" height="18" viewBox="0 0 18 18" fill="none" xmlns="http://www.w3.org/2000/svg">
<path d="M9.5625 6.1875C9.5625 5.87684 9.31066 5.625 9 5.625C8.68934 5.625 8.4375 5.87684 8.4375 6.1875V14.0625C8.4375 14.3732 8.68934 14.625 9 14.625C9.31066 14.625 9.5625 14.3732 9.5625 14.0625V6.1875Z" fill="#FF6161"/>
<path d="M6.44868 5.62536C6.75914 5.61428 7.01981 5.85697 7.0309 6.16743L7.31215 14.0424C7.32324 14.3529 7.08055 14.6136 6.77008 14.6246C6.45962 14.6357 6.19895 14.393 6.18787 14.0826L5.90662 6.20758C5.89553 5.89712 6.13822 5.63645 6.44868 5.62536Z" fill="#FF6161"/>
<path d="M12.0934 6.20758C12.1045 5.89712 11.8618 5.63645 11.5513 5.62536C11.2409 5.61428 10.9802 5.85697 10.9691 6.16743L10.6879 14.0424C10.6768 14.3529 10.9195 14.6136 11.2299 14.6246C11.5404 14.6357 11.8011 14.393 11.8121 14.0826L12.0934 6.20758Z" fill="#FF6161"/>
<path fill-rule="evenodd" clip-rule="evenodd" d="M6.29357 1.99348C6.22313 2.16425 6.18708 2.34725 6.1875 2.53197V3.375H2.8125C2.50184 3.375 2.25 3.62684 2.25 3.9375C2.25 4.24816 2.50184 4.5 2.8125 4.5H3.40908L4.07906 15.2198C4.12793 16.1397 4.82175 16.875 5.76564 16.875H12.2344C13.1872 16.875 13.8651 16.1331 13.9208 15.2218L14.591 4.5H15.1875C15.4982 4.5 15.75 4.24816 15.75 3.9375C15.75 3.62684 15.4982 3.375 15.1875 3.375H11.8125V2.53209C11.8129 2.34732 11.7769 2.16429 11.7064 1.99348C11.6359 1.82243 11.5322 1.667 11.4013 1.53616C11.2705 1.40532 11.1151 1.30163 10.944 1.23107C10.7733 1.16063 10.5903 1.12458 10.4055 1.125H7.59447C7.40975 1.12458 7.22675 1.16063 7.05598 1.23107C6.88492 1.30163 6.7295 1.40532 6.59866 1.53616C6.46782 1.667 6.36413 1.82242 6.29357 1.99348ZM7.59211 2.25C7.55536 2.24989 7.51895 2.25705 7.48498 2.27107C7.45101 2.28508 7.42014 2.30567 7.39416 2.33166C7.36817 2.35764 7.34758 2.38851 7.33357 2.42248C7.31955 2.45645 7.31239 2.49286 7.3125 2.52961L7.3125 2.53125V3.375H10.6875V2.53125L10.6875 2.52961C10.6876 2.49286 10.6805 2.45645 10.6664 2.42248C10.6524 2.3885 10.6318 2.35764 10.6059 2.33166C10.5799 2.30567 10.549 2.28508 10.515 2.27107C10.4811 2.25705 10.4446 2.24989 10.4079 2.25L10.4063 2.25H7.59375L7.59211 2.25ZM6.75 4.5L6.74798 4.5H4.53627L5.20205 15.1524L5.2024 15.1587C5.22185 15.5372 5.47319 15.75 5.76564 15.75H12.2344C12.524 15.75 12.7742 15.542 12.7979 15.1532L13.4638 4.5H11.252L11.25 4.5L11.248 4.5H6.75203L6.75 4.5Z" fill="#FF6161"/>
</svg>
