<svg width="46" height="46" viewBox="0 0 46 46" fill="none" xmlns="http://www.w3.org/2000/svg">
<circle cx="23" cy="23" r="22.5" fill="#EEF8F2"/>
<mask id="mask0_1462_8687" style="mask-type:luminance" maskUnits="userSpaceOnUse" x="12" y="11" width="22" height="24">
<path d="M12 11H33.666V34.8824H12V11Z" fill="white"/>
</mask>
<g mask="url(#mask0_1462_8687)">
<path d="M33.6407 24.018C33.6412 24.1803 33.638 24.3429 33.631 24.505C33.6241 24.6673 33.6134 24.8294 33.5993 24.9912C33.585 25.1531 33.5672 25.3145 33.5457 25.4755C33.5242 25.6366 33.499 25.7971 33.4703 25.9569C33.4416 26.1167 33.4093 26.276 33.3734 26.4344C33.3376 26.5928 33.298 26.7503 33.255 26.9071C33.212 27.0636 33.1655 27.2192 33.1156 27.3737C33.0654 27.5284 33.012 27.6817 32.9551 27.8339C32.8982 27.986 32.8379 28.1368 32.7743 28.2861C32.7105 28.4355 32.6434 28.5833 32.5731 28.7297C32.5026 28.8763 32.429 29.0208 32.352 29.1639C32.2753 29.3071 32.195 29.4483 32.1118 29.5878C32.0285 29.7272 31.9423 29.8646 31.8528 30.0001C31.7633 30.1356 31.6708 30.2692 31.5753 30.4006C31.4798 30.5319 31.3815 30.661 31.2803 30.7879C31.179 30.9149 31.0747 31.0395 30.9679 31.1616C30.861 31.2839 30.7514 31.4037 30.639 31.5209C30.5267 31.6382 30.412 31.7529 30.2945 31.865C30.177 31.9772 30.057 32.0865 29.9347 32.1931C29.8121 32.2997 29.6875 32.4036 29.5603 32.5046C29.4334 32.6057 29.3039 32.7039 29.1725 32.799C29.041 32.8942 28.9073 32.9865 28.7718 33.0755C28.6361 33.1648 28.4985 33.2508 28.359 33.3338C28.2194 33.4168 28.0781 33.4966 27.9349 33.5732C27.7918 33.6497 27.6471 33.723 27.5007 33.7931C27.3541 33.8631 27.2063 33.93 27.0567 33.9933C26.9073 34.0567 26.7566 34.1166 26.6044 34.173C26.4523 34.2296 26.2989 34.2828 26.1445 34.3323C25.9898 34.382 25.8344 34.428 25.6776 34.4708C25.5211 34.5134 25.3636 34.5525 25.2052 34.5878C25.0468 34.6234 24.8877 34.6554 24.7279 34.6836C24.5681 34.712 24.4076 34.7367 24.2469 34.7578C24.086 34.7788 23.9246 34.7962 23.763 34.8101C23.6011 34.8239 23.4392 34.8339 23.2771 34.8403C23.1148 34.847 22.9527 34.8498 22.7904 34.8489C22.628 34.848 22.4659 34.8436 22.3039 34.8355C22.1418 34.8272 21.9799 34.8154 21.8183 34.7999C21.6568 34.7844 21.4957 34.7654 21.335 34.7425C21.1743 34.7199 21.0142 34.6935 20.8547 34.6634C20.6951 34.6336 20.5365 34.6001 20.3783 34.5629C20.2204 34.5256 20.0634 34.4849 19.9071 34.4408C19.751 34.3966 19.5958 34.3487 19.4418 34.2976C19.2878 34.2463 19.1352 34.1917 18.9835 34.1334C18.8321 34.0754 18.6817 34.0139 18.5331 33.9489C18.3844 33.8842 18.2371 33.8157 18.0914 33.7443C17.9457 33.6728 17.8017 33.5979 17.6592 33.5197C17.517 33.4418 17.3764 33.3607 17.2379 33.2763C17.0992 33.1919 16.9625 33.1042 16.8277 33.0136C16.6931 32.9232 16.5604 32.8295 16.43 32.7328C16.2993 32.6364 16.1712 32.537 16.0452 32.4345C15.9189 32.3321 15.7954 32.2271 15.674 32.1191C15.5529 32.0112 15.434 31.9006 15.3177 31.7873C15.2014 31.674 15.0876 31.5582 14.9766 31.4398C14.8656 31.3211 14.7572 31.2004 14.6515 31.077C14.5458 30.9537 14.4432 30.8281 14.343 30.7C14.2431 30.5722 14.146 30.442 14.0519 30.3095C13.9578 30.1772 13.8667 30.0429 13.7788 29.9064C13.6907 29.77 13.6059 29.6315 13.524 29.4911C13.4421 29.351 13.3635 29.2088 13.2881 29.065C13.2128 28.9211 13.1406 28.7757 13.0717 28.6286C13.0028 28.4815 12.9374 28.3329 12.8751 28.1828C12.8129 28.0327 12.7542 27.8815 12.6989 27.7286C12.6434 27.576 12.5917 27.422 12.5433 27.2671C12.4948 27.1119 12.4499 26.9558 12.4085 26.7988C12.3671 26.6418 12.3294 26.4839 12.295 26.325C12.2607 26.1662 12.2302 26.0066 12.2032 25.8466C12.1761 25.6863 12.1525 25.5256 12.1326 25.3645C12.113 25.2033 12.0968 25.0417 12.0841 24.8796C12.0716 24.7177 12.0628 24.5556 12.0575 24.393C12.0522 24.2307 12.0506 24.0684 12.0526 23.9058C12.0547 23.7435 12.0605 23.5812 12.07 23.4191C12.0792 23.2567 12.0924 23.0949 12.1091 22.9332C12.1257 22.7718 12.1461 22.6107 12.1699 22.45C12.1939 22.2892 12.2214 22.1292 12.2527 21.9697C12.2839 21.8103 12.3186 21.6517 12.3567 21.4938C12.3951 21.3361 12.437 21.1791 12.4823 21.023C12.5276 20.8671 12.5766 20.7122 12.6289 20.5584C12.6814 20.4047 12.7371 20.2523 12.7963 20.101C12.8555 19.9498 12.9182 19.8 12.9841 19.6515C13.0502 19.5031 13.1193 19.3562 13.1919 19.2108C13.2646 19.0656 13.3404 18.922 13.4195 18.7802C13.4986 18.6382 13.5807 18.4983 13.6662 18.3601C13.7515 18.222 13.8399 18.0858 13.9314 17.9517C14.023 17.8173 14.1174 17.6853 14.2149 17.5556C14.3123 17.4256 14.4126 17.298 14.516 17.1727C14.6191 17.0473 14.725 16.9243 14.834 16.8036C14.9426 16.6831 15.0541 16.565 15.1681 16.4496C15.2821 16.334 15.3989 16.2211 15.518 16.1108C15.637 16.0005 15.7587 15.893 15.8826 15.788C16.0068 15.6833 16.1331 15.5813 16.2616 15.4823C16.3902 15.3831 16.5211 15.2869 16.654 15.1937C16.787 15.1005 16.9218 15.0106 17.0589 14.9234C17.1958 14.8362 17.3348 14.7523 17.4756 14.6716C17.6162 14.5907 17.7589 14.513 17.9032 14.4387C18.0475 14.3643 18.1931 14.2931 18.3407 14.2253C18.4882 14.1575 18.6371 14.093 18.7874 14.032C18.8524 14.0102 18.9185 13.9948 18.9863 13.9855C19.054 13.9763 19.122 13.9735 19.1905 13.9772C19.2587 13.9809 19.326 13.9908 19.3923 14.0072C19.4587 14.0237 19.523 14.0461 19.5852 14.0748C19.6472 14.1034 19.7061 14.1374 19.7619 14.1772C19.8174 14.217 19.8689 14.2616 19.9161 14.3111C19.9633 14.3606 20.0056 14.414 20.0426 14.4716C20.0798 14.5289 20.1113 14.5895 20.1369 14.6529C20.1626 14.7162 20.182 14.7817 20.1954 14.8487C20.2088 14.9158 20.2158 14.9835 20.2162 15.052C20.2167 15.1204 20.2109 15.1884 20.1984 15.2557C20.1862 15.323 20.1677 15.3884 20.1429 15.4522C20.1184 15.5161 20.0879 15.5771 20.0516 15.6352C20.0155 15.6932 19.9741 15.7473 19.9277 15.7975C19.8812 15.8477 19.8305 15.8932 19.7755 15.9337C19.7205 15.9744 19.662 16.0095 19.6005 16.0389C19.4474 16.1013 19.2964 16.1679 19.1472 16.2389C18.9983 16.3099 18.8512 16.3851 18.7065 16.4644C18.5617 16.5439 18.4193 16.6274 18.2792 16.7148C18.1393 16.8024 18.0019 16.894 17.8671 16.9895C17.7323 17.085 17.6005 17.1842 17.4715 17.2873C17.3424 17.3905 17.2164 17.4971 17.0934 17.6074C16.9704 17.7177 16.8508 17.8314 16.7343 17.9487C16.618 18.0659 16.5049 18.1864 16.3955 18.3101C16.2859 18.4336 16.18 18.5603 16.0778 18.6903C15.9756 18.82 15.8771 18.9525 15.7825 19.088C15.6879 19.2235 15.5973 19.3613 15.5106 19.5021C15.4238 19.6427 15.3411 19.7856 15.2627 19.9311C15.1841 20.0765 15.1098 20.2241 15.0398 20.3737C14.9697 20.5233 14.904 20.6747 14.8427 20.8283C14.7812 20.9816 14.7244 21.1368 14.6719 21.2935C14.6194 21.4501 14.5715 21.6082 14.5283 21.7676C14.4848 21.9271 14.4459 22.0876 14.4117 22.2495C14.3775 22.4111 14.3481 22.5737 14.3232 22.7369C14.2984 22.9004 14.2781 23.0643 14.2628 23.2288C14.2473 23.3934 14.2364 23.5583 14.2304 23.7234C14.2244 23.8885 14.2233 24.0538 14.2267 24.2189C14.2302 24.3843 14.2383 24.5491 14.2512 24.714C14.2642 24.8786 14.282 25.043 14.3042 25.2068C14.3266 25.3705 14.3537 25.5335 14.3854 25.6956C14.417 25.8577 14.4533 26.0189 14.4943 26.1791C14.5352 26.3391 14.5808 26.498 14.6307 26.6555C14.6809 26.8129 14.7355 26.9688 14.7944 27.1233C14.8534 27.2775 14.9167 27.4301 14.9845 27.5809C15.0522 27.7314 15.1242 27.8801 15.2005 28.0267C15.2768 28.1733 15.3572 28.3176 15.4417 28.4596C15.5263 28.6016 15.6148 28.7408 15.7073 28.8777C15.7998 29.0145 15.8963 29.1487 15.9966 29.28C16.0967 29.4114 16.2008 29.5397 16.3083 29.665C16.4159 29.7903 16.5271 29.9124 16.6415 30.0315C16.7562 30.1504 16.8742 30.266 16.9953 30.3782C17.1165 30.4903 17.2409 30.599 17.3683 30.704C17.496 30.8092 17.6262 30.9105 17.7596 31.008C17.8928 31.1056 18.0287 31.199 18.1675 31.289C18.306 31.3787 18.447 31.4643 18.5906 31.5459C18.7342 31.6275 18.8802 31.705 19.0281 31.7783C19.1761 31.8516 19.326 31.9205 19.4779 31.985C19.6301 32.0498 19.7836 32.1099 19.939 32.1656C20.0944 32.2216 20.2514 32.2729 20.4098 32.3196C20.568 32.3663 20.7275 32.4087 20.8884 32.4461C21.0492 32.4838 21.2108 32.5169 21.3736 32.5451C21.5361 32.5733 21.6996 32.5971 21.8636 32.6158C22.0275 32.6348 22.1919 32.6491 22.3568 32.6586C22.5217 32.6681 22.6865 32.6727 22.8517 32.6727C23.0168 32.6727 23.1819 32.6681 23.3467 32.6586C23.5114 32.6491 23.6758 32.6348 23.84 32.6158C24.0039 32.5971 24.1672 32.5733 24.33 32.5451C24.4925 32.5169 24.6544 32.4838 24.8151 32.4461C24.9758 32.4087 25.1354 32.3663 25.2938 32.3196C25.4521 32.2729 25.6089 32.2216 25.7643 32.1656C25.9199 32.1099 26.0735 32.0498 26.2254 31.985C26.3773 31.9205 26.5274 31.8516 26.6754 31.7783C26.8234 31.705 26.9693 31.6275 27.1127 31.5459C27.2563 31.4643 27.3973 31.3787 27.5361 31.289C27.6748 31.199 27.8108 31.1056 27.944 31.008C28.0772 30.9105 28.2076 30.8092 28.335 30.704C28.4624 30.599 28.5868 30.4903 28.708 30.3782C28.8294 30.266 28.9473 30.1504 29.0618 30.0315C29.1765 29.9124 29.2875 29.7903 29.3952 29.665C29.5027 29.5397 29.6066 29.4114 29.7069 29.28C29.807 29.1487 29.9035 29.0145 29.996 28.8777C30.0887 28.7408 30.1773 28.6016 30.2617 28.4596C30.3463 28.3176 30.4268 28.1733 30.5028 28.0267C30.5791 27.8801 30.6513 27.7314 30.719 27.5809C30.7868 27.4301 30.8502 27.2775 30.9091 27.1233C30.9681 26.9688 31.0227 26.8129 31.0726 26.6555C31.1228 26.498 31.1681 26.3391 31.2093 26.1791C31.2502 26.0189 31.2865 25.8577 31.3182 25.6956C31.3499 25.5335 31.3769 25.3705 31.3991 25.2068C31.4215 25.043 31.4391 24.8786 31.4521 24.714C31.465 24.5491 31.4733 24.3843 31.4768 24.2189C31.4803 24.0538 31.4789 23.8885 31.4729 23.7234C31.4669 23.5583 31.4562 23.3934 31.4407 23.2288C31.4252 23.0643 31.4051 22.9004 31.3801 22.7369C31.3554 22.5737 31.3258 22.4111 31.2916 22.2495C31.2576 22.0876 31.2187 21.9271 31.1753 21.7676C31.1318 21.6082 31.0839 21.4501 31.0314 21.2935C30.979 21.1368 30.9221 20.9816 30.8608 20.8283C30.7995 20.6747 30.7336 20.5233 30.6635 20.3737C30.5937 20.2241 30.5193 20.0765 30.4409 19.9311C30.3622 19.7856 30.2797 19.6427 30.193 19.5021C30.1063 19.3613 30.0156 19.2235 29.921 19.088C29.8262 18.9525 29.728 18.82 29.6255 18.6903C29.5233 18.5603 29.4174 18.4336 29.308 18.3101C29.1984 18.1864 29.0856 18.0659 28.969 17.9487C28.8527 17.8314 28.7329 17.7177 28.6102 17.6074C28.4871 17.4971 28.3611 17.3905 28.2321 17.2873C28.1031 17.1842 27.971 17.085 27.8364 16.9895C27.7016 16.894 27.5643 16.8024 27.4241 16.7148C27.2842 16.6274 27.1418 16.5439 26.997 16.4644C26.8523 16.3851 26.7052 16.3099 26.5561 16.2389C26.4069 16.1679 26.2559 16.1013 26.1031 16.0389C26.0682 16.0271 26.0339 16.0137 26.0002 15.9984C25.9667 15.9832 25.934 15.9663 25.9021 15.9478C25.8702 15.9291 25.8395 15.9089 25.8096 15.8872C25.7798 15.8655 25.7511 15.8421 25.7236 15.8176C25.6963 15.7929 25.6702 15.767 25.6455 15.7394C25.6207 15.7122 25.5974 15.6837 25.5754 15.6539C25.5534 15.6243 25.5333 15.5935 25.5146 15.5616C25.4959 15.5299 25.4787 15.4971 25.4632 15.4636C25.448 15.43 25.4341 15.3958 25.4223 15.3609C25.4103 15.326 25.4004 15.2906 25.392 15.2545C25.3837 15.2185 25.3772 15.1822 25.3726 15.1456C25.368 15.1091 25.3654 15.0723 25.3645 15.0353C25.3636 14.9983 25.3647 14.9616 25.3675 14.9248C25.3705 14.888 25.3754 14.8515 25.3819 14.8152C25.3886 14.7789 25.3971 14.7428 25.4073 14.7074C25.4177 14.672 25.4297 14.6371 25.4436 14.6029C25.4575 14.5687 25.473 14.5354 25.4903 14.5028C25.5076 14.4702 25.5264 14.4385 25.547 14.4077C25.5675 14.377 25.5895 14.3474 25.6129 14.319C25.6364 14.2905 25.6614 14.2635 25.6875 14.2376C25.7139 14.2117 25.7414 14.1871 25.7703 14.164C25.799 14.1409 25.8288 14.1194 25.8598 14.0993C25.8908 14.0794 25.9227 14.0609 25.9556 14.044C25.9884 14.0274 26.0221 14.0123 26.0566 13.9989C26.0908 13.9855 26.126 13.9742 26.1614 13.9642C26.197 13.9545 26.233 13.9467 26.2693 13.9404C26.3056 13.9344 26.3424 13.9302 26.3792 13.9279C26.4159 13.9256 26.4527 13.9252 26.4897 13.9265C26.5265 13.9279 26.5632 13.9312 26.5998 13.9363C26.6363 13.9416 26.6724 13.9485 26.7082 13.9573C26.7441 13.9663 26.7792 13.9769 26.8139 13.9894C26.8486 14.0019 26.8826 14.016 26.9159 14.032C27.1628 14.1314 27.4059 14.2399 27.6447 14.3576C27.8836 14.475 28.1179 14.6013 28.3475 14.7363C28.5769 14.8714 28.8012 15.0147 29.0199 15.1664C29.2387 15.3181 29.4516 15.4777 29.6586 15.6453C29.8655 15.813 30.066 15.988 30.26 16.1705C30.454 16.3529 30.6409 16.5423 30.8208 16.7388C31.0007 16.9352 31.173 17.1382 31.3378 17.3475C31.5027 17.5567 31.6595 17.7718 31.8082 17.9926C31.9571 18.2137 32.0974 18.4398 32.2295 18.6713C32.3613 18.9028 32.4845 19.1386 32.599 19.3793C32.7135 19.6198 32.8187 19.8643 32.9151 20.1128C33.0113 20.3612 33.0982 20.613 33.1757 20.8678C33.2532 21.1226 33.3212 21.3802 33.3797 21.6402C33.4379 21.9001 33.4867 22.1618 33.5256 22.4254C33.5644 22.689 33.5936 22.9538 33.6127 23.2195C33.6319 23.4854 33.6414 23.7514 33.6407 24.018ZM22.8463 23.3127C22.8817 23.3127 22.9173 23.3111 22.9525 23.3076C22.9879 23.3041 23.023 23.2988 23.0577 23.2919C23.0926 23.2849 23.1271 23.2764 23.1608 23.266C23.1948 23.2558 23.2283 23.2438 23.2609 23.2301C23.2938 23.2165 23.3259 23.2015 23.3571 23.1846C23.3886 23.1679 23.4189 23.1497 23.4485 23.13C23.4778 23.1101 23.5065 23.0891 23.5338 23.0664C23.5613 23.044 23.5875 23.0202 23.6127 22.995C23.6379 22.97 23.6617 22.9436 23.6841 22.9161C23.7065 22.8886 23.7278 22.8602 23.7475 22.8306C23.7671 22.8012 23.7854 22.7707 23.802 22.7392C23.8189 22.708 23.8339 22.6759 23.8476 22.643C23.8612 22.6102 23.873 22.5769 23.8834 22.5429C23.8938 22.5089 23.9024 22.4745 23.9093 22.4395C23.9163 22.4049 23.9214 22.3697 23.9248 22.3343C23.9283 22.299 23.9301 22.2636 23.9301 22.228V12.0847C23.9301 12.0491 23.9283 12.0137 23.9248 11.9784C23.9214 11.943 23.9163 11.9078 23.9093 11.8732C23.9024 11.8382 23.8938 11.8038 23.8834 11.7698C23.873 11.7358 23.8612 11.7025 23.8476 11.6697C23.8339 11.6368 23.8189 11.6047 23.802 11.5732C23.7854 11.542 23.7671 11.5115 23.7475 11.4821C23.7278 11.4525 23.7065 11.4241 23.6841 11.3966C23.6617 11.3691 23.6379 11.3427 23.6127 11.3177C23.5875 11.2925 23.5613 11.2687 23.5338 11.246C23.5065 11.2236 23.4778 11.2026 23.4485 11.1827C23.4189 11.163 23.3886 11.1448 23.3571 11.1279C23.3259 11.1112 23.2938 11.096 23.2609 11.0826C23.2283 11.0689 23.1948 11.0569 23.1608 11.0467C23.1271 11.0363 23.0926 11.0277 23.0577 11.0208C23.023 11.0139 22.9879 11.0086 22.9525 11.0051C22.9173 11.0016 22.8817 11 22.8463 11C22.8107 11 22.7753 11.0016 22.7402 11.0051C22.7048 11.0086 22.6697 11.0139 22.635 11.0208C22.6001 11.0277 22.5656 11.0363 22.5316 11.0467C22.4976 11.0569 22.4643 11.0689 22.4315 11.0826C22.3987 11.096 22.3667 11.1112 22.3355 11.1279C22.3041 11.1448 22.2738 11.163 22.2442 11.1827C22.2146 11.2026 22.1862 11.2236 22.1589 11.246C22.1313 11.2687 22.105 11.2925 22.08 11.3177C22.0548 11.3427 22.031 11.3691 22.0086 11.3966C21.9859 11.4241 21.9649 11.4525 21.9452 11.4821C21.9255 11.5115 21.9073 11.542 21.8904 11.5732C21.8737 11.6047 21.8587 11.6368 21.8451 11.6697C21.8314 11.7025 21.8194 11.7358 21.8092 11.7698C21.7988 11.8038 21.7903 11.8382 21.7833 11.8732C21.7764 11.9078 21.7713 11.943 21.7678 11.9784C21.7644 12.0137 21.7625 12.0491 21.7625 12.0847V22.228C21.7625 22.2636 21.7644 22.299 21.7678 22.3343C21.7713 22.3697 21.7764 22.4049 21.7833 22.4395C21.7903 22.4745 21.7988 22.5089 21.8092 22.5429C21.8194 22.5769 21.8314 22.6102 21.8451 22.643C21.8587 22.6759 21.8737 22.708 21.8904 22.7392C21.9073 22.7707 21.9255 22.8012 21.9452 22.8306C21.9649 22.8602 21.9859 22.8886 22.0086 22.9161C22.031 22.9436 22.0548 22.97 22.08 22.995C22.105 23.0202 22.1313 23.044 22.1589 23.0664C22.1862 23.0891 22.2146 23.1101 22.2442 23.13C22.2738 23.1497 22.3041 23.1679 22.3355 23.1846C22.3667 23.2015 22.3987 23.2165 22.4315 23.2301C22.4643 23.2438 22.4976 23.2558 22.5316 23.266C22.5656 23.2764 22.6001 23.2849 22.635 23.2919C22.6697 23.2988 22.7048 23.3041 22.7402 23.3076C22.7753 23.3111 22.8107 23.3127 22.8463 23.3127Z" fill="#5BBB7B"/>
</g>
</svg>
