<svg width="100" height="64" viewBox="0 0 100 64" fill="none" xmlns="http://www.w3.org/2000/svg">
<path d="M0 30.2311H13.8794L13.5904 31.8964H2.28523V40.7232H10.7271L10.4449 42.3885H2.28523V51.8721H14.3096V53.5374H0V30.2311Z" fill="#64BFD9" fill-opacity="0.4"/>
<path d="M23.8915 54.0377C22.8195 54.0377 21.8214 53.811 20.8939 53.3576C19.9697 52.9002 19.1698 52.2767 18.4944 51.489C17.8172 50.7033 17.2812 49.7729 16.888 48.6979C16.4981 47.6189 16.3032 46.4599 16.3032 45.2187C16.3032 43.9737 16.4981 42.8146 16.888 41.7396C17.2812 40.6607 17.8172 39.7283 18.4944 38.9406C19.1698 38.1549 19.9697 37.5334 20.8939 37.0799C21.8214 36.6225 22.8195 36.3919 23.8915 36.3919C24.6342 36.3919 25.303 36.5326 25.8945 36.8141C26.4859 37.0916 26.98 37.3926 27.3799 37.721C27.8588 38.1236 28.2688 38.5693 28.6099 39.0579H28.7577V29.5665H30.9018V49.3781C30.9018 50.0876 30.9186 50.6974 30.9556 51.2075C30.9959 51.7196 31.0446 52.1516 31.1035 52.5054C31.1791 52.908 31.2547 53.252 31.332 53.5374H29.1812C29.1274 53.2716 29.0804 53.0057 29.04 52.7399C28.9459 52.2298 28.8989 51.6649 28.8989 51.0433H28.7577C28.3713 51.618 27.9327 52.1145 27.4404 52.5366C27.0186 52.9178 26.5078 53.2618 25.9079 53.5686C25.3064 53.8814 24.6342 54.0377 23.8915 54.0377ZM23.8915 52.7086C24.6342 52.7086 25.3064 52.5366 25.9079 52.1926C26.5078 51.8486 27.0186 51.4655 27.4404 51.0433C27.9327 50.5547 28.3713 49.9996 28.7577 49.3781V41.0516C28.3713 40.432 27.9327 39.8769 27.4404 39.3863C27.0186 38.9641 26.5078 38.581 25.9079 38.237C25.3064 37.893 24.6342 37.721 23.8915 37.721C23.1656 37.721 22.4818 37.893 21.8415 38.237C21.2047 38.581 20.6468 39.0775 20.168 39.7225C19.6924 40.3636 19.311 41.1513 19.0253 42.0836C18.738 43.0179 18.5952 44.0616 18.5952 45.2187C18.5952 46.3915 18.738 47.4391 19.0253 48.3617C19.311 49.2842 19.6924 50.07 20.168 50.715C20.6468 51.3561 21.2047 51.8486 21.8415 52.1926C22.4818 52.5366 23.1656 52.7086 23.8915 52.7086Z" fill="#64BFD9" fill-opacity="0.4"/>
<path d="M35.4785 41.0515C35.4785 40.344 35.4533 39.7342 35.4046 39.2221C35.3542 38.7119 35.3037 38.28 35.25 37.9242C35.1727 37.5235 35.1055 37.1795 35.0483 36.8922H37.1924C37.2328 37.158 37.2798 37.4239 37.3336 37.6897C37.3739 37.936 37.4075 38.2096 37.4344 38.5106C37.4646 38.8077 37.4814 39.1009 37.4814 39.3862H37.6226C38.0023 38.8351 38.4426 38.3366 38.94 37.893C39.36 37.5138 39.8675 37.1698 40.459 36.8609C41.0504 36.5482 41.7259 36.3918 42.4888 36.3918C43.4785 36.3918 44.364 36.5541 45.1437 36.8766C45.9267 37.201 46.5904 37.6467 47.1332 38.2135C47.6793 38.7764 48.091 39.4566 48.3699 40.2541C48.6472 41.0515 48.7866 41.9272 48.7866 42.881V53.5373H46.6358V42.881C46.6358 42.1305 46.5249 41.4405 46.3065 40.8092C46.0863 40.1739 45.7906 39.6286 45.4193 39.1752C45.0462 38.7178 44.6077 38.3601 44.1019 38.104C43.5995 37.85 43.0618 37.721 42.4888 37.721C41.7259 37.721 41.0504 37.893 40.459 38.237C39.8675 38.581 39.36 38.9641 38.94 39.3862C38.4426 39.8768 38.0023 40.4319 37.6226 41.0515V53.5373H35.4785V41.0515Z" fill="#64BFD9" fill-opacity="0.4"/>
<path d="M59.368 54.0377C58.3548 54.0377 57.4625 53.8755 56.693 53.553C55.9217 53.2305 55.263 52.7868 54.7169 52.2239C54.1742 51.657 53.7642 50.9729 53.4869 50.1755C53.208 49.378 53.0702 48.5024 53.0702 47.5485V36.8922H55.221V47.5485C55.221 48.2991 55.3302 48.993 55.5503 49.6282C55.7688 50.2595 56.0645 50.8048 56.4375 51.2622C56.8089 51.7157 57.2458 52.0714 57.7482 52.3255C58.254 52.5815 58.7934 52.7086 59.368 52.7086C60.1107 52.7086 60.7828 52.5366 61.3844 52.1926C61.9843 51.8486 62.4951 51.4655 62.9169 51.0433C63.4142 50.5547 63.8528 49.9996 64.2342 49.378V36.8922H66.3783V49.378C66.3783 50.0875 66.3951 50.6973 66.4321 51.2075C66.4724 51.7196 66.5211 52.1515 66.5799 52.5053C66.6556 52.908 66.7312 53.252 66.8085 53.5373H64.6644C64.6056 53.2715 64.5585 53.0057 64.5232 52.7399C64.4241 52.2297 64.3754 51.6649 64.3754 51.0433H64.2342C63.8528 51.6179 63.4142 52.1144 62.9169 52.5366C62.4951 52.9177 61.9843 53.2617 61.3844 53.5686C60.7828 53.8813 60.1107 54.0377 59.368 54.0377Z" fill="#64BFD9" fill-opacity="0.4"/>
<path d="M68.955 36.8922H71.3881L76.5365 50.2067H76.6777L81.8329 36.8922H83.4057L76.9667 53.5373H75.3939L68.955 36.8922Z" fill="#64BFD9" fill-opacity="0.4"/>
<path d="M92.4184 54.0377C91.3463 54.0377 90.3482 53.811 89.4207 53.3575C88.4965 52.9001 87.6967 52.2766 87.0212 51.4889C86.344 50.7032 85.808 49.7728 85.4148 48.6978C85.025 47.6189 84.8301 46.4598 84.8301 45.2187C84.8301 43.9736 85.025 42.8146 85.4148 41.7396C85.808 40.6606 86.344 39.7283 87.0212 38.9406C87.6967 38.1549 88.4965 37.5333 89.4207 37.0799C90.3482 36.6225 91.3463 36.3918 92.4184 36.3918C93.4837 36.3918 94.4785 36.6225 95.4026 37.0799C96.3302 37.5333 97.1317 38.1549 97.8089 38.9406C98.4843 39.7283 99.0187 40.6606 99.4085 41.7396C99.8017 42.8146 100 43.9736 100 45.2187C100 46.4598 99.8017 47.6189 99.4085 48.6978C99.0187 49.7728 98.4843 50.7032 97.8089 51.4889C97.1317 52.2766 96.3302 52.9001 95.4026 53.3575C94.4785 53.811 93.4837 54.0377 92.4184 54.0377ZM92.4184 52.7086C93.1208 52.7086 93.7979 52.5366 94.4482 52.1926C95.0968 51.8486 95.6597 51.356 96.1353 50.7149C96.6141 50.0699 96.9956 49.2842 97.2779 48.3616C97.5635 47.4391 97.708 46.3914 97.708 45.2187C97.708 44.0616 97.5635 43.0178 97.2779 42.0836C96.9956 41.1512 96.6141 40.3635 96.1353 39.7224C95.6597 39.0774 95.0968 38.581 94.4482 38.237C93.7979 37.893 93.1208 37.721 92.4184 37.721C91.6925 37.721 91.0086 37.893 90.3684 38.237C89.7316 38.581 89.1737 39.0774 88.6948 39.7224C88.2193 40.3635 87.8378 41.1512 87.5522 42.0836C87.2649 43.0178 87.122 44.0616 87.122 45.2187C87.122 46.3914 87.2649 47.4391 87.5522 48.3616C87.8378 49.2842 88.2193 50.0699 88.6948 50.7149C89.1737 51.356 89.7316 51.8486 90.3684 52.1926C91.0086 52.5366 91.6925 52.7086 92.4184 52.7086Z" fill="#64BFD9" fill-opacity="0.4"/>
<path d="M0 30.2311H13.8794L13.5904 31.8964H2.28523V40.7232H10.7271L10.4449 42.3885H2.28523V51.8721H14.3096V53.5374H0V30.2311Z" fill="black"/>
<path d="M23.8915 54.0377C22.8195 54.0377 21.8214 53.811 20.8939 53.3576C19.9697 52.9002 19.1698 52.2767 18.4944 51.489C17.8172 50.7033 17.2812 49.7729 16.888 48.6979C16.4981 47.6189 16.3032 46.4599 16.3032 45.2187C16.3032 43.9737 16.4981 42.8146 16.888 41.7396C17.2812 40.6607 17.8172 39.7283 18.4944 38.9406C19.1698 38.1549 19.9697 37.5334 20.8939 37.0799C21.8214 36.6225 22.8195 36.3919 23.8915 36.3919C24.6342 36.3919 25.303 36.5326 25.8945 36.8141C26.4859 37.0916 26.98 37.3926 27.3799 37.721C27.8588 38.1236 28.2688 38.5693 28.6099 39.0579H28.7577V29.5665H30.9018V49.3781C30.9018 50.0876 30.9186 50.6974 30.9556 51.2075C30.9959 51.7196 31.0446 52.1516 31.1035 52.5054C31.1791 52.908 31.2547 53.252 31.332 53.5374H29.1812C29.1274 53.2716 29.0804 53.0057 29.04 52.7399C28.9459 52.2298 28.8989 51.6649 28.8989 51.0433H28.7577C28.3713 51.618 27.9327 52.1145 27.4404 52.5366C27.0186 52.9178 26.5078 53.2618 25.9079 53.5686C25.3064 53.8814 24.6342 54.0377 23.8915 54.0377ZM23.8915 52.7086C24.6342 52.7086 25.3064 52.5366 25.9079 52.1926C26.5078 51.8486 27.0186 51.4655 27.4404 51.0433C27.9327 50.5547 28.3713 49.9996 28.7577 49.3781V41.0516C28.3713 40.432 27.9327 39.8769 27.4404 39.3863C27.0186 38.9641 26.5078 38.581 25.9079 38.237C25.3064 37.893 24.6342 37.721 23.8915 37.721C23.1656 37.721 22.4818 37.893 21.8415 38.237C21.2047 38.581 20.6468 39.0775 20.168 39.7225C19.6924 40.3636 19.311 41.1513 19.0253 42.0836C18.738 43.0179 18.5952 44.0616 18.5952 45.2187C18.5952 46.3915 18.738 47.4391 19.0253 48.3617C19.311 49.2842 19.6924 50.07 20.168 50.715C20.6468 51.3561 21.2047 51.8486 21.8415 52.1926C22.4818 52.5366 23.1656 52.7086 23.8915 52.7086Z" fill="black"/>
<path d="M35.4785 41.0515C35.4785 40.344 35.4533 39.7342 35.4046 39.2221C35.3542 38.7119 35.3037 38.28 35.25 37.9242C35.1727 37.5235 35.1055 37.1795 35.0483 36.8922H37.1924C37.2328 37.158 37.2798 37.4239 37.3336 37.6897C37.3739 37.936 37.4075 38.2096 37.4344 38.5106C37.4646 38.8077 37.4814 39.1009 37.4814 39.3862H37.6226C38.0023 38.8351 38.4426 38.3366 38.94 37.893C39.36 37.5138 39.8675 37.1698 40.459 36.8609C41.0504 36.5482 41.7259 36.3918 42.4888 36.3918C43.4785 36.3918 44.364 36.5541 45.1437 36.8766C45.9267 37.201 46.5904 37.6467 47.1332 38.2135C47.6793 38.7764 48.091 39.4566 48.3699 40.2541C48.6472 41.0515 48.7866 41.9272 48.7866 42.881V53.5373H46.6358V42.881C46.6358 42.1305 46.5249 41.4405 46.3065 40.8092C46.0863 40.1739 45.7906 39.6286 45.4193 39.1752C45.0462 38.7178 44.6077 38.3601 44.1019 38.104C43.5995 37.85 43.0618 37.721 42.4888 37.721C41.7259 37.721 41.0504 37.893 40.459 38.237C39.8675 38.581 39.36 38.9641 38.94 39.3862C38.4426 39.8768 38.0023 40.4319 37.6226 41.0515V53.5373H35.4785V41.0515Z" fill="black"/>
<path d="M59.368 54.0377C58.3548 54.0377 57.4625 53.8755 56.693 53.553C55.9217 53.2305 55.263 52.7868 54.7169 52.2239C54.1742 51.657 53.7642 50.9729 53.4869 50.1755C53.208 49.378 53.0702 48.5024 53.0702 47.5485V36.8922H55.221V47.5485C55.221 48.2991 55.3302 48.993 55.5503 49.6282C55.7688 50.2595 56.0645 50.8048 56.4375 51.2622C56.8089 51.7157 57.2458 52.0714 57.7482 52.3255C58.254 52.5815 58.7934 52.7086 59.368 52.7086C60.1107 52.7086 60.7828 52.5366 61.3844 52.1926C61.9843 51.8486 62.4951 51.4655 62.9169 51.0433C63.4142 50.5547 63.8528 49.9996 64.2342 49.378V36.8922H66.3783V49.378C66.3783 50.0875 66.3951 50.6973 66.4321 51.2075C66.4724 51.7196 66.5211 52.1515 66.5799 52.5053C66.6556 52.908 66.7312 53.252 66.8085 53.5373H64.6644C64.6056 53.2715 64.5585 53.0057 64.5232 52.7399C64.4241 52.2297 64.3754 51.6649 64.3754 51.0433H64.2342C63.8528 51.6179 63.4142 52.1144 62.9169 52.5366C62.4951 52.9177 61.9843 53.2617 61.3844 53.5686C60.7828 53.8813 60.1107 54.0377 59.368 54.0377Z" fill="black"/>
<path d="M68.955 36.8922H71.3881L76.5365 50.2067H76.6777L81.8329 36.8922H83.4057L76.9667 53.5373H75.3939L68.955 36.8922Z" fill="black"/>
<path d="M92.4184 54.0377C91.3463 54.0377 90.3482 53.811 89.4207 53.3575C88.4965 52.9001 87.6967 52.2766 87.0212 51.4889C86.344 50.7032 85.808 49.7728 85.4148 48.6978C85.025 47.6189 84.8301 46.4598 84.8301 45.2187C84.8301 43.9736 85.025 42.8146 85.4148 41.7396C85.808 40.6606 86.344 39.7283 87.0212 38.9406C87.6967 38.1549 88.4965 37.5333 89.4207 37.0799C90.3482 36.6225 91.3463 36.3918 92.4184 36.3918C93.4837 36.3918 94.4785 36.6225 95.4026 37.0799C96.3302 37.5333 97.1317 38.1549 97.8089 38.9406C98.4843 39.7283 99.0187 40.6606 99.4085 41.7396C99.8017 42.8146 100 43.9736 100 45.2187C100 46.4598 99.8017 47.6189 99.4085 48.6978C99.0187 49.7728 98.4843 50.7032 97.8089 51.4889C97.1317 52.2766 96.3302 52.9001 95.4026 53.3575C94.4785 53.811 93.4837 54.0377 92.4184 54.0377ZM92.4184 52.7086C93.1208 52.7086 93.7979 52.5366 94.4482 52.1926C95.0968 51.8486 95.6597 51.356 96.1353 50.7149C96.6141 50.0699 96.9956 49.2842 97.2779 48.3616C97.5635 47.4391 97.708 46.3914 97.708 45.2187C97.708 44.0616 97.5635 43.0178 97.2779 42.0836C96.9956 41.1512 96.6141 40.3635 96.1353 39.7224C95.6597 39.0774 95.0968 38.581 94.4482 38.237C93.7979 37.893 93.1208 37.721 92.4184 37.721C91.6925 37.721 91.0086 37.893 90.3684 38.237C89.7316 38.581 89.1737 39.0774 88.6948 39.7224C88.2193 40.3635 87.8378 41.1512 87.5522 42.0836C87.2649 43.0178 87.122 44.0616 87.122 45.2187C87.122 46.3914 87.2649 47.4391 87.5522 48.3616C87.8378 49.2842 88.2193 50.0699 88.6948 50.7149C89.1737 51.356 89.7316 51.8486 90.3684 52.1926C91.0086 52.5366 91.6925 52.7086 92.4184 52.7086Z" fill="black"/>
<mask id="mask0_71_2218" style="mask-type:luminance" maskUnits="userSpaceOnUse" x="22" y="0" width="65" height="27">
<path d="M22.7551 0H86.2913V26.8851H22.7551V0Z" fill="white"/>
</mask>
<g mask="url(#mask0_71_2218)">
<path d="M73.1815 23.3727C73.321 22.3446 73.7696 19.4108 74.4737 18.2166C74.4737 18.2166 74.7106 19.3483 73.8385 23.5213C73.815 23.6327 73.9293 23.7128 74.0032 23.6366C77.6428 19.7861 74.8602 15.4704 74.8602 15.4704C74.8602 15.4704 70.8778 18.2361 72.9916 23.406C73.0337 23.5096 73.1647 23.4861 73.1815 23.3727ZM75.0887 24.9833C76.4565 24.094 80.4119 21.6371 82.5879 21.471C82.5879 21.471 81.5058 23.0737 75.6247 26.1971C75.4668 26.2792 75.497 26.5509 75.6684 26.5841C84.1624 28.2416 86.2544 19.1176 86.2544 19.1176C86.2544 19.1176 78.6711 15.7362 74.845 24.7155C74.7694 24.8954 74.9375 25.083 75.0887 24.9833ZM36.1507 7.93751C38.2645 2.76767 34.2822 0.00195312 34.2822 0.00195312C34.2822 0.00195312 31.4996 4.31764 35.1391 8.16815C35.2131 8.24438 35.3273 8.16619 35.3038 8.05283C34.4317 3.87787 34.6686 2.74812 34.6686 2.74812C35.3727 3.94237 35.8213 6.87618 35.9608 7.90428C35.9776 8.01765 36.1087 8.0411 36.1507 7.93751ZM34.0536 9.51485C32.6859 8.62552 28.7304 6.16862 26.5561 6.00248C26.5561 6.00248 27.6365 7.60523 33.5176 10.7267C33.6756 10.8107 33.6453 11.0805 33.4739 11.1137C24.9816 12.7731 22.8879 3.64918 22.8879 3.64918C22.8879 3.64918 30.4712 0.267775 34.2973 9.24707C34.3729 9.42689 34.2049 9.61257 34.0536 9.51485Z" fill="#5BBB7B"/>
</g>
<path d="M60.4601 23.8262V22.1492C60.4601 21.9791 60.3407 21.8423 60.1962 21.8423H58.7545C58.6083 21.8423 58.4907 21.9791 58.4907 22.1492V23.8262C58.4907 23.9963 58.6083 24.1331 58.7545 24.1331H60.1962C60.3407 24.1331 60.4601 23.9963 60.4601 23.8262ZM57.7631 23.8262V22.1492C57.7631 21.9791 57.6455 21.8423 57.4993 21.8423H56.0576C55.9131 21.8423 55.7938 21.9791 55.7938 22.1492V23.8262C55.7938 23.9963 55.9131 24.1331 56.0576 24.1331H57.4993C57.6455 24.1331 57.7631 23.9963 57.7631 23.8262ZM60.4601 20.822V19.145C60.4601 18.975 60.3407 18.8381 60.1962 18.8381H58.7545C58.6083 18.8381 58.4907 18.975 58.4907 19.145V20.822C58.4907 20.9901 58.6083 21.127 58.7545 21.127H60.1962C60.3407 21.127 60.4601 20.9901 60.4601 20.822ZM57.7631 20.822V19.145C57.7631 18.975 57.6455 18.8381 57.4993 18.8381H56.0576C55.9131 18.8381 55.7938 18.975 55.7938 19.145V20.822C55.7938 20.9901 55.9131 21.127 56.0576 21.127H57.4993C57.6455 21.127 57.7631 20.9901 57.7631 20.822ZM40.8659 23.8262V22.1492C40.8659 21.9791 40.7482 21.8423 40.6021 21.8423H39.1603C39.0158 21.8423 38.8982 21.9791 38.8982 22.1492V23.8262C38.8982 23.9963 39.0158 24.1331 39.1603 24.1331H40.6021C40.7482 24.1331 40.8659 23.9963 40.8659 23.8262ZM38.1706 23.8262V22.1492C38.1706 21.9791 38.0513 21.8423 37.9068 21.8423H36.4651C36.3189 21.8423 36.2013 21.9791 36.2013 22.1492V23.8262C36.2013 23.9963 36.3189 24.1331 36.4651 24.1331H37.9068C38.0513 24.1331 38.1706 23.9963 38.1706 23.8262ZM40.8659 20.822V19.145C40.8659 18.975 40.7482 18.8381 40.6021 18.8381H39.1603C39.0158 18.8381 38.8982 18.975 38.8982 19.145V20.822C38.8982 20.9901 39.0158 21.127 39.1603 21.127H40.6021C40.7482 21.127 40.8659 20.9901 40.8659 20.822ZM38.1706 20.822V19.145C38.1706 18.975 38.0513 18.8381 37.9068 18.8381H36.4651C36.3189 18.8381 36.2013 18.975 36.2013 19.145V20.822C36.2013 20.9901 36.3189 21.127 36.4651 21.127H37.9068C38.0513 21.127 38.1706 20.9901 38.1706 20.822ZM58.4353 8.47111L74.279 26.4258C74.7041 26.9086 74.41 27.7471 73.8169 27.7471H70.6293C70.4579 27.7471 70.2916 27.6689 70.1672 27.5282L58.4353 14.2332C58.1782 13.942 57.7682 13.942 57.5111 14.2332L51.2822 21.2931C51.015 21.5941 51.015 22.0925 51.2822 22.3955L54.8377 26.4258C55.2645 26.9086 54.9705 27.7471 54.3773 27.7471H51.1897C51.0167 27.7471 50.852 27.6689 50.7277 27.5282L48.2542 24.7234L45.7119 21.8443L38.9957 14.2332C38.7386 13.942 38.3286 13.942 38.0715 14.2332L26.3395 27.5282C26.2152 27.6689 26.0505 27.7471 25.8774 27.7471H22.6916C22.0967 27.7471 21.8043 26.9086 22.2295 26.4258L38.0715 8.47111C38.3286 8.17988 38.7386 8.17988 38.9957 8.47111L47.7921 18.4394C48.0492 18.7306 48.4592 18.7306 48.7146 18.4394L57.5111 8.47111C57.7682 8.17988 58.1782 8.17988 58.4353 8.47111Z" fill="#1F4B3F"/>
<path d="M24.1174 61.0916C24.2149 60.8063 24.3527 60.5971 24.5274 60.4662C24.7022 60.3313 24.8988 60.2629 25.1189 60.2629C25.3961 60.2629 25.6062 60.3528 25.7507 60.5287C25.8213 60.6225 25.8733 60.7378 25.9053 60.8727C25.9355 61.0095 25.9523 61.1933 25.9523 61.4278V63.2651C25.9523 63.4527 25.9859 63.5837 26.0531 63.656C26.1204 63.7303 26.2363 63.7655 26.4026 63.7655V63.9062C26.0397 63.8867 25.8045 63.8749 25.6969 63.8749C25.5843 63.8749 25.3625 63.8867 25.0315 63.9062V63.7655C25.1794 63.7655 25.2802 63.7303 25.334 63.656C25.3911 63.5837 25.4213 63.4527 25.4213 63.2651V61.2793C25.4213 61.0252 25.3894 60.8297 25.3272 60.6929C25.2634 60.558 25.1357 60.4896 24.9441 60.4896C24.7828 60.4896 24.6383 60.5424 24.514 60.646C24.3879 60.7515 24.2888 60.9001 24.2182 61.0916C24.151 61.2793 24.1174 61.4943 24.1174 61.7327V63.2651C24.1174 63.4527 24.1443 63.5837 24.1981 63.656C24.2552 63.7303 24.3594 63.7655 24.5072 63.7655V63.9062C24.1745 63.8867 23.9527 63.8749 23.8418 63.8749C23.7343 63.8749 23.4991 63.8867 23.1361 63.9062V63.7655C23.3008 63.7655 23.415 63.7303 23.4789 63.656C23.5461 63.5837 23.5797 63.4527 23.5797 63.2651V59.3481C23.5797 59.1351 23.5461 58.9807 23.4789 58.8869C23.415 58.7891 23.3008 58.7383 23.1361 58.7383V58.5976C23.2605 58.6093 23.3814 58.6132 23.4991 58.6132C23.7494 58.6132 23.9561 58.582 24.1174 58.5194V61.0916Z" fill="#063A21"/>
<path d="M29.3246 60.2628C29.7279 60.2628 30.0522 60.4192 30.2992 60.7319C30.5445 61.0407 30.6689 61.5098 30.6689 62.1392C30.6689 62.7647 30.5445 63.2318 30.2992 63.5387C30.0522 63.8475 29.7279 64 29.3246 64C28.9213 64 28.5953 63.8475 28.35 63.5387C28.103 63.2318 27.9803 62.7647 27.9803 62.1392C27.9803 61.5098 28.103 61.0407 28.35 60.7319C28.5953 60.4192 28.9213 60.2628 29.3246 60.2628ZM29.3246 60.4035C29.086 60.4035 28.8978 60.5443 28.76 60.8257C28.6256 61.1072 28.5584 61.545 28.5584 62.1392C28.5584 62.7295 28.6256 63.1634 28.76 63.4449C28.8978 63.7263 29.086 63.867 29.3246 63.867C29.5615 63.867 29.7497 63.7263 29.8892 63.4449C30.027 63.1634 30.0975 62.7295 30.0975 62.1392C30.0975 61.545 30.027 61.1072 29.8892 60.8257C29.7497 60.5443 29.5615 60.4035 29.3246 60.4035Z" fill="#063A21"/>
<path d="M36.8695 63.265C36.8695 63.4527 36.9031 63.5836 36.9703 63.656C37.0375 63.7302 37.1535 63.7654 37.3198 63.7654V63.9061C36.9569 63.8866 36.7216 63.8749 36.6141 63.8749C36.5015 63.8749 36.2797 63.8866 35.9487 63.9061V63.7654C36.0966 63.7654 36.1974 63.7302 36.2511 63.656C36.3083 63.5836 36.3385 63.4527 36.3385 63.265V61.2792C36.3385 61.1033 36.3284 60.9626 36.3116 60.857C36.2931 60.7476 36.2511 60.6596 36.1839 60.5912C36.1201 60.5247 36.0226 60.4895 35.8882 60.4895C35.7403 60.4895 35.6025 60.5443 35.4782 60.6537C35.3572 60.7632 35.2598 60.9156 35.1892 61.1072C35.122 61.2948 35.0884 61.504 35.0884 61.7327V63.265C35.0884 63.4527 35.122 63.5836 35.1892 63.656C35.2564 63.7302 35.3723 63.7654 35.5387 63.7654V63.9061C35.1757 63.8866 34.9405 63.8749 34.833 63.8749C34.7204 63.8749 34.4986 63.8866 34.1675 63.9061V63.7654C34.3154 63.7654 34.4162 63.7302 34.47 63.656C34.5271 63.5836 34.5574 63.4527 34.5574 63.265V61.2792C34.5574 61.1033 34.5473 60.9626 34.5305 60.857C34.512 60.7476 34.47 60.6596 34.4028 60.5912C34.3389 60.5247 34.2415 60.4895 34.1071 60.4895C33.9592 60.4895 33.8214 60.5443 33.6971 60.6537C33.5761 60.7632 33.482 60.9156 33.4148 61.1072C33.3476 61.3007 33.3139 61.5118 33.3139 61.7405V63.265C33.3139 63.4527 33.3408 63.5836 33.3946 63.656C33.4517 63.7302 33.5559 63.7654 33.7038 63.7654V63.9061C33.3711 63.8866 33.1493 63.8749 33.0384 63.8749C32.9258 63.8749 32.6905 63.8866 32.3326 63.9061V63.7654C32.494 63.7654 32.6082 63.7302 32.6754 63.656C32.7426 63.5836 32.7762 63.4527 32.7762 63.265V61.115C32.7762 60.902 32.7426 60.7476 32.6754 60.6537C32.6082 60.556 32.494 60.5052 32.3326 60.5052V60.3645C32.457 60.3762 32.578 60.3801 32.6956 60.3801C32.946 60.3801 33.1526 60.3488 33.3139 60.2863V61.0994C33.408 60.814 33.5391 60.6029 33.7105 60.4661C33.8853 60.3312 34.0751 60.2628 34.2818 60.2628C34.5507 60.2628 34.754 60.3527 34.8934 60.5286C34.9909 60.6498 35.0548 60.8316 35.0816 61.0759C35.1791 60.7906 35.3135 60.5834 35.4849 60.4583C35.6597 60.3293 35.8512 60.2628 36.0629 60.2628C36.3318 60.2628 36.5351 60.3527 36.6746 60.5286C36.7452 60.6225 36.7956 60.7397 36.8224 60.8805C36.8527 61.0212 36.8695 61.2049 36.8695 61.4277V63.265Z" fill="#063A21"/>
<path d="M41.3575 63.0774C41.2902 63.3334 41.1575 63.5524 40.9609 63.7341C40.7626 63.91 40.5274 64 40.2552 64C39.9729 64 39.7275 63.9257 39.5225 63.781C39.3209 63.6305 39.163 63.4214 39.0521 63.1556C38.9445 62.8859 38.8907 62.5731 38.8907 62.2174C38.8907 61.8226 38.9462 61.4786 39.0588 61.1854C39.1697 60.8883 39.3276 60.6615 39.5293 60.5052C39.7309 60.3449 39.9628 60.2628 40.2283 60.2628C40.5862 60.2628 40.8601 60.3879 41.0483 60.6381C41.2398 60.8883 41.3373 61.2694 41.3373 61.7796H39.4822C39.4721 61.9105 39.4688 62.0571 39.4688 62.2174C39.4688 62.5203 39.5108 62.7862 39.5965 63.0149C39.6805 63.2396 39.7931 63.4116 39.9325 63.5309C40.0703 63.652 40.2165 63.7107 40.3694 63.7107C40.561 63.7107 40.729 63.6599 40.8735 63.5543C41.0214 63.4507 41.1441 63.2729 41.2432 63.0227L41.3575 63.0774ZM40.2081 60.3957C40.0199 60.3957 39.8586 60.5032 39.7242 60.7163C39.5931 60.9254 39.5125 61.2362 39.4822 61.6467H40.766C40.7744 61.2929 40.729 60.9958 40.6316 60.7554C40.5375 60.5169 40.3963 60.3957 40.2081 60.3957Z" fill="#063A21"/>
<path d="M46.7418 60.2628C46.8847 60.2628 47.0107 60.2902 47.1182 60.341C47.2291 60.3938 47.3199 60.4544 47.3871 60.5208C47.4308 60.558 47.4677 60.5755 47.4946 60.5755C47.5652 60.5755 47.6089 60.4739 47.6223 60.2706H47.7567C47.7433 60.4954 47.7366 60.8863 47.7366 61.4434H47.6022C47.5568 61.1424 47.4711 60.8922 47.3468 60.6928C47.2258 60.4954 47.0409 60.3957 46.7956 60.3957C46.6511 60.3957 46.5352 60.4426 46.4461 60.5365C46.3554 60.6303 46.3117 60.7612 46.3117 60.9274C46.3117 61.0896 46.3587 61.2245 46.4528 61.3339C46.5469 61.4395 46.6981 61.5665 46.9099 61.717C46.9452 61.7444 46.9972 61.7835 47.0645 61.8343C47.2476 61.975 47.3938 62.0982 47.5013 62.2018C47.6122 62.3073 47.703 62.4285 47.7702 62.5692C47.8408 62.706 47.8777 62.8624 47.8777 63.0383C47.8777 63.3413 47.7786 63.5778 47.582 63.7498C47.3888 63.9159 47.1518 64 46.8695 64C46.6897 64 46.5335 63.9687 46.3991 63.9061C46.3134 63.8553 46.2327 63.7928 46.1571 63.7185C46.1386 63.7029 46.1201 63.695 46.1033 63.695C46.0764 63.695 46.0512 63.7185 46.0294 63.7654C46.0059 63.8084 45.9907 63.871 45.9823 63.953H45.8412C45.858 63.6931 45.8681 63.2338 45.8681 62.577H46.0025C46.0462 63.0109 46.1252 63.3334 46.2377 63.5465C46.3537 63.7615 46.5486 63.867 46.8225 63.867C46.9603 63.867 47.0846 63.8162 47.1922 63.7107C47.2997 63.6012 47.3535 63.4351 47.3535 63.2103C47.3535 63.0344 47.2997 62.8819 47.1922 62.7568C47.088 62.6318 46.9183 62.4832 46.6813 62.3112C46.4881 62.1705 46.3386 62.0532 46.231 61.9594C46.1268 61.8656 46.0395 61.7542 45.9689 61.6232C45.9017 61.4883 45.8681 61.332 45.8681 61.1541C45.8681 60.8687 45.9504 60.6498 46.1168 60.4974C46.2814 60.341 46.4898 60.2628 46.7418 60.2628Z" fill="#063A21"/>
<path d="M52.1032 63.0774C52.036 63.3334 51.9032 63.5524 51.7066 63.7341C51.5083 63.91 51.2731 64 51.0009 64C50.7186 64 50.4733 63.9257 50.2683 63.781C50.0666 63.6305 49.9087 63.4214 49.7978 63.1556C49.6902 62.8859 49.6365 62.5731 49.6365 62.2174C49.6365 61.8226 49.6919 61.4786 49.8045 61.1854C49.9154 60.8883 50.0734 60.6615 50.275 60.5052C50.4766 60.3449 50.7085 60.2628 50.974 60.2628C51.3319 60.2628 51.6058 60.3879 51.794 60.6381C51.9856 60.8883 52.083 61.2694 52.083 61.7796H50.2279C50.2179 61.9105 50.2145 62.0571 50.2145 62.2174C50.2145 62.5203 50.2565 62.7862 50.3422 63.0149C50.4262 63.2396 50.5388 63.4116 50.6783 63.5309C50.8161 63.652 50.9622 63.7107 51.1152 63.7107C51.3067 63.7107 51.4747 63.6599 51.6192 63.5543C51.7671 63.4507 51.8898 63.2729 51.9889 63.0227L52.1032 63.0774ZM50.9538 60.3957C50.7656 60.3957 50.6043 60.5032 50.4699 60.7163C50.3388 60.9254 50.2582 61.2362 50.2279 61.6467H51.5117C51.5201 61.2929 51.4747 60.9958 51.3773 60.7554C51.2832 60.5169 51.142 60.3957 50.9538 60.3957Z" fill="#063A21"/>
<path d="M55.5826 60.2628C55.7389 60.2628 55.8666 60.3175 55.9657 60.427C56.0682 60.5325 56.1203 60.6596 56.1203 60.8101C56.1203 60.9313 56.0884 61.0329 56.0262 61.115C55.9674 61.1991 55.8867 61.2401 55.7842 61.2401C55.6985 61.2401 55.6246 61.2088 55.5624 61.1463C55.4986 61.0837 55.4683 60.9977 55.4683 60.8883C55.4683 60.7378 55.5355 60.6127 55.67 60.513C55.6431 60.4661 55.6028 60.4426 55.549 60.4426C55.3961 60.4426 55.2549 60.513 55.1255 60.6537C54.9995 60.7945 54.9004 60.9665 54.8298 61.1697C54.7626 61.3691 54.729 61.5587 54.729 61.7405V63.1947C54.729 63.4097 54.7794 63.5582 54.8836 63.6403C54.9861 63.7244 55.1423 63.7654 55.3541 63.7654V63.9061L55.2129 63.8983C54.8096 63.8827 54.5509 63.8749 54.44 63.8749C54.3358 63.8749 54.1056 63.8866 53.7477 63.9061V63.7654C53.909 63.7654 54.0233 63.7302 54.0905 63.656C54.1577 63.5836 54.1913 63.4527 54.1913 63.265V61.115C54.1913 60.902 54.1577 60.7476 54.0905 60.6537C54.0233 60.556 53.909 60.5052 53.7477 60.5052V60.3645C53.872 60.3762 53.993 60.3801 54.1106 60.3801C54.361 60.3801 54.5677 60.3488 54.729 60.2863V61.1463C54.7962 60.9176 54.9071 60.7143 55.065 60.5365C55.2213 60.3547 55.3944 60.2628 55.5826 60.2628Z" fill="#063A21"/>
<path d="M59.843 60.3801C60.0178 60.3801 60.1673 60.3762 60.2933 60.3645V60.4974C60.2127 60.5091 60.1404 60.5502 60.0783 60.6225C60.0195 60.6968 59.9606 60.816 59.9035 60.9821L58.9356 63.9375H58.8348L57.746 60.8961C57.6872 60.7398 57.6284 60.6362 57.5712 60.5834C57.5175 60.5326 57.4603 60.5052 57.4032 60.5052V60.3645C57.6082 60.3801 57.7829 60.388 57.9275 60.388C58.2266 60.388 58.482 60.3801 58.6937 60.3645V60.5052C58.5492 60.5052 58.445 60.5189 58.3778 60.5443C58.3106 60.5717 58.277 60.6362 58.277 60.7398C58.277 60.8082 58.2971 60.9098 58.3375 61.0447L59.0701 63.1322L59.7153 61.1463C59.759 61.0115 59.7825 60.904 59.7825 60.8258C59.7825 60.7222 59.7456 60.646 59.675 60.5991C59.6078 60.5482 59.4969 60.513 59.3456 60.4974V60.3645C59.5506 60.3762 59.717 60.3801 59.843 60.3801Z" fill="#063A21"/>
<path d="M62.3679 58.6445C62.4704 58.6445 62.5578 58.6895 62.6301 58.7774C62.7057 58.8615 62.7443 58.9631 62.7443 59.0824C62.7443 59.2035 62.7057 59.3071 62.6301 59.3951C62.5578 59.4791 62.4704 59.5202 62.3679 59.5202C62.2637 59.5202 62.1747 59.4791 62.0991 59.3951C62.0268 59.3071 61.9915 59.2035 61.9915 59.0824C61.9915 58.9631 62.0268 58.8615 62.0991 58.7774C62.1747 58.6895 62.2637 58.6445 62.3679 58.6445ZM62.6771 63.2651C62.6771 63.4528 62.7107 63.5837 62.7779 63.656C62.8451 63.7303 62.9594 63.7655 63.1207 63.7655V63.9062C62.7611 63.8867 62.5242 63.875 62.4083 63.875C62.2906 63.875 62.0537 63.8867 61.6958 63.9062V63.7655C61.8571 63.7655 61.9714 63.7303 62.0386 63.656C62.1058 63.5837 62.1394 63.4528 62.1394 63.2651V61.1151C62.1394 60.9021 62.1058 60.7476 62.0386 60.6538C61.9714 60.5561 61.8571 60.5053 61.6958 60.5053V60.3646C61.8201 60.3763 61.9411 60.3802 62.0587 60.3802C62.3091 60.3802 62.5158 60.3489 62.6771 60.2864V63.2651Z" fill="#063A21"/>
<path d="M66.1198 60.2628C66.3786 60.2628 66.6071 60.339 66.8054 60.4895C66.9885 60.6303 67.081 60.8062 67.081 61.0134C67.081 61.1346 67.0507 61.2303 66.9936 61.3026C66.9348 61.3711 66.8592 61.4043 66.7651 61.4043C66.6743 61.4043 66.5987 61.373 66.5365 61.3105C66.4727 61.2479 66.4424 61.1658 66.4424 61.0603C66.4424 60.9626 66.4643 60.8805 66.5096 60.8179C66.5584 60.7515 66.6189 60.7045 66.6911 60.6772C66.6508 60.5951 66.5785 60.5267 66.476 60.4739C66.3769 60.4172 66.271 60.3879 66.1601 60.3879C66.0123 60.3879 65.8745 60.4426 65.7501 60.5521C65.6241 60.6615 65.5183 60.8414 65.4342 61.0916C65.3536 61.3417 65.3133 61.6701 65.3133 62.0767C65.3133 62.6454 65.3906 63.0598 65.5485 63.3198C65.7048 63.5758 65.9115 63.7029 66.1669 63.7029C66.3315 63.7029 66.4912 63.6462 66.6441 63.5309C66.7953 63.4175 66.9213 63.2396 67.0205 62.9992L67.1347 63.0461C67.0675 63.308 66.9415 63.5309 66.7583 63.7185C66.5735 63.9061 66.3366 64 66.0459 64C65.7989 64 65.5771 63.9257 65.3805 63.781C65.1822 63.6364 65.0259 63.4253 64.91 63.1478C64.7924 62.8722 64.7352 62.5497 64.7352 62.1783C64.7352 61.8089 64.7924 61.4805 64.91 61.1932C65.0259 60.902 65.1889 60.6752 65.4006 60.513C65.6107 60.3469 65.851 60.2628 66.1198 60.2628Z" fill="#063A21"/>
<path d="M71.2885 63.0774C71.2213 63.3334 71.0885 63.5524 70.8919 63.7341C70.6937 63.91 70.4584 64 70.1862 64C69.9039 64 69.6586 63.9257 69.4536 63.781C69.2519 63.6305 69.094 63.4214 68.9831 63.1556C68.8755 62.8859 68.8218 62.5731 68.8218 62.2174C68.8218 61.8226 68.8772 61.4786 68.9898 61.1854C69.1007 60.8883 69.2587 60.6615 69.4603 60.5052C69.6619 60.3449 69.8938 60.2628 70.1593 60.2628C70.5172 60.2628 70.7911 60.3879 70.9793 60.6381C71.1709 60.8883 71.2683 61.2694 71.2683 61.7796H69.4132C69.4032 61.9105 69.3998 62.0571 69.3998 62.2174C69.3998 62.5203 69.4418 62.7862 69.5275 63.0149C69.6115 63.2396 69.7241 63.4116 69.8636 63.5309C70.0014 63.652 70.1475 63.7107 70.3005 63.7107C70.492 63.7107 70.66 63.6599 70.8046 63.5543C70.9524 63.4507 71.0751 63.2729 71.1742 63.0227L71.2885 63.0774ZM70.1391 60.3957C69.951 60.3957 69.7896 60.5032 69.6552 60.7163C69.5241 60.9254 69.4435 61.2362 69.4132 61.6467H70.697C70.7054 61.2929 70.66 60.9958 70.5626 60.7554C70.4685 60.5169 70.3273 60.3957 70.1391 60.3957Z" fill="#063A21"/>
<path d="M73.9879 60.2628C74.1308 60.2628 74.2568 60.2902 74.3643 60.341C74.4752 60.3938 74.566 60.4544 74.6332 60.5208C74.6769 60.558 74.7138 60.5755 74.7407 60.5755C74.8113 60.5755 74.855 60.4739 74.8684 60.2706H75.0028C74.9894 60.4954 74.9827 60.8863 74.9827 61.4434H74.8483C74.8029 61.1424 74.7172 60.8922 74.5928 60.6928C74.4719 60.4954 74.287 60.3957 74.0417 60.3957C73.8972 60.3957 73.7813 60.4426 73.6922 60.5365C73.6015 60.6303 73.5578 60.7612 73.5578 60.9274C73.5578 61.0896 73.6048 61.2245 73.6989 61.3339C73.793 61.4395 73.9442 61.5665 74.156 61.717C74.1912 61.7444 74.2433 61.7835 74.3106 61.8343C74.4937 61.975 74.6399 62.0982 74.7474 62.2018C74.8583 62.3073 74.9491 62.4285 75.0163 62.5692C75.0869 62.706 75.1238 62.8624 75.1238 63.0383C75.1238 63.3413 75.0247 63.5778 74.8281 63.7498C74.6349 63.9159 74.3979 64 74.1156 64C73.9358 64 73.7796 63.9687 73.6451 63.9061C73.5594 63.8553 73.4788 63.7928 73.4032 63.7185C73.3847 63.7029 73.3662 63.695 73.3494 63.695C73.3225 63.695 73.2973 63.7185 73.2755 63.7654C73.252 63.8084 73.2368 63.871 73.2284 63.953H73.0873C73.1041 63.6931 73.1142 63.2338 73.1142 62.577H73.2486C73.2923 63.0109 73.3713 63.3334 73.4838 63.5465C73.5998 63.7615 73.7947 63.867 74.0686 63.867C74.2064 63.867 74.3307 63.8162 74.4383 63.7107C74.5458 63.6012 74.5996 63.4351 74.5996 63.2103C74.5996 63.0344 74.5458 62.8819 74.4383 62.7568C74.3341 62.6318 74.1644 62.4832 73.9274 62.3112C73.7342 62.1705 73.5847 62.0532 73.4771 61.9594C73.3729 61.8656 73.2856 61.7542 73.215 61.6232C73.1478 61.4883 73.1142 61.332 73.1142 61.1541C73.1142 60.8687 73.1965 60.6498 73.3629 60.4974C73.5275 60.341 73.7359 60.2628 73.9879 60.2628Z" fill="#063A21"/>
</svg>
