<svg width="908" height="1024" viewBox="0 0 908 1024" fill="none" xmlns="http://www.w3.org/2000/svg">
<path d="M-224.183 1008.12C-87.4244 1024.32 179.74 988.969 154.332 718.02C122.572 379.333 152.387 293.246 349.704 287.083C547.021 280.921 370.355 -247.854 816.213 -20.2199" stroke="#46B7D1" stroke-opacity="0.3"/>
<path d="M-185.686 1010.32C-48.9277 1026.52 218.237 991.172 192.829 720.223C161.068 381.536 190.884 295.449 388.2 289.287C585.517 283.124 408.851 -245.65 854.71 -18.0164" stroke="#46B7D1" stroke-opacity="0.3"/>
<path d="M-144.287 1034.53C-7.5285 1050.73 259.636 1015.38 234.228 744.43C202.467 405.743 232.283 319.656 429.6 313.494C626.917 307.331 450.25 -221.443 896.109 6.19062" stroke="#46B7D1" stroke-opacity="0.3"/>
</svg>
