<svg width="32" height="33" viewBox="0 0 32 33" fill="none" xmlns="http://www.w3.org/2000/svg">
<path d="M12 14.9167C14.9455 14.9167 17.3334 12.5289 17.3334 9.58333C17.3334 6.63781 14.9455 4.25 12 4.25C9.0545 4.25 6.66669 6.63781 6.66669 9.58333C6.66669 12.5289 9.0545 14.9167 12 14.9167Z" stroke="#0F172A" stroke-width="1.5" stroke-linecap="round" stroke-linejoin="round"/>
<path d="M2.66669 24.25C2.66669 19.0954 6.84537 14.9167 12 14.9167C14.18 14.9167 16.1855 15.6642 17.7742 16.9167" stroke="#0F172A" stroke-width="1.5" stroke-linecap="round" stroke-linejoin="round"/>
<path d="M28.4853 22.5259L28.8804 25.1925C29.1191 26.8033 27.8709 28.25 26.2425 28.25H21.7575C20.1291 28.25 18.8809 26.8033 19.1196 25.1925L19.5147 22.5259C19.7084 21.2183 20.8308 20.25 22.1525 20.25H25.8475C27.1692 20.25 28.2916 21.2183 28.4853 22.5259Z" stroke="#0F172A" stroke-width="1.5" stroke-linecap="round" stroke-linejoin="round"/>
<path d="M22.6667 17.5833H25.3334" stroke="#0F172A" stroke-width="1.5" stroke-linecap="round" stroke-linejoin="round"/>
</svg>
