<svg width="26" height="28" viewBox="0 0 26 28" fill="none" xmlns="http://www.w3.org/2000/svg">
<mask id="mask0_23_837" style="mask-type:luminance" maskUnits="userSpaceOnUse" x="0" y="10" width="12" height="17">
<path d="M0 10.1329H11.797V26.2636H0V10.1329Z" fill="white"/>
</mask>
<g mask="url(#mask0_23_837)">
<path d="M4.91251 25.7689L4.8285 25.9416C2.79583 25.4235 0.0140293 24.7094 0.462104 21.9533C0.553119 21.3908 0.786492 20.8844 1.05487 20.3243L1.40493 19.6032C2.32208 17.6942 3.27191 15.7222 4.4481 13.9696C5.15055 12.9287 6.47844 12.8494 7.76666 12.7724C8.48311 12.7304 9.2229 12.686 9.81333 12.469C10.5018 12.217 10.8308 11.6452 10.9055 10.553C10.9125 10.448 11.0105 10.3757 11.1062 10.378C11.2112 10.385 11.2882 10.4737 11.2812 10.5787C11.2229 11.4165 11.0199 12.4293 9.94402 12.8237C9.29991 13.0594 8.53212 13.1038 7.78766 13.1481C6.53912 13.2228 5.35826 13.2928 4.76316 14.1796C3.59863 15.9089 2.6558 17.8692 1.74565 19.7666L1.39559 20.4877C1.13888 21.0198 0.919514 21.5028 0.8355 22.0139C0.441101 24.4317 2.92652 25.0664 4.92418 25.5775L4.91251 25.7689Z" fill="black"/>
</g>
<mask id="mask1_23_837" style="mask-type:luminance" maskUnits="userSpaceOnUse" x="14" y="10" width="12" height="17">
<path d="M14.1868 10.1329H25.9884V26.8611H14.1868V10.1329Z" fill="white"/>
</mask>
<g mask="url(#mask1_23_837)">
<path d="M21.5941 26.469C21.5124 26.469 21.4377 26.4177 21.412 26.336C21.384 26.2356 21.44 26.1306 21.5404 26.1003C22.9593 25.6732 25.6127 24.4153 25.4937 22.7141C25.4727 22.3243 25.3303 21.9626 25.181 21.5775L24.9056 20.8751C24.3525 19.4538 23.7808 17.9813 23.0876 16.6044C23.0153 16.462 22.9453 16.315 22.8729 16.168C22.3455 15.0758 21.7994 13.9486 20.8146 13.3418C20.0025 12.8377 19.1716 12.9031 18.2918 12.9754C17.5754 13.0314 16.8333 13.0921 16.1051 12.8237C15.8578 12.7304 15.6571 12.6114 15.4914 12.462C14.9336 11.9696 14.8099 11.1971 14.7656 10.5787C14.7586 10.476 14.8356 10.385 14.9406 10.378C15.0386 10.364 15.1343 10.448 15.1413 10.553C15.202 11.3745 15.3817 11.8622 15.7434 12.182C15.8764 12.301 16.0375 12.3943 16.2358 12.469C16.8869 12.7094 17.5544 12.6557 18.2615 12.5997C19.1646 12.5274 20.0958 12.4527 21.013 13.0221C22.0911 13.6872 22.6862 14.9171 23.2137 16.0023C23.286 16.1493 23.356 16.294 23.426 16.4363C24.1261 17.8296 24.7026 19.3092 25.258 20.7374L25.5334 21.4422C25.6874 21.8366 25.8461 22.245 25.8694 22.6907C26.0048 24.623 23.2813 25.9696 21.6477 26.462C21.6291 26.4667 21.6127 26.469 21.5941 26.469Z" fill="black"/>
</g>
<path d="M13.1133 11.3932C12.7422 11.3932 12.3478 11.3208 11.9348 11.1621C9.97909 10.4107 9.31165 8.42468 8.82156 6.97543C8.77022 6.81908 8.71888 6.66738 8.66754 6.52503C8.63487 6.42701 8.68621 6.31732 8.78422 6.28465C8.87991 6.24965 8.99193 6.30099 9.0246 6.399C9.07594 6.54603 9.12728 6.69772 9.18096 6.85408C9.67104 8.31032 10.2801 10.1213 12.0701 10.8097C14.7982 11.8576 16.5392 8.55303 17.608 5.97427C17.6477 5.87858 17.7597 5.83191 17.8554 5.87158C17.9511 5.91126 17.9978 6.02328 17.9581 6.11896C16.9826 8.47135 15.4657 11.3932 13.1133 11.3932Z" fill="black"/>
<mask id="mask2_23_837" style="mask-type:luminance" maskUnits="userSpaceOnUse" x="7" y="0" width="12" height="8">
<path d="M7.61499 0H18.3688V7.14586H7.61499V0Z" fill="white"/>
</mask>
<g mask="url(#mask2_23_837)">
<path d="M15.468 7.01047C15.4423 7.01047 15.419 7.01047 15.3956 7.01047C14.0584 6.99413 12.0234 6.39203 10.9546 5.31618C10.8962 5.79226 10.6652 6.21233 10.2918 6.49471C9.84137 6.83544 9.27428 6.91478 8.81454 6.70241C8.53449 6.57173 8.05841 6.217 8.00473 5.29051C7.93006 3.92995 8.50649 2.68374 9.62901 1.77592C11.0526 0.627732 13.1086 0.235667 14.9919 0.749086C16.9312 1.27884 18.5345 3.40953 18.2918 5.13415C18.1238 6.32902 17.0946 7.01047 15.468 7.01047ZM10.9336 4.70941C11.7504 5.88794 13.9627 6.61607 15.4003 6.6324C16.8729 6.65807 17.7737 6.10031 17.9161 5.08048C18.1098 3.71058 16.8052 1.6359 14.8916 1.11315C13.1226 0.630066 11.1973 0.99646 9.86705 2.06997C8.84021 2.89845 8.31279 4.03497 8.3828 5.26717C8.41314 5.81093 8.62317 6.19833 8.97323 6.35936C9.30229 6.51338 9.73169 6.4457 10.0631 6.19366C10.4621 5.89261 10.6488 5.40486 10.5765 4.85177C10.4902 4.71875 10.4178 4.57873 10.3641 4.43403C10.3291 4.33835 10.3781 4.22867 10.4738 4.19133C10.5718 4.15399 10.6815 4.203 10.7189 4.30101C10.7609 4.41303 10.8145 4.52038 10.8775 4.62307C10.9032 4.6464 10.9242 4.67441 10.9336 4.70941Z" fill="black"/>
</g>
<path d="M13.1226 14.4971C12.6839 14.4971 12.2382 14.3991 11.8274 14.2007C11.069 13.8367 10.5252 13.1786 10.3385 12.3944C10.3128 12.2941 10.3758 12.1914 10.4762 12.1681C10.5789 12.1447 10.6816 12.2054 10.7049 12.3081C10.8683 12.9895 11.3257 13.5426 11.9908 13.8623C12.6746 14.1891 13.4634 14.2077 14.1005 13.9114C14.7726 13.5963 15.2207 13.0455 15.4377 12.2731C15.4657 12.1727 15.5707 12.1144 15.6711 12.1424C15.7714 12.1704 15.8298 12.2754 15.8018 12.3758C15.559 13.2462 15.0246 13.895 14.2615 14.2521C13.9091 14.4154 13.5194 14.4971 13.1226 14.4971Z" fill="black"/>
<path d="M21.5892 28.0001C21.4842 28.0001 21.4002 27.916 21.4002 27.8134C21.3979 27.3326 21.4002 26.8519 21.4002 26.3711C21.4049 24.6208 21.4072 22.8145 21.3255 21.0526C21.3185 20.9102 21.3138 20.7608 21.3092 20.6068C21.2602 19.1109 21.1972 17.2486 19.6149 16.8355C19.2368 16.7352 18.8284 16.7468 18.4364 16.7585C16.9451 16.8005 15.4352 16.7655 13.9743 16.7305C11.8996 16.6815 9.75491 16.6325 7.64289 16.7982C4.85409 17.0176 4.91943 19.1412 4.98944 21.3886C5.00111 21.783 5.01278 22.1774 5.01045 22.5578C4.99878 23.7947 5.06646 25.1156 5.1318 26.3945C5.15514 26.8285 5.17614 27.2603 5.19714 27.6803C5.19948 27.7854 5.12013 27.8717 5.01511 27.8764C5.01278 27.8764 5.01045 27.8764 5.00811 27.8764C4.90776 27.8764 4.82375 27.7994 4.81908 27.6967C4.80041 27.2766 4.77707 26.8472 4.75607 26.4155C4.68839 25.1296 4.62071 23.8017 4.63238 22.5531C4.63705 22.1774 4.62538 21.79 4.61138 21.4003C4.5437 19.1833 4.46435 16.6698 7.61255 16.4248C9.74557 16.2568 11.8996 16.3058 13.9836 16.3524C15.4399 16.3875 16.9451 16.4201 18.4247 16.3804C18.8238 16.3711 19.2788 16.3571 19.7106 16.4715C21.5659 16.9569 21.6359 19.0572 21.6872 20.5928C21.6919 20.7468 21.6966 20.8939 21.7036 21.0362C21.7853 22.8052 21.7829 24.6185 21.7782 26.3711C21.7782 26.8519 21.7759 27.3326 21.7782 27.811C21.7782 27.916 21.6942 28.0001 21.5892 28.0001Z" fill="black"/>
<path d="M24.6139 28H1.69904C1.59402 28 1.51001 27.916 1.51001 27.811C1.51001 27.7083 1.59402 27.6243 1.69904 27.6243H24.6139C24.7166 27.6243 24.8029 27.7083 24.8029 27.811C24.8029 27.916 24.7166 28 24.6139 28Z" fill="black"/>
<path d="M12.9547 24.5367C11.8228 24.5367 10.9033 23.6195 10.9033 22.49C10.9033 21.3628 11.8228 20.4457 12.9547 20.4457C14.0842 20.4457 15.0037 21.3628 15.0037 22.49C15.0037 23.6195 14.0842 24.5367 12.9547 24.5367ZM12.9547 20.8214C12.0328 20.8214 11.2814 21.5705 11.2814 22.49C11.2814 23.4095 12.0328 24.1586 12.9547 24.1586C13.8765 24.1586 14.6256 23.4095 14.6256 22.49C14.6256 21.5705 13.8765 20.8214 12.9547 20.8214Z" fill="black"/>
</svg>
