<svg width="24" height="28" viewBox="0 0 24 28" fill="none" xmlns="http://www.w3.org/2000/svg">
<mask id="mask0_23_863" style="mask-type:luminance" maskUnits="userSpaceOnUse" x="0" y="0" width="24" height="28">
<path d="M0 0H24V28H0V0Z" fill="white"/>
</mask>
<g mask="url(#mask0_23_863)">
<path d="M10.7283 14.7011L15.318 10.0148C15.5273 9.80168 15.8669 9.80168 16.0762 10.0148C16.2854 10.228 16.2854 10.5757 16.0762 10.7889L11.0599 15.9099C10.9593 16.0136 10.8235 16.0697 10.6794 16.0697C10.6713 16.0697 10.6604 16.0697 10.6495 16.0697C10.4974 16.0585 10.3561 15.9856 10.261 15.8622L7.88867 12.7969C7.70389 12.5613 7.74465 12.2163 7.97563 12.0284C8.20932 11.8433 8.54628 11.8826 8.72835 12.1182L10.7283 14.7011ZM12.0028 5.48277C16.0436 5.48277 19.3316 8.83694 19.3316 12.9623C19.3316 17.0877 16.0436 20.4419 12.0028 20.4419C7.96204 20.4419 4.674 17.0877 4.674 12.9623C4.674 8.83694 7.96204 5.48277 12.0028 5.48277ZM12.0028 6.57652C8.55443 6.57652 5.74737 9.4399 5.74737 12.9623C5.74737 16.4848 8.55443 19.3482 12.0028 19.3482C15.4539 19.3482 18.2582 16.4848 18.2582 12.9623C18.2582 9.4399 15.4539 6.57652 12.0028 6.57652ZM23.9919 3.77204V13.986C23.9919 15.635 23.6033 17.2953 22.837 18.9191C22.1523 20.3746 21.1794 21.7712 19.9512 23.0697C17.7283 25.4171 14.8072 27.254 12.1414 27.9832C12.0952 27.9944 12.049 28 12.0028 28C11.9566 28 11.9104 27.9944 11.8642 27.9832C9.19845 27.254 6.27998 25.4171 4.05443 23.0697C2.82617 21.7712 1.85335 20.3746 1.16856 18.9191C0.402259 17.2953 0.0136719 15.635 0.0136719 13.986V3.77204C0.0136719 3.48598 0.228346 3.2504 0.508237 3.22796C3.80172 2.95873 6.58432 1.37981 8.33704 0.103766C8.42671 0.0364583 8.53541 0 8.64682 0H15.3588C15.4702 0 15.5789 0.0364583 15.6686 0.103766C17.424 1.37981 20.2039 2.95873 23.4974 3.22796C23.7773 3.2504 23.9919 3.48598 23.9919 3.77204ZM22.9186 4.26843C20.3235 3.95713 17.6631 2.86899 15.1876 1.09375H8.81802C6.34248 2.86899 3.68215 3.95713 1.08704 4.26843V13.986C1.08704 20.3045 7.49193 25.5825 12.0028 26.8866C16.5164 25.5825 22.9186 20.3045 22.9186 13.986V4.26843Z" fill="black"/>
</g>
</svg>
