<svg width="28" height="28" viewBox="0 0 28 28" fill="none" xmlns="http://www.w3.org/2000/svg">
<mask id="mask0_23_827" style="mask-type:luminance" maskUnits="userSpaceOnUse" x="0" y="0" width="28" height="28">
<path d="M0 0H28V28H0V0Z" fill="white"/>
</mask>
<g mask="url(#mask0_23_827)">
<path fill-rule="evenodd" clip-rule="evenodd" d="M16.3356 15.7383H7.62323C7.33627 15.7383 7.10105 15.5054 7.10105 15.2161V11.2715L10.9304 13.3249C11.6078 13.6848 12.3511 13.6848 13.0308 13.3249L16.8578 11.2715V15.2161C16.8578 15.5054 16.6226 15.7383 16.3356 15.7383ZM7.62323 9.12165C7.33627 9.12165 7.10105 9.35452 7.10105 9.64383V10.3212L11.3255 12.5817C11.7536 12.8122 12.2052 12.8122 12.6333 12.5817L16.8578 10.3212V9.64383C16.8578 9.35452 16.6226 9.12165 16.3356 9.12165H7.62323ZM10.2388 7.49161C10.2388 7.30815 10.3894 7.15996 10.5752 7.15996H13.3836C13.5695 7.15996 13.72 7.30815 13.72 7.49161V8.28194H10.2388V7.49161ZM16.3356 8.28194H14.5574V7.49161C14.5574 6.84712 14.0305 6.32024 13.3836 6.32024H10.5752C9.92834 6.32024 9.40146 6.84712 9.40146 7.49161V8.28194H7.62323C6.87525 8.28194 6.26369 8.89114 6.26369 9.64383V15.2161C6.26369 15.9664 6.87525 16.578 7.62323 16.578H16.3356C17.0859 16.578 17.6951 15.9664 17.6951 15.2161V9.64383C17.6951 8.89114 17.0859 8.28194 16.3356 8.28194ZM18.5843 18.5749C22.1619 14.995 22.1619 9.17575 18.5843 5.59578C15.0019 2.01816 9.18506 2.01581 5.60509 5.59578C2.01806 9.18046 2.01806 14.9903 5.60509 18.5749C9.18506 22.1526 15.0019 22.1526 18.5843 18.5749ZM19.1746 5.00304C15.2701 1.09847 8.91691 1.09847 5.01234 5.00304C1.09836 8.91702 1.09836 15.2537 5.01234 19.1677C8.91927 23.0723 15.2701 23.0723 19.1746 19.1677C23.0792 15.2608 23.0792 8.90996 19.1746 5.00304ZM27.005 25.3139L25.3232 26.9956C25.2432 27.0756 25.1091 27.078 25.0268 26.9956L21.7126 23.6791C21.6303 23.5991 21.6303 23.4651 21.7126 23.3827L23.3921 21.7033C23.472 21.6233 23.6108 21.6233 23.6884 21.7033L27.005 25.0198C27.0849 25.0975 27.0849 25.2362 27.005 25.3139ZM20.4566 20.4473C20.5648 20.3414 20.6706 20.2332 20.7741 20.1203L22.2818 21.6304L21.6373 22.2725L20.1296 20.7648C20.2402 20.659 20.3484 20.5578 20.4566 20.4473ZM4.32316 19.8545C8.61819 24.1542 15.5688 24.1519 19.8662 19.8545C24.1494 15.5712 24.1494 8.59947 19.8662 4.31621C15.5688 0.0188303 8.61819 0.0188303 4.32316 4.31621C0.0375445 8.59947 0.0375445 15.5712 4.32316 19.8545ZM27.5977 24.4271L24.2812 21.1106C23.8978 20.7272 23.2886 20.7036 22.8769 21.04L21.3198 19.4852C25.048 14.8444 24.7587 8.0232 20.4566 3.72347C15.8322 -0.898509 8.35475 -0.90086 3.73042 3.72347C-0.882146 8.33603 -0.882146 15.837 3.73042 20.4473C5.96497 22.6818 8.93573 23.912 12.0947 23.912C14.8185 23.912 17.4011 22.997 19.4922 21.3128L21.0493 22.8676C20.7106 23.2816 20.7388 23.8908 21.1199 24.2719L24.4364 27.5884C24.841 27.993 25.5113 27.993 25.9159 27.5884L27.5977 25.9066C28.0046 25.4997 28.0046 24.834 27.5977 24.4271Z" fill="#1F4B3F"/>
</g>
</svg>
