<svg width="18" height="19" viewBox="0 0 18 19" fill="none" xmlns="http://www.w3.org/2000/svg">
<path fill-rule="evenodd" clip-rule="evenodd" d="M2.75 3.25C2.05964 3.25 1.5 3.80964 1.5 4.5V15.75C1.5 16.4404 2.05964 17 2.75 17H15.25C15.9404 17 16.5 16.4404 16.5 15.75V4.5C16.5 3.80964 15.9404 3.25 15.25 3.25H2.75ZM0.25 4.5C0.25 3.11929 1.36929 2 2.75 2H15.25C16.6307 2 17.75 3.11929 17.75 4.5V15.75C17.75 17.1307 16.6307 18.25 15.25 18.25H2.75C1.36929 18.25 0.25 17.1307 0.25 15.75V4.5Z" fill="#B7B7B7"/>
<path d="M10.5625 9.5C11.0803 9.5 11.5 9.08027 11.5 8.5625C11.5 8.04473 11.0803 7.625 10.5625 7.625C10.0447 7.625 9.625 8.04473 9.625 8.5625C9.625 9.08027 10.0447 9.5 10.5625 9.5Z" fill="#B7B7B7"/>
<path d="M13.6875 9.5C14.2053 9.5 14.625 9.08027 14.625 8.5625C14.625 8.04473 14.2053 7.625 13.6875 7.625C13.1697 7.625 12.75 8.04473 12.75 8.5625C12.75 9.08027 13.1697 9.5 13.6875 9.5Z" fill="#B7B7B7"/>
<path d="M10.5625 12.625C11.0803 12.625 11.5 12.2053 11.5 11.6875C11.5 11.1697 11.0803 10.75 10.5625 10.75C10.0447 10.75 9.625 11.1697 9.625 11.6875C9.625 12.2053 10.0447 12.625 10.5625 12.625Z" fill="#B7B7B7"/>
<path d="M13.6875 12.625C14.2053 12.625 14.625 12.2053 14.625 11.6875C14.625 11.1697 14.2053 10.75 13.6875 10.75C13.1697 10.75 12.75 11.1697 12.75 11.6875C12.75 12.2053 13.1697 12.625 13.6875 12.625Z" fill="#B7B7B7"/>
<path d="M4.3125 12.625C4.83027 12.625 5.25 12.2053 5.25 11.6875C5.25 11.1697 4.83027 10.75 4.3125 10.75C3.79473 10.75 3.375 11.1697 3.375 11.6875C3.375 12.2053 3.79473 12.625 4.3125 12.625Z" fill="#B7B7B7"/>
<path d="M7.4375 12.625C7.95527 12.625 8.375 12.2053 8.375 11.6875C8.375 11.1697 7.95527 10.75 7.4375 10.75C6.91973 10.75 6.5 11.1697 6.5 11.6875C6.5 12.2053 6.91973 12.625 7.4375 12.625Z" fill="#B7B7B7"/>
<path d="M4.3125 15.75C4.83027 15.75 5.25 15.3303 5.25 14.8125C5.25 14.2947 4.83027 13.875 4.3125 13.875C3.79473 13.875 3.375 14.2947 3.375 14.8125C3.375 15.3303 3.79473 15.75 4.3125 15.75Z" fill="#B7B7B7"/>
<path d="M7.4375 15.75C7.95527 15.75 8.375 15.3303 8.375 14.8125C8.375 14.2947 7.95527 13.875 7.4375 13.875C6.91973 13.875 6.5 14.2947 6.5 14.8125C6.5 15.3303 6.91973 15.75 7.4375 15.75Z" fill="#B7B7B7"/>
<path d="M10.5625 15.75C11.0803 15.75 11.5 15.3303 11.5 14.8125C11.5 14.2947 11.0803 13.875 10.5625 13.875C10.0447 13.875 9.625 14.2947 9.625 14.8125C9.625 15.3303 10.0447 15.75 10.5625 15.75Z" fill="#B7B7B7"/>
<path fill-rule="evenodd" clip-rule="evenodd" d="M4 0.75C4.34518 0.75 4.625 1.02982 4.625 1.375V2.625C4.625 2.97018 4.34518 3.25 4 3.25C3.65482 3.25 3.375 2.97018 3.375 2.625V1.375C3.375 1.02982 3.65482 0.75 4 0.75Z" fill="#B7B7B7"/>
<path fill-rule="evenodd" clip-rule="evenodd" d="M14 0.75C14.3452 0.75 14.625 1.02982 14.625 1.375V2.625C14.625 2.97018 14.3452 3.25 14 3.25C13.6548 3.25 13.375 2.97018 13.375 2.625V1.375C13.375 1.02982 13.6548 0.75 14 0.75Z" fill="#B7B7B7"/>
<path fill-rule="evenodd" clip-rule="evenodd" d="M0.875 5.125H17.125V6.375H0.875V5.125Z" fill="#B7B7B7"/>
</svg>
