<svg width="20" height="20" viewBox="0 0 20 20" fill="none" xmlns="http://www.w3.org/2000/svg">
<path fill-rule="evenodd" clip-rule="evenodd" d="M0.0664062 9.77542C0.0664062 4.39246 4.43344 0.0254211 9.81641 0.0254211C15.1994 0.0254211 19.5664 4.39246 19.5664 9.77542C19.5664 15.1584 15.1994 19.5254 9.81641 19.5254C4.43344 19.5254 0.0664062 15.1584 0.0664062 9.77542ZM9.81641 1.52542C5.26187 1.52542 1.56641 5.22088 1.56641 9.77542C1.56641 14.33 5.26187 18.0254 9.81641 18.0254C14.3709 18.0254 18.0664 14.33 18.0664 9.77542C18.0664 5.22088 14.3709 1.52542 9.81641 1.52542Z" fill="#1F4B3F"/>
<path fill-rule="evenodd" clip-rule="evenodd" d="M6.28608 6.24509C6.57897 5.9522 7.05384 5.9522 7.34674 6.24509L13.3467 12.2451C13.6396 12.538 13.6396 13.0129 13.3467 13.3058C13.0538 13.5986 12.579 13.5986 12.2861 13.3058L6.28608 7.30575C5.99318 7.01286 5.99318 6.53798 6.28608 6.24509Z" fill="#1F4B3F"/>
<path fill-rule="evenodd" clip-rule="evenodd" d="M13.3467 6.24509C13.6396 6.53798 13.6396 7.01286 13.3467 7.30575L7.34674 13.3058C7.05384 13.5986 6.57897 13.5986 6.28608 13.3058C5.99318 13.0129 5.99318 12.538 6.28608 12.2451L12.2861 6.24509C12.579 5.9522 13.0538 5.9522 13.3467 6.24509Z" fill="#1F4B3F"/>
</svg>
