<svg width="16" height="21" viewBox="0 0 16 21" fill="none" xmlns="http://www.w3.org/2000/svg">
<path fill-rule="evenodd" clip-rule="evenodd" d="M0.5 7.17188C0.5 3.17875 3.89479 0 8 0C12.1052 0 15.5 3.17875 15.5 7.17188C15.5 9.42303 14.2829 12.2082 12.9495 14.6155C11.5963 17.059 10.0377 19.2603 9.20195 20.3891C9.06404 20.5776 8.88371 20.731 8.67551 20.837C8.46625 20.9435 8.23479 20.999 8 20.999C7.76521 20.999 7.53375 20.9435 7.3245 20.837C7.11627 20.731 6.93592 20.5776 6.79801 20.389C5.96224 19.2598 4.40373 17.0577 3.05043 14.6139C1.71719 12.2064 0.5 9.42143 0.5 7.17188ZM8 1.5C4.65209 1.5 2 4.07656 2 7.17188C2 9.00045 3.03281 11.4859 4.36265 13.8872C5.66887 16.246 7.18184 18.386 8 19.4917C8.81813 18.3865 10.3311 16.2473 11.6374 13.8888C12.9671 11.4878 14 9.00213 14 7.17188C14 4.07656 11.3479 1.5 8 1.5Z" fill="#5BBB7B"/>
<path fill-rule="evenodd" clip-rule="evenodd" d="M8 6C7.17157 6 6.5 6.67157 6.5 7.5C6.5 8.32843 7.17157 9 8 9C8.82843 9 9.5 8.32843 9.5 7.5C9.5 6.67157 8.82843 6 8 6ZM5 7.5C5 5.84315 6.34315 4.5 8 4.5C9.65685 4.5 11 5.84315 11 7.5C11 9.15685 9.65685 10.5 8 10.5C6.34315 10.5 5 9.15685 5 7.5Z" fill="#5BBB7B"/>
</svg>
