<svg width="40" height="41" viewBox="0 0 40 41" fill="none" xmlns="http://www.w3.org/2000/svg">
<path d="M0 8.60001C0 4.18173 3.58172 0.600006 8 0.600006H32C36.4183 0.600006 40 4.18173 40 8.60001V32.6C40 37.0183 36.4183 40.6 32 40.6H8C3.58172 40.6 0 37.0183 0 32.6V8.60001Z" fill="#5BBB7B"/>
<path d="M16.667 23.9333L20.0003 20.6M20.0003 20.6L23.3337 23.9333M20.0003 20.6V28.1M26.667 24.5524C27.6849 23.7117 28.3337 22.44 28.3337 21.0167C28.3337 18.4854 26.2816 16.4333 23.7503 16.4333C23.5682 16.4333 23.3979 16.3383 23.3054 16.1815C22.2187 14.3374 20.2124 13.1 17.917 13.1C14.4652 13.1 11.667 15.8982 11.667 19.35C11.667 21.0718 12.3632 22.6309 13.4894 23.7613" stroke="white" stroke-width="1.66667" stroke-linecap="round" stroke-linejoin="round"/>
</svg>
