<svg width="100" height="64" viewBox="0 0 100 64" fill="none" xmlns="http://www.w3.org/2000/svg">
<path d="M0 30.2311H13.8794L13.5904 31.8964H2.28523V40.7232H10.7271L10.4449 42.3885H2.28523V51.8721H14.3096V53.5374H0V30.2311Z" fill="#64BFD9" fill-opacity="0.4"/>
<path d="M23.8915 54.0377C22.8195 54.0377 21.8214 53.811 20.8939 53.3576C19.9697 52.9002 19.1698 52.2767 18.4944 51.489C17.8172 50.7033 17.2812 49.7729 16.888 48.6979C16.4981 47.6189 16.3032 46.4599 16.3032 45.2187C16.3032 43.9737 16.4981 42.8146 16.888 41.7396C17.2812 40.6607 17.8172 39.7283 18.4944 38.9406C19.1698 38.1549 19.9697 37.5334 20.8939 37.0799C21.8214 36.6225 22.8195 36.3919 23.8915 36.3919C24.6342 36.3919 25.303 36.5326 25.8945 36.8141C26.4859 37.0916 26.98 37.3926 27.3799 37.721C27.8588 38.1236 28.2688 38.5693 28.6099 39.0579H28.7577V29.5665H30.9018V49.3781C30.9018 50.0876 30.9186 50.6974 30.9556 51.2075C30.9959 51.7196 31.0446 52.1516 31.1035 52.5054C31.1791 52.908 31.2547 53.252 31.332 53.5374H29.1812C29.1274 53.2716 29.0804 53.0057 29.04 52.7399C28.9459 52.2298 28.8989 51.6649 28.8989 51.0433H28.7577C28.3713 51.618 27.9327 52.1145 27.4404 52.5366C27.0186 52.9178 26.5078 53.2618 25.9079 53.5686C25.3064 53.8814 24.6342 54.0377 23.8915 54.0377ZM23.8915 52.7086C24.6342 52.7086 25.3064 52.5366 25.9079 52.1926C26.5078 51.8486 27.0186 51.4655 27.4404 51.0433C27.9327 50.5547 28.3713 49.9996 28.7577 49.3781V41.0516C28.3713 40.432 27.9327 39.8769 27.4404 39.3863C27.0186 38.9641 26.5078 38.581 25.9079 38.237C25.3064 37.893 24.6342 37.721 23.8915 37.721C23.1656 37.721 22.4818 37.893 21.8415 38.237C21.2047 38.581 20.6468 39.0775 20.168 39.7225C19.6924 40.3636 19.311 41.1513 19.0253 42.0836C18.738 43.0179 18.5952 44.0616 18.5952 45.2187C18.5952 46.3915 18.738 47.4391 19.0253 48.3617C19.311 49.2842 19.6924 50.07 20.168 50.715C20.6468 51.3561 21.2047 51.8486 21.8415 52.1926C22.4818 52.5366 23.1656 52.7086 23.8915 52.7086Z" fill="#64BFD9" fill-opacity="0.4"/>
<path d="M35.4785 41.0515C35.4785 40.344 35.4533 39.7342 35.4046 39.2221C35.3542 38.7119 35.3037 38.28 35.25 37.9242C35.1727 37.5235 35.1055 37.1795 35.0483 36.8922H37.1924C37.2328 37.158 37.2798 37.4239 37.3336 37.6897C37.3739 37.936 37.4075 38.2096 37.4344 38.5106C37.4646 38.8077 37.4814 39.1009 37.4814 39.3862H37.6226C38.0023 38.8351 38.4426 38.3366 38.94 37.893C39.36 37.5138 39.8675 37.1698 40.459 36.8609C41.0504 36.5482 41.7259 36.3918 42.4888 36.3918C43.4785 36.3918 44.364 36.5541 45.1437 36.8766C45.9267 37.201 46.5904 37.6467 47.1332 38.2135C47.6793 38.7764 48.091 39.4566 48.3699 40.2541C48.6472 41.0515 48.7866 41.9272 48.7866 42.881V53.5373H46.6358V42.881C46.6358 42.1305 46.5249 41.4405 46.3065 40.8092C46.0863 40.1739 45.7906 39.6286 45.4193 39.1752C45.0462 38.7178 44.6077 38.3601 44.1019 38.104C43.5995 37.85 43.0618 37.721 42.4888 37.721C41.7259 37.721 41.0504 37.893 40.459 38.237C39.8675 38.581 39.36 38.9641 38.94 39.3862C38.4426 39.8768 38.0023 40.4319 37.6226 41.0515V53.5373H35.4785V41.0515Z" fill="#64BFD9" fill-opacity="0.4"/>
<path d="M59.3679 54.0377C58.3547 54.0377 57.4624 53.8755 56.6928 53.553C55.9216 53.2305 55.2629 52.7868 54.7168 52.2239C54.174 51.657 53.764 50.9729 53.4868 50.1755C53.2079 49.378 53.0701 48.5024 53.0701 47.5485V36.8922H55.2209V47.5485C55.2209 48.2991 55.3301 48.993 55.5502 49.6282C55.7687 50.2595 56.0644 50.8048 56.4374 51.2622C56.8088 51.7157 57.2457 52.0714 57.7481 52.3255C58.2538 52.5815 58.7932 52.7086 59.3679 52.7086C60.1106 52.7086 60.7827 52.5366 61.3843 52.1926C61.9842 51.8486 62.495 51.4655 62.9167 51.0433C63.4141 50.5547 63.8527 49.9996 64.2341 49.378V36.8922H66.3782V49.378C66.3782 50.0875 66.395 50.6973 66.432 51.2075C66.4723 51.7196 66.521 52.1515 66.5798 52.5053C66.6554 52.908 66.7311 53.252 66.8083 53.5373H64.6643C64.6054 53.2715 64.5584 53.0057 64.5231 52.7399C64.424 52.2297 64.3752 51.6649 64.3752 51.0433H64.2341C63.8527 51.6179 63.4141 52.1144 62.9167 52.5366C62.495 52.9177 61.9842 53.2617 61.3843 53.5686C60.7827 53.8813 60.1106 54.0377 59.3679 54.0377Z" fill="#64BFD9" fill-opacity="0.4"/>
<path d="M68.9551 36.8922H71.3882L76.5367 50.2067H76.6778L81.833 36.8922H83.4058L76.9668 53.5373H75.3941L68.9551 36.8922Z" fill="#64BFD9" fill-opacity="0.4"/>
<path d="M92.4184 54.0377C91.3463 54.0377 90.3482 53.811 89.4207 53.3575C88.4965 52.9001 87.6967 52.2766 87.0212 51.4889C86.344 50.7032 85.808 49.7728 85.4148 48.6978C85.025 47.6189 84.8301 46.4598 84.8301 45.2187C84.8301 43.9736 85.025 42.8146 85.4148 41.7396C85.808 40.6606 86.344 39.7283 87.0212 38.9406C87.6967 38.1549 88.4965 37.5333 89.4207 37.0799C90.3482 36.6225 91.3463 36.3918 92.4184 36.3918C93.4837 36.3918 94.4785 36.6225 95.4026 37.0799C96.3302 37.5333 97.1317 38.1549 97.8089 38.9406C98.4843 39.7283 99.0187 40.6606 99.4085 41.7396C99.8017 42.8146 100 43.9736 100 45.2187C100 46.4598 99.8017 47.6189 99.4085 48.6978C99.0187 49.7728 98.4843 50.7032 97.8089 51.4889C97.1317 52.2766 96.3302 52.9001 95.4026 53.3575C94.4785 53.811 93.4837 54.0377 92.4184 54.0377ZM92.4184 52.7086C93.1208 52.7086 93.7979 52.5366 94.4482 52.1926C95.0968 51.8486 95.6597 51.356 96.1353 50.7149C96.6141 50.0699 96.9956 49.2842 97.2779 48.3616C97.5635 47.4391 97.708 46.3914 97.708 45.2187C97.708 44.0616 97.5635 43.0178 97.2779 42.0836C96.9956 41.1512 96.6141 40.3635 96.1353 39.7224C95.6597 39.0774 95.0968 38.581 94.4482 38.237C93.7979 37.893 93.1208 37.721 92.4184 37.721C91.6925 37.721 91.0086 37.893 90.3684 38.237C89.7316 38.581 89.1737 39.0774 88.6948 39.7224C88.2193 40.3635 87.8378 41.1512 87.5522 42.0836C87.2649 43.0178 87.122 44.0616 87.122 45.2187C87.122 46.3914 87.2649 47.4391 87.5522 48.3616C87.8378 49.2842 88.2193 50.0699 88.6948 50.7149C89.1737 51.356 89.7316 51.8486 90.3684 52.1926C91.0086 52.5366 91.6925 52.7086 92.4184 52.7086Z" fill="#64BFD9" fill-opacity="0.4"/>
<path d="M0 30.2311H13.8794L13.5904 31.8964H2.28523V40.7232H10.7271L10.4449 42.3885H2.28523V51.8721H14.3096V53.5374H0V30.2311Z" fill="white"/>
<path d="M23.8915 54.0377C22.8195 54.0377 21.8214 53.811 20.8939 53.3576C19.9697 52.9002 19.1698 52.2767 18.4944 51.489C17.8172 50.7033 17.2812 49.7729 16.888 48.6979C16.4981 47.6189 16.3032 46.4599 16.3032 45.2187C16.3032 43.9737 16.4981 42.8146 16.888 41.7396C17.2812 40.6607 17.8172 39.7283 18.4944 38.9406C19.1698 38.1549 19.9697 37.5334 20.8939 37.0799C21.8214 36.6225 22.8195 36.3919 23.8915 36.3919C24.6342 36.3919 25.303 36.5326 25.8945 36.8141C26.4859 37.0916 26.98 37.3926 27.3799 37.721C27.8588 38.1236 28.2688 38.5693 28.6099 39.0579H28.7577V29.5665H30.9018V49.3781C30.9018 50.0876 30.9186 50.6974 30.9556 51.2075C30.9959 51.7196 31.0446 52.1516 31.1035 52.5054C31.1791 52.908 31.2547 53.252 31.332 53.5374H29.1812C29.1274 53.2716 29.0804 53.0057 29.04 52.7399C28.9459 52.2298 28.8989 51.6649 28.8989 51.0433H28.7577C28.3713 51.618 27.9327 52.1145 27.4404 52.5366C27.0186 52.9178 26.5078 53.2618 25.9079 53.5686C25.3064 53.8814 24.6342 54.0377 23.8915 54.0377ZM23.8915 52.7086C24.6342 52.7086 25.3064 52.5366 25.9079 52.1926C26.5078 51.8486 27.0186 51.4655 27.4404 51.0433C27.9327 50.5547 28.3713 49.9996 28.7577 49.3781V41.0516C28.3713 40.432 27.9327 39.8769 27.4404 39.3863C27.0186 38.9641 26.5078 38.581 25.9079 38.237C25.3064 37.893 24.6342 37.721 23.8915 37.721C23.1656 37.721 22.4818 37.893 21.8415 38.237C21.2047 38.581 20.6468 39.0775 20.168 39.7225C19.6924 40.3636 19.311 41.1513 19.0253 42.0836C18.738 43.0179 18.5952 44.0616 18.5952 45.2187C18.5952 46.3915 18.738 47.4391 19.0253 48.3617C19.311 49.2842 19.6924 50.07 20.168 50.715C20.6468 51.3561 21.2047 51.8486 21.8415 52.1926C22.4818 52.5366 23.1656 52.7086 23.8915 52.7086Z" fill="white"/>
<path d="M35.4785 41.0515C35.4785 40.344 35.4533 39.7342 35.4046 39.2221C35.3542 38.7119 35.3037 38.28 35.25 37.9242C35.1727 37.5235 35.1055 37.1795 35.0483 36.8922H37.1924C37.2328 37.158 37.2798 37.4239 37.3336 37.6897C37.3739 37.936 37.4075 38.2096 37.4344 38.5106C37.4646 38.8077 37.4814 39.1009 37.4814 39.3862H37.6226C38.0023 38.8351 38.4426 38.3366 38.94 37.893C39.36 37.5138 39.8675 37.1698 40.459 36.8609C41.0504 36.5482 41.7259 36.3918 42.4888 36.3918C43.4785 36.3918 44.364 36.5541 45.1437 36.8766C45.9267 37.201 46.5904 37.6467 47.1332 38.2135C47.6793 38.7764 48.091 39.4566 48.3699 40.2541C48.6472 41.0515 48.7866 41.9272 48.7866 42.881V53.5373H46.6358V42.881C46.6358 42.1305 46.5249 41.4405 46.3065 40.8092C46.0863 40.1739 45.7906 39.6286 45.4193 39.1752C45.0462 38.7178 44.6077 38.3601 44.1019 38.104C43.5995 37.85 43.0618 37.721 42.4888 37.721C41.7259 37.721 41.0504 37.893 40.459 38.237C39.8675 38.581 39.36 38.9641 38.94 39.3862C38.4426 39.8768 38.0023 40.4319 37.6226 41.0515V53.5373H35.4785V41.0515Z" fill="white"/>
<path d="M59.3679 54.0377C58.3547 54.0377 57.4624 53.8755 56.6928 53.553C55.9216 53.2305 55.2629 52.7868 54.7168 52.2239C54.174 51.657 53.764 50.9729 53.4868 50.1755C53.2079 49.378 53.0701 48.5024 53.0701 47.5485V36.8922H55.2209V47.5485C55.2209 48.2991 55.3301 48.993 55.5502 49.6282C55.7687 50.2595 56.0644 50.8048 56.4374 51.2622C56.8088 51.7157 57.2457 52.0714 57.7481 52.3255C58.2538 52.5815 58.7932 52.7086 59.3679 52.7086C60.1106 52.7086 60.7827 52.5366 61.3843 52.1926C61.9842 51.8486 62.495 51.4655 62.9167 51.0433C63.4141 50.5547 63.8527 49.9996 64.2341 49.378V36.8922H66.3782V49.378C66.3782 50.0875 66.395 50.6973 66.432 51.2075C66.4723 51.7196 66.521 52.1515 66.5798 52.5053C66.6554 52.908 66.7311 53.252 66.8083 53.5373H64.6643C64.6054 53.2715 64.5584 53.0057 64.5231 52.7399C64.424 52.2297 64.3752 51.6649 64.3752 51.0433H64.2341C63.8527 51.6179 63.4141 52.1144 62.9167 52.5366C62.495 52.9177 61.9842 53.2617 61.3843 53.5686C60.7827 53.8813 60.1106 54.0377 59.3679 54.0377Z" fill="white"/>
<path d="M68.9551 36.8922H71.3882L76.5367 50.2067H76.6778L81.833 36.8922H83.4058L76.9668 53.5373H75.3941L68.9551 36.8922Z" fill="white"/>
<path d="M92.4184 54.0377C91.3463 54.0377 90.3482 53.811 89.4207 53.3575C88.4965 52.9001 87.6967 52.2766 87.0212 51.4889C86.344 50.7032 85.808 49.7728 85.4148 48.6978C85.025 47.6189 84.8301 46.4598 84.8301 45.2187C84.8301 43.9736 85.025 42.8146 85.4148 41.7396C85.808 40.6606 86.344 39.7283 87.0212 38.9406C87.6967 38.1549 88.4965 37.5333 89.4207 37.0799C90.3482 36.6225 91.3463 36.3918 92.4184 36.3918C93.4837 36.3918 94.4785 36.6225 95.4026 37.0799C96.3302 37.5333 97.1317 38.1549 97.8089 38.9406C98.4843 39.7283 99.0187 40.6606 99.4085 41.7396C99.8017 42.8146 100 43.9736 100 45.2187C100 46.4598 99.8017 47.6189 99.4085 48.6978C99.0187 49.7728 98.4843 50.7032 97.8089 51.4889C97.1317 52.2766 96.3302 52.9001 95.4026 53.3575C94.4785 53.811 93.4837 54.0377 92.4184 54.0377ZM92.4184 52.7086C93.1208 52.7086 93.7979 52.5366 94.4482 52.1926C95.0968 51.8486 95.6597 51.356 96.1353 50.7149C96.6141 50.0699 96.9956 49.2842 97.2779 48.3616C97.5635 47.4391 97.708 46.3914 97.708 45.2187C97.708 44.0616 97.5635 43.0178 97.2779 42.0836C96.9956 41.1512 96.6141 40.3635 96.1353 39.7224C95.6597 39.0774 95.0968 38.581 94.4482 38.237C93.7979 37.893 93.1208 37.721 92.4184 37.721C91.6925 37.721 91.0086 37.893 90.3684 38.237C89.7316 38.581 89.1737 39.0774 88.6948 39.7224C88.2193 40.3635 87.8378 41.1512 87.5522 42.0836C87.2649 43.0178 87.122 44.0616 87.122 45.2187C87.122 46.3914 87.2649 47.4391 87.5522 48.3616C87.8378 49.2842 88.2193 50.0699 88.6948 50.7149C89.1737 51.356 89.7316 51.8486 90.3684 52.1926C91.0086 52.5366 91.6925 52.7086 92.4184 52.7086Z" fill="white"/>
<mask id="mask0_284_6429" style="mask-type:luminance" maskUnits="userSpaceOnUse" x="22" y="0" width="65" height="27">
<path d="M22.7551 0H86.2913V26.8851H22.7551V0Z" fill="white"/>
</mask>
<g mask="url(#mask0_284_6429)">
<path d="M73.1815 23.3727C73.321 22.3446 73.7696 19.4108 74.4737 18.2166C74.4737 18.2166 74.7106 19.3483 73.8385 23.5213C73.815 23.6327 73.9293 23.7128 74.0032 23.6366C77.6428 19.7861 74.8602 15.4704 74.8602 15.4704C74.8602 15.4704 70.8778 18.2361 72.9916 23.406C73.0337 23.5096 73.1647 23.4861 73.1815 23.3727ZM75.0887 24.9833C76.4565 24.094 80.4119 21.6371 82.5879 21.471C82.5879 21.471 81.5058 23.0737 75.6247 26.1971C75.4668 26.2792 75.497 26.5509 75.6684 26.5841C84.1624 28.2416 86.2544 19.1176 86.2544 19.1176C86.2544 19.1176 78.6711 15.7362 74.845 24.7155C74.7694 24.8954 74.9375 25.083 75.0887 24.9833ZM36.1507 7.93751C38.2645 2.76767 34.2822 0.00195312 34.2822 0.00195312C34.2822 0.00195312 31.4996 4.31764 35.1391 8.16815C35.2131 8.24438 35.3273 8.16619 35.3038 8.05283C34.4317 3.87787 34.6686 2.74812 34.6686 2.74812C35.3727 3.94237 35.8213 6.87618 35.9608 7.90428C35.9776 8.01765 36.1087 8.0411 36.1507 7.93751ZM34.0536 9.51485C32.6859 8.62552 28.7304 6.16862 26.5561 6.00248C26.5561 6.00248 27.6365 7.60523 33.5176 10.7267C33.6756 10.8107 33.6453 11.0805 33.4739 11.1137C24.9816 12.7731 22.8879 3.64918 22.8879 3.64918C22.8879 3.64918 30.4712 0.267775 34.2973 9.24707C34.3729 9.42689 34.2049 9.61257 34.0536 9.51485Z" fill="#5BBB7B"/>
</g>
<path d="M60.4601 23.8262V22.1492C60.4601 21.9791 60.3407 21.8423 60.1962 21.8423H58.7545C58.6083 21.8423 58.4907 21.9791 58.4907 22.1492V23.8262C58.4907 23.9963 58.6083 24.1331 58.7545 24.1331H60.1962C60.3407 24.1331 60.4601 23.9963 60.4601 23.8262ZM57.7631 23.8262V22.1492C57.7631 21.9791 57.6455 21.8423 57.4993 21.8423H56.0576C55.9131 21.8423 55.7938 21.9791 55.7938 22.1492V23.8262C55.7938 23.9963 55.9131 24.1331 56.0576 24.1331H57.4993C57.6455 24.1331 57.7631 23.9963 57.7631 23.8262ZM60.4601 20.822V19.145C60.4601 18.975 60.3407 18.8381 60.1962 18.8381H58.7545C58.6083 18.8381 58.4907 18.975 58.4907 19.145V20.822C58.4907 20.9901 58.6083 21.127 58.7545 21.127H60.1962C60.3407 21.127 60.4601 20.9901 60.4601 20.822ZM57.7631 20.822V19.145C57.7631 18.975 57.6455 18.8381 57.4993 18.8381H56.0576C55.9131 18.8381 55.7938 18.975 55.7938 19.145V20.822C55.7938 20.9901 55.9131 21.127 56.0576 21.127H57.4993C57.6455 21.127 57.7631 20.9901 57.7631 20.822ZM40.8659 23.8262V22.1492C40.8659 21.9791 40.7482 21.8423 40.6021 21.8423H39.1603C39.0158 21.8423 38.8982 21.9791 38.8982 22.1492V23.8262C38.8982 23.9963 39.0158 24.1331 39.1603 24.1331H40.6021C40.7482 24.1331 40.8659 23.9963 40.8659 23.8262ZM38.1706 23.8262V22.1492C38.1706 21.9791 38.0513 21.8423 37.9068 21.8423H36.4651C36.3189 21.8423 36.2013 21.9791 36.2013 22.1492V23.8262C36.2013 23.9963 36.3189 24.1331 36.4651 24.1331H37.9068C38.0513 24.1331 38.1706 23.9963 38.1706 23.8262ZM40.8659 20.822V19.145C40.8659 18.975 40.7482 18.8381 40.6021 18.8381H39.1603C39.0158 18.8381 38.8982 18.975 38.8982 19.145V20.822C38.8982 20.9901 39.0158 21.127 39.1603 21.127H40.6021C40.7482 21.127 40.8659 20.9901 40.8659 20.822ZM38.1706 20.822V19.145C38.1706 18.975 38.0513 18.8381 37.9068 18.8381H36.4651C36.3189 18.8381 36.2013 18.975 36.2013 19.145V20.822C36.2013 20.9901 36.3189 21.127 36.4651 21.127H37.9068C38.0513 21.127 38.1706 20.9901 38.1706 20.822ZM58.4353 8.47111L74.279 26.4258C74.7041 26.9086 74.41 27.7471 73.8169 27.7471H70.6293C70.4579 27.7471 70.2916 27.6689 70.1672 27.5282L58.4353 14.2332C58.1782 13.942 57.7682 13.942 57.5111 14.2332L51.2822 21.2931C51.015 21.5941 51.015 22.0925 51.2822 22.3955L54.8377 26.4258C55.2645 26.9086 54.9705 27.7471 54.3773 27.7471H51.1897C51.0167 27.7471 50.852 27.6689 50.7277 27.5282L48.2542 24.7234L45.7119 21.8443L38.9957 14.2332C38.7386 13.942 38.3286 13.942 38.0715 14.2332L26.3395 27.5282C26.2152 27.6689 26.0505 27.7471 25.8774 27.7471H22.6916C22.0967 27.7471 21.8043 26.9086 22.2295 26.4258L38.0715 8.47111C38.3286 8.17988 38.7386 8.17988 38.9957 8.47111L47.7921 18.4394C48.0492 18.7306 48.4592 18.7306 48.7146 18.4394L57.5111 8.47111C57.7682 8.17988 58.1782 8.17988 58.4353 8.47111Z" fill="white"/>
<path d="M24.1173 61.0916C24.2147 60.8063 24.3525 60.5971 24.5273 60.4662C24.702 60.3313 24.8986 60.2629 25.1188 60.2629C25.396 60.2629 25.6061 60.3528 25.7506 60.5287C25.8211 60.6225 25.8732 60.7378 25.9051 60.8727C25.9354 61.0095 25.9522 61.1933 25.9522 61.4278V63.2651C25.9522 63.4527 25.9858 63.5837 26.053 63.656C26.1202 63.7303 26.2362 63.7655 26.4025 63.7655V63.9062C26.0396 63.8867 25.8043 63.8749 25.6968 63.8749C25.5842 63.8749 25.3624 63.8867 25.0314 63.9062V63.7655C25.1793 63.7655 25.2801 63.7303 25.3338 63.656C25.391 63.5837 25.4212 63.4527 25.4212 63.2651V61.2793C25.4212 61.0252 25.3893 60.8297 25.3271 60.6929C25.2633 60.558 25.1356 60.4896 24.944 60.4896C24.7827 60.4896 24.6382 60.5424 24.5138 60.646C24.3878 60.7515 24.2887 60.9001 24.2181 61.0916C24.1509 61.2793 24.1173 61.4943 24.1173 61.7327V63.2651C24.1173 63.4527 24.1442 63.5837 24.1979 63.656C24.2551 63.7303 24.3593 63.7655 24.5071 63.7655V63.9062C24.1744 63.8867 23.9526 63.8749 23.8417 63.8749C23.7342 63.8749 23.4989 63.8867 23.136 63.9062V63.7655C23.3007 63.7655 23.4149 63.7303 23.4788 63.656C23.546 63.5837 23.5796 63.4527 23.5796 63.2651V59.3481C23.5796 59.1351 23.546 58.9807 23.4788 58.8869C23.4149 58.7891 23.3007 58.7383 23.136 58.7383V58.5976C23.2603 58.6093 23.3813 58.6132 23.4989 58.6132C23.7493 58.6132 23.956 58.582 24.1173 58.5194V61.0916Z" fill="white"/>
<path d="M29.3245 60.2628C29.7278 60.2628 30.0521 60.4192 30.2991 60.7319C30.5444 61.0407 30.6687 61.5098 30.6687 62.1392C30.6687 62.7647 30.5444 63.2318 30.2991 63.5387C30.0521 63.8475 29.7278 64 29.3245 64C28.9212 64 28.5952 63.8475 28.3499 63.5387C28.1029 63.2318 27.9802 62.7647 27.9802 62.1392C27.9802 61.5098 28.1029 61.0407 28.3499 60.7319C28.5952 60.4192 28.9212 60.2628 29.3245 60.2628ZM29.3245 60.4035C29.0859 60.4035 28.8977 60.5443 28.7599 60.8257C28.6255 61.1072 28.5583 61.545 28.5583 62.1392C28.5583 62.7295 28.6255 63.1634 28.7599 63.4449C28.8977 63.7263 29.0859 63.867 29.3245 63.867C29.5614 63.867 29.7496 63.7263 29.8891 63.4449C30.0269 63.1634 30.0974 62.7295 30.0974 62.1392C30.0974 61.545 30.0269 61.1072 29.8891 60.8257C29.7496 60.5443 29.5614 60.4035 29.3245 60.4035Z" fill="white"/>
<path d="M36.8696 63.265C36.8696 63.4527 36.9032 63.5836 36.9704 63.656C37.0377 63.7302 37.1536 63.7654 37.3199 63.7654V63.9061C36.957 63.8866 36.7218 63.8749 36.6142 63.8749C36.5016 63.8749 36.2798 63.8866 35.9488 63.9061V63.7654C36.0967 63.7654 36.1975 63.7302 36.2513 63.656C36.3084 63.5836 36.3386 63.4527 36.3386 63.265V61.2792C36.3386 61.1033 36.3286 60.9626 36.3118 60.857C36.2933 60.7476 36.2513 60.6596 36.1841 60.5912C36.1202 60.5247 36.0227 60.4895 35.8883 60.4895C35.7404 60.4895 35.6027 60.5443 35.4783 60.6537C35.3573 60.7632 35.2599 60.9156 35.1893 61.1072C35.1221 61.2948 35.0885 61.504 35.0885 61.7327V63.265C35.0885 63.4527 35.1221 63.5836 35.1893 63.656C35.2565 63.7302 35.3725 63.7654 35.5388 63.7654V63.9061C35.1759 63.8866 34.9406 63.8749 34.8331 63.8749C34.7205 63.8749 34.4987 63.8866 34.1677 63.9061V63.7654C34.3155 63.7654 34.4164 63.7302 34.4701 63.656C34.5273 63.5836 34.5575 63.4527 34.5575 63.265V61.2792C34.5575 61.1033 34.5474 60.9626 34.5306 60.857C34.5121 60.7476 34.4701 60.6596 34.4029 60.5912C34.3391 60.5247 34.2416 60.4895 34.1072 60.4895C33.9593 60.4895 33.8215 60.5443 33.6972 60.6537C33.5762 60.7632 33.4821 60.9156 33.4149 61.1072C33.3477 61.3007 33.3141 61.5118 33.3141 61.7405V63.265C33.3141 63.4527 33.341 63.5836 33.3947 63.656C33.4519 63.7302 33.556 63.7654 33.7039 63.7654V63.9061C33.3712 63.8866 33.1494 63.8749 33.0385 63.8749C32.9259 63.8749 32.6907 63.8866 32.3328 63.9061V63.7654C32.4941 63.7654 32.6083 63.7302 32.6755 63.656C32.7428 63.5836 32.7764 63.4527 32.7764 63.265V61.115C32.7764 60.902 32.7428 60.7476 32.6755 60.6537C32.6083 60.556 32.4941 60.5052 32.3328 60.5052V60.3645C32.4571 60.3762 32.5781 60.3801 32.6957 60.3801C32.9461 60.3801 33.1528 60.3488 33.3141 60.2863V61.0994C33.4082 60.814 33.5392 60.6029 33.7106 60.4661C33.8854 60.3312 34.0753 60.2628 34.2819 60.2628C34.5508 60.2628 34.7541 60.3527 34.8936 60.5286C34.991 60.6498 35.0549 60.8316 35.0818 61.0759C35.1792 60.7906 35.3136 60.5834 35.485 60.4583C35.6598 60.3293 35.8513 60.2628 36.0631 60.2628C36.3319 60.2628 36.5352 60.3527 36.6747 60.5286C36.7453 60.6225 36.7957 60.7397 36.8226 60.8805C36.8528 61.0212 36.8696 61.2049 36.8696 61.4277V63.265Z" fill="white"/>
<path d="M41.3573 63.0774C41.2901 63.3334 41.1574 63.5524 40.9608 63.7341C40.7625 63.91 40.5273 64 40.255 64C39.9727 64 39.7274 63.9257 39.5224 63.781C39.3208 63.6305 39.1628 63.4214 39.0519 63.1556C38.9444 62.8859 38.8906 62.5731 38.8906 62.2174C38.8906 61.8226 38.9461 61.4786 39.0587 61.1854C39.1696 60.8883 39.3275 60.6615 39.5291 60.5052C39.7308 60.3449 39.9627 60.2628 40.2282 60.2628C40.5861 60.2628 40.86 60.3879 41.0482 60.6381C41.2397 60.8883 41.3372 61.2694 41.3372 61.7796H39.4821C39.472 61.9105 39.4687 62.0571 39.4687 62.2174C39.4687 62.5203 39.5107 62.7862 39.5964 63.0149C39.6804 63.2396 39.793 63.4116 39.9324 63.5309C40.0702 63.652 40.2164 63.7107 40.3693 63.7107C40.5609 63.7107 40.7289 63.6599 40.8734 63.5543C41.0213 63.4507 41.1439 63.2729 41.2431 63.0227L41.3573 63.0774ZM40.208 60.3957C40.0198 60.3957 39.8585 60.5032 39.7241 60.7163C39.593 60.9254 39.5123 61.2362 39.4821 61.6467H40.7659C40.7743 61.2929 40.7289 60.9958 40.6314 60.7554C40.5373 60.5169 40.3962 60.3957 40.208 60.3957Z" fill="white"/>
<path d="M46.7417 60.2628C46.8845 60.2628 47.0106 60.2902 47.1181 60.341C47.229 60.3938 47.3197 60.4544 47.387 60.5208C47.4306 60.558 47.4676 60.5755 47.4945 60.5755C47.5651 60.5755 47.6088 60.4739 47.6222 60.2706H47.7566C47.7432 60.4954 47.7365 60.8863 47.7365 61.4434H47.602C47.5567 61.1424 47.471 60.8922 47.3466 60.6928C47.2256 60.4954 47.0408 60.3957 46.7955 60.3957C46.651 60.3957 46.535 60.4426 46.446 60.5365C46.3552 60.6303 46.3116 60.7612 46.3116 60.9274C46.3116 61.0896 46.3586 61.2245 46.4527 61.3339C46.5468 61.4395 46.698 61.5665 46.9097 61.717C46.945 61.7444 46.9971 61.7835 47.0643 61.8343C47.2475 61.975 47.3937 62.0982 47.5012 62.2018C47.6121 62.3073 47.7029 62.4285 47.7701 62.5692C47.8406 62.706 47.8776 62.8624 47.8776 63.0383C47.8776 63.3413 47.7785 63.5778 47.5819 63.7498C47.3886 63.9159 47.1517 64 46.8694 64C46.6896 64 46.5334 63.9687 46.3989 63.9061C46.3132 63.8553 46.2326 63.7928 46.157 63.7185C46.1385 63.7029 46.12 63.695 46.1032 63.695C46.0763 63.695 46.0511 63.7185 46.0293 63.7654C46.0057 63.8084 45.9906 63.871 45.9822 63.953H45.8411C45.8579 63.6931 45.8679 63.2338 45.8679 62.577H46.0024C46.0461 63.0109 46.125 63.3334 46.2376 63.5465C46.3536 63.7615 46.5485 63.867 46.8224 63.867C46.9602 63.867 47.0845 63.8162 47.192 63.7107C47.2996 63.6012 47.3534 63.4351 47.3534 63.2103C47.3534 63.0344 47.2996 62.8819 47.192 62.7568C47.0879 62.6318 46.9181 62.4832 46.6812 62.3112C46.488 62.1705 46.3384 62.0532 46.2309 61.9594C46.1267 61.8656 46.0393 61.7542 45.9688 61.6232C45.9016 61.4883 45.8679 61.332 45.8679 61.1541C45.8679 60.8687 45.9503 60.6498 46.1166 60.4974C46.2813 60.341 46.4897 60.2628 46.7417 60.2628Z" fill="white"/>
<path d="M52.1032 63.0774C52.036 63.3334 51.9032 63.5524 51.7066 63.7341C51.5083 63.91 51.2731 64 51.0009 64C50.7186 64 50.4733 63.9257 50.2683 63.781C50.0666 63.6305 49.9087 63.4214 49.7978 63.1556C49.6902 62.8859 49.6365 62.5731 49.6365 62.2174C49.6365 61.8226 49.6919 61.4786 49.8045 61.1854C49.9154 60.8883 50.0734 60.6615 50.275 60.5052C50.4766 60.3449 50.7085 60.2628 50.974 60.2628C51.3319 60.2628 51.6058 60.3879 51.794 60.6381C51.9856 60.8883 52.083 61.2694 52.083 61.7796H50.2279C50.2179 61.9105 50.2145 62.0571 50.2145 62.2174C50.2145 62.5203 50.2565 62.7862 50.3422 63.0149C50.4262 63.2396 50.5388 63.4116 50.6783 63.5309C50.8161 63.652 50.9622 63.7107 51.1152 63.7107C51.3067 63.7107 51.4747 63.6599 51.6192 63.5543C51.7671 63.4507 51.8898 63.2729 51.9889 63.0227L52.1032 63.0774ZM50.9538 60.3957C50.7656 60.3957 50.6043 60.5032 50.4699 60.7163C50.3388 60.9254 50.2582 61.2362 50.2279 61.6467H51.5117C51.5201 61.2929 51.4747 60.9958 51.3773 60.7554C51.2832 60.5169 51.142 60.3957 50.9538 60.3957Z" fill="white"/>
<path d="M55.5827 60.2628C55.739 60.2628 55.8667 60.3175 55.9658 60.427C56.0683 60.5325 56.1204 60.6596 56.1204 60.8101C56.1204 60.9313 56.0885 61.0329 56.0263 61.115C55.9675 61.1991 55.8868 61.2401 55.7843 61.2401C55.6987 61.2401 55.6247 61.2088 55.5625 61.1463C55.4987 61.0837 55.4684 60.9977 55.4684 60.8883C55.4684 60.7378 55.5357 60.6127 55.6701 60.513C55.6432 60.4661 55.6029 60.4426 55.5491 60.4426C55.3962 60.4426 55.255 60.513 55.1257 60.6537C54.9996 60.7945 54.9005 60.9665 54.8299 61.1697C54.7627 61.3691 54.7291 61.5587 54.7291 61.7405V63.1947C54.7291 63.4097 54.7795 63.5582 54.8837 63.6403C54.9862 63.7244 55.1425 63.7654 55.3542 63.7654V63.9061L55.213 63.8983C54.8098 63.8827 54.551 63.8749 54.4401 63.8749C54.3359 63.8749 54.1057 63.8866 53.7478 63.9061V63.7654C53.9091 63.7654 54.0234 63.7302 54.0906 63.656C54.1578 63.5836 54.1914 63.4527 54.1914 63.265V61.115C54.1914 60.902 54.1578 60.7476 54.0906 60.6537C54.0234 60.556 53.9091 60.5052 53.7478 60.5052V60.3645C53.8721 60.3762 53.9931 60.3801 54.1108 60.3801C54.3611 60.3801 54.5678 60.3488 54.7291 60.2863V61.1463C54.7963 60.9176 54.9072 60.7143 55.0652 60.5365C55.2214 60.3547 55.3945 60.2628 55.5827 60.2628Z" fill="white"/>
<path d="M59.8429 60.3801C60.0177 60.3801 60.1672 60.3762 60.2932 60.3645V60.4974C60.2126 60.5091 60.1403 60.5502 60.0781 60.6225C60.0193 60.6968 59.9605 60.816 59.9034 60.9821L58.9355 63.9375H58.8347L57.7459 60.8961C57.687 60.7398 57.6282 60.6362 57.5711 60.5834C57.5173 60.5326 57.4602 60.5052 57.4031 60.5052V60.3645C57.6081 60.3801 57.7828 60.388 57.9273 60.388C58.2264 60.388 58.4818 60.3801 58.6936 60.3645V60.5052C58.5491 60.5052 58.4449 60.5189 58.3777 60.5443C58.3104 60.5717 58.2768 60.6362 58.2768 60.7398C58.2768 60.8082 58.297 60.9098 58.3373 61.0447L59.07 63.1322L59.7152 61.1463C59.7589 61.0115 59.7824 60.904 59.7824 60.8258C59.7824 60.7222 59.7454 60.646 59.6749 60.5991C59.6077 60.5482 59.4968 60.513 59.3455 60.4974V60.3645C59.5505 60.3762 59.7169 60.3801 59.8429 60.3801Z" fill="white"/>
<path d="M62.3679 58.6445C62.4704 58.6445 62.5578 58.6895 62.6301 58.7774C62.7057 58.8615 62.7443 58.9631 62.7443 59.0824C62.7443 59.2035 62.7057 59.3071 62.6301 59.3951C62.5578 59.4791 62.4704 59.5202 62.3679 59.5202C62.2637 59.5202 62.1747 59.4791 62.0991 59.3951C62.0268 59.3071 61.9915 59.2035 61.9915 59.0824C61.9915 58.9631 62.0268 58.8615 62.0991 58.7774C62.1747 58.6895 62.2637 58.6445 62.3679 58.6445ZM62.6771 63.2651C62.6771 63.4528 62.7107 63.5837 62.7779 63.656C62.8451 63.7303 62.9594 63.7655 63.1207 63.7655V63.9062C62.7611 63.8867 62.5242 63.875 62.4083 63.875C62.2906 63.875 62.0537 63.8867 61.6958 63.9062V63.7655C61.8571 63.7655 61.9714 63.7303 62.0386 63.656C62.1058 63.5837 62.1394 63.4528 62.1394 63.2651V61.1151C62.1394 60.9021 62.1058 60.7476 62.0386 60.6538C61.9714 60.5561 61.8571 60.5053 61.6958 60.5053V60.3646C61.8201 60.3763 61.9411 60.3802 62.0587 60.3802C62.3091 60.3802 62.5158 60.3489 62.6771 60.2864V63.2651Z" fill="white"/>
<path d="M66.1199 60.2628C66.3787 60.2628 66.6072 60.339 66.8055 60.4895C66.9887 60.6303 67.0811 60.8062 67.0811 61.0134C67.0811 61.1346 67.0508 61.2303 66.9937 61.3026C66.9349 61.3711 66.8593 61.4043 66.7652 61.4043C66.6744 61.4043 66.5988 61.373 66.5367 61.3105C66.4728 61.2479 66.4426 61.1658 66.4426 61.0603C66.4426 60.9626 66.4644 60.8805 66.5098 60.8179C66.5585 60.7515 66.619 60.7045 66.6912 60.6772C66.6509 60.5951 66.5787 60.5267 66.4762 60.4739C66.377 60.4172 66.2712 60.3879 66.1603 60.3879C66.0124 60.3879 65.8746 60.4426 65.7503 60.5521C65.6242 60.6615 65.5184 60.8414 65.4344 61.0916C65.3537 61.3417 65.3134 61.6701 65.3134 62.0767C65.3134 62.6454 65.3907 63.0598 65.5486 63.3198C65.7049 63.5758 65.9116 63.7029 66.167 63.7029C66.3317 63.7029 66.4913 63.6462 66.6442 63.5309C66.7954 63.4175 66.9214 63.2396 67.0206 62.9992L67.1348 63.0461C67.0676 63.308 66.9416 63.5309 66.7585 63.7185C66.5736 63.9061 66.3367 64 66.046 64C65.799 64 65.5772 63.9257 65.3806 63.781C65.1823 63.6364 65.026 63.4253 64.9101 63.1478C64.7925 62.8722 64.7354 62.5497 64.7354 62.1783C64.7354 61.8089 64.7925 61.4805 64.9101 61.1932C65.026 60.902 65.189 60.6752 65.4008 60.513C65.6108 60.3469 65.8511 60.2628 66.1199 60.2628Z" fill="white"/>
<path d="M71.2885 63.0774C71.2213 63.3334 71.0885 63.5524 70.8919 63.7341C70.6937 63.91 70.4584 64 70.1862 64C69.9039 64 69.6586 63.9257 69.4536 63.781C69.2519 63.6305 69.094 63.4214 68.9831 63.1556C68.8755 62.8859 68.8218 62.5731 68.8218 62.2174C68.8218 61.8226 68.8772 61.4786 68.9898 61.1854C69.1007 60.8883 69.2587 60.6615 69.4603 60.5052C69.6619 60.3449 69.8938 60.2628 70.1593 60.2628C70.5172 60.2628 70.7911 60.3879 70.9793 60.6381C71.1709 60.8883 71.2683 61.2694 71.2683 61.7796H69.4132C69.4032 61.9105 69.3998 62.0571 69.3998 62.2174C69.3998 62.5203 69.4418 62.7862 69.5275 63.0149C69.6115 63.2396 69.7241 63.4116 69.8636 63.5309C70.0014 63.652 70.1475 63.7107 70.3005 63.7107C70.492 63.7107 70.66 63.6599 70.8046 63.5543C70.9524 63.4507 71.0751 63.2729 71.1742 63.0227L71.2885 63.0774ZM70.1391 60.3957C69.951 60.3957 69.7896 60.5032 69.6552 60.7163C69.5241 60.9254 69.4435 61.2362 69.4132 61.6467H70.697C70.7054 61.2929 70.66 60.9958 70.5626 60.7554C70.4685 60.5169 70.3273 60.3957 70.1391 60.3957Z" fill="white"/>
<path d="M73.9878 60.2628C74.1306 60.2628 74.2567 60.2902 74.3642 60.341C74.4751 60.3938 74.5658 60.4544 74.6331 60.5208C74.6767 60.558 74.7137 60.5755 74.7406 60.5755C74.8112 60.5755 74.8549 60.4739 74.8683 60.2706H75.0027C74.9893 60.4954 74.9826 60.8863 74.9826 61.4434H74.8481C74.8028 61.1424 74.7171 60.8922 74.5927 60.6928C74.4717 60.4954 74.2869 60.3957 74.0416 60.3957C73.8971 60.3957 73.7811 60.4426 73.6921 60.5365C73.6013 60.6303 73.5576 60.7612 73.5576 60.9274C73.5576 61.0896 73.6047 61.2245 73.6988 61.3339C73.7929 61.4395 73.9441 61.5665 74.1558 61.717C74.1911 61.7444 74.2432 61.7835 74.3104 61.8343C74.4936 61.975 74.6398 62.0982 74.7473 62.2018C74.8582 62.3073 74.9489 62.4285 75.0162 62.5692C75.0867 62.706 75.1237 62.8624 75.1237 63.0383C75.1237 63.3413 75.0246 63.5778 74.828 63.7498C74.6347 63.9159 74.3978 64 74.1155 64C73.9357 64 73.7794 63.9687 73.645 63.9061C73.5593 63.8553 73.4787 63.7928 73.4031 63.7185C73.3846 63.7029 73.3661 63.695 73.3493 63.695C73.3224 63.695 73.2972 63.7185 73.2754 63.7654C73.2518 63.8084 73.2367 63.871 73.2283 63.953H73.0872C73.104 63.6931 73.114 63.2338 73.114 62.577H73.2485C73.2922 63.0109 73.3711 63.3334 73.4837 63.5465C73.5997 63.7615 73.7946 63.867 74.0685 63.867C74.2062 63.867 74.3306 63.8162 74.4381 63.7107C74.5457 63.6012 74.5994 63.4351 74.5994 63.2103C74.5994 63.0344 74.5457 62.8819 74.4381 62.7568C74.334 62.6318 74.1642 62.4832 73.9273 62.3112C73.7341 62.1705 73.5845 62.0532 73.477 61.9594C73.3728 61.8656 73.2854 61.7542 73.2149 61.6232C73.1476 61.4883 73.114 61.332 73.114 61.1541C73.114 60.8687 73.1964 60.6498 73.3627 60.4974C73.5274 60.341 73.7358 60.2628 73.9878 60.2628Z" fill="white"/>
</svg>
