<svg width="29" height="29" viewBox="0 0 29 29" fill="none" xmlns="http://www.w3.org/2000/svg">
<path fill-rule="evenodd" clip-rule="evenodd" d="M23.8645 14.5007C23.8645 14.0001 23.4588 13.5944 22.9583 13.5944H6.04163C5.54112 13.5944 5.13538 14.0001 5.13538 14.5007C5.13538 15.0012 5.54112 15.4069 6.04163 15.4069H22.9583C23.4588 15.4069 23.8645 15.0012 23.8645 14.5007Z" fill="white"/>
<path fill-rule="evenodd" clip-rule="evenodd" d="M23.8645 8.45898C23.8645 7.95848 23.4588 7.55273 22.9583 7.55273H6.04163C5.54112 7.55273 5.13538 7.95848 5.13538 8.45898C5.13538 8.95949 5.54112 9.36523 6.04163 9.36523H22.9583C23.4588 9.36523 23.8645 8.95949 23.8645 8.45898Z" fill="white"/>
<path fill-rule="evenodd" clip-rule="evenodd" d="M23.8645 20.5423C23.8645 20.0418 23.4588 19.6361 22.9583 19.6361H6.04163C5.54112 19.6361 5.13538 20.0418 5.13538 20.5423C5.13538 21.0428 5.54112 21.4486 6.04163 21.4486H22.9583C23.4588 21.4486 23.8645 21.0428 23.8645 20.5423Z" fill="white"/>
</svg>
