<svg width="17" height="20" viewBox="0 0 17 20" fill="none" xmlns="http://www.w3.org/2000/svg">
<path d="M11.0837 3.18933C11.4618 2.75361 11.75 2.2475 11.9319 1.70007C12.1138 1.15263 12.1858 0.574656 12.1437 -0.000671387C10.9831 0.0930156 9.90571 0.638885 9.14371 1.51933C8.77881 1.9413 8.50229 2.43221 8.33052 2.96297C8.15875 3.49374 8.09523 4.05357 8.14371 4.60933C8.70986 4.61405 9.26949 4.48842 9.77931 4.24219C10.2891 3.99595 10.7354 3.6357 11.0837 3.18933ZM13.6037 10.6293C13.6104 9.86307 13.8123 9.11115 14.1902 8.44453C14.5681 7.77792 15.1096 7.21859 15.7637 6.81933C15.3509 6.22457 14.8053 5.73416 14.17 5.387C13.5347 5.03984 12.8272 4.84548 12.1037 4.81933C10.5437 4.65933 9.10371 5.72933 8.27371 5.72933C7.44371 5.72933 6.27371 4.83933 4.97371 4.85933C4.12384 4.88732 3.29573 5.13511 2.57016 5.57852C1.84458 6.02192 1.24632 6.64581 0.83371 7.38933C-0.92629 10.4493 0.38371 14.9993 2.14371 17.4693C2.94371 18.6793 3.94371 20.0493 5.26371 19.9993C6.58371 19.9493 7.01371 19.1793 8.54371 19.1793C10.0737 19.1793 10.5437 19.9993 11.8437 19.9693C13.1437 19.9393 14.0637 18.7293 14.9037 17.5193C15.4988 16.6409 15.9636 15.6809 16.2837 14.6693C15.4912 14.3313 14.815 13.7686 14.3387 13.0506C13.8625 12.3327 13.6069 11.4909 13.6037 10.6293Z" fill="black"/>
</svg>
